<svg width="32" height="32" viewBox="0 0 32 32" fill="none" xmlns="http://www.w3.org/2000/svg">
<path opacity="0.01" fill-rule="evenodd" clip-rule="evenodd" d="M0 0H32V32H0V0Z" fill="#141124"/>
<path d="M21.3561 21.2618C21.7701 20.8962 21.8092 20.2642 21.4436 19.8503C21.078 19.4364 20.446 19.3972 20.0321 19.7628L21.3561 21.2618ZM15.5 22.4793V21.4793V22.4793ZM7 15.6207L6.08182 15.2245C5.97273 15.4774 5.97273 15.764 6.08182 16.0169L7 15.6207ZM24 15.6207L24.9182 16.0169C25.0273 15.764 25.0273 15.4774 24.9182 15.2245L24 15.6207ZM22.425 16.5955C22.1653 17.0829 22.3498 17.6886 22.8372 17.9483C23.3246 18.2081 23.9303 18.0235 24.19 17.5361L22.425 16.5955ZM18.0347 18.078L18.7095 18.8159C18.914 18.629 19.0317 18.3655 19.0346 18.0885C19.0375 17.8114 18.9253 17.5456 18.7248 17.3543L18.0347 18.078ZM12.9228 13.2029L13.613 12.4792C13.228 12.1121 12.6229 12.1106 12.2362 12.4759L12.9228 13.2029ZM8.0902 7.27187C7.68807 6.89331 7.0552 6.91242 6.67664 7.31456C6.29808 7.71669 6.31719 8.34957 6.71932 8.72813L8.0902 7.27187ZM22.9098 23.9695C23.3119 24.3481 23.9448 24.329 24.3234 23.9268C24.7019 23.5247 24.6828 22.8918 24.2807 22.5133L22.9098 23.9695ZM20.0321 19.7628C18.73 20.913 17.234 21.4793 15.5 21.4793V23.4793C17.7223 23.4793 19.6891 22.7343 21.3561 21.2618L20.0321 19.7628ZM15.5 21.4793C13.878 21.4793 12.4686 20.9838 11.2326 19.9864C9.98006 18.9757 8.86279 17.4138 7.91818 15.2245L6.08182 16.0169C7.11005 18.4 8.39587 20.2674 9.97667 21.5429C11.574 22.8318 13.4282 23.4793 15.5 23.4793V21.4793ZM7.91818 16.0169C8.86279 13.8275 9.98006 12.2656 11.2326 11.255C12.4686 10.2576 13.878 9.76207 15.5 9.76207V7.76207C13.4282 7.76207 11.574 8.40962 9.97667 9.69848C8.39587 10.974 7.11005 12.8414 6.08182 15.2245L7.91818 16.0169ZM15.5 9.76207C17.122 9.76207 18.5314 10.2576 19.7674 11.255C21.0199 12.2656 22.1372 13.8275 23.0818 16.0169L24.9182 15.2245C23.89 12.8414 22.6041 10.974 21.0233 9.69848C19.426 8.40962 17.5718 7.76207 15.5 7.76207V9.76207ZM23.0818 15.2245C22.8717 15.7115 22.6526 16.1683 22.425 16.5955L24.19 17.5361C24.4455 17.0568 24.6881 16.5502 24.9182 16.0169L23.0818 15.2245ZM18.7248 17.3543L13.613 12.4792L12.2327 13.9265L17.3445 18.8017L18.7248 17.3543ZM12.2362 12.4759C11.3958 13.2697 10.8571 14.3817 10.8571 15.6207H12.8571C12.8571 14.9777 13.1345 14.3785 13.6095 13.9299L12.2362 12.4759ZM10.8571 15.6207C10.8571 18.1151 13.0019 20.05 15.5 20.05V18.05C13.9909 18.05 12.8571 16.8985 12.8571 15.6207H10.8571ZM15.5 20.05C16.7366 20.05 17.8713 19.5825 18.7095 18.8159L17.3598 17.34C16.8841 17.7751 16.2287 18.05 15.5 18.05V20.05ZM6.71932 8.72813L22.9098 23.9695L24.2807 22.5133L8.0902 7.27187L6.71932 8.72813ZM24.2807 22.5133L8.0902 7.27187L6.71932 8.72813L22.9098 23.9695L24.2807 22.5133Z" fill="#48937D"/>
</svg>
