<svg width="32" height="32" viewBox="0 0 32 32" fill="none" xmlns="http://www.w3.org/2000/svg">
<path opacity="0.01" fill-rule="evenodd" clip-rule="evenodd" d="M4 5H27V27H4V5Z" fill="#141124"/>
<path d="M24 16.0217L24.9215 16.4101C25.0262 16.1618 25.0262 15.8817 24.9215 15.6334L24 16.0217ZM7 16.0217L6.07849 15.6334C5.97384 15.8817 5.97384 16.1618 6.07849 16.4101L7 16.0217ZM15.5 24.0435C18.7185 24.0435 21.0991 22.0073 22.6026 20.1648C23.3665 19.2286 23.942 18.2975 24.3262 17.6028C24.5189 17.2543 24.6651 16.9622 24.7643 16.7546C24.8139 16.6507 24.8519 16.5678 24.8781 16.5092C24.8912 16.48 24.9014 16.4568 24.9086 16.4401C24.9122 16.4318 24.9151 16.4251 24.9173 16.4201C24.9183 16.4176 24.9192 16.4155 24.9199 16.4138C24.9203 16.413 24.9206 16.4122 24.9209 16.4116C24.921 16.4113 24.9212 16.4109 24.9212 16.4108C24.9214 16.4104 24.9215 16.4101 24 16.0217C23.0785 15.6334 23.0786 15.6331 23.0787 15.6329C23.0787 15.6328 23.0788 15.6326 23.0789 15.6325C23.0789 15.6323 23.079 15.6322 23.079 15.6322C23.079 15.6323 23.0788 15.6327 23.0784 15.6336C23.0777 15.6353 23.0762 15.6387 23.0741 15.6436C23.0698 15.6535 23.0626 15.6698 23.0527 15.6919C23.0329 15.7363 23.0018 15.8042 22.9597 15.8923C22.8754 16.0687 22.7472 16.3252 22.5759 16.635C22.2321 17.2568 21.7214 18.0812 21.053 18.9004C19.6916 20.5688 17.8223 22.0435 15.5 22.0435V24.0435ZM24 16.0217C24.9215 15.6334 24.9214 15.633 24.9212 15.6327C24.9212 15.6325 24.921 15.6322 24.9209 15.6318C24.9206 15.6312 24.9203 15.6305 24.9199 15.6297C24.9192 15.628 24.9183 15.6259 24.9173 15.6234C24.9151 15.6184 24.9122 15.6117 24.9086 15.6033C24.9014 15.5867 24.8912 15.5635 24.8781 15.5342C24.8519 15.4757 24.8139 15.3928 24.7643 15.2889C24.6651 15.0813 24.5189 14.7892 24.3262 14.4407C23.942 13.7459 23.3665 12.8149 22.6026 11.8787C21.0991 10.0362 18.7185 8 15.5 8V10C17.8223 10 19.6916 11.4747 21.053 13.1431C21.7214 13.9623 22.2321 14.7867 22.5759 15.4085C22.7472 15.7182 22.8754 15.9747 22.9597 16.1511C23.0018 16.2393 23.0329 16.3072 23.0527 16.3515C23.0626 16.3737 23.0698 16.3899 23.0741 16.3998C23.0762 16.4048 23.0777 16.4082 23.0784 16.4099C23.0788 16.4108 23.079 16.4112 23.079 16.4112C23.079 16.4113 23.0789 16.4112 23.0789 16.411C23.0788 16.4109 23.0787 16.4107 23.0787 16.4106C23.0786 16.4104 23.0785 16.4101 24 16.0217ZM15.5 8C12.2815 8 9.90087 10.0362 8.39743 11.8787C7.63345 12.8149 7.058 13.7459 6.67384 14.4407C6.48111 14.7892 6.33487 15.0813 6.23568 15.2889C6.18605 15.3928 6.1481 15.4757 6.1219 15.5342C6.10879 15.5635 6.09862 15.5867 6.09138 15.6033C6.08776 15.6117 6.08488 15.6184 6.08273 15.6234C6.08166 15.6259 6.08077 15.628 6.08006 15.6297C6.07971 15.6305 6.0794 15.6312 6.07914 15.6318C6.07901 15.6322 6.07885 15.6325 6.07878 15.6327C6.07863 15.633 6.07849 15.6334 7 16.0217C7.92151 16.4101 7.92139 16.4104 7.92129 16.4106C7.92127 16.4107 7.92117 16.4109 7.92113 16.411C7.92105 16.4112 7.92101 16.4113 7.92102 16.4112C7.92104 16.4112 7.92123 16.4108 7.9216 16.4099C7.92234 16.4082 7.92378 16.4048 7.92593 16.3998C7.93024 16.3899 7.93735 16.3737 7.94728 16.3515C7.96713 16.3072 7.99816 16.2393 8.04027 16.1511C8.12456 15.9747 8.2528 15.7182 8.42408 15.4085C8.76793 14.7867 9.27858 13.9623 9.94701 13.1431C11.3084 11.4747 13.1777 10 15.5 10V8ZM7 16.0217C6.07849 16.4101 6.07863 16.4104 6.07878 16.4108C6.07885 16.4109 6.07901 16.4113 6.07914 16.4116C6.0794 16.4122 6.07971 16.413 6.08006 16.4138C6.08077 16.4155 6.08166 16.4176 6.08273 16.4201C6.08488 16.4251 6.08776 16.4318 6.09138 16.4401C6.09862 16.4568 6.10879 16.48 6.1219 16.5092C6.1481 16.5678 6.18605 16.6507 6.23568 16.7546C6.33487 16.9622 6.48111 17.2543 6.67384 17.6028C7.058 18.2975 7.63345 19.2286 8.39743 20.1648C9.90087 22.0073 12.2815 24.0435 15.5 24.0435V22.0435C13.1777 22.0435 11.3084 20.5688 9.94701 18.9004C9.27858 18.0812 8.76793 17.2568 8.42408 16.635C8.2528 16.3252 8.12456 16.0687 8.04027 15.8923C7.99816 15.8042 7.96713 15.7363 7.94728 15.6919C7.93735 15.6698 7.93024 15.6535 7.92593 15.6436C7.92378 15.6387 7.92234 15.6353 7.9216 15.6336C7.92123 15.6327 7.92104 15.6323 7.92102 15.6322C7.92101 15.6322 7.92105 15.6323 7.92113 15.6325C7.92117 15.6326 7.92127 15.6328 7.92129 15.6329C7.92139 15.6331 7.92151 15.6334 7 16.0217ZM15.6188 18.3478C14.243 18.3478 13.1739 17.266 13.1739 16.0217H11.1739C11.1739 18.4362 13.2052 20.3478 15.6188 20.3478V18.3478ZM13.1739 16.0217C13.1739 14.7775 14.243 13.6957 15.6188 13.6957V11.6957C13.2052 11.6957 11.1739 13.6073 11.1739 16.0217H13.1739ZM15.6188 13.6957C16.9946 13.6957 18.0637 14.7775 18.0637 16.0217H20.0637C20.0637 13.6073 18.0324 11.6957 15.6188 11.6957V13.6957ZM18.0637 16.0217C18.0637 17.266 16.9946 18.3478 15.6188 18.3478V20.3478C18.0324 20.3478 20.0637 18.4362 20.0637 16.0217H18.0637Z" fill="#F7CD0A"/>
</svg>
