<svg width="48" height="48" viewBox="0 0 48 48" fill="none" xmlns="http://www.w3.org/2000/svg">
<path d="M21.4329 0C23.1477 0 24.8873 0 26.6022 0C26.9252 0.275517 27.3229 0.200376 27.6957 0.25047C37.3632 1.7032 45.3657 9.24236 47.4532 18.8604C47.6521 19.7621 47.6769 20.6889 48 21.5655C48 23.3438 48 25.1472 48 26.9256C47.7266 27.151 47.8012 27.5017 47.7515 27.8022C46.1361 38.0966 38.5313 46.0114 28.3915 47.9651C27.8945 48.0653 27.7702 47.9651 27.7702 47.4641C27.7951 42.2293 27.7951 36.9945 27.7702 31.7597C27.7702 31.3088 27.8945 31.1585 28.3418 31.1585C29.7335 31.1836 31.1501 31.1084 32.5419 31.1836C33.2874 31.2337 33.4365 30.9081 33.5359 30.2819C33.7845 28.5035 34.0081 26.7001 34.3312 24.9218C34.4803 24.1453 34.2567 24.0452 33.5857 24.0702C31.846 24.0953 30.0815 24.0702 28.3418 24.0953C27.8945 24.0953 27.7454 23.9951 27.7454 23.5192C27.7702 22.1666 27.7454 20.789 27.7702 19.4365C27.8199 17.2825 29.1868 15.9299 31.2992 15.8798C32.2436 15.8548 33.1632 15.8548 34.1076 15.8798C34.6046 15.9049 34.7289 15.7045 34.704 15.2536C34.6792 13.6506 34.6792 12.0226 34.704 10.4196C34.704 9.99377 34.6295 9.79339 34.1573 9.76835C32.9643 9.69321 31.7714 9.49283 30.5785 9.39264C28.4909 9.24236 26.453 9.44274 24.5643 10.4446C21.582 12.0476 20.4388 14.7527 20.2648 17.9838C20.1654 19.7371 20.2151 21.5154 20.2648 23.2687C20.2897 23.9951 20.0411 24.1203 19.395 24.0953C17.8541 24.0452 16.2884 24.0953 14.7476 24.0702C14.3003 24.0702 14.1511 24.1954 14.1511 24.6463C14.176 26.6 14.176 28.5536 14.1511 30.5323C14.1511 31.0333 14.3003 31.1585 14.7725 31.1585C16.3879 31.1335 18.0281 31.1585 19.6435 31.1585C19.9914 31.1585 20.24 31.1585 20.24 31.6344C20.2151 36.9444 20.2151 42.2544 20.24 47.5643C20.24 48.0152 20.0908 48.0402 19.7181 47.9651C14.7476 47.0133 10.3984 44.7841 6.89427 41.1272C1.3522 35.3163 -0.834801 28.3783 0.283553 20.4133C1.62558 10.7953 9.23039 2.60489 18.6494 0.551035C19.5938 0.375706 20.5382 0.350659 21.4329 0Z" fill="#F7CD0A"/>
</svg>
