<svg width="48" height="48" viewBox="0 0 48 48" fill="none" xmlns="http://www.w3.org/2000/svg">
<path fill-rule="evenodd" clip-rule="evenodd" d="M47.9981 24.2968C48.1648 10.8383 37.3085 0 24.0238 0C10.8344 0 0.168568 10.5763 0.00191415 23.6775C-0.164739 37.0883 10.5725 47.8313 23.6905 47.9981C37.0942 48.1648 47.8553 37.4218 47.9981 24.2968ZM35.7609 15.1736C35.8323 15.388 35.8561 15.6023 35.8561 15.7929C35.8561 16.2455 35.7609 16.6504 35.6656 17.0316C35.4395 18.1273 35.2073 19.2171 34.9752 20.3069C34.7431 21.3967 34.511 22.4864 34.2848 23.5822L33.142 28.9418C32.7768 30.5862 32.4289 32.2479 32.0835 33.8974C32.0236 34.1833 31.9638 34.4689 31.904 34.7539C31.8564 35.0398 31.785 35.3018 31.6898 35.54C31.4041 36.207 30.8565 36.469 30.1661 36.2308C29.9518 36.1593 29.7375 36.0641 29.5471 35.9211C27.7857 34.6113 26.0005 33.3015 24.2153 31.9916L24.2142 31.9908L24.2141 31.9907C24.0713 31.8955 23.9284 31.8002 23.8094 31.7049C23.7142 31.6335 23.6666 31.6335 23.5714 31.7049C23.3214 31.955 23.0654 32.1992 22.8095 32.4434C22.5536 32.6875 22.2976 32.9317 22.0477 33.1818C21.8096 33.4081 21.5775 33.6344 21.3453 33.8607C21.1132 34.087 20.8811 34.3133 20.643 34.5396C20.4049 34.7778 20.1193 34.9445 19.7621 34.9683C19.5717 34.9921 19.5479 34.9921 19.5717 34.8016C19.5955 34.3847 19.6252 33.9738 19.655 33.5629C19.6848 33.152 19.7145 32.7411 19.7383 32.3243C19.774 31.8479 19.8097 31.3774 19.8455 30.907C19.8812 30.4365 19.9169 29.9661 19.9526 29.4896C19.9764 29.3467 19.9764 29.2038 19.9764 29.0609C20.0002 28.9179 20.0478 28.8227 20.1431 28.7274C20.4883 28.4058 20.8394 28.0902 21.1906 27.7746C21.5418 27.4589 21.8929 27.1433 22.2381 26.8218C22.7619 26.3572 23.2797 25.8868 23.7976 25.4163C24.3154 24.9459 24.8332 24.4754 25.3569 24.0109C25.5092 23.873 25.6615 23.735 25.8141 23.5968C27.4272 22.1353 29.0585 20.6573 30.6898 19.1992C30.7613 19.1278 30.8386 19.0623 30.916 18.9968C30.9934 18.9312 31.0708 18.8657 31.1422 18.7943C31.2136 18.7228 31.3088 18.6275 31.2612 18.4846C31.2374 18.3893 31.0946 18.3417 30.9279 18.3655C30.7375 18.3893 30.5708 18.4608 30.4041 18.5561C29.8476 18.9058 29.2927 19.2537 28.7392 19.6008C27.2564 20.5305 25.7829 21.4545 24.3094 22.3912C23.2144 23.0819 22.1253 23.7666 21.0362 24.4514C19.9469 25.1363 18.8576 25.8212 17.7623 26.5121C17.6349 26.594 17.5074 26.6725 17.3814 26.7502C17.1776 26.8757 16.9774 26.999 16.7862 27.1314C16.6671 27.2029 16.5719 27.2267 16.4291 27.1791C15.4886 26.8813 14.5482 26.5895 13.6078 26.2977C12.6674 26.0059 11.727 25.7141 10.7867 25.4163C10.7586 25.407 10.7297 25.3977 10.7002 25.3881C10.5793 25.3491 10.4491 25.307 10.3343 25.2496C10.1677 25.1781 10.0248 25.0829 9.90578 24.9638C9.71532 24.7494 9.69151 24.4874 9.83436 24.2491C9.95339 24.0824 10.0962 23.9633 10.2391 23.8442C10.5248 23.6536 10.8343 23.5107 11.1676 23.3916C13.096 22.6294 15.0244 21.8909 16.9528 21.1525C18.1977 20.6819 19.4346 20.2034 20.6681 19.7261C21.5577 19.3819 22.4455 19.0383 23.3333 18.699C24.226 18.3536 25.1128 18.0142 25.9996 17.6748C26.8865 17.3353 27.7733 16.9959 28.6662 16.6504C29.5709 16.305 30.4756 15.9537 31.3803 15.6023C32.285 15.251 33.1896 14.8996 34.0943 14.5543C34.3562 14.459 34.6419 14.4113 34.9276 14.459C35.3561 14.5304 35.618 14.7686 35.7609 15.1736Z" fill="#498779"/>
</svg>
