<svg width="48" height="48" viewBox="0 0 48 48" fill="none" xmlns="http://www.w3.org/2000/svg">
<path fill-rule="evenodd" clip-rule="evenodd" d="M24 48C37.2548 48 48 37.2548 48 24C48 10.7452 37.2548 0 24 0C10.7452 0 0 10.7452 0 24C0 37.2548 10.7452 48 24 48ZM6.84322 22.5733C7.48215 17.1423 12.6883 13.3087 18.0719 14.3144C22.4498 15.1309 25.7628 18.9408 25.9284 23.3305C26.0941 28.0397 23.1715 32.0508 18.7227 33.1985C18.3886 33.2839 18.0494 33.349 17.7118 33.4137C17.5353 33.4476 17.3592 33.4814 17.1845 33.518H15.4807C15.3328 33.4884 15.1878 33.4588 15.0429 33.4292C14.8979 33.3996 14.753 33.37 14.6051 33.3405C9.50544 32.3229 6.22795 27.7794 6.84322 22.5733ZM40.6712 21.2599C40.6384 20.9812 40.6084 20.7017 40.5783 20.4217L40.5782 20.4216C40.4997 19.6911 40.4209 18.9579 40.2926 18.2309C40.1861 17.5919 39.9731 16.953 39.7246 16.3496C39.6181 16.0893 39.275 15.6988 39.0975 15.7343C38.8372 15.7816 38.5414 16.1011 38.4113 16.3732C38.1865 16.8465 38.0326 17.3553 37.9262 17.8759C37.2399 21.2954 37.2162 24.7267 37.654 28.1698C37.7899 29.2001 38.0882 30.2086 38.3832 31.2058L38.4231 31.3408C38.4941 31.5893 38.8372 31.9325 39.062 31.9325C39.2868 31.9325 39.6181 31.6012 39.701 31.3408C39.9849 30.4889 40.2334 29.6134 40.3991 28.726C40.5166 28.0912 40.5822 27.4461 40.6475 26.8044C40.6808 26.4772 40.7141 26.1508 40.754 25.8271V21.8633C40.7422 21.7628 40.7274 21.6622 40.7126 21.5616C40.6978 21.461 40.683 21.3605 40.6712 21.2599ZM29.5845 15.6751C30.8269 14.3736 32.4597 14.4091 33.7613 15.6515C35.122 16.9412 35.7372 18.6213 36.104 20.408C36.2751 21.2291 36.3658 22.0688 36.4565 22.9091C36.4913 23.2312 36.5261 23.5535 36.5655 23.8748C36.4472 25.9927 36.175 28.0752 35.193 29.9683C34.767 30.7847 34.1872 31.5775 33.5128 32.2046C32.3888 33.2458 30.9926 33.1867 29.7975 32.2283C28.9219 31.5183 28.3422 30.5954 27.9399 29.566C26.4727 25.7443 26.449 21.8988 27.9754 18.1007C28.3303 17.2133 28.9219 16.3732 29.5845 15.6751Z" fill="#F7CD0A"/>
</svg>
