<svg width="48" height="48" viewBox="0 0 48 48" fill="none" xmlns="http://www.w3.org/2000/svg">
<path fill-rule="evenodd" clip-rule="evenodd" d="M24 48C37.2548 48 48 37.2548 48 24C48 10.7452 37.2548 0 24 0C10.7452 0 0 10.7452 0 24C0 37.2548 10.7452 48 24 48ZM37.5223 15.5786C37.5277 15.5758 37.5331 15.573 37.5385 15.573V15.6173C37.0101 16.4374 36.3847 17.1688 35.6622 17.8115C35.4358 18.0221 35.1878 18.2215 34.9398 18.4099C34.8858 18.4543 34.8751 18.4986 34.8751 18.5651C34.9721 21.2136 34.4222 23.718 33.3223 26.1117C32.4812 27.9512 31.3382 29.5802 29.8933 30.9655C27.8984 32.8937 25.5477 34.1348 22.8628 34.7221C21.7413 34.9659 20.6091 35.0768 19.4661 35.0768C17.0292 35.0878 14.7216 34.5338 12.5326 33.4256C12.1121 33.215 11.6916 32.9712 11.2926 32.7164L11.2925 32.7163C11.2279 32.672 11.1632 32.6277 11.0769 32.5723C14.053 32.8826 16.7057 32.118 19.0671 30.2784C19.0184 30.2727 18.9699 30.2671 18.9216 30.2616C18.5951 30.2244 18.2758 30.188 17.9565 30.1011C16.0587 29.5913 14.7647 28.3945 14.0746 26.5106C14.0207 26.3666 14.0315 26.3666 14.1716 26.3887C14.9265 26.5217 15.6705 26.4885 16.4145 26.2779C15.1637 25.9676 14.1177 25.3138 13.309 24.2832C12.5003 23.2415 12.1229 22.0558 12.1121 20.7149C12.8777 21.136 13.6756 21.3798 14.5491 21.4131C14.4754 21.3507 14.4035 21.292 14.3334 21.2347C14.2289 21.1493 14.1283 21.0671 14.0315 20.9809C12.91 19.9724 12.2954 18.698 12.1768 17.1688C12.0905 16.0717 12.317 15.0522 12.8238 14.0881C12.8562 14.0215 12.8723 13.9883 12.8926 13.9856C12.9128 13.9829 12.937 14.0106 12.9855 14.0659C14.3873 15.8057 16.0695 17.1799 18.0428 18.1772C19.4769 18.9086 20.9757 19.3962 22.5608 19.64C23.0353 19.7176 23.499 19.7619 23.9734 19.7951C24.0705 19.8062 24.092 19.7841 24.0705 19.6732C23.5205 16.8585 25.0194 14.1213 27.672 13.2348C29.7531 12.5477 31.6186 13.0021 33.2145 14.5424C33.3331 14.6643 33.4301 14.6865 33.5919 14.6532C34.6917 14.3984 35.7269 13.9883 36.7082 13.4121C36.7405 13.3899 36.7621 13.3788 36.8268 13.3456C36.3955 14.6643 35.6299 15.6617 34.5192 16.4041C34.7176 16.3953 34.916 16.358 35.1144 16.3208C35.164 16.3115 35.2136 16.3022 35.2632 16.2933C36.0181 16.1493 36.7405 15.9165 37.4414 15.6063C37.4522 15.6007 37.463 15.5979 37.4738 15.5952C37.4845 15.5924 37.4953 15.5896 37.5061 15.5841C37.5115 15.5841 37.5169 15.5813 37.5223 15.5786Z" fill="#F7CD0A"/>
</svg>
