<svg width="48" height="48" viewBox="0 0 48 48" fill="none" xmlns="http://www.w3.org/2000/svg">
<path fill-rule="evenodd" clip-rule="evenodd" d="M24 48C37.2548 48 48 37.2548 48 24C48 10.7452 37.2548 0 24 0C10.7452 0 0 10.7452 0 24C0 37.2548 10.7452 48 24 48ZM39.274 17.6509L39.274 17.6511C39.2946 17.9643 39.315 18.2756 39.3238 18.5927C39.401 20.658 39.3876 22.7162 39.3742 24.7675V24.7678L39.3742 24.7683L39.3742 24.7696C39.369 25.5566 39.3639 26.3425 39.3639 27.1274C39.3639 27.9288 39.3506 28.7301 39.3238 29.5315C39.3173 29.682 39.3116 29.8318 39.3058 29.9811L39.3058 29.9813L39.3058 29.9815C39.2882 30.4415 39.2707 30.8976 39.2303 31.3613C39.1369 32.4833 38.9365 33.5785 38.4958 34.6203C38.4334 34.7716 38.3592 34.923 38.285 35.0744L38.2849 35.0746C38.2478 35.1502 38.2108 35.2258 38.1752 35.3014C38.0416 35.5819 37.8947 35.849 37.7211 36.1028C37.2002 36.8641 36.5724 37.5186 35.8379 38.0662C35.4639 38.3467 35.0765 38.5871 34.6625 38.7874C33.8077 39.2015 32.8995 39.4953 31.9512 39.6422C31.9022 39.6497 31.8542 39.6583 31.8071 39.6668C31.6871 39.6883 31.5721 39.709 31.457 39.709H31.4436H31.4303C31.3502 39.7357 31.27 39.7357 31.1899 39.7357C31.0809 39.7654 30.9645 39.7731 30.8517 39.7805H30.8517L30.8514 39.7806C30.8123 39.7831 30.7736 39.7857 30.7358 39.7891L30.6653 39.794C30.303 39.819 29.9509 39.8434 29.5871 39.8559C29.0391 39.882 28.4783 39.8954 27.9296 39.9084L27.9292 39.9084L27.9289 39.9084L27.8909 39.9093C25.3433 39.9494 22.8091 39.9361 20.2616 39.9227H20.2615H20.2614H20.2612H20.2611L20.2511 39.9227C19.423 39.9227 18.5949 39.896 17.7802 39.8559C17.6572 39.8491 17.5334 39.8431 17.4091 39.8371L17.4089 39.8371H17.4089C17.0473 39.8197 16.6821 39.8022 16.3244 39.7624C15.0422 39.6422 13.8134 39.335 12.6648 38.7607C11.7432 38.3066 10.9685 37.6655 10.2873 36.9042C9.28562 35.7822 8.7113 34.46 8.39075 33.0041C8.25719 32.363 8.17705 31.7086 8.13698 31.0541C8.0702 30.1058 8.04349 29.1575 8.03013 28.2092C7.99006 25.7383 8.00342 23.2674 8.01677 20.7965C8.0206 20.613 8.02223 20.4284 8.02387 20.2433C8.02796 19.7818 8.03207 19.3175 8.0702 18.8599C8.08355 18.2722 8.11027 17.6712 8.16369 17.0701C8.21712 16.4424 8.31061 15.828 8.45753 15.2136C8.72466 14.105 9.16541 13.0633 9.85994 12.1417C10.5678 11.2201 11.4226 10.4454 12.4511 9.88446C12.7983 9.69748 13.1589 9.55056 13.5329 9.40364C14.5881 9.00295 15.6699 8.81596 16.7785 8.74918C18.822 8.62898 20.8788 8.62898 22.9224 8.62898C23.323 8.62898 23.7237 8.62814 24.1244 8.62731C25.3265 8.6248 26.5285 8.6223 27.7306 8.64233C28.5854 8.65569 29.4402 8.6824 30.2817 8.72247C31.1097 8.76254 31.9378 8.85603 32.7392 9.05638C32.8327 9.08308 32.9261 9.11312 33.0196 9.14317L33.0197 9.14319C33.1132 9.17324 33.2067 9.2033 33.3002 9.23001C34.3152 9.51049 35.2502 9.97796 36.0649 10.6458C36.9598 11.367 37.681 12.2218 38.2019 13.2502C38.3355 13.5174 38.469 13.7978 38.5625 14.0917C38.6037 14.2254 38.6508 14.3572 38.6977 14.4885L38.6978 14.4886L38.6978 14.4887L38.6978 14.4887L38.6978 14.4887C38.7727 14.6983 38.8472 14.9067 38.8964 15.1201C38.9298 15.2537 38.9532 15.3872 38.9766 15.5208C38.9999 15.6544 39.0233 15.7879 39.0567 15.9215C39.1068 16.1218 39.1343 16.3222 39.1619 16.5225C39.1711 16.5893 39.1803 16.6561 39.1903 16.7229C39.217 16.8698 39.2303 17.0167 39.2437 17.1636L39.2437 17.1636C39.2528 17.3273 39.2634 17.4893 39.274 17.6509ZM36.5322 28.8103C36.5188 29.6784 36.4921 30.5466 36.412 31.4148C36.3185 32.3898 36.0914 33.3247 35.6239 34.1929C35.2767 34.8206 34.8092 35.3415 34.2482 35.7822C33.5804 36.3031 32.8058 36.6103 31.991 36.7973C31.9443 36.8107 31.8942 36.8207 31.8441 36.8307C31.794 36.8407 31.7439 36.8507 31.6972 36.8641C31.6571 36.8641 31.6304 36.8641 31.5904 36.8908C31.5636 36.8908 31.5369 36.8908 31.4969 36.9042C30.8825 36.9977 30.2547 37.0377 29.627 37.0644C28.2914 37.1312 26.9691 37.1312 25.6335 37.1312C23.6701 37.1312 21.7067 37.1312 19.7434 37.1179C19.1467 37.1179 18.5501 37.0949 17.9593 37.0721H17.9592H17.959H17.9589H17.9588H17.9587H17.9586C17.7693 37.0648 17.5806 37.0576 17.3927 37.0511C16.6447 37.0244 15.8968 36.9309 15.1622 36.7439C13.8399 36.3966 12.7714 35.6888 12.0101 34.5535C11.6895 34.086 11.4758 33.5651 11.3156 33.0309C11.0885 32.2963 11.0084 31.5483 10.9683 30.787C10.8529 28.6043 10.8621 26.4285 10.8714 24.2497V24.2497V24.2497V24.2496V24.2493V24.249V24.2487C10.8749 23.4014 10.8785 22.5536 10.8748 21.7048C10.8748 21.2373 10.8748 20.7832 10.8882 20.3157C10.8882 19.8482 10.9015 19.3808 10.9149 18.9133C10.9282 18.7931 10.9416 18.6595 10.9416 18.526C10.9549 17.8582 10.995 17.2037 11.1019 16.5492C11.2087 15.8814 11.4091 15.227 11.6895 14.6126C11.9032 14.1451 12.2104 13.7444 12.5577 13.3704C13.2121 12.6359 14.0402 12.1951 14.9752 11.9146C15.5762 11.7276 16.1772 11.6341 16.805 11.5941C17.5529 11.5406 18.3009 11.5139 19.0488 11.4872C20.5025 11.4532 21.9563 11.4571 23.4065 11.4609H23.4066H23.4066H23.4067H23.4067H23.4067H23.4068C24.2349 11.4632 25.062 11.4654 25.8872 11.4605H27.1961C27.8372 11.4605 28.4783 11.4739 29.1194 11.5006C29.6671 11.5139 30.2147 11.5406 30.7489 11.5941C31.6838 11.6876 32.5921 11.8745 33.4335 12.3019C34.3685 12.7694 35.0897 13.4773 35.6106 14.3855C36.0246 15.1068 36.2383 15.8948 36.3585 16.7229C36.4651 17.4212 36.4877 18.13 36.51 18.8307C36.5129 18.9207 36.5158 19.0106 36.5188 19.1003C36.5856 22.3191 36.5589 25.5647 36.5322 28.8103ZM30.3086 19.6879C30.7627 20.3424 31.1233 21.0503 31.3637 21.8116C31.5774 22.466 31.711 23.1472 31.7377 23.8417C31.7778 24.6164 31.711 25.3777 31.5374 26.1257C31.2836 27.2209 30.8161 28.2226 30.1483 29.1175C30.0848 29.2048 30.0166 29.2827 29.9492 29.3596L29.9492 29.3596L29.9492 29.3596L29.9491 29.3597L29.949 29.3598C29.9032 29.4122 29.8577 29.4641 29.8144 29.5182C29.7601 29.5779 29.708 29.6398 29.6563 29.7013L29.6563 29.7013L29.6562 29.7015C29.5808 29.7911 29.5063 29.8797 29.4271 29.9589C29.2668 30.1192 29.0932 30.2795 28.9196 30.4264C28.5589 30.7202 28.1983 31.0007 27.7976 31.2278C27.7376 31.2611 27.6809 31.2911 27.6242 31.3211L27.624 31.3213C27.5672 31.3513 27.5105 31.3814 27.4504 31.4147C26.8493 31.7486 26.2216 31.9757 25.5538 32.136C24.9127 32.2829 24.2582 32.363 23.6038 32.3497C22.6288 32.323 21.6805 32.1493 20.7722 31.7887C19.0893 31.1209 17.7671 29.999 16.8188 28.463C16.4849 27.9154 16.2311 27.3277 16.0308 26.7133C15.7102 25.725 15.6167 24.7099 15.6835 23.6815C15.7236 22.9736 15.8705 22.2924 16.1109 21.6246C16.1109 21.6112 16.1243 21.5845 16.1376 21.5578C16.2044 21.3441 16.2979 21.1438 16.3914 20.9434C16.6719 20.3157 17.0325 19.7414 17.4732 19.2071C18.2479 18.2588 19.1962 17.5376 20.2914 17.0167C20.6787 16.8297 21.0661 16.6828 21.4801 16.5759C21.8541 16.4691 22.2414 16.3756 22.6288 16.3222C23.577 16.202 24.5253 16.2287 25.4603 16.4424C27.0363 16.7896 28.3853 17.5509 29.5072 18.7129C29.8011 19.0201 30.0682 19.3407 30.3086 19.6879ZM27.3568 28.0356C28.3051 27.1007 28.826 25.9654 28.9328 24.6431C28.9863 23.9219 28.8794 23.214 28.6524 22.5061C28.3318 21.5979 27.7842 20.8366 27.0362 20.2222C26.315 19.6212 25.4869 19.2472 24.552 19.1003C23.5903 18.94 22.6554 19.0469 21.7605 19.4208C20.9725 19.7547 20.2913 20.2356 19.7437 20.89C19.49 21.1972 19.2896 21.5178 19.0893 21.865C19.0826 21.8784 19.0793 21.8917 19.0759 21.9051L19.0759 21.9051L19.0759 21.9051L19.0759 21.9051C19.0726 21.9185 19.0692 21.9318 19.0626 21.9452C18.5951 22.9202 18.4348 23.9352 18.5817 25.0037C18.7019 25.9253 19.0626 26.7534 19.6369 27.488C20.1578 28.1558 20.7989 28.65 21.5602 29.0106C22.0944 29.2644 22.6554 29.4113 23.2297 29.4781C23.5636 29.5182 23.9109 29.5048 24.2581 29.4647C24.8992 29.398 25.5136 29.2243 26.1013 28.9305C26.4753 28.7435 26.8092 28.5031 27.1297 28.2493C27.1616 28.2175 27.1964 28.1856 27.2329 28.1524L27.233 28.1522L27.2331 28.1522C27.273 28.1157 27.3149 28.0775 27.3568 28.0356ZM30.2016 15.9349C30.2016 14.8797 31.0832 14.0383 32.0849 14.0516C33.1 14.0383 33.9681 14.8797 33.9548 15.9349C33.9548 16.9099 33.1667 17.8047 32.0715 17.8047C30.9496 17.8047 30.2016 16.8832 30.2016 15.9349Z" fill="#F7CD0A"/>
</svg>
