<svg width="48" height="48" viewBox="0 0 48 48" fill="none" xmlns="http://www.w3.org/2000/svg">
<path fill-rule="evenodd" clip-rule="evenodd" d="M24 48C37.2548 48 48 37.2548 48 24C48 10.7452 37.2548 0 24 0C10.7452 0 0 10.7452 0 24C0 37.2548 10.7452 48 24 48ZM13.5587 30.5921C20.5746 34.4007 27.5618 34.415 34.6064 30.5921C34.5612 30.8178 34.4182 30.9278 34.2615 31.0485C34.2194 31.0809 34.1763 31.1141 34.1339 31.1505C32.8309 32.3389 31.3275 33.2266 29.6809 33.8566C29.4518 33.9425 29.3373 33.9998 29.4948 34.2861C30.1821 35.4745 30.3968 35.6177 31.7141 35.4173C34.6207 34.9734 37.1836 33.828 39.2741 31.7089C39.5032 31.4655 39.6034 31.2364 39.5891 30.9071C39.5318 29.733 39.4029 28.5875 39.2311 27.4278C38.7013 23.8196 37.7563 20.326 36.1241 17.0471C36.0858 16.9683 36.0485 16.888 36.0111 16.8074L36.011 16.807C35.8107 16.3753 35.6058 15.9334 35.2077 15.644C33.2605 14.2408 31.0984 13.3244 28.7073 12.9521C28.3207 12.8949 28.1918 13.124 28.1059 13.396C28.0176 13.6832 28.2018 13.7062 28.3761 13.728C28.4278 13.7345 28.4786 13.7409 28.5212 13.754C30.3825 14.2837 32.1293 15.0283 33.6327 16.2883C33.657 16.3098 33.6843 16.3299 33.7119 16.3501L33.7119 16.3502C33.8308 16.4374 33.9548 16.5284 33.8618 16.7608C31.8143 15.7155 29.6952 14.8994 27.433 14.5844C25.185 14.2551 22.9085 14.2694 20.6462 14.5987C18.4194 14.9108 16.3612 15.7707 14.2907 16.6359L14.2907 16.6359L14.2317 16.6605C14.2889 16.503 14.3892 16.4028 14.4894 16.3312C16.0501 15.0999 17.7682 14.2265 19.7012 13.7396C19.7377 13.7297 19.7788 13.7236 19.8205 13.7174C19.9585 13.6969 20.1021 13.6755 20.1021 13.5105C20.1021 13.3387 19.9876 13.1526 19.873 13.0094C19.7776 12.8901 19.6324 12.9199 19.4872 12.9498C19.4582 12.9557 19.4292 12.9617 19.4005 12.9665C17.4676 13.2528 15.6635 13.9401 13.9883 14.9424C13.344 15.329 12.7426 15.7442 12.3703 16.4601C11.4396 18.2212 10.7237 20.0396 10.1653 21.9439C9.32056 24.8219 8.80511 27.7571 8.61897 30.7496C8.59034 31.1934 8.73352 31.4941 9.0342 31.7948C11.0387 33.785 13.4728 34.8446 16.1933 35.3743C17.2385 35.5748 18.0689 35.5461 18.5557 34.458C18.5557 34.4436 18.5701 34.4293 18.5844 34.415C18.8421 34.1143 18.8707 33.9425 18.4269 33.785C17.3244 33.3841 16.3078 32.84 15.3485 32.1527C14.7042 31.6802 14.0742 31.2077 13.5587 30.5921ZM31.1288 25.4746C31.1278 25.4966 31.127 25.5135 31.127 25.5235C31.1986 26.4255 30.9266 27.0841 30.4254 27.6855C29.3945 28.8882 27.5332 28.6734 26.6598 27.2559C25.9725 26.1248 26.1586 24.4066 27.1036 23.5046C27.7623 22.8746 28.5641 22.6312 29.4375 22.9605C30.4398 23.3328 30.9695 24.106 31.127 25.1512C31.138 25.2722 31.1321 25.4016 31.1288 25.4746ZM17.1034 25.8326V25.8327C17.1051 25.9444 17.1068 26.0561 17.124 26.1678C17.3101 27.213 17.8399 27.9862 18.8565 28.3441C19.6726 28.6305 20.6892 28.3155 21.2619 27.6425C22.2069 26.54 22.2355 24.8791 21.3478 23.7337C20.4744 22.6026 18.8851 22.488 17.8972 23.5046C17.3244 24.0916 17.0667 24.7932 17.0953 25.6094C17.1011 25.6838 17.1022 25.7582 17.1034 25.8326Z" fill="#498779"/>
</svg>
