<svg width="37" height="40" viewBox="0 0 37 40" fill="none" xmlns="http://www.w3.org/2000/svg">
<g filter="url(#filter0_d_368_702)">
<path d="M10.0237 13.4531C9.35929 12.8561 9 12.0046 9 10.9984C9 9.07803 10.4646 7.68423 12.4825 7.68423C12.5586 7.68423 12.6344 7.68675 12.7099 7.69162C12.705 7.61642 12.7027 7.54106 12.7027 7.46536C12.7027 5.45741 14.1032 4 16.0331 4C17.0443 4 17.9 4.35751 18.5 5.01866C19.1 4.35751 19.9557 4 20.9669 4C22.8968 4 24.2975 5.45741 24.2975 7.46536C24.2975 7.54106 24.295 7.61642 24.2901 7.69162C24.3656 7.68675 24.4414 7.68423 24.5175 7.68423C26.5354 7.68423 28 9.07803 28 10.9984C28 12.0046 27.6407 12.8561 26.9763 13.4531C27.6407 14.0502 28 14.9016 28 15.9079C28 17.8282 26.5354 19.222 24.5175 19.222C24.4414 19.222 24.3656 19.2195 24.2901 19.2146C24.295 19.2898 24.2975 19.3652 24.2975 19.4409C24.2975 21.4488 22.8968 22.9062 20.9669 22.9062C19.9557 22.9062 19.1 22.5487 18.5 21.8876C17.9 22.5487 17.0443 22.9062 16.0331 22.9062C14.4692 22.9062 13.2529 21.9489 12.8479 20.5171C12.1504 21.6056 11.4811 23.1567 11.3738 25.1858C11.3495 25.6443 10.9683 26 10.512 26C10.4969 26 10.4813 25.9995 10.466 25.9988C9.98964 25.9738 9.62394 25.5695 9.64891 25.0955C9.91137 20.1334 13.0294 17.5756 13.4934 17.2216C13.7313 16.9957 15.1583 15.6324 15.7529 14.8927C16.051 14.5221 16.5944 14.4621 16.9669 14.7586C17.3393 15.0551 17.3997 15.5959 17.1017 15.9665C16.4639 16.7599 15.0851 18.085 14.7305 18.4226C14.5286 18.7628 14.4299 19.0968 14.4299 19.4409C14.4299 20.5018 15.0593 21.1875 16.0331 21.1875C16.6511 21.1875 17.0856 20.9782 17.3612 20.5477C17.5854 20.1979 17.6343 19.8209 17.6392 19.7786C17.6674 19.3259 18.0437 18.9726 18.5 18.9726C18.9564 18.9726 19.3326 19.3259 19.3608 19.7786C19.3657 19.8209 19.4147 20.198 19.6388 20.5477C19.9145 20.9782 20.3489 21.1875 20.9669 21.1875C21.9409 21.1875 22.5702 20.5018 22.5702 19.4409C22.5702 19.0916 22.4685 18.7524 22.26 18.4066C21.967 18.1021 20.6647 16.758 19.9468 16.1867C19.5743 15.8903 19.5141 15.3495 19.812 14.9789C20.1099 14.6082 20.6534 14.5482 21.0258 14.8446C21.8231 15.4792 23.1549 16.8512 23.4942 17.204C23.8362 17.4051 24.1717 17.5033 24.5173 17.5033C25.5837 17.5033 26.2727 16.877 26.2727 15.9079C26.2727 15.2929 26.0624 14.8607 25.6299 14.5863C25.2782 14.3632 24.8992 14.3145 24.8568 14.3096C24.4053 14.2816 24.06 13.9117 24.0556 13.461C24.0511 13.0087 24.4081 12.631 24.8612 12.5963C24.8648 12.5959 25.2335 12.5563 25.5892 12.3448C26.0556 12.0679 26.2727 11.64 26.2727 10.9984C26.2727 10.0292 25.5837 9.40298 24.5175 9.40298C24.1664 9.40298 23.8257 9.5042 23.4782 9.71165C23.1722 10.003 21.8215 11.299 21.2471 12.0133C21.0766 12.2257 20.8256 12.3359 20.5722 12.3359C20.383 12.3359 20.1925 12.2743 20.0333 12.1476C19.6608 11.8512 19.6005 11.3104 19.8983 10.9398C20.5361 10.1464 21.9149 8.82123 22.2695 8.48352C22.4715 8.1433 22.5702 7.80928 22.5702 7.46536C22.5702 6.4044 21.9409 5.71875 20.9669 5.71875C20.3489 5.71875 19.9145 5.92805 19.6388 6.35858C19.4147 6.70837 19.3657 7.08536 19.3608 7.12766C19.3326 7.58034 18.9564 7.93365 18.5 7.93365C18.0437 7.93365 17.6674 7.58034 17.6392 7.12766C17.6343 7.08536 17.5853 6.70821 17.3612 6.35858C17.0856 5.92805 16.6511 5.71875 16.0331 5.71875C15.0593 5.71875 14.4299 6.4044 14.4299 7.46536C14.4299 7.81465 14.5315 8.1537 14.74 8.49963C15.033 8.80411 16.3353 10.1481 17.0532 10.7196C17.4257 11.016 17.4859 11.5568 17.188 11.9274C17.0175 12.1396 16.7665 12.25 16.5131 12.25C16.3239 12.25 16.1334 12.1884 15.9742 12.0617C15.1769 11.4269 13.8451 10.0551 13.5058 9.70226C13.1638 9.50117 12.8283 9.40298 12.4827 9.40298C11.4163 9.40298 10.7273 10.0292 10.7273 10.9984C10.7273 11.6134 10.9376 12.0456 11.3703 12.32C11.722 12.5431 12.101 12.5917 12.1432 12.5966C12.5947 12.6245 12.9402 12.9944 12.9446 13.4452C12.9489 13.8974 12.592 14.2752 12.1388 14.31C12.1354 14.3102 11.7667 14.3499 11.4108 14.5612C10.9445 14.8384 10.7273 15.2662 10.7273 15.9079C10.7273 16.1009 10.7936 16.3134 10.8513 16.4771C11.0093 16.9249 10.7725 17.4153 10.3224 17.5726C9.87241 17.7299 9.37953 17.4942 9.22148 17.0464C9.11841 16.754 9 16.3606 9 15.9079C9 14.9016 9.35929 14.0502 10.0237 13.4531V13.4531Z" fill="#00FFCA"/>
</g>
<defs>
<filter id="filter0_d_368_702" x="0" y="0" width="37" height="40" filterUnits="userSpaceOnUse" color-interpolation-filters="sRGB">
<feFlood flood-opacity="0" result="BackgroundImageFix"/>
<feColorMatrix in="SourceAlpha" type="matrix" values="0 0 0 0 0 0 0 0 0 0 0 0 0 0 0 0 0 0 127 0" result="hardAlpha"/>
<feMorphology radius="1" operator="dilate" in="SourceAlpha" result="effect1_dropShadow_368_702"/>
<feOffset dy="5"/>
<feGaussianBlur stdDeviation="4"/>
<feColorMatrix type="matrix" values="0 0 0 0 0 0 0 0 0 0.0788008 0 0 0 0 0.0596425 0 0 0 0.5 0"/>
<feBlend mode="normal" in2="BackgroundImageFix" result="effect1_dropShadow_368_702"/>
<feBlend mode="normal" in="SourceGraphic" in2="effect1_dropShadow_368_702" result="shape"/>
</filter>
</defs>
</svg>
