<svg width="127" height="11" viewBox="0 0 127 11" fill="none" xmlns="http://www.w3.org/2000/svg">
<path d="M6.6881 1.95258C6.10232 1.3668 5.15257 1.3668 4.56678 1.95258L2.03536 4.484C1.44957 5.06979 1.44957 6.01954 2.03536 6.60533L4.56678 9.13675C5.15257 9.72253 6.10232 9.72253 6.6881 9.13675L9.21952 6.60533C9.80531 6.01954 9.80531 5.06979 9.21952 4.484L6.6881 1.95258Z" stroke="#8158E1"/>
<rect width="3.41719" height="3.41719" rx="1.7086" transform="matrix(-0.707116 0.707098 0.707116 0.707098 5.79614 3.17505)" fill="#8158E1"/>
<line y1="-0.5" x2="116.376" y2="-0.5" transform="matrix(1 8.74228e-08 8.74228e-08 -1 10 5)" stroke="url(#paint0_linear_763_8438)"/>
<defs>
<linearGradient id="paint0_linear_763_8438" x1="0" y1="0" x2="116.376" y2="6.31221e-06" gradientUnits="userSpaceOnUse">
<stop stop-color="#8158E1"/>
<stop offset="0.441646" stop-color="#8158E1" stop-opacity="0.558354"/>
<stop offset="1" stop-color="#8158E1" stop-opacity="0"/>
</linearGradient>
</defs>
</svg>
