<svg width="111" height="77" viewBox="0 0 111 77" fill="none" xmlns="http://www.w3.org/2000/svg">
<g filter="url(#filter0_d_279_5526)">
<path d="M100.157 47.0001H67.1053L62.0526 65.5264L100.553 48.9183C101.551 48.4881 101.243 47.0001 100.157 47.0001Z" fill="#37031C"/>
<path d="M100.157 47.0001H67.1053L62.0526 65.5264L100.553 48.9183C101.551 48.4881 101.243 47.0001 100.157 47.0001Z" stroke="url(#paint0_linear_279_5526)"/>
</g>
<g filter="url(#filter1_d_279_5526)">
<path d="M102 16.7905C102 12.3722 98.4183 8.79047 94 8.79047H17C12.5817 8.79047 9 12.3722 9 16.7905V39.9283C9 44.3466 12.5817 47.9283 17 47.9283H102V16.7905Z" fill="url(#paint1_linear_279_5526)"/>
<path d="M102 16.7905C102 12.3722 98.4183 8.79047 94 8.79047H17C12.5817 8.79047 9 12.3722 9 16.7905V39.9283C9 44.3466 12.5817 47.9283 17 47.9283H102V16.7905Z" stroke="url(#paint2_linear_279_5526)"/>
</g>
<path d="M13.26 22.1479V34.9999H15.366V29.7619H18.696C19.416 29.7619 19.974 29.9059 20.352 30.2299C20.712 30.5359 20.928 31.0399 21 31.7419L21.162 33.3259C21.234 34.0459 21.414 34.6039 21.72 34.9999H24.006C23.574 34.5319 23.304 33.9019 23.232 33.1099L23.016 31.0399C22.872 29.7799 22.242 29.0419 21.126 28.7899V28.7539C21.81 28.5739 22.368 28.1959 22.764 27.6199C23.124 27.0979 23.304 26.5039 23.304 25.8379C23.304 24.6139 22.89 23.6779 22.098 23.0299C21.342 22.4359 20.298 22.1479 18.984 22.1479H13.26ZM15.366 23.9479H18.696C19.56 23.9479 20.19 24.0919 20.586 24.4159C20.982 24.7219 21.18 25.2259 21.18 25.9279C21.18 26.5759 20.982 27.0799 20.586 27.4399C20.154 27.7819 19.524 27.9619 18.696 27.9619H15.366V23.9479ZM29.3501 22.1479L24.4361 34.9999H26.6861L27.8561 31.7779H33.2381L34.4081 34.9999H36.6581L31.7441 22.1479H29.3501ZM28.4861 30.0499L30.5201 24.4159H30.5921L32.6081 30.0499H28.4861ZM37.7982 22.1479V34.9999H39.9042V29.7619H43.2342C43.9542 29.7619 44.5122 29.9059 44.8902 30.2299C45.2502 30.5359 45.4662 31.0399 45.5382 31.7419L45.7002 33.3259C45.7722 34.0459 45.9522 34.6039 46.2582 34.9999H48.5442C48.1122 34.5319 47.8422 33.9019 47.7702 33.1099L47.5542 31.0399C47.4102 29.7799 46.7802 29.0419 45.6642 28.7899V28.7539C46.3482 28.5739 46.9062 28.1959 47.3022 27.6199C47.6622 27.0979 47.8422 26.5039 47.8422 25.8379C47.8422 24.6139 47.4282 23.6779 46.6362 23.0299C45.8802 22.4359 44.8362 22.1479 43.5222 22.1479H37.7982ZM39.9042 23.9479H43.2342C44.0982 23.9479 44.7282 24.0919 45.1242 24.4159C45.5202 24.7219 45.7182 25.2259 45.7182 25.9279C45.7182 26.5759 45.5202 27.0799 45.1242 27.4399C44.6922 27.7819 44.0622 27.9619 43.2342 27.9619H39.9042V23.9479ZM50.2342 22.1479V34.9999H59.8102V33.1999H52.3402V29.3119H59.0722V27.5119H52.3402V23.9479H59.5042V22.1479H50.2342ZM67.5478 22.1479V34.9999H69.6538V25.6039H69.7258L76.1518 34.9999H78.2038V22.1479H76.0798V31.4179H76.0078L69.6538 22.1479H67.5478ZM80.6167 22.1479V34.9999H82.7227V29.3119H89.0047V27.5119H82.7227V23.9479H89.3827V22.1479H80.6167ZM89.9885 22.1479V23.9479H94.2005V34.9999H96.3065V23.9479H100.519V22.1479H89.9885Z" fill="white"/>
<defs>
<filter id="filter0_d_279_5526" x="55.297" y="44.5001" width="52.3621" height="31.8969" filterUnits="userSpaceOnUse" color-interpolation-filters="sRGB">
<feFlood flood-opacity="0" result="BackgroundImageFix"/>
<feColorMatrix in="SourceAlpha" type="matrix" values="0 0 0 0 0 0 0 0 0 0 0 0 0 0 0 0 0 0 127 0" result="hardAlpha"/>
<feOffset dy="4"/>
<feGaussianBlur stdDeviation="3"/>
<feComposite in2="hardAlpha" operator="out"/>
<feColorMatrix type="matrix" values="0 0 0 0 0 0 0 0 0 0 0 0 0 0 0 0 0 0 0.25 0"/>
<feBlend mode="normal" in2="BackgroundImageFix" result="effect1_dropShadow_279_5526"/>
<feBlend mode="normal" in="SourceGraphic" in2="effect1_dropShadow_279_5526" result="shape"/>
</filter>
<filter id="filter1_d_279_5526" x="0.5" y="0.290466" width="110" height="56.1378" filterUnits="userSpaceOnUse" color-interpolation-filters="sRGB">
<feFlood flood-opacity="0" result="BackgroundImageFix"/>
<feColorMatrix in="SourceAlpha" type="matrix" values="0 0 0 0 0 0 0 0 0 0 0 0 0 0 0 0 0 0 127 0" result="hardAlpha"/>
<feOffset/>
<feGaussianBlur stdDeviation="4"/>
<feColorMatrix type="matrix" values="0 0 0 0 0.185627 0 0 0 0 0.023707 0 0 0 0 0.529706 0 0 0 1 0"/>
<feBlend mode="normal" in2="BackgroundImageFix" result="effect1_dropShadow_279_5526"/>
<feBlend mode="normal" in="SourceGraphic" in2="effect1_dropShadow_279_5526" result="shape"/>
</filter>
<linearGradient id="paint0_linear_279_5526" x1="83.5263" y1="47.0001" x2="83.5263" y2="65.5264" gradientUnits="userSpaceOnUse">
<stop stop-color="#5E0213"/>
<stop offset="1" stop-color="#A20091"/>
</linearGradient>
<linearGradient id="paint1_linear_279_5526" x1="-37.5" y1="28.3594" x2="-9.51496" y2="-38.1391" gradientUnits="userSpaceOnUse">
<stop stop-color="#6B0684"/>
<stop offset="1" stop-color="#F30FB3"/>
</linearGradient>
<linearGradient id="paint2_linear_279_5526" x1="-97.5611" y1="20.0413" x2="-65.2912" y2="-88.8933" gradientUnits="userSpaceOnUse">
<stop stop-color="#F74646"/>
<stop offset="1" stop-color="#FFB4D8"/>
</linearGradient>
</defs>
</svg>
