<svg width="54" height="45" viewBox="0 0 54 45" fill="none" xmlns="http://www.w3.org/2000/svg">
<g filter="url(#filter0_d_1775_12308)">
<path d="M43.1571 25.7805H32.2105L30.1053 33.4998L43.5532 27.6987C44.5505 27.2685 44.2433 25.7805 43.1571 25.7805Z" fill="#37031C"/>
<path d="M43.1571 25.7805H32.2105L30.1053 33.4998L43.5532 27.6987C44.5505 27.2685 44.2433 25.7805 43.1571 25.7805Z" stroke="url(#paint0_linear_1775_12308)"/>
</g>
<g filter="url(#filter1_d_1775_12308)">
<path d="M45 17C45 12.5817 41.4183 9 37 9H17C12.5817 9 9 12.5817 9 17V18C9 22.4183 12.5817 26 17 26H45V17Z" fill="url(#paint1_linear_1775_12308)"/>
<path d="M45 17C45 12.5817 41.4183 9 37 9H17C12.5817 9 9 12.5817 9 17V18C9 22.4183 12.5817 26 17 26H45V17Z" stroke="url(#paint2_linear_1775_12308)"/>
</g>
<path d="M15.56 14.68V21.84H16.376V15.464H17.376C17.176 16.096 16.896 16.808 16.544 17.6C17.08 18.264 17.352 18.864 17.352 19.4C17.352 19.528 17.32 19.616 17.256 19.664C17.192 19.712 17.064 19.736 16.872 19.752C16.752 19.752 16.6 19.736 16.424 19.704L16.696 20.552C17.288 20.544 17.712 20.432 17.952 20.224C18.112 20.064 18.192 19.784 18.192 19.4C18.152 18.856 17.888 18.216 17.392 17.472C17.704 16.72 17.976 16.008 18.216 15.336V14.68H15.56ZM19.264 16.88H21.288V17.544H19.264V16.88ZM21.288 16.128H19.264V15.456H21.288V16.128ZM22.04 18.512C21.736 18.88 21.416 19.16 21.088 19.36C20.96 19.136 20.84 18.888 20.736 18.616L20.104 18.968C20.552 20.232 21.28 21.168 22.272 21.76L22.76 21.04C22.264 20.768 21.84 20.408 21.48 19.952C21.88 19.728 22.248 19.432 22.568 19.048L22.04 18.512ZM19.264 18.304H22.104V14.672H18.44V20.752C18.44 20.864 18.368 20.936 18.24 20.984L18.44 21.72C19.336 21.496 20.08 21.256 20.672 21.008L20.472 20.232C20.072 20.424 19.672 20.576 19.264 20.704V18.304ZM24.0213 17.792V19.888H26.4613V20.2H23.8693V20.736H26.4613V21.072H23.2773V21.696H30.4933V21.072H27.2933V20.736H29.9173V20.2H27.2933V19.888H29.7653V17.792H24.0213ZM28.9733 19.408H27.2933V19.064H28.9733V19.408ZM26.4613 19.408H24.8133V19.064H26.4613V19.408ZM24.8133 18.616V18.28H26.4613V18.616H24.8133ZM27.2933 18.28H28.9733V18.616H27.2933V18.28ZM24.1973 14.544V16.6H29.5973V14.544H24.1973ZM28.7973 16.136H24.9973V15.808H28.7973V16.136ZM24.9973 15.344V15.016H28.7973V15.344H24.9973ZM23.2773 16.904V17.496H30.4933V16.904H23.2773ZM33.0346 14.528V16.56H32.3626V14.672H31.5386V18.248C31.5306 19.584 31.3626 20.552 31.0426 21.16L31.6746 21.712C32.0426 21.104 32.2586 20.216 32.3386 19.04H33.0586V21.8H33.8746V21.28L34.4186 21.856C34.9226 20.904 35.1946 19.624 35.2266 18.024V17.472H35.4586C35.5626 18.352 35.8426 19.168 36.2906 19.928C35.9066 20.4 35.4266 20.8 34.8506 21.12L35.2426 21.872C35.8346 21.552 36.3466 21.136 36.7786 20.64C37.1146 21.072 37.5146 21.488 37.9866 21.88L38.5386 21.248C38.0266 20.88 37.5946 20.464 37.2426 20.008C37.6906 19.288 38.0026 18.416 38.1706 17.4V16.688H35.2266V15.664C36.3706 15.616 37.4106 15.456 38.3466 15.184L37.9466 14.44C36.9066 14.784 35.7386 14.968 34.4266 15V18.024C34.3946 19.312 34.2106 20.336 33.8746 21.096V18.248H32.3626V17.352H33.8506V14.528H33.0346ZM36.1946 17.472H37.3706C37.2506 18.128 37.0426 18.72 36.7546 19.248C36.4666 18.704 36.2746 18.112 36.1946 17.472Z" fill="white"/>
<defs>
<filter id="filter0_d_1775_12308" x="23.3496" y="23.2805" width="27.3096" height="21.0898" filterUnits="userSpaceOnUse" color-interpolation-filters="sRGB">
<feFlood flood-opacity="0" result="BackgroundImageFix"/>
<feColorMatrix in="SourceAlpha" type="matrix" values="0 0 0 0 0 0 0 0 0 0 0 0 0 0 0 0 0 0 127 0" result="hardAlpha"/>
<feOffset dy="4"/>
<feGaussianBlur stdDeviation="3"/>
<feComposite in2="hardAlpha" operator="out"/>
<feColorMatrix type="matrix" values="0 0 0 0 0 0 0 0 0 0 0 0 0 0 0 0 0 0 0.25 0"/>
<feBlend mode="normal" in2="BackgroundImageFix" result="effect1_dropShadow_1775_12308"/>
<feBlend mode="normal" in="SourceGraphic" in2="effect1_dropShadow_1775_12308" result="shape"/>
</filter>
<filter id="filter1_d_1775_12308" x="0.5" y="0.5" width="53" height="34" filterUnits="userSpaceOnUse" color-interpolation-filters="sRGB">
<feFlood flood-opacity="0" result="BackgroundImageFix"/>
<feColorMatrix in="SourceAlpha" type="matrix" values="0 0 0 0 0 0 0 0 0 0 0 0 0 0 0 0 0 0 127 0" result="hardAlpha"/>
<feOffset/>
<feGaussianBlur stdDeviation="4"/>
<feColorMatrix type="matrix" values="0 0 0 0 0.185627 0 0 0 0 0.023707 0 0 0 0 0.529706 0 0 0 1 0"/>
<feBlend mode="normal" in2="BackgroundImageFix" result="effect1_dropShadow_1775_12308"/>
<feBlend mode="normal" in="SourceGraphic" in2="effect1_dropShadow_1775_12308" result="shape"/>
</filter>
<linearGradient id="paint0_linear_1775_12308" x1="39.0526" y1="25.7805" x2="39.0526" y2="33.4998" gradientUnits="userSpaceOnUse">
<stop stop-color="#5E0213"/>
<stop offset="1" stop-color="#A20091"/>
</linearGradient>
<linearGradient id="paint1_linear_1775_12308" x1="-9" y1="17.5" x2="4.12808" y2="-10.3006" gradientUnits="userSpaceOnUse">
<stop stop-color="#6B0684"/>
<stop offset="1" stop-color="#F30FB3"/>
</linearGradient>
<linearGradient id="paint2_linear_1775_12308" x1="-32.2495" y1="13.887" x2="-16.8432" y2="-32.4613" gradientUnits="userSpaceOnUse">
<stop stop-color="#F74646"/>
<stop offset="1" stop-color="#FFB4D8"/>
</linearGradient>
</defs>
</svg>
