<svg width="111" height="74" viewBox="0 0 111 74" fill="none" xmlns="http://www.w3.org/2000/svg">
<g filter="url(#filter0_d_1620_12300)">
<path d="M100.157 44.0001H67.1053L62.0526 62.5264L100.553 45.9183C101.551 45.4881 101.243 44.0001 100.157 44.0001Z" fill="#37031C"/>
<path d="M100.157 44.0001H67.1053L62.0526 62.5264L100.553 45.9183C101.551 45.4881 101.243 44.0001 100.157 44.0001Z" stroke="url(#paint0_linear_1620_12300)"/>
</g>
<g filter="url(#filter1_d_1620_12300)">
<path d="M102 16.6135C102 12.1952 98.4183 8.61353 94 8.61353H17C12.5817 8.61353 9 12.1952 9 16.6135V39.7513C9 44.1696 12.5817 47.7513 17 47.7513H102V16.6135Z" fill="url(#paint1_linear_1620_12300)"/>
<path d="M102 16.6135C102 12.1952 98.4183 8.61353 94 8.61353H17C12.5817 8.61353 9 12.1952 9 16.6135V39.7513C9 44.1696 12.5817 47.7513 17 47.7513H102V16.6135Z" stroke="url(#paint2_linear_1620_12300)"/>
</g>
<path d="M22.68 17.0401V38.5201H25.128V19.3921H28.128C27.528 21.2881 26.688 23.4241 25.632 25.8001C27.24 27.7921 28.056 29.5921 28.056 31.2001C28.056 31.5841 27.96 31.8481 27.768 31.9921C27.576 32.1361 27.192 32.2081 26.616 32.2561C26.256 32.2561 25.8 32.2081 25.272 32.1121L26.088 34.6561C27.864 34.6321 29.136 34.2961 29.856 33.6721C30.336 33.1921 30.576 32.3521 30.576 31.2001C30.456 29.5681 29.664 27.6481 28.176 25.4161C29.112 23.1601 29.928 21.0241 30.648 19.0081V17.0401H22.68ZM33.792 23.6401H39.864V25.6321H33.792V23.6401ZM39.864 21.3841H33.792V19.3681H39.864V21.3841ZM42.12 28.5361C41.208 29.6401 40.248 30.4801 39.264 31.0801C38.88 30.4081 38.52 29.6641 38.208 28.8481L36.312 29.9041C37.656 33.6961 39.84 36.5041 42.816 38.2801L44.28 36.1201C42.792 35.3041 41.52 34.2241 40.44 32.8561C41.64 32.1841 42.744 31.2961 43.704 30.1441L42.12 28.5361ZM33.792 27.9121H42.312V17.0161H31.32V35.2561C31.32 35.5921 31.104 35.8081 30.72 35.9521L31.32 38.1601C34.008 37.4881 36.24 36.7681 38.016 36.0241L37.416 33.6961C36.216 34.2721 35.016 34.7281 33.792 35.1121V27.9121ZM48.2933 26.3761V32.6641H55.6133V33.6001H47.8373V35.2081H55.6133V36.2161H46.0613V38.0881H67.7093V36.2161H58.1093V35.2081H65.9813V33.6001H58.1093V32.6641H65.5253V26.3761H48.2933ZM63.1493 31.2241H58.1093V30.1921H63.1493V31.2241ZM55.6133 31.2241H50.6693V30.1921H55.6133V31.2241ZM50.6693 28.8481V27.8401H55.6133V28.8481H50.6693ZM58.1093 27.8401H63.1493V28.8481H58.1093V27.8401ZM48.8213 16.6321V22.8001H65.0213V16.6321H48.8213ZM62.6213 21.4081H51.2213V20.4241H62.6213V21.4081ZM51.2213 19.0321V18.0481H62.6213V19.0321H51.2213ZM46.0613 23.7121V25.4881H67.7093V23.7121H46.0613ZM75.5626 16.5841V22.6801H73.5466V17.0161H71.0746V27.7441C71.0506 31.7521 70.5466 34.6561 69.5866 36.4801L71.4826 38.1361C72.5866 36.3121 73.2346 33.6481 73.4746 30.1201H75.6346V38.4001H78.0826V36.8401L79.7146 38.5681C81.2266 35.7121 82.0426 31.8721 82.1386 27.0721V25.4161H82.8346C83.1466 28.0561 83.9866 30.5041 85.3306 32.7841C84.1786 34.2001 82.7386 35.4001 81.0106 36.3601L82.1866 38.6161C83.9626 37.6561 85.4986 36.4081 86.7946 34.9201C87.8026 36.2161 89.0026 37.4641 90.4186 38.6401L92.0746 36.7441C90.5386 35.6401 89.2426 34.3921 88.1866 33.0241C89.5306 30.8641 90.4666 28.2481 90.9706 25.2001V23.0641H82.1386V19.9921C85.5706 19.8481 88.6906 19.3681 91.4986 18.5521L90.2986 16.3201C87.1786 17.3521 83.6746 17.9041 79.7386 18.0001V27.0721C79.6426 30.9361 79.0906 34.0081 78.0826 36.2881V27.7441H73.5466V25.0561H78.0106V16.5841H75.5626ZM85.0426 25.4161H88.5706C88.2106 27.3841 87.5866 29.1601 86.7226 30.7441C85.8586 29.1121 85.2826 27.3361 85.0426 25.4161Z" fill="white"/>
<defs>
<filter id="filter0_d_1620_12300" x="55.297" y="41.5001" width="52.3621" height="31.8968" filterUnits="userSpaceOnUse" color-interpolation-filters="sRGB">
<feFlood flood-opacity="0" result="BackgroundImageFix"/>
<feColorMatrix in="SourceAlpha" type="matrix" values="0 0 0 0 0 0 0 0 0 0 0 0 0 0 0 0 0 0 127 0" result="hardAlpha"/>
<feOffset dy="4"/>
<feGaussianBlur stdDeviation="3"/>
<feComposite in2="hardAlpha" operator="out"/>
<feColorMatrix type="matrix" values="0 0 0 0 0 0 0 0 0 0 0 0 0 0 0 0 0 0 0.25 0"/>
<feBlend mode="normal" in2="BackgroundImageFix" result="effect1_dropShadow_1620_12300"/>
<feBlend mode="normal" in="SourceGraphic" in2="effect1_dropShadow_1620_12300" result="shape"/>
</filter>
<filter id="filter1_d_1620_12300" x="0.5" y="0.113525" width="110" height="56.1378" filterUnits="userSpaceOnUse" color-interpolation-filters="sRGB">
<feFlood flood-opacity="0" result="BackgroundImageFix"/>
<feColorMatrix in="SourceAlpha" type="matrix" values="0 0 0 0 0 0 0 0 0 0 0 0 0 0 0 0 0 0 127 0" result="hardAlpha"/>
<feOffset/>
<feGaussianBlur stdDeviation="4"/>
<feColorMatrix type="matrix" values="0 0 0 0 0.185627 0 0 0 0 0.023707 0 0 0 0 0.529706 0 0 0 1 0"/>
<feBlend mode="normal" in2="BackgroundImageFix" result="effect1_dropShadow_1620_12300"/>
<feBlend mode="normal" in="SourceGraphic" in2="effect1_dropShadow_1620_12300" result="shape"/>
</filter>
<linearGradient id="paint0_linear_1620_12300" x1="83.5263" y1="44.0001" x2="83.5263" y2="62.5264" gradientUnits="userSpaceOnUse">
<stop stop-color="#5E0213"/>
<stop offset="1" stop-color="#A20091"/>
</linearGradient>
<linearGradient id="paint1_linear_1620_12300" x1="-37.5" y1="28.1824" x2="-9.51498" y2="-38.3161" gradientUnits="userSpaceOnUse">
<stop stop-color="#6B0684"/>
<stop offset="1" stop-color="#F30FB3"/>
</linearGradient>
<linearGradient id="paint2_linear_1620_12300" x1="-97.5611" y1="19.8644" x2="-65.2912" y2="-89.0702" gradientUnits="userSpaceOnUse">
<stop stop-color="#F74646"/>
<stop offset="1" stop-color="#FFB4D8"/>
</linearGradient>
</defs>
</svg>
