<svg width="24" height="24" viewBox="0 0 24 24" fill="none" xmlns="http://www.w3.org/2000/svg">
<circle cx="11.9908" cy="11.9723" r="11.9538" fill="#F3BA2D"/>
<path d="M12 3L6.44118 8.55882L8.42647 10.5441L11.8676 7.10294L15.4412 10.6765L17.5588 8.55882L12 3Z" fill="white"/>
<path d="M3 12L5.11765 9.88235L7.23529 12L5.11765 14.1176L3 12Z" fill="white"/>
<path d="M6.30882 15.4412L8.42647 13.3235L12 16.8971L15.4412 13.4559L17.4265 15.4412L11.8676 21L6.30882 15.4412Z" fill="white"/>
<path d="M12 9.88235L9.88235 12L12 14.1176L14.1176 12L12 9.88235Z" fill="white"/>
<path d="M18.8824 9.88235L16.7647 12L18.8824 14.1176L21 12L18.8824 9.88235Z" fill="white"/>
</svg>
