<svg width="24" height="24" viewBox="0 0 24 24" fill="none" xmlns="http://www.w3.org/2000/svg">
<circle cx="11.9908" cy="11.9723" r="11.7038" fill="#00221A" stroke="#00FFCA" stroke-width="0.5"/>
<path d="M6.75006 6H5.00006L5.43756 7.3125L6.75006 6Z" fill="#FEFF8C"/>
<path d="M6.75006 6L7.18756 7.3125L8.93756 6H6.75006Z" fill="#FEFF80"/>
<path d="M8.93756 6V7.3125H9.37506L9.784 6.08569L8.93756 6Z" fill="#EDEF31"/>
<path d="M15.0626 6.08569L12.8751 6L13.3126 7.3125L15.0626 6.08569Z" fill="#FFF170"/>
<path d="M15.0626 6.08569L15.9376 7.3125L17.6876 6L15.0626 6.08569Z" fill="#FEDE6E"/>
<path d="M17.6876 6L18.1251 7.3125L19.0001 6H17.6876Z" fill="#FFD336"/>
<path d="M6.75006 6L5.43756 7.3125H7.18756L6.75006 6Z" fill="#FFDD65"/>
<path d="M8.93756 6L7.18756 7.3125H8.93756V6Z" fill="#FFDB5C"/>
<path d="M15.0626 6.08569L13.3126 7.3125H15.9376L15.0626 6.08569Z" fill="#FFD260"/>
<path d="M17.6876 6L15.9376 7.3125H18.1251L17.6876 6Z" fill="#FFCA0E"/>
<path d="M18.5626 7.3125L19.0001 6L18.1251 7.3125H18.5626Z" fill="#FCC26C"/>
<path d="M7.18756 7.3125H5.43756L5.87506 7.75L7.18756 7.3125Z" fill="#FFEB80"/>
<path d="M8.93756 7.3125H7.18756L8.50006 7.75L8.93756 7.3125Z" fill="#FFEC86"/>
<path d="M15.9376 7.3125H13.3126L14.1876 7.75L15.9376 7.3125Z" fill="#FFF176"/>
<path d="M15.9376 7.3125L16.3751 10.8125L18.1251 7.3125H15.9376Z" fill="#FFE927"/>
<path d="M16.3751 10.8125L15.9376 7.3125L14.1876 7.75L16.3751 10.8125Z" fill="#FFD952"/>
<path d="M16.3751 10.8125L14.1876 7.75V12.5625L16.3751 10.8125Z" fill="#FFCC49"/>
<path d="M18.1251 7.3125L16.3751 10.8125L18.1251 14.75V7.3125Z" fill="#FFCB12"/>
<path d="M16.3751 10.8125L15.9376 13.875L18.1251 14.75L16.3751 10.8125Z" fill="#FFB800"/>
<path d="M16.3751 10.8125L14.1876 12.5625L15.9376 13.875L16.3751 10.8125Z" fill="#FFC700"/>
<path d="M14.1876 16.5L15.9376 13.875L14.1876 12.5625V16.5Z" fill="#FFB906"/>
<path d="M14.1876 16.5L15.9376 17.375V13.875L14.1876 16.5Z" fill="#FFA800"/>
<path d="M15.9376 13.875V17.375L18.1251 14.75L15.9376 13.875Z" fill="#FF9D0A"/>
<path d="M15.9376 17.375L18.1251 18.25V14.75L15.9376 17.375Z" fill="#FF9534"/>
<path d="M12.8751 18.6875L15.9376 17.375L14.1876 16.5L12.8751 18.6875Z" fill="#FFB800"/>
<path d="M10.2501 16.5L12.8751 18.6875L14.1876 16.5H10.2501Z" fill="#FFA800"/>
<path d="M10.2501 16.5L8.06256 17.375L12.8751 18.6875L10.2501 16.5Z" fill="#FFB017"/>
<path d="M8.06256 17.375L5.87506 14.75V18.25L5.94514 18.222L8.06256 17.375Z" fill="#FFA113"/>
<path d="M8.50006 15.1875L8.06256 17.375L10.2501 16.5L8.50006 15.1875Z" fill="#FFBD13"/>
<path d="M8.50006 15.1875L5.87506 14.75L8.06256 17.375L8.50006 15.1875Z" fill="#FFCE21"/>
<path d="M8.50006 11.6875L6.75006 10.8125L8.50006 15.1875V11.6875Z" fill="#FFB800"/>
<path d="M6.75006 10.8125L5.87506 14.75L8.50006 15.1875L6.75006 10.8125Z" fill="#F9B300"/>
<path d="M6.75006 10.8125L5.87506 7.75V14.75L6.75006 10.8125Z" fill="#FFC328"/>
<path d="M7.18756 7.3125L6.75006 10.8125L8.50006 11.6875L7.18756 7.3125Z" fill="#FFC700"/>
<path d="M6.75006 10.8125L7.18756 7.3125L5.87506 7.75L6.75006 10.8125Z" fill="#FFD809"/>
<path d="M7.18756 7.3125L8.50006 11.6875V7.75L7.18756 7.3125Z" fill="#FFD80A"/>
<path d="M8.06256 17.375V20L12.8751 18.6875L8.06256 17.375Z" fill="#FF7F0A"/>
<path d="M12.8751 18.6875L16.3751 20L15.9376 17.375L12.8751 18.6875Z" fill="#F87700"/>
<path d="M12.8751 18.6875L8.06256 20H16.3751L12.8751 18.6875Z" fill="#D76700"/>
<path d="M8.06256 20V17.375L5.94514 18.222L8.06256 20Z" fill="#FF710A"/>
<path d="M15.9376 17.375L16.3751 20L18.1251 18.25L15.9376 17.375Z" fill="#EB7100"/>
<path d="M5.37262 7.42363H6.02459V18.1957L7.82335 20H16.1768L17.9755 18.1957V7.42363H18.6275L19.0001 6H13.0391L13.3069 7.42363H14.0963V16.6119H10.0296L8.63249 15.2105V7.42363H9.28447L9.80255 6H5.00006L5.37262 7.42363Z" stroke="#FF8900" stroke-width="0.3"/>
</svg>
