<svg width="241" height="241" viewBox="0 0 241 241" fill="none" xmlns="http://www.w3.org/2000/svg">
<path d="M240.355 120.523C240.355 95.1819 232.333 70.4909 217.437 49.9892L120.355 120.523L240.355 120.523Z" fill="#FFBD13"/>
<path d="M240.355 120.523C240.355 95.1819 232.333 70.4909 217.437 49.9892L120.355 120.523L240.355 120.523Z" fill="#FFBD13"/>
<path d="M120.355 0.523473C101.418 0.523474 82.7498 5.00536 65.8766 13.6027C49.0034 22.2 34.4045 34.6687 23.2735 49.9892C12.1424 65.3098 4.79533 83.0472 1.83289 101.751C-1.12954 120.455 0.376781 139.595 6.22871 157.605C12.0806 175.616 22.112 191.986 35.5027 205.376C48.8933 218.767 65.263 228.798 83.2734 234.65C101.284 240.502 120.423 242.008 139.128 239.046C157.832 236.084 175.569 228.737 190.89 217.606L120.355 120.523L120.355 0.523473Z" fill="#FF7500"/>
<path d="M190.888 217.605C206.208 206.474 218.677 191.876 227.274 175.002C235.872 158.129 240.354 139.461 240.354 120.523L120.354 120.523L190.888 217.605Z" fill="#FFA20D"/>
<path d="M190.888 217.605C206.208 206.474 218.677 191.876 227.274 175.002C235.872 158.129 240.354 139.461 240.354 120.523L120.354 120.523L190.888 217.605Z" fill="#FFA20D"/>
<path d="M157.438 6.39668C145.462 2.50546 132.948 0.523468 120.355 0.523468L120.355 120.523L157.438 6.39668Z" fill="#FFDD65"/>
<path d="M157.438 6.39668C145.462 2.50546 132.948 0.523468 120.355 0.523468L120.355 120.523L157.438 6.39668Z" fill="#FFDD65"/>
<path d="M217.437 49.9892C202.542 29.4875 181.539 14.2276 157.437 6.39664L120.355 120.523L217.437 49.9892Z" fill="#FFD336"/>
<path d="M217.437 49.9892C202.542 29.4875 181.539 14.2276 157.437 6.39664L120.355 120.523L217.437 49.9892Z" fill="#FFD336"/>
<path d="M181.308 162.341H177.212V161.061H178.524V148.469H177.26V147.189H179.244L179.964 147.829V161.061H181.308V162.341ZM183.324 157.621V161.061H186.444V155.141H182.604L181.884 154.501V147.829L182.604 147.189H187.884V148.469H183.324V153.861H187.164L187.884 154.501V161.701L187.164 162.341H182.604L181.884 161.701V157.621H183.324ZM194.918 146.885L191.094 162.597L189.894 162.405L193.734 146.677L194.918 146.885ZM195.67 161.333H193.686L193.206 160.869V158.197L193.686 157.749H195.67L196.15 158.197V160.869L195.67 161.333ZM191.126 151.413H189.142L188.662 150.965V148.293L189.142 147.845H191.126L191.606 148.293V150.965L191.126 151.413ZM189.67 150.485H190.614V148.773H189.67V150.485ZM194.214 160.389H195.158V158.677H194.214V160.389Z" fill="#A92545"/>
<path d="M41.9473 138.022H45.6913L46.4113 138.662V145.862L45.6913 146.502H41.2273L40.5073 145.862V131.99L41.2273 131.35L45.6913 131.334L46.4113 131.974V135.574H44.9713V132.614H41.9473V138.022ZM41.9473 139.302V145.222H44.9713V139.302H41.9473ZM52.8038 146.502H48.0198L47.2998 145.862V131.99L48.0198 131.35H52.8038L53.5238 131.99V145.862L52.8038 146.502ZM52.0838 145.222V134.934L49.3958 145.222H52.0838ZM48.7398 142.886L51.4118 132.63H48.7398V142.886ZM60.7088 131.046L56.8848 146.758L55.6848 146.566L59.5248 130.838L60.7088 131.046ZM61.4608 145.494H59.4768L58.9968 145.03V142.358L59.4768 141.91H61.4608L61.9408 142.358V145.03L61.4608 145.494ZM56.9168 135.574H54.9328L54.4528 135.126V132.454L54.9328 132.006H56.9168L57.3968 132.454V135.126L56.9168 135.574ZM55.4608 134.646H56.4048V132.934H55.4608V134.646ZM60.0048 144.55H60.9488V142.838H60.0048V144.55Z" fill="#8A1834"/>
<path d="M189.228 104.642H185.132V103.362H186.444V90.7699H185.18V89.4899H187.164L187.884 90.1299V103.362H189.228V104.642ZM195.308 104.642H190.524L189.804 104.002V90.1299L190.524 89.4899H195.308L196.028 90.1299V104.002L195.308 104.642ZM194.588 103.362V93.0739L191.9 103.362H194.588ZM191.244 101.026L193.916 90.7699H191.244V101.026ZM203.213 89.1859L199.389 104.898L198.189 104.706L202.029 88.9779L203.213 89.1859ZM203.965 103.634H201.981L201.501 103.17V100.498L201.981 100.05H203.965L204.445 100.498V103.17L203.965 103.634ZM199.421 93.7139H197.437L196.957 93.2659V90.5939L197.437 90.1459H199.421L199.901 90.5939V93.2659L199.421 93.7139ZM197.965 92.7859H198.909V91.0739H197.965V92.7859ZM202.509 102.69H203.453V100.978H202.509V102.69Z" fill="#A92545"/>
<path d="M160.943 60.5178H156.847V59.2378H158.159V46.6458H156.895V45.3658H158.879L159.599 46.0058V59.2378H160.943V60.5178ZM167.023 60.5178H162.239L161.519 59.8778V46.0058L162.239 45.3658H167.023L167.743 46.0058V59.8778L167.023 60.5178ZM166.303 59.2378V48.9498L163.615 59.2378H166.303ZM162.959 56.9018L165.631 46.6458H162.959V56.9018ZM174.928 45.0618L171.104 60.7738L169.904 60.5818L173.744 44.8538L174.928 45.0618ZM175.68 59.5098H173.696L173.216 59.0458V56.3738L173.696 55.9258H175.68L176.16 56.3738V59.0458L175.68 59.5098ZM171.136 49.5898H169.152L168.672 49.1418V46.4698L169.152 46.0218H171.136L171.616 46.4698V49.1418L171.136 49.5898ZM169.68 48.6618H170.624V46.9498H169.68V48.6618ZM174.224 58.5658H175.168V56.8538H174.224V58.5658Z" fill="#A92545"/>
<path d="M126.801 42.2217V45.6617H129.921V39.7417H126.081L125.361 39.1017V32.4297L126.081 31.7897H131.361V33.0697H126.801V38.4617H130.641L131.361 39.1017V46.3017L130.641 46.9417H126.081L125.361 46.3017V42.2217H126.801ZM138.395 31.4857L134.571 47.1977L133.371 47.0057L137.211 31.2777L138.395 31.4857ZM139.147 45.9337H137.163L136.683 45.4697V42.7977L137.163 42.3497H139.147L139.627 42.7977V45.4697L139.147 45.9337ZM134.603 36.0137H132.619L132.139 35.5657V32.8937L132.619 32.4457H134.603L135.083 32.8937V35.5657L134.603 36.0137ZM133.147 35.0857H134.091V33.3737H133.147V35.0857ZM137.691 44.9897H138.635V43.2777H137.691V44.9897Z" fill="#A92545"/>
</svg>
