<svg width="1104" height="265" viewBox="0 0 1104 265" fill="none" xmlns="http://www.w3.org/2000/svg">
<rect width="1104" height="265" rx="24" fill="url(#paint0_linear_5412_71690)"/>
<mask id="mask0_5412_71690" style="mask-type:alpha" maskUnits="userSpaceOnUse" x="0" y="0" width="1104" height="265">
<rect width="1104" height="265" rx="24" fill="#D9D9D9"/>
</mask>
<g mask="url(#mask0_5412_71690)">
<path d="M128 28.9543C128 77.0031 89.0488 115.954 41 115.954C-7.04877 115.954 -46 77.0031 -46 28.9543C-46 -19.0945 -7.04877 -58.0457 41 -58.0457C89.0488 -58.0457 128 -19.0945 128 28.9543Z" fill="url(#paint1_linear_5412_71690)"/>
<path d="M941.457 231.046C927.864 163.643 971.486 97.9836 1038.89 84.3913C1106.29 70.7989 1171.95 114.421 1185.54 181.823C1199.14 249.226 1155.51 314.885 1088.11 328.478C1020.71 342.07 955.049 298.448 941.457 231.046Z" fill="url(#paint2_linear_5412_71690)"/>
<path d="M246.459 218.409C275.192 214.521 301.637 234.662 305.525 263.395C309.413 292.128 289.273 318.573 260.539 322.461C231.806 326.349 205.362 306.208 201.474 277.475C197.585 248.742 217.726 222.298 246.459 218.409Z" fill="url(#paint3_linear_5412_71690)"/>
<path d="M874.757 -50.4242C889.651 -63.5319 912.35 -62.0844 925.457 -47.1912C938.565 -32.298 937.118 -9.59878 922.224 3.50888C907.331 16.6165 884.632 15.1691 871.524 0.275833C858.417 -14.6174 859.864 -37.3166 874.757 -50.4242Z" fill="url(#paint4_linear_5412_71690)"/>
<path d="M517.367 -64.3717C524.557 -15.9504 491.132 29.1312 442.711 36.321C394.29 43.5108 349.208 10.0861 342.018 -38.3351C334.828 -86.7564 368.253 -131.838 416.674 -139.028C465.096 -146.218 510.177 -112.793 517.367 -64.3717Z" fill="url(#paint5_linear_5412_71690)"/>
</g>
<defs>
<linearGradient id="paint0_linear_5412_71690" x1="1103.6" y1="-6.10166" x2="-34.2143" y2="192.698" gradientUnits="userSpaceOnUse">
<stop stop-color="#50FBB6"/>
<stop offset="1" stop-color="#09C88A"/>
</linearGradient>
<linearGradient id="paint1_linear_5412_71690" x1="571.012" y1="-140.001" x2="571.012" y2="330.959" gradientUnits="userSpaceOnUse">
<stop stop-color="#54FFDB"/>
<stop offset="1" stop-color="#D9D9D9" stop-opacity="0"/>
</linearGradient>
<linearGradient id="paint2_linear_5412_71690" x1="571.012" y1="-140.001" x2="571.012" y2="330.959" gradientUnits="userSpaceOnUse">
<stop stop-color="#00FFCA"/>
<stop offset="1" stop-color="white" stop-opacity="0"/>
</linearGradient>
<linearGradient id="paint3_linear_5412_71690" x1="571.012" y1="-140.001" x2="571.012" y2="330.959" gradientUnits="userSpaceOnUse">
<stop stop-color="#54FFDB"/>
<stop offset="1" stop-color="#D9D9D9" stop-opacity="0"/>
</linearGradient>
<linearGradient id="paint4_linear_5412_71690" x1="416.674" y1="-139.029" x2="442.711" y2="36.3199" gradientUnits="userSpaceOnUse">
<stop stop-color="#54FFDB"/>
<stop offset="1" stop-color="white" stop-opacity="0"/>
</linearGradient>
<linearGradient id="paint5_linear_5412_71690" x1="416.674" y1="-139.029" x2="442.711" y2="36.3199" gradientUnits="userSpaceOnUse">
<stop stop-color="#54FFDB"/>
<stop offset="1" stop-color="white" stop-opacity="0"/>
</linearGradient>
</defs>
</svg>
