<svg width="110" height="43" viewBox="0 0 110 43" fill="none" xmlns="http://www.w3.org/2000/svg">
<path d="M22.7889 29.3784H8L15.177 43L22.7889 29.3784Z" fill="url(#paint0_linear_1633_12345)"/>
<g filter="url(#filter0_d_1633_12345)">
<path d="M15.6528 3H91.2111L87.8838 14.8044C85.454 23.4245 77.5898 29.3784 68.6339 29.3784H8.21748L15.6528 3Z" fill="#FFC530"/>
</g>
<path d="M29.1262 7.264C28.2022 7.264 27.4462 7.468 26.8462 7.888C26.1982 8.32 25.8862 8.92 25.8862 9.676C25.8862 10.432 26.2102 11.008 26.8702 11.404C27.1222 11.548 27.7822 11.788 28.8382 12.124C29.7862 12.412 30.3382 12.604 30.5062 12.688C31.0342 12.952 31.3102 13.312 31.3102 13.768C31.3102 14.128 31.1182 14.404 30.7582 14.62C30.3982 14.824 29.8942 14.932 29.2702 14.932C28.5622 14.932 28.0462 14.8 27.7102 14.56C27.3382 14.284 27.1102 13.816 27.0142 13.168H25.6222C25.6822 14.26 26.0782 15.052 26.7982 15.556C27.3862 15.964 28.2142 16.168 29.2702 16.168C30.3622 16.168 31.2142 15.94 31.8142 15.508C32.4142 15.064 32.7142 14.452 32.7142 13.684C32.7142 12.892 32.3422 12.28 31.5982 11.836C31.2622 11.644 30.5182 11.356 29.3542 10.996C28.5622 10.744 28.0702 10.564 27.8902 10.468C27.4822 10.252 27.2902 9.952 27.2902 9.592C27.2902 9.184 27.4582 8.884 27.8182 8.704C28.1062 8.548 28.5142 8.476 29.0542 8.476C29.6782 8.476 30.1582 8.584 30.4702 8.824C30.7822 9.052 31.0102 9.436 31.1302 9.964H32.5222C32.4382 9.028 32.0902 8.332 31.4902 7.888C30.9262 7.468 30.1342 7.264 29.1262 7.264ZM36.0622 9.628C35.1382 9.628 34.4062 9.94 33.8782 10.576C33.3262 11.2 33.0622 11.968 33.0622 12.892C33.0622 13.924 33.3502 14.728 33.9262 15.316C34.4662 15.88 35.1982 16.168 36.1222 16.168C36.9502 16.168 37.6342 15.928 38.1862 15.46C38.6182 15.076 38.9062 14.584 39.0502 14.008H37.6822C37.5142 14.356 37.3342 14.608 37.1302 14.764C36.8662 14.956 36.5302 15.052 36.1102 15.052C35.6182 15.052 35.2342 14.896 34.9702 14.596C34.7062 14.296 34.5502 13.852 34.5022 13.276H39.1462C39.1462 12.16 38.8942 11.284 38.4022 10.66C37.8622 9.964 37.0822 9.628 36.0622 9.628ZM36.0982 10.744C37.0582 10.744 37.5982 11.236 37.7182 12.244H34.5262C34.6102 11.752 34.7782 11.38 35.0302 11.128C35.2942 10.864 35.6422 10.744 36.0982 10.744ZM42.6383 9.628C41.6663 9.628 40.9103 9.952 40.3703 10.6C39.8663 11.188 39.6143 11.956 39.6143 12.892C39.6143 13.852 39.8663 14.632 40.3823 15.232C40.9103 15.856 41.6543 16.168 42.6143 16.168C43.4183 16.168 44.0663 15.964 44.5463 15.568C45.0383 15.16 45.3623 14.536 45.5063 13.696H44.1503C44.0423 14.596 43.5383 15.052 42.6263 15.052C42.0983 15.052 41.7023 14.86 41.4383 14.488C41.1503 14.104 41.0183 13.564 41.0183 12.88C41.0183 12.208 41.1623 11.68 41.4503 11.308C41.7383 10.924 42.1343 10.744 42.6383 10.744C43.0463 10.744 43.3823 10.84 43.6343 11.032C43.8743 11.224 44.0423 11.512 44.1263 11.908H45.4823C45.3623 11.128 45.0503 10.552 44.5583 10.168C44.0783 9.808 43.4423 9.628 42.6383 9.628ZM49.0844 9.628C48.1364 9.628 47.3804 9.928 46.8164 10.552C46.2404 11.164 45.9644 11.944 45.9644 12.904C45.9644 13.852 46.2404 14.632 46.8044 15.232C47.3804 15.856 48.1364 16.168 49.0844 16.168C50.0204 16.168 50.7884 15.856 51.3644 15.232C51.9164 14.632 52.2044 13.852 52.2044 12.904C52.2044 11.944 51.9164 11.164 51.3524 10.552C50.7764 9.928 50.0204 9.628 49.0844 9.628ZM49.0844 10.744C49.6484 10.744 50.0924 10.96 50.4044 11.416C50.6684 11.8 50.8124 12.304 50.8124 12.904C50.8124 13.492 50.6684 13.984 50.4044 14.38C50.0924 14.824 49.6484 15.052 49.0844 15.052C48.5084 15.052 48.0764 14.824 47.7644 14.38C47.5004 13.996 47.3684 13.504 47.3684 12.904C47.3684 12.304 47.5004 11.8 47.7644 11.416C48.0764 10.96 48.5084 10.744 49.0844 10.744ZM56.2272 9.628C55.8552 9.628 55.5192 9.7 55.2072 9.856C54.9072 10 54.6312 10.228 54.3912 10.516V9.796H53.0232V16H54.3912V12.268C54.4392 11.776 54.6072 11.392 54.8952 11.128C55.1472 10.888 55.4472 10.768 55.7832 10.768C56.7192 10.768 57.1872 11.272 57.1872 12.292V16H58.5552V12.172C58.5552 10.468 57.7752 9.628 56.2272 9.628ZM64.0354 7.264V10.648C63.5194 9.964 62.9074 9.628 62.1874 9.628C61.2994 9.628 60.5914 9.952 60.0874 10.6C59.6074 11.2 59.3794 11.956 59.3794 12.868C59.3794 13.816 59.6194 14.596 60.0994 15.196C60.6154 15.844 61.3354 16.168 62.2594 16.168C63.0754 16.168 63.6994 15.892 64.1314 15.34V16H65.4034V7.264H64.0354ZM62.5114 10.732C62.9434 10.732 63.3154 10.912 63.6034 11.272C63.9154 11.656 64.0834 12.184 64.0834 12.844V12.94C64.0834 13.54 63.9514 14.044 63.6994 14.428C63.4114 14.848 62.9914 15.064 62.4634 15.064C61.8514 15.064 61.4074 14.848 61.1314 14.416C60.8914 14.056 60.7834 13.54 60.7834 12.868C60.7834 12.196 60.9034 11.692 61.1554 11.344C61.4434 10.936 61.8874 10.732 62.5114 10.732ZM30.7238 17.432V26H32.1278V22.508H34.3478C34.8278 22.508 35.1998 22.604 35.4518 22.82C35.6918 23.024 35.8358 23.36 35.8838 23.828L35.9918 24.884C36.0398 25.364 36.1598 25.736 36.3638 26H37.8878C37.5998 25.688 37.4198 25.268 37.3718 24.74L37.2278 23.36C37.1318 22.52 36.7118 22.028 35.9678 21.86V21.836C36.4238 21.716 36.7958 21.464 37.0598 21.08C37.2998 20.732 37.4198 20.336 37.4198 19.892C37.4198 19.076 37.1438 18.452 36.6158 18.02C36.1118 17.624 35.4158 17.432 34.5398 17.432H30.7238ZM32.1278 18.632H34.3478C34.9238 18.632 35.3438 18.728 35.6078 18.944C35.8718 19.148 36.0038 19.484 36.0038 19.952C36.0038 20.384 35.8718 20.72 35.6078 20.96C35.3198 21.188 34.8998 21.308 34.3478 21.308H32.1278V18.632ZM41.4745 19.628C40.5265 19.628 39.7705 19.928 39.2065 20.552C38.6305 21.164 38.3545 21.944 38.3545 22.904C38.3545 23.852 38.6305 24.632 39.1945 25.232C39.7705 25.856 40.5265 26.168 41.4745 26.168C42.4105 26.168 43.1785 25.856 43.7545 25.232C44.3065 24.632 44.5945 23.852 44.5945 22.904C44.5945 21.944 44.3065 21.164 43.7425 20.552C43.1665 19.928 42.4105 19.628 41.4745 19.628ZM41.4745 20.744C42.0385 20.744 42.4825 20.96 42.7945 21.416C43.0585 21.8 43.2025 22.304 43.2025 22.904C43.2025 23.492 43.0585 23.984 42.7945 24.38C42.4825 24.824 42.0385 25.052 41.4745 25.052C40.8985 25.052 40.4665 24.824 40.1545 24.38C39.8905 23.996 39.7585 23.504 39.7585 22.904C39.7585 22.304 39.8905 21.8 40.1545 21.416C40.4665 20.96 40.8985 20.744 41.4745 20.744ZM45.4134 19.796V23.66C45.4134 25.328 46.1574 26.168 47.6454 26.168C48.4134 26.168 49.0614 25.844 49.5894 25.196V26H50.9574V19.796H49.5894V23.588C49.4694 24.032 49.2654 24.38 48.9894 24.644C48.7134 24.896 48.4254 25.028 48.1254 25.028C47.6454 25.028 47.3094 24.908 47.0934 24.68C46.8774 24.44 46.7814 24.08 46.7814 23.576V19.796H45.4134ZM55.2253 19.628C54.8533 19.628 54.5173 19.7 54.2053 19.856C53.9053 20 53.6293 20.228 53.3893 20.516V19.796H52.0213V26H53.3893V22.268C53.4373 21.776 53.6053 21.392 53.8933 21.128C54.1453 20.888 54.4453 20.768 54.7813 20.768C55.7173 20.768 56.1853 21.272 56.1853 22.292V26H57.5533V22.172C57.5533 20.468 56.7733 19.628 55.2253 19.628ZM63.0334 17.264V20.648C62.5174 19.964 61.9054 19.628 61.1854 19.628C60.2974 19.628 59.5894 19.952 59.0854 20.6C58.6054 21.2 58.3774 21.956 58.3774 22.868C58.3774 23.816 58.6174 24.596 59.0974 25.196C59.6134 25.844 60.3334 26.168 61.2574 26.168C62.0734 26.168 62.6974 25.892 63.1294 25.34V26H64.4015V17.264H63.0334ZM61.5094 20.732C61.9414 20.732 62.3134 20.912 62.6014 21.272C62.9134 21.656 63.0814 22.184 63.0814 22.844V22.94C63.0814 23.54 62.9494 24.044 62.6974 24.428C62.4094 24.848 61.9894 25.064 61.4614 25.064C60.8494 25.064 60.4054 24.848 60.1294 24.416C59.8894 24.056 59.7814 23.54 59.7814 22.868C59.7814 22.196 59.9014 21.692 60.1534 21.344C60.4414 20.936 60.8854 20.732 61.5094 20.732Z" fill="#603400"/>
<defs>
<filter id="filter0_d_1633_12345" x="0.217484" y="0" width="98.9936" height="42.3784" filterUnits="userSpaceOnUse" color-interpolation-filters="sRGB">
<feFlood flood-opacity="0" result="BackgroundImageFix"/>
<feColorMatrix in="SourceAlpha" type="matrix" values="0 0 0 0 0 0 0 0 0 0 0 0 0 0 0 0 0 0 127 0" result="hardAlpha"/>
<feOffset dy="5"/>
<feGaussianBlur stdDeviation="4"/>
<feColorMatrix type="matrix" values="0 0 0 0 0.441667 0 0 0 0 0.150535 0 0 0 0 0.0257639 0 0 0 0.3 0"/>
<feBlend mode="normal" in2="BackgroundImageFix" result="effect1_dropShadow_1633_12345"/>
<feBlend mode="normal" in="SourceGraphic" in2="effect1_dropShadow_1633_12345" result="shape"/>
</filter>
<linearGradient id="paint0_linear_1633_12345" x1="22.7889" y1="29.3784" x2="24.46" y2="40.3825" gradientUnits="userSpaceOnUse">
<stop stop-color="#FF8000"/>
<stop offset="1" stop-color="#FFB030"/>
</linearGradient>
</defs>
</svg>
