<svg width="187" height="81" viewBox="0 0 187 81" fill="none" xmlns="http://www.w3.org/2000/svg">
<path d="M33.9531 54.4377H8L20.5949 80.9999L33.9531 54.4377Z" fill="url(#paint0_linear_1775_12764)"/>
<g filter="url(#filter0_d_1775_12764)">
<path d="M21.4299 3H161.047L157.563 16.732C151.938 38.9087 131.978 54.4378 109.098 54.4378H8.38159L21.4299 3Z" fill="#FFC530"/>
</g>
<path d="M41.8833 26.7607V28.9047H31.9953L30.3953 37.1287H38.5873C36.6673 38.7927 33.4673 40.2967 28.9873 41.6727L30.8433 44.7127C35.9313 42.7927 39.6113 40.5207 41.8833 37.8967V45.2247H45.1473V37.1287H53.3713C53.3713 38.1847 53.2753 39.0167 53.1473 39.5927C52.9553 40.1687 52.4433 40.4567 51.5793 40.4567C50.2673 40.4567 48.8593 40.3927 47.3233 40.3287L48.1553 43.4967C49.4353 43.5287 50.7793 43.5607 52.1233 43.5607C54.1073 43.4967 55.3553 42.9527 55.9313 41.8647C56.4753 40.7767 56.7633 38.2487 56.7633 34.2807H45.1473V31.9127H55.6113V23.7207H31.4513V26.7607H41.8833ZM41.8833 31.9127V34.2807H34.3633L34.9393 31.9127H41.8833ZM45.1473 28.9047V26.7607H52.1873V28.9047H45.1473ZM33.9153 20.4887H35.5153C36.2513 21.5127 36.8913 22.5367 37.4673 23.5927L40.4753 22.4727C40.0913 21.8327 39.6433 21.1927 39.0993 20.4887H43.2593V17.5767H35.4833C35.6753 17.1287 35.8673 16.6807 36.0593 16.2007L32.8273 15.4967C32.0273 17.6407 30.6833 19.6567 28.7633 21.5447L31.6753 23.3687C32.5073 22.4727 33.2433 21.5127 33.9153 20.4887ZM47.5793 20.3287H49.3393C50.1073 21.3527 50.8113 22.4407 51.4193 23.5607L54.3633 22.4407C53.9793 21.7687 53.4993 21.0647 52.9233 20.3287H57.8513V17.4167H48.9233C49.0833 17.0327 49.2433 16.6167 49.3713 16.2007L46.2033 15.4967C45.4993 17.6407 44.3153 19.6567 42.6193 21.5767L45.4993 23.4007C46.2673 22.4407 46.9393 21.4167 47.5793 20.3287ZM63.4268 18.7607V22.0567H86.4028V18.7607H63.4268ZM60.4508 38.8887V42.2487H89.3468V38.8887H60.4508ZM107.658 24.3607V25.5767H117.642V24.3287C118.346 24.8407 119.114 25.3527 119.946 25.8647L121.642 23.2727C118.026 21.1287 115.466 18.6327 113.994 15.8167H111.306C109.578 18.7927 107.082 21.2247 103.882 23.1447V22.8887H99.9463V21.1607H104.554V18.2167H99.9463V15.6247H96.6183V18.2167H92.0743V21.1607H96.6183V22.8887H92.6823V36.2327H96.6183V37.9927H92.0423V40.9367H96.6183V45.1927H99.9463V40.9367H104.554V37.9927H99.9463V36.2327H103.882V23.6247L105.354 25.8967C106.122 25.4487 106.89 24.9367 107.658 24.3607ZM115.754 22.6967H109.546C110.698 21.5447 111.722 20.2327 112.65 18.7607C113.45 20.1687 114.474 21.4807 115.754 22.6967ZM107.85 37.2567H109.354V43.7207H111.914V37.2567H113.258V43.6567H115.018L115.37 45.0647H117.386C119.21 45.0647 120.138 44.0727 120.138 42.1527V27.5607H104.97V45.0647H107.85V37.2567ZM115.818 42.3127V37.2567H117.258V41.5447C117.258 42.0567 117.002 42.3447 116.49 42.3447L115.818 42.3127ZM117.258 34.4407H115.818V30.5047H117.258V34.4407ZM113.258 30.5047V34.4407H111.914V30.5047H113.258ZM109.354 30.5047V34.4407H107.85V30.5047H109.354ZM101.13 33.5447H99.5943V30.7927H101.13V33.5447ZM96.9703 33.5447H95.4343V30.7927H96.9703V33.5447ZM95.4343 28.2967V25.5767H96.9703V28.2967H95.4343ZM99.5943 25.5767H101.13V28.2967H99.5943V25.5767Z" fill="#603400"/>
<defs>
<filter id="filter0_d_1775_12764" x="0.381592" y="0" width="168.665" height="67.4377" filterUnits="userSpaceOnUse" color-interpolation-filters="sRGB">
<feFlood flood-opacity="0" result="BackgroundImageFix"/>
<feColorMatrix in="SourceAlpha" type="matrix" values="0 0 0 0 0 0 0 0 0 0 0 0 0 0 0 0 0 0 127 0" result="hardAlpha"/>
<feOffset dy="5"/>
<feGaussianBlur stdDeviation="4"/>
<feColorMatrix type="matrix" values="0 0 0 0 0.441667 0 0 0 0 0.150535 0 0 0 0 0.0257639 0 0 0 0.3 0"/>
<feBlend mode="normal" in2="BackgroundImageFix" result="effect1_dropShadow_1775_12764"/>
<feBlend mode="normal" in="SourceGraphic" in2="effect1_dropShadow_1775_12764" result="shape"/>
</filter>
<linearGradient id="paint0_linear_1775_12764" x1="33.9531" y1="54.4377" x2="37.555" y2="75.7828" gradientUnits="userSpaceOnUse">
<stop stop-color="#FF8000"/>
<stop offset="1" stop-color="#FFB030"/>
</linearGradient>
</defs>
</svg>
