<svg width="113" height="31" viewBox="0 0 113 31" fill="none" xmlns="http://www.w3.org/2000/svg">
<path d="M108.993 1.88001C108.927 1.33171 108.428 0.940955 107.88 1.00723L98.945 2.08717C98.3967 2.15344 98.006 2.65164 98.0723 3.19994C98.1385 3.74823 98.6367 4.13899 99.185 4.07272L107.127 3.11277L108.087 11.055C108.153 11.6033 108.652 11.994 109.2 11.9277C109.748 11.8615 110.139 11.3633 110.073 10.815L108.993 1.88001ZM1.8127 10.4061L2.62794 10.9852L3.78619 9.35477L2.97095 8.77564L1.8127 10.4061ZM18.8675 18.3491L17.9707 17.9065L17.0856 19.7L17.9824 20.1426L18.8675 18.3491ZM18.8135 20.5481L19.7142 20.9825L20.5831 19.1811L19.6823 18.7467L18.8135 20.5481ZM37.0697 25.0291L36.0971 24.7966L35.6322 26.7419L36.6049 26.9743L37.0697 25.0291ZM37.5358 27.1907L38.5112 27.4112L38.9521 25.4604L37.9767 25.2399L37.5358 27.1907ZM56.2878 26.9378L55.2888 26.9812L55.3756 28.9793L56.3747 28.9359L56.2878 26.9378ZM57.3271 28.8877L58.3254 28.8303L58.2104 26.8336L57.2121 26.8911L57.3271 28.8877ZM75.2208 23.2849L74.2766 23.6142L74.9351 25.5027L75.8794 25.1734L75.2208 23.2849ZM76.7843 24.8509L77.724 24.5089L77.0399 22.6295L76.1003 22.9715L76.7843 24.8509ZM92.4752 14.5119L91.6492 15.0757L92.7768 16.7276L93.6027 16.1638L92.4752 14.5119ZM94.3709 15.6329L95.1903 15.0597L94.0438 13.4209L93.2244 13.9941L94.3709 15.6329ZM106.964 1.68872L106.325 2.45781L107.863 3.73609L108.502 2.967L106.964 1.68872ZM1.41803 10.1247C1.54968 10.2189 1.68123 10.3127 1.8127 10.4061L2.97095 8.77564C2.84139 8.6836 2.71173 8.59115 2.58197 8.49829L1.41803 10.1247ZM17.9824 20.1426C18.2599 20.2796 18.537 20.4147 18.8135 20.5481L19.6823 18.7467C19.4112 18.6159 19.1396 18.4834 18.8675 18.3491L17.9824 20.1426ZM36.6049 26.9743C36.916 27.0486 37.2263 27.1208 37.5358 27.1907L37.9767 25.2399C37.6752 25.1718 37.3729 25.1015 37.0697 25.0291L36.6049 26.9743ZM56.3747 28.9359C56.6934 28.922 57.0109 28.906 57.3271 28.8877L57.2121 26.8911C56.9052 26.9087 56.5971 26.9243 56.2878 26.9378L56.3747 28.9359ZM75.8794 25.1734C76.1829 25.0675 76.4846 24.96 76.7843 24.8509L76.1003 22.9715C75.8089 23.0776 75.5158 23.1821 75.2208 23.2849L75.8794 25.1734ZM93.6027 16.1638C93.8619 15.9869 94.118 15.8099 94.3709 15.6329L93.2244 13.9941C92.9777 14.1667 92.728 14.3394 92.4752 14.5119L93.6027 16.1638ZM108.502 2.967C108.594 2.85645 108.664 2.77075 108.711 2.71182C108.735 2.68235 108.753 2.65956 108.766 2.64371C108.772 2.63578 108.777 2.62958 108.781 2.62515C108.782 2.62293 108.784 2.62115 108.785 2.61982C108.785 2.61915 108.786 2.61859 108.786 2.61815C108.786 2.61793 108.786 2.61773 108.787 2.61756C108.787 2.61748 108.787 2.61741 108.787 2.61734C108.787 2.6173 108.787 2.61727 108.787 2.61724C108.787 2.61722 108.787 2.6172 108.787 2.61719C108.787 2.61717 108.787 2.61715 108 2C107.213 1.38285 107.213 1.38283 107.213 1.38281C107.213 1.3828 107.213 1.38279 107.213 1.38277C107.213 1.38275 107.213 1.38273 107.213 1.38271C107.213 1.38266 107.213 1.38263 107.213 1.3826C107.213 1.38255 107.213 1.38252 107.213 1.38252C107.213 1.38252 107.213 1.38263 107.213 1.38286C107.213 1.3833 107.212 1.38419 107.211 1.38551C107.209 1.38817 107.205 1.39257 107.201 1.3987C107.191 1.41095 107.176 1.4301 107.155 1.45591C107.113 1.50752 107.049 1.58575 106.964 1.68872L108.502 2.967ZM109.986 1.76001C109.853 0.663424 108.857 -0.118091 107.76 0.0144508L89.8901 2.17434C88.7935 2.30688 88.012 3.30329 88.1445 4.39988C88.277 5.49647 89.2735 6.27798 90.37 6.14544L106.254 4.22554L108.174 20.1099C108.307 21.2065 109.303 21.988 110.4 21.8555C111.496 21.723 112.278 20.7265 112.145 19.63L109.986 1.76001ZM1.23357 11.2214L2.86405 12.3796L5.18055 9.11865L3.55008 7.9604L1.23357 11.2214ZM19.31 17.4524L17.5166 16.5672L15.7463 20.1542L17.5398 21.0393L19.31 17.4524ZM18.3791 21.4488L20.1805 22.3176L21.9182 18.7148L20.1168 17.846L18.3791 21.4488ZM37.3021 24.0564L35.3569 23.5916L34.4272 27.4821L36.3724 27.9469L37.3021 24.0564ZM37.3153 28.1661L39.2661 28.607L40.148 24.7055L38.1972 24.2645L37.3153 28.1661ZM56.2444 25.9387L54.2463 26.0256L54.42 30.0218L56.4181 29.9349L56.2444 25.9387ZM57.3846 29.8861L59.3812 29.7711L59.1513 25.7777L57.1546 25.8927L57.3846 29.8861ZM74.8915 22.3407L73.0031 22.9992L74.3202 26.7762L76.2086 26.1176L74.8915 22.3407ZM77.1263 25.7906L79.0057 25.1066L77.6376 21.3478L75.7582 22.0319L77.1263 25.7906ZM91.9114 13.686L90.2595 14.8135L92.5146 18.1173L94.1665 16.9897L91.9114 13.686ZM94.9442 16.4523L96.5829 15.3058L94.2899 12.0283L92.6512 13.1748L94.9442 16.4523ZM106.195 1.04958L104.916 2.58776L107.993 5.14432L109.271 3.60614L106.195 1.04958ZM0.83606 10.9379C0.968652 11.0328 1.10116 11.1273 1.23357 11.2214L3.55008 7.9604C3.42146 7.86904 3.29275 7.77726 3.16394 7.68508L0.83606 10.9379ZM17.5398 21.0393C17.8201 21.1776 18.0998 21.3141 18.3791 21.4488L20.1168 17.846C19.8484 17.7165 19.5795 17.5853 19.31 17.4524L17.5398 21.0393ZM36.3724 27.9469C36.6875 28.0222 37.0019 28.0953 37.3153 28.1661L38.1972 24.2645C37.8997 24.1973 37.6013 24.1279 37.3021 24.0564L36.3724 27.9469ZM56.4181 29.9349C56.7415 29.9209 57.0637 29.9046 57.3846 29.8861L57.1546 25.8927C56.8524 25.9101 56.549 25.9255 56.2444 25.9387L56.4181 29.9349ZM76.2086 26.1176C76.5165 26.0103 76.8224 25.9013 77.1263 25.7906L75.7582 22.0319C75.4711 22.1364 75.1822 22.2393 74.8915 22.3407L76.2086 26.1176ZM94.1665 16.9897C94.4289 16.8106 94.6881 16.6314 94.9442 16.4523L92.6512 13.1748C92.4076 13.3452 92.161 13.5156 91.9114 13.686L94.1665 16.9897ZM109.271 3.60614C109.366 3.4918 109.439 3.40237 109.489 3.33977C109.515 3.30847 109.534 3.28387 109.548 3.26621C109.555 3.25738 109.561 3.25029 109.565 3.24496C109.567 3.2423 109.569 3.24007 109.571 3.2383C109.571 3.23741 109.572 3.23663 109.572 3.23596C109.573 3.23563 109.573 3.23532 109.573 3.23505C109.573 3.23491 109.573 3.23478 109.573 3.23465C109.573 3.23459 109.574 3.23453 109.574 3.23447C109.574 3.23444 109.574 3.2344 109.574 3.23438C109.574 3.23434 109.574 3.2343 108 2C106.426 0.765702 106.426 0.765661 106.426 0.76562C106.426 0.765607 106.426 0.765567 106.426 0.765541C106.426 0.765489 106.427 0.765439 106.427 0.765391C106.427 0.765294 106.427 0.765204 106.427 0.765121C106.427 0.764955 106.427 0.764817 106.427 0.764707C106.427 0.764487 106.427 0.764377 106.427 0.764377C106.427 0.764378 106.427 0.76482 106.426 0.765699C106.425 0.767457 106.422 0.770964 106.418 0.776191C106.41 0.786645 106.396 0.803977 106.376 0.82795C106.338 0.875899 106.277 0.950403 106.195 1.04958L109.271 3.60614Z" fill="#00FFCA"/>
</svg>
