<svg width="13" height="40" viewBox="0 0 13 40" fill="none" xmlns="http://www.w3.org/2000/svg">
<path d="M0.910648 37.492C0.638951 37.4426 0.458701 37.1823 0.508049 36.9106L1.31222 32.4831C1.36156 32.2114 1.62182 32.0311 1.89352 32.0805C2.16522 32.1298 2.34547 32.3901 2.29612 32.6618L1.5813 36.5974L5.51691 37.3122C5.78861 37.3616 5.96886 37.6218 5.91951 37.8935C5.87017 38.1652 5.60991 38.3455 5.33821 38.2961L0.910648 37.492ZM4.53369 1.10095L4.84412 1.49291L4.0602 2.11378L3.74977 1.72182L4.53369 1.10095ZM8.50974 9.46034L8.30977 9.00207L9.22631 8.60213L9.42628 9.0604L8.50974 9.46034ZM9.82653 10.026L10.0093 10.4914L9.07847 10.8569L8.89572 10.3915L9.82653 10.026ZM10.4856 19.2149L10.5048 18.7153L11.504 18.7536L11.4849 19.2532L10.4856 19.2149ZM11.4176 20.3041L11.3728 20.8021L10.3768 20.7126L10.4216 20.2146L11.4176 20.3041ZM7.66385 28.7371L7.91279 28.3035L8.78003 28.8014L8.5311 29.235L7.66385 28.7371ZM7.99042 30.1329L7.72373 30.5559L6.87785 30.0225L7.14454 29.5996L7.99042 30.1329ZM1.09606 36.3057L1.49179 36.0001L2.103 36.7915L1.70727 37.0971L1.09606 36.3057ZM4.20056 0.685183C4.31311 0.824059 4.42415 0.962649 4.53369 1.10095L3.74977 1.72182C3.64258 1.58647 3.53388 1.4508 3.42367 1.31482L4.20056 0.685183ZM9.42628 9.0604C9.56765 9.38438 9.70098 9.70624 9.82653 10.026L8.89572 10.3915C8.77476 10.0834 8.64619 9.77305 8.50974 9.46034L9.42628 9.0604ZM11.4849 19.2532C11.4713 19.608 11.4487 19.9583 11.4176 20.3041L10.4216 20.2146C10.4511 19.8857 10.4727 19.5524 10.4856 19.2149L11.4849 19.2532ZM8.5311 29.235C8.35462 29.5424 8.17402 29.8418 7.99042 30.1329L7.14454 29.5996C7.32101 29.3197 7.49446 29.0322 7.66385 28.7371L8.5311 29.235ZM1.70727 37.0971C1.5755 37.1989 1.47146 37.2763 1.39958 37.3287C1.36363 37.355 1.33572 37.375 1.31639 37.3887C1.30672 37.3956 1.2992 37.4009 1.29389 37.4046C1.29124 37.4065 1.28914 37.4079 1.2876 37.409C1.28683 37.4095 1.2862 37.41 1.28572 37.4103C1.28547 37.4105 1.28526 37.4106 1.28509 37.4108C1.28501 37.4108 1.28493 37.4109 1.28486 37.4109C1.28483 37.4109 1.28479 37.411 1.28476 37.411C1.28475 37.411 1.28473 37.411 1.28472 37.411C1.2847 37.411 1.28468 37.411 1 37C0.715319 36.589 0.715301 36.589 0.715283 36.589C0.715278 36.589 0.71526 36.589 0.71525 36.589C0.715229 36.589 0.71521 36.589 0.715194 36.589C0.715161 36.5891 0.715137 36.5891 0.715121 36.5891C0.715091 36.5891 0.715095 36.5891 0.715135 36.5891C0.715215 36.589 0.715435 36.5889 0.715795 36.5886C0.716515 36.5881 0.717793 36.5872 0.719621 36.5859C0.723277 36.5834 0.729132 36.5793 0.737117 36.5736C0.753088 36.5622 0.777578 36.5447 0.81004 36.521C0.874969 36.4736 0.971766 36.4017 1.09606 36.3057L1.70727 37.0971ZM0.821296 37.9839C0.277902 37.8852 -0.0825983 37.3647 0.0160971 36.8213L1.62443 27.9662C1.72313 27.4228 2.24364 27.0623 2.78704 27.161C3.33043 27.2597 3.69093 27.7802 3.59224 28.3236L2.16261 36.1948L10.0338 37.6244C10.5772 37.7231 10.9377 38.2436 10.839 38.787C10.7403 39.3304 10.2198 39.6909 9.67642 39.5922L0.821296 37.9839ZM4.92565 0.790519L5.54651 1.57444L3.97868 2.81617L3.35781 2.03225L4.92565 0.790519ZM8.05147 9.66031L7.65152 8.74377L9.48461 7.94389L9.88455 8.86043L8.05147 9.66031ZM10.2919 9.8432L10.6574 10.774L8.79582 11.505L8.43031 10.5742L10.2919 9.8432ZM9.98597 19.1958L10.0243 18.1965L12.0228 18.2731L11.9845 19.2724L9.98597 19.1958ZM11.9156 20.3489L11.8261 21.3449L9.83408 21.1658L9.9236 20.1699L11.9156 20.3489ZM7.23022 28.4882L7.7281 27.6209L9.4626 28.6167L8.96472 29.4839L7.23022 28.4882ZM8.41336 30.3996L7.87998 31.2455L6.18823 30.1787L6.7216 29.3329L8.41336 30.3996ZM0.790455 35.9099L1.58192 35.2987L2.80434 36.8817L2.01288 37.4929L0.790455 35.9099ZM4.58901 0.370366C4.70273 0.510686 4.81494 0.650738 4.92565 0.790519L3.35781 2.03225C3.25179 1.89838 3.14426 1.76418 3.03522 1.62963L4.58901 0.370366ZM9.88455 8.86043C10.0284 9.19004 10.1641 9.51764 10.2919 9.8432L8.43031 10.5742C8.31166 10.272 8.18546 9.96739 8.05147 9.66031L9.88455 8.86043ZM11.9845 19.2724C11.9706 19.6358 11.9474 19.9946 11.9156 20.3489L9.9236 20.1699C9.9524 19.8494 9.97337 19.5247 9.98597 19.1958L11.9845 19.2724ZM8.96472 29.4839C8.78469 29.7975 8.60053 30.1028 8.41336 30.3996L6.7216 29.3329C6.89451 29.0587 7.06439 28.7771 7.23022 28.4882L8.96472 29.4839ZM2.01288 37.4929C1.87737 37.5975 1.76971 37.6776 1.69434 37.7326C1.65666 37.7601 1.62703 37.7814 1.60602 37.7963C1.59551 37.8038 1.58716 37.8096 1.58103 37.8139C1.57796 37.8161 1.57545 37.8179 1.5735 37.8192C1.57253 37.8199 1.5717 37.8205 1.57101 37.8209C1.57066 37.8212 1.57035 37.8214 1.57008 37.8216C1.56994 37.8217 1.56981 37.8218 1.56969 37.8219C1.56963 37.8219 1.56958 37.8219 1.56952 37.822C1.56949 37.822 1.56945 37.822 1.56944 37.822C1.5694 37.8221 1.56936 37.8221 1 37C0.430638 36.1779 0.430601 36.1779 0.430564 36.178C0.430552 36.178 0.430516 36.178 0.430493 36.178C0.430447 36.178 0.430403 36.1781 0.430361 36.1781C0.430277 36.1782 0.430202 36.1782 0.430136 36.1783C0.430004 36.1784 0.429907 36.1784 0.429845 36.1785C0.429721 36.1786 0.429737 36.1785 0.429892 36.1784C0.430203 36.1782 0.431071 36.1776 0.432486 36.1766C0.435316 36.1746 0.440338 36.1711 0.447483 36.166C0.461773 36.1559 0.484551 36.1395 0.515272 36.1171C0.576722 36.0723 0.669899 36.003 0.790455 35.9099L2.01288 37.4929Z" fill="#00FFCA"/>
</svg>
