<svg width="35" height="31" viewBox="0 0 35 31" fill="none" xmlns="http://www.w3.org/2000/svg">
<path fill-rule="evenodd" clip-rule="evenodd" d="M3.224 0.256836C2.67171 0.256836 2.224 0.704552 2.224 1.25684V10.0985C2.224 13.4122 4.91029 16.0985 8.224 16.0985H18.0657V6.25684C18.0657 2.94313 15.3794 0.256836 12.0657 0.256836H3.224ZM10.8026 2.51993H4.4871V9.83542C4.4871 12.0446 6.27796 13.8354 8.48709 13.8354H15.8026V7.51993C15.8026 4.75851 13.564 2.51993 10.8026 2.51993Z" fill="#95C6B7"/>
<path fill-rule="evenodd" clip-rule="evenodd" d="M31.7759 0.256836C32.3282 0.256836 32.7759 0.704552 32.7759 1.25684V10.0985C32.7759 13.4122 30.0896 16.0985 26.7759 16.0985H16.9342V6.25684C16.9342 2.94313 19.6205 0.256836 22.9342 0.256836H31.7759ZM24.1973 2.51993H30.5128V9.83542C30.5128 12.0446 28.7219 13.8354 26.5128 13.8354H19.1973V7.51993C19.1973 4.75851 21.4359 2.51993 24.1973 2.51993Z" fill="#95C6B7"/>
<rect x="15.8026" y="4.7832" width="3.39465" height="19.2363" rx="1.69732" fill="#95C6B7"/>
<path d="M7.8711 18.3613C7.16481 18.3613 6.49901 18.6911 6.07096 19.2529L0.467103 26.608C-0.667896 28.0976 0.394441 30.2426 2.26724 30.2426H32.7327C34.6055 30.2426 35.6678 28.0976 34.5328 26.608L28.929 19.2529C28.5009 18.6911 27.8351 18.3613 27.1288 18.3613H23.4405C22.9718 18.3613 22.5919 18.7413 22.5919 19.21C22.5919 19.6787 22.9718 20.0587 23.4405 20.0587H26.5358C26.9012 20.0587 27.2442 20.2351 27.4566 20.5325L32.7759 27.9795H2.22405L7.54333 20.5325C7.75574 20.2351 8.09868 20.0587 8.46411 20.0587H11.5593C12.028 20.0587 12.4079 19.6787 12.4079 19.21C12.4079 18.7413 12.028 18.3613 11.5593 18.3613H7.8711Z" fill="#95C6B7"/>
</svg>
