<svg width="32" height="32" viewBox="0 0 32 32" fill="none" xmlns="http://www.w3.org/2000/svg">
<path fill-rule="evenodd" clip-rule="evenodd" d="M7.25 1C9.31917 1 11 2.68083 11 4.75C11 6.81917 9.31311 8.5 7.25 8.5C5.18083 8.5 3.5 6.81917 3.5 4.75C3.5 2.68083 5.18083 1 7.25 1ZM15.5833 8.5C17.6525 8.5 19.3333 6.81917 19.3333 4.75C19.3333 2.68083 17.6525 1 15.5833 1C13.5142 1 11.8333 2.68083 11.8333 4.75C11.8333 6.81917 13.5142 8.5 15.5833 8.5ZM21 4.75C21 2.68083 22.6808 1 24.75 1C26.8192 1 28.5 2.68083 28.5 4.75C28.5 6.81917 26.8192 8.5 24.75 8.5C22.6808 8.5 21 6.81917 21 4.75ZM22.6667 5.16667C22.6667 6.54736 23.5994 7.66667 24.75 7.66667C25.9006 7.66667 26.8333 6.54736 26.8333 5.16667C26.8333 3.78597 25.9006 2.66667 24.75 2.66667C23.5994 2.66667 22.6667 3.78597 22.6667 5.16667ZM17.6667 5.16667C17.6667 3.78597 16.7339 2.66667 15.5833 2.66667C14.4328 2.66667 13.5 3.79267 13.5 5.16667C13.5 6.54736 14.4328 7.66667 15.5833 7.66667C16.7339 7.66667 17.6667 6.54736 17.6667 5.16667ZM27.2262 9.33333H23.988C23.5694 9.33333 23.2308 9.67854 23.2308 10.1053C23.2308 10.5322 23.5694 10.8774 23.988 10.8774H27.2262C28.4759 10.8774 29.4917 11.913 29.4917 13.1871V18.1017C29.4917 19.062 28.8946 19.9344 28.0019 20.2671C27.7064 20.3801 27.5094 20.6688 27.5094 20.9889V27.9308C27.5094 28.7718 26.8384 29.456 26.0134 29.456H22.5906C22.1719 29.456 21.8333 29.8012 21.8333 30.228C21.8333 30.6548 22.1719 31 22.5906 31H26.0134C27.6695 31 29.0177 29.6254 29.0177 27.937V21.4722C30.2243 20.8069 31 19.5076 31 18.0891V13.1746C31 11.0531 29.307 9.33333 27.2262 9.33333ZM17.7057 31H14.3004C12.6529 31 11.3116 29.6246 11.3055 27.9353V21.4855C10.105 20.8198 9.33333 19.5198 9.33333 18.1005V13.1831C9.33333 11.0604 11.0176 9.33333 13.0877 9.33333H18.9123C20.9824 9.33333 22.6667 11.0604 22.6667 13.1831V18.1005C22.6667 19.5198 21.895 20.8198 20.6945 21.4855V27.9353C20.6945 29.6246 19.3532 31 17.7057 31ZM11 18.1289V13.2793C11 12.022 11.9781 11 13.1814 11H18.8186C20.0219 11 21 12.022 21 13.2793V18.1289C21 19.0766 20.425 19.9375 19.5714 20.2658C19.2869 20.3773 19.0972 20.6622 19.0972 20.978V27.8283C19.0972 28.6582 18.4511 29.3333 17.6568 29.3333H14.361C13.5667 29.3333 12.9206 28.6582 12.9206 27.8283V20.978C12.9206 20.6622 12.7309 20.3773 12.4464 20.2658C11.575 19.9375 11 19.0766 11 18.1289ZM5.16667 5.16667C5.16667 3.79267 6.09942 2.66667 7.25 2.66667C8.40058 2.66667 9.33333 3.78597 9.33333 5.16667C9.33333 6.54736 8.40058 7.66667 7.25 7.66667C6.09942 7.66667 5.16667 6.54736 5.16667 5.16667ZM9.40945 31H5.98657C4.33053 31 2.98231 29.625 2.98231 27.9299V21.482C1.77569 20.8165 1 19.5169 1 18.0979V13.182C1 11.0599 2.69297 9.33333 4.77379 9.33333H8.00582C8.42445 9.33333 8.76304 9.67864 8.76304 10.1056C8.76304 10.5325 8.42445 10.8778 8.00582 10.8778H4.77994C3.53022 10.8778 2.51444 11.9137 2.51444 13.1883V18.1042C2.51444 19.0711 3.1116 19.9375 3.9981 20.2703C4.2936 20.3833 4.4906 20.6721 4.4906 20.9923V27.9299C4.4906 28.7712 5.16163 29.4555 5.98657 29.4555H9.40945C9.82807 29.4555 10.1667 29.8008 10.1667 30.2278C10.1667 30.6547 9.82807 31 9.40945 31Z" fill="#95C6B7"/>
<path d="M28.0019 20.2671L27.8273 19.7985L27.8233 19.8001L28.0019 20.2671ZM29.0177 21.4722L28.7763 21.0343L28.5177 21.1769V21.4722H29.0177ZM11.3055 27.9353H10.8055L10.8055 27.9371L11.3055 27.9353ZM11.3055 21.4855H11.8055V21.191L11.548 21.0482L11.3055 21.4855ZM20.6945 21.4855L20.452 21.0482L20.1945 21.191V21.4855H20.6945ZM19.5714 20.2658L19.392 19.7991L19.389 19.8002L19.5714 20.2658ZM12.4464 20.2658L12.6288 19.8002L12.6226 19.7979L12.4464 20.2658ZM2.98231 21.482H3.48231V21.1868L3.22379 21.0442L2.98231 21.482ZM3.9981 20.2703L4.1767 19.8032L4.17381 19.8022L3.9981 20.2703ZM11.5 4.75C11.5 2.40468 9.59532 0.5 7.25 0.5V1.5C9.04303 1.5 10.5 2.95697 10.5 4.75H11.5ZM7.25 9C9.58872 9 11.5 7.09584 11.5 4.75H10.5C10.5 6.54251 9.03749 8 7.25 8V9ZM3 4.75C3 7.09532 4.90468 9 7.25 9V8C5.45697 8 4 6.54303 4 4.75H3ZM7.25 0.5C4.90468 0.5 3 2.40468 3 4.75H4C4 2.95697 5.45697 1.5 7.25 1.5V0.5ZM18.8333 4.75C18.8333 6.54303 17.3764 8 15.5833 8V9C17.9286 9 19.8333 7.09532 19.8333 4.75H18.8333ZM15.5833 1.5C17.3764 1.5 18.8333 2.95697 18.8333 4.75H19.8333C19.8333 2.40468 17.9286 0.5 15.5833 0.5V1.5ZM12.3333 4.75C12.3333 2.95697 13.7903 1.5 15.5833 1.5V0.5C13.238 0.5 11.3333 2.40468 11.3333 4.75H12.3333ZM15.5833 8C13.7903 8 12.3333 6.54303 12.3333 4.75H11.3333C11.3333 7.09532 13.238 9 15.5833 9V8ZM24.75 0.5C22.4047 0.5 20.5 2.40468 20.5 4.75H21.5C21.5 2.95697 22.957 1.5 24.75 1.5V0.5ZM29 4.75C29 2.40468 27.0953 0.5 24.75 0.5V1.5C26.543 1.5 28 2.95697 28 4.75H29ZM24.75 9C27.0953 9 29 7.09532 29 4.75H28C28 6.54303 26.543 8 24.75 8V9ZM20.5 4.75C20.5 7.09532 22.4047 9 24.75 9V8C22.957 8 21.5 6.54303 21.5 4.75H20.5ZM24.75 7.16667C23.957 7.16667 23.1667 6.36045 23.1667 5.16667H22.1667C22.1667 6.73428 23.2418 8.16667 24.75 8.16667V7.16667ZM26.3333 5.16667C26.3333 6.36045 25.543 7.16667 24.75 7.16667V8.16667C26.2582 8.16667 27.3333 6.73428 27.3333 5.16667H26.3333ZM24.75 3.16667C25.543 3.16667 26.3333 3.97288 26.3333 5.16667H27.3333C27.3333 3.59906 26.2582 2.16667 24.75 2.16667V3.16667ZM23.1667 5.16667C23.1667 3.97288 23.957 3.16667 24.75 3.16667V2.16667C23.2418 2.16667 22.1667 3.59906 22.1667 5.16667H23.1667ZM15.5833 3.16667C16.3763 3.16667 17.1667 3.97288 17.1667 5.16667H18.1667C18.1667 3.59906 17.0915 2.16667 15.5833 2.16667V3.16667ZM14 5.16667C14 3.97865 14.7912 3.16667 15.5833 3.16667V2.16667C14.0743 2.16667 13 3.60669 13 5.16667H14ZM15.5833 7.16667C14.7904 7.16667 14 6.36045 14 5.16667H13C13 6.73428 14.0751 8.16667 15.5833 8.16667V7.16667ZM17.1667 5.16667C17.1667 6.36045 16.3763 7.16667 15.5833 7.16667V8.16667C17.0915 8.16667 18.1667 6.73428 18.1667 5.16667H17.1667ZM23.988 9.83333H27.2262V8.83333H23.988V9.83333ZM23.7308 10.1053C23.7308 9.94552 23.8546 9.83333 23.988 9.83333V8.83333C23.2842 8.83333 22.7308 9.41157 22.7308 10.1053H23.7308ZM23.988 10.3774C23.8546 10.3774 23.7308 10.2652 23.7308 10.1053H22.7308C22.7308 10.7991 23.2842 11.3774 23.988 11.3774V10.3774ZM27.2262 10.3774H23.988V11.3774H27.2262V10.3774ZM29.9917 13.1871C29.9917 11.646 28.7612 10.3774 27.2262 10.3774V11.3774C28.1907 11.3774 28.9917 12.18 28.9917 13.1871H29.9917ZM29.9917 18.1017V13.1871H28.9917V18.1017H29.9917ZM28.1765 20.7356C29.2687 20.3286 29.9917 19.2666 29.9917 18.1017H28.9917C28.9917 18.8573 28.5204 19.5403 27.8273 19.7986L28.1765 20.7356ZM28.0094 20.9889C28.0094 20.8728 28.0816 20.7719 28.1805 20.7341L27.8233 19.8001C27.3312 19.9882 27.0094 20.4648 27.0094 20.9889H28.0094ZM28.0094 27.9308V20.9889H27.0094V27.9308H28.0094ZM26.0134 29.956C27.1236 29.956 28.0094 29.0388 28.0094 27.9308H27.0094C27.0094 28.5048 26.5532 28.956 26.0134 28.956V29.956ZM22.5906 29.956H26.0134V28.956H22.5906V29.956ZM22.3333 30.228C22.3333 30.0682 22.4571 29.956 22.5906 29.956V28.956C21.8867 28.956 21.3333 29.5342 21.3333 30.228H22.3333ZM22.5906 30.5C22.4571 30.5 22.3333 30.3878 22.3333 30.228H21.3333C21.3333 30.9218 21.8867 31.5 22.5906 31.5V30.5ZM26.0134 30.5H22.5906V31.5H26.0134V30.5ZM28.5177 27.937C28.5177 29.3585 27.3842 30.5 26.0134 30.5V31.5C27.9547 31.5 29.5177 29.8924 29.5177 27.937H28.5177ZM28.5177 21.4722V27.937H29.5177V21.4722H28.5177ZM30.5 18.0891C30.5 19.3264 29.8226 20.4574 28.7763 21.0343L29.2591 21.91C30.626 21.1563 31.5 19.6889 31.5 18.0891H30.5ZM30.5 13.1746V18.0891H31.5V13.1746H30.5ZM27.2262 9.83333C29.0229 9.83333 30.5 11.3212 30.5 13.1746H31.5C31.5 10.7851 29.5912 8.83333 27.2262 8.83333V9.83333ZM14.3004 31.5H17.7057V30.5H14.3004V31.5ZM10.8055 27.9371C10.8125 29.889 12.3647 31.5 14.3004 31.5V30.5C12.9411 30.5 11.8106 29.3603 11.8055 27.9335L10.8055 27.9371ZM10.8055 21.4855V27.9353H11.8055V21.4855H10.8055ZM8.83333 18.1005C8.83333 19.6996 9.70199 21.168 11.063 21.9228L11.548 21.0482C10.5081 20.4716 9.83333 19.34 9.83333 18.1005H8.83333ZM8.83333 13.1831V18.1005H9.83333V13.1831H8.83333ZM13.0877 8.83333C10.7297 8.83333 8.83333 10.7961 8.83333 13.1831H9.83333C9.83333 11.3246 11.3055 9.83333 13.0877 9.83333V8.83333ZM18.9123 8.83333H13.0877V9.83333H18.9123V8.83333ZM23.1667 13.1831C23.1667 10.7961 21.2703 8.83333 18.9123 8.83333V9.83333C20.6945 9.83333 22.1667 11.3246 22.1667 13.1831H23.1667ZM23.1667 18.1005V13.1831H22.1667V18.1005H23.1667ZM20.937 21.9228C22.298 21.168 23.1667 19.6996 23.1667 18.1005H22.1667C22.1667 19.34 21.4919 20.4716 20.452 21.0482L20.937 21.9228ZM21.1945 27.9353V21.4855H20.1945V27.9353H21.1945ZM17.7057 31.5C19.6411 31.5 21.1945 29.8889 21.1945 27.9353H20.1945C20.1945 29.3604 19.0653 30.5 17.7057 30.5V31.5ZM10.5 13.2793V18.1289H11.5V13.2793H10.5ZM13.1814 10.5C11.6815 10.5 10.5 11.7667 10.5 13.2793H11.5C11.5 12.2772 12.2747 11.5 13.1814 11.5V10.5ZM18.8186 10.5H13.1814V11.5H18.8186V10.5ZM21.5 13.2793C21.5 11.7667 20.3185 10.5 18.8186 10.5V11.5C19.7253 11.5 20.5 12.2772 20.5 13.2793H21.5ZM21.5 18.1289V13.2793H20.5V18.1289H21.5ZM19.7509 20.7324C20.8071 20.3263 21.5 19.2731 21.5 18.1289H20.5C20.5 18.88 20.043 19.5487 19.392 19.7991L19.7509 20.7324ZM19.5972 20.978C19.5972 20.8587 19.6693 20.7644 19.7538 20.7313L19.389 19.8002C18.9045 19.9901 18.5972 20.4656 18.5972 20.978H19.5972ZM19.5972 27.8283V20.978H18.5972V27.8283H19.5972ZM17.6568 29.8333C18.7477 29.8333 19.5972 28.9135 19.5972 27.8283H18.5972C18.5972 28.403 18.1545 28.8333 17.6568 28.8333V29.8333ZM14.361 29.8333H17.6568V28.8333H14.361V29.8333ZM12.4206 27.8283C12.4206 28.9135 13.2701 29.8333 14.361 29.8333V28.8333C13.8633 28.8333 13.4206 28.403 13.4206 27.8283H12.4206ZM12.4206 20.978V27.8283H13.4206V20.978H12.4206ZM12.2639 20.7313C12.3485 20.7644 12.4206 20.8587 12.4206 20.978H13.4206C13.4206 20.4656 13.1133 19.9901 12.6288 19.8002L12.2639 20.7313ZM10.5 18.1289C10.5 19.2749 11.1949 20.3286 12.2701 20.7337L12.6226 19.7979C11.9551 19.5464 11.5 18.8782 11.5 18.1289H10.5ZM7.25 2.16667C5.74101 2.16667 4.66667 3.60669 4.66667 5.16667H5.66667C5.66667 3.97865 6.45782 3.16667 7.25 3.16667V2.16667ZM9.83333 5.16667C9.83333 3.59906 8.75821 2.16667 7.25 2.16667V3.16667C8.04295 3.16667 8.83333 3.97288 8.83333 5.16667H9.83333ZM7.25 8.16667C8.75821 8.16667 9.83333 6.73428 9.83333 5.16667H8.83333C8.83333 6.36045 8.04295 7.16667 7.25 7.16667V8.16667ZM4.66667 5.16667C4.66667 6.73428 5.74179 8.16667 7.25 8.16667V7.16667C6.45705 7.16667 5.66667 6.36045 5.66667 5.16667H4.66667ZM5.98657 31.5H9.40945V30.5H5.98657V31.5ZM2.48231 27.9299C2.48231 29.8912 4.04452 31.5 5.98657 31.5V30.5C4.61655 30.5 3.48231 29.3589 3.48231 27.9299H2.48231ZM2.48231 21.482V27.9299H3.48231V21.482H2.48231ZM0.5 18.0979C0.5 19.6981 1.37391 21.1659 2.74084 21.9198L3.22379 21.0442C2.17746 20.4671 1.5 19.3357 1.5 18.0979H0.5ZM0.5 13.182V18.0979H1.5V13.182H0.5ZM4.77379 8.83333C2.40762 8.83333 0.5 10.793 0.5 13.182H1.5C1.5 11.3267 2.97833 9.83333 4.77379 9.83333V8.83333ZM8.00582 8.83333H4.77379V9.83333H8.00582V8.83333ZM9.26304 10.1056C9.26304 9.4118 8.7098 8.83333 8.00582 8.83333V9.83333C8.13909 9.83333 8.26304 9.94548 8.26304 10.1056H9.26304ZM8.00582 11.3778C8.7098 11.3778 9.26304 10.7993 9.26304 10.1056H8.26304C8.26304 10.2657 8.13909 10.3778 8.00582 10.3778V11.3778ZM4.77994 11.3778H8.00582V10.3778H4.77994V11.3778ZM3.01444 13.1883C3.01444 12.1806 3.81558 11.3778 4.77994 11.3778V10.3778C3.24487 10.3778 2.01444 11.6469 2.01444 13.1883H3.01444ZM3.01444 18.1042V13.1883H2.01444V18.1042H3.01444ZM4.17381 19.8022C3.48576 19.5439 3.01444 18.8664 3.01444 18.1042H2.01444C2.01444 19.2758 2.73743 20.3311 3.82239 20.7384L4.17381 19.8022ZM4.9906 20.9923C4.9906 20.4682 4.66888 19.9915 4.1767 19.8032L3.81949 20.7373C3.91832 20.7751 3.9906 20.876 3.9906 20.9923H4.9906ZM4.9906 27.9299V20.9923H3.9906V27.9299H4.9906ZM5.98657 28.9555C5.44699 28.9555 4.9906 28.5043 4.9906 27.9299H3.9906C3.9906 29.038 4.87627 29.9555 5.98657 29.9555V28.9555ZM9.40945 28.9555H5.98657V29.9555H9.40945V28.9555ZM10.6667 30.2278C10.6667 29.534 10.1134 28.9555 9.40945 28.9555V29.9555C9.54272 29.9555 9.66667 30.0677 9.66667 30.2278H10.6667ZM9.40945 31.5C10.1134 31.5 10.6667 30.9215 10.6667 30.2278H9.66667C9.66667 30.3878 9.54272 30.5 9.40945 30.5V31.5Z" fill="#95C6B7"/>
</svg>
