<svg width="207" height="164" viewBox="0 0 207 164" fill="none" xmlns="http://www.w3.org/2000/svg">
<path fill-rule="evenodd" clip-rule="evenodd" d="M195.243 10.8553L189.006 8.54852L195.243 6.24172L197.549 0L199.854 6.24172L206.092 8.54852L199.854 10.8553L197.549 17.097L195.243 10.8553Z" fill="#59CF9E"/>
<path fill-rule="evenodd" clip-rule="evenodd" d="M6.24321 130.855L0.00548765 128.549L6.24321 126.242L8.54852 120L10.8538 126.242L17.0916 128.549L10.8538 130.855L8.54852 137.097L6.24321 130.855Z" fill="#59CF9E"/>
<path fill-rule="evenodd" clip-rule="evenodd" d="M186.693 48.4047L185.549 45.3089L184.404 48.4047L181.306 49.5488L184.404 50.693L185.549 53.7887L186.693 50.693L189.791 49.5488L186.693 48.4047Z" fill="#59CF9E"/>
<path fill-rule="evenodd" clip-rule="evenodd" d="M34.6935 158.405L33.5486 155.309L32.4037 158.405L29.306 159.549L32.4037 160.693L33.5486 163.789L34.6935 160.693L37.7913 159.549L34.6935 158.405Z" fill="#59CF9E"/>
<path d="M61.5001 33.1042L69.116 26.8081L76.9378 20.5H155.5V146.5H61.5001V33.1042Z" stroke="#59CF9E" stroke-width="3"/>
<path fill-rule="evenodd" clip-rule="evenodd" d="M77.1443 20.6797V32.6797H61.8522L77.1443 20.6797Z" fill="#59CF9E" stroke="#59CF9E" stroke-width="2" stroke-linejoin="bevel"/>
<path fill-rule="evenodd" clip-rule="evenodd" d="M108.035 95.3353C110.075 95.3353 111.611 94.4233 112.667 92.6233C113.579 91.0873 114.035 89.0233 114.035 86.4313C114.035 83.8393 113.579 81.7753 112.667 80.2393C111.611 78.4153 110.075 77.5273 108.035 77.5273C105.971 77.5273 104.435 78.4153 103.403 80.2393C102.491 81.7753 102.035 83.8393 102.035 86.4313C102.035 89.0233 102.491 91.0873 103.403 92.6233C104.435 94.4233 105.971 95.3353 108.035 95.3353ZM98.0641 91.1113V94.9993H96.1921V91.1113H87.5761V89.2393L96.2161 77.8633H98.0641V89.5033H100.848V91.1113H98.0641ZM89.2321 89.5033H96.1921V80.4313H96.1201L89.2321 89.5033ZM104.723 91.1833C105.395 92.8153 106.499 93.6553 108.035 93.6553C109.571 93.6553 110.675 92.8153 111.347 91.1833C111.827 90.0073 112.091 88.4233 112.091 86.4313C112.091 84.4153 111.827 82.8313 111.347 81.6793C110.675 80.0233 109.571 79.2073 108.035 79.2073C106.499 79.2073 105.395 80.0233 104.723 81.6793C104.243 82.8313 104.003 84.4153 104.003 86.4313C104.003 88.4233 104.243 90.0073 104.723 91.1833ZM125.735 94.9993V91.1113H128.519V89.5033H125.735V77.8633H123.887L115.247 89.2393V91.1113H123.863V94.9993H125.735ZM116.903 89.5033H123.863V80.4313H123.791L116.903 89.5033Z" fill="#F7CD0A"/>
</svg>
