<svg width="207" height="165" viewBox="0 0 207 165" fill="none" xmlns="http://www.w3.org/2000/svg">
<path d="M163 85H174C182.284 85 189 91.7157 189 100V126.871C189 135.089 182.387 141.777 174.169 141.87L169.836 141.919L160.436 162.591C160.01 163.53 158.676 163.528 158.251 162.588L148.905 141.919L107.942 141.761C99.6805 141.729 93 135.023 93 126.761V102.5" stroke="#F7CD0A" stroke-width="2.4" stroke-linejoin="round"/>
<path fill-rule="evenodd" clip-rule="evenodd" d="M195.613 11.3963L189.375 9.08953L195.613 6.78274L197.918 0.541016L200.224 6.78274L206.461 9.08953L200.224 11.3963L197.918 17.638L195.613 11.3963Z" fill="#59CF9E"/>
<path fill-rule="evenodd" clip-rule="evenodd" d="M6.61302 106.396L0.3753 104.09L6.61302 101.783L8.91833 95.541L11.2236 101.783L17.4614 104.09L11.2236 106.396L8.91833 112.638L6.61302 106.396Z" fill="#59CF9E"/>
<path fill-rule="evenodd" clip-rule="evenodd" d="M183.063 47.9457L181.918 44.8499L180.774 47.9457L177.676 49.0898L180.774 50.234L181.918 53.3298L183.063 50.234L186.161 49.0898L183.063 47.9457Z" fill="#59CF9E"/>
<path fill-rule="evenodd" clip-rule="evenodd" d="M35.0633 133.946L33.9184 130.85L32.7736 133.946L29.6758 135.09L32.7736 136.234L33.9184 139.33L35.0633 136.234L38.1611 135.09L35.0633 133.946Z" fill="#59CF9E"/>
<path d="M84.4639 102.089C83.6713 102.093 82.9553 102.564 82.6386 103.29L69.2477 134.007L55.7794 103.286C55.464 102.567 54.7565 102.099 53.971 102.09L50.7319 102.052C38.1348 101.905 28.0001 91.6513 28.0001 79.0533V43C28.0001 30.2975 38.2976 20 51.0001 20H141C153.703 20 164 30.2975 164 43V78.8632C164 91.5299 153.759 101.812 141.092 101.863L84.4639 102.089Z" stroke="#59CF9E" stroke-width="4" stroke-linejoin="round"/>
<rect x="49.0001" y="42" width="94" height="5" rx="2.5" fill="#59CF9E"/>
<rect x="49.0001" y="59" width="70.127" height="5" rx="2.5" fill="#59CF9E"/>
<rect x="49.0001" y="76" width="42.5238" height="5" rx="2.5" fill="#59CF9E"/>
</svg>
