<svg width="207" height="164" viewBox="0 0 207 164" fill="none" xmlns="http://www.w3.org/2000/svg">
<path fill-rule="evenodd" clip-rule="evenodd" d="M195.243 10.8553L189.005 8.54852L195.243 6.24172L197.549 0L199.854 6.24172L206.092 8.54852L199.854 10.8553L197.549 17.097L195.243 10.8553Z" fill="#59CF9E"/>
<path fill-rule="evenodd" clip-rule="evenodd" d="M6.24315 103.855L0.00542661 101.549L6.24315 99.2417L8.54846 93L10.8538 99.2417L17.0915 101.549L10.8538 103.855L8.54846 110.097L6.24315 103.855Z" fill="#59CF9E"/>
<path fill-rule="evenodd" clip-rule="evenodd" d="M186.693 48.4047L185.549 45.3089L184.404 48.4047L181.306 49.5488L184.404 50.693L185.549 53.7887L186.693 50.693L189.791 49.5488L186.693 48.4047Z" fill="#59CF9E"/>
<path fill-rule="evenodd" clip-rule="evenodd" d="M34.6934 131.405L33.5485 128.309L32.4037 131.405L29.3059 132.549L32.4037 133.693L33.5485 136.789L34.6934 133.693L37.7912 132.549L34.6934 131.405Z" fill="#59CF9E"/>
<path d="M52.0743 157.285V53.2852C52.0743 48.8669 55.6561 45.2852 60.0743 45.2852H81.4239L89.9412 54.2123H165.118C169.536 54.2123 173.118 57.794 173.118 62.2123V72" stroke="#F7CD0A" stroke-width="3" stroke-linejoin="round"/>
<path d="M66.1434 75.4675C66.5239 73.3183 68.3919 71.752 70.5745 71.752H182.432C185.231 71.752 187.351 74.2801 186.863 77.0364L172.518 158.069C172.138 160.218 170.27 161.785 168.087 161.785H56.2298C53.4307 161.785 51.3107 159.257 51.7987 156.5L66.1434 75.4675Z" stroke="#59CF9E" stroke-width="3"/>
</svg>
