<svg width="29" height="22" viewBox="0 0 29 22" fill="none" xmlns="http://www.w3.org/2000/svg">
<path fill-rule="evenodd" clip-rule="evenodd" d="M12.8301 2.53367C13.6204 1.3345 15.3796 1.3345 16.1699 2.53367L26.9564 18.8994C27.8328 20.2292 26.8791 22 25.2865 22H3.71351C2.12088 22 1.16715 20.2292 2.04359 18.8994L12.8301 2.53367Z" fill="white"/>
<path fill-rule="evenodd" clip-rule="evenodd" d="M15.5082 13.9923C15.4722 14.4313 15.1054 14.7692 14.6649 14.7692H14.3351C13.8946 14.7692 13.5278 14.4313 13.4918 13.9923L13.0751 8.91537C13.0347 8.42241 13.4238 8 13.9184 8H15.0816C15.5762 8 15.9653 8.42241 15.9249 8.91537L15.5082 13.9923ZM15.5742 18.5293C15.2645 18.8431 14.9032 19 14.4903 19C14.0774 19 13.729 18.8356 13.4452 18.5069C13.1484 18.208 13 17.8046 13 17.2965C13 16.7884 13.1484 16.385 13.4452 16.0861C13.7161 15.7723 14.0645 15.6154 14.4903 15.6154C14.929 15.6154 15.2903 15.7723 15.5742 16.0861C15.8581 16.4148 16 16.8183 16 17.2965C16 17.7896 15.8581 18.2005 15.5742 18.5293Z" fill="#CF2C46"/>
</svg>
