<svg width="139" height="34" viewBox="0 0 139 34" fill="none" xmlns="http://www.w3.org/2000/svg">
<g opacity="0.8">
<path fill-rule="evenodd" clip-rule="evenodd" d="M15.0565 29.3702C14.5557 30.9193 14.0723 32.3813 13.537 34C13.0708 33.7563 12.6737 33.5475 12.3974 33.3908C11.8967 31.981 11.4477 30.7104 10.9643 29.3354C10.1385 28.8495 9.30729 28.3599 8.47273 27.8684L8.46903 27.8662L8.46898 27.8662C5.65767 26.2104 2.80832 24.5322 0 22.8954V7.42207C4.14398 4.98532 8.20162 2.60079 12.2593 0.251071C13.2632 -0.334841 14.0246 0.220273 14.7368 0.739479C14.9555 0.898917 15.1695 1.05497 15.3845 1.17355C17.9426 2.5893 20.4552 4.08766 23.0281 5.62198L23.0284 5.62216C23.9981 6.20045 24.9764 6.78384 25.9689 7.36985V22.9476C22.4983 24.984 18.8033 27.1597 15.0565 29.3702ZM13.1917 16.5251C9.80742 14.6801 6.4059 12.8351 2.74539 10.8509V14.4886C3.35405 14.8375 3.95997 15.1827 4.56314 15.5263L4.56361 15.5266L4.56371 15.5267C6.57826 16.6744 8.56214 17.8046 10.5153 18.9966C12.1039 19.9713 13.6233 20.4065 15.2291 19.0837C15.2874 19.0356 15.3424 18.9843 15.3972 18.9332C15.5209 18.8177 15.6433 18.7035 15.7989 18.6311C16.6714 18.2145 17.544 17.8115 18.597 17.3253L19.0105 17.1343V20.1106C18.2615 20.547 17.5098 20.9861 16.7477 21.4313C15.5948 22.1048 14.4183 22.7921 13.1917 23.5046L11.8602 22.7694C8.87504 21.121 5.90755 19.4823 2.90079 17.8305C2.17559 20.1628 2.38279 20.9808 4.14398 22.0948C5.66731 23.059 7.21486 23.9743 8.76455 24.8909C9.4808 25.3146 10.1975 25.7385 10.9125 26.1676C12.1557 26.916 13.278 27.3164 14.6766 26.2895C15.7886 25.4838 17.0015 24.8113 18.2113 24.1406L18.2113 24.1406C18.8049 23.8115 19.3977 23.4828 19.9774 23.1391C20.8972 22.5937 21.8064 22.027 22.5887 21.5393L22.5889 21.5392L22.5901 21.5384C22.806 21.4038 23.0122 21.2753 23.2063 21.1549V10.8857C21.1766 12.027 19.2374 13.1196 17.2888 14.2174C15.9386 14.9782 14.5839 15.7414 13.1917 16.5251ZM5.67741 9.14585C5.16445 8.87366 4.62095 8.58528 4.04036 8.25754C4.76414 7.82519 5.46461 7.42304 6.14333 7.03339C7.65048 6.16812 9.05035 5.36444 10.3599 4.42837C12.2247 3.08816 13.8132 3.29702 15.609 4.5154C16.9603 5.4318 18.3729 6.25129 19.8777 7.12431C20.4879 7.47831 21.1133 7.8411 21.7559 8.22273C21.1464 8.58678 20.5425 8.91551 19.9544 9.23565C18.7429 9.89509 17.5984 10.5181 16.6104 11.3383C13.5888 13.8446 11.0506 12.6263 8.40881 10.7465C7.58364 10.1573 6.69 9.68314 5.67741 9.14585Z" fill="#95C6B7"/>
<path fill-rule="evenodd" clip-rule="evenodd" d="M35.5924 14.0425C35.0527 13.9898 34.5026 13.936 33.9462 13.9317C33.9462 11.2165 33.9462 8.71012 33.9289 6.11673C33.387 5.99533 32.8761 5.88176 32.3823 5.77199C31.6018 5.59848 30.8639 5.43444 30.113 5.26387C30.1451 5.66791 30.1788 6.03361 30.2101 6.37282C30.2799 7.12954 30.3375 7.75448 30.3375 8.37942C30.3461 11.1817 30.3461 13.9796 30.3461 16.7775C30.3461 19.5754 30.3461 22.3733 30.3548 25.1756C30.3548 25.6942 30.4332 26.2016 30.4817 26.5159C30.4935 26.5918 30.5034 26.6564 30.5102 26.7072C31.2816 26.6455 32.0227 26.5816 32.7442 26.5194C34.0573 26.4061 35.3054 26.2985 36.5535 26.2199C37.0339 26.1896 37.5176 26.1922 38.0017 26.1949C38.6311 26.1983 39.2613 26.2017 39.8859 26.1329C44.7206 25.6281 46.6717 22.3037 45.1868 17.9872C44.9307 17.2362 44.3058 16.6039 43.6401 15.9303C43.3183 15.6047 42.9869 15.2694 42.6831 14.9064C42.6868 14.8989 42.6897 14.8753 42.6939 14.8415C42.7092 14.7182 42.7412 14.4587 42.8903 14.3495C44.7551 12.8526 44.8242 10.8162 44.3407 8.77975C44.099 7.80505 43.391 6.81294 42.6313 6.09933C41.534 5.04648 40.1127 4.96306 38.7008 4.8802C38.2687 4.85484 37.8375 4.82954 37.4168 4.77652C36.7431 4.69456 36.0537 4.67561 35.3435 4.65609C34.998 4.64659 34.6475 4.63696 34.2915 4.61987C34.3606 5.97749 34.8959 6.49965 36.0182 6.56927C36.8297 6.62149 37.6585 6.74332 38.4528 6.93478C40.7147 7.49175 41.8198 11.3905 40.1449 13.0441C38.8039 14.3565 37.2469 14.2043 35.5924 14.0425ZM34.1016 24.4445V16.0726C36.7952 15.7593 39.2643 15.6026 41.0946 17.7957C42.2342 19.1707 41.9752 20.9461 41.4399 22.3907C40.9737 23.6439 39.7478 24.4619 38.2111 24.4445C37.3333 24.433 36.4554 24.4367 35.5428 24.4406C35.0732 24.4425 34.5944 24.4445 34.1016 24.4445Z" fill="#95C6B7"/>
<path fill-rule="evenodd" clip-rule="evenodd" d="M59.7841 20.134L59.7839 20.1341C59.5593 20.2492 59.3094 20.3773 59.0172 20.5283C59.3924 20.6835 59.698 20.8171 59.9816 20.9411L59.9817 20.9411C60.207 21.0396 60.4186 21.1321 60.6403 21.2245C61.2641 22.5295 60.5074 23.4225 59.7952 24.263L59.7952 24.263C59.7189 24.353 59.6432 24.4423 59.5697 24.5316C57.256 27.299 50.2113 27.2816 48.0702 23.5743C45.9809 19.954 46.5507 14.8542 50.5911 12.5219C52.853 11.2165 57.8776 12.1041 59.5525 14.1058C60.7611 15.5504 61.1755 17.7435 60.5712 19.7277C60.3269 19.8558 60.077 19.9838 59.7841 20.134ZM57.0488 20.1454C55.5984 20.0758 54.079 20.0061 52.9221 19.9539C52.5515 19.787 52.2493 19.6527 51.9497 19.5197L51.9496 19.5196L51.9495 19.5196C51.5932 19.3613 51.2406 19.2046 50.781 18.9966L50.8269 19.242L50.8269 19.242C51.0248 20.3 51.1521 20.981 51.2645 21.6771C51.6444 23.7831 53.1466 24.8274 55.2358 24.4097C56.7553 24.1312 57.6013 22.3036 57.0488 20.1454ZM56.1045 18.1785C54.3888 18.343 52.7749 18.4977 51.0401 17.2735C51.147 17.0123 51.252 16.7579 51.3544 16.51C51.6815 15.7175 51.9815 14.9908 52.2314 14.3146C53.5782 13.7924 54.7006 13.601 55.702 14.4713C56.6582 15.3087 56.8459 16.4474 57.0533 17.705C57.0743 17.8327 57.0956 17.9616 57.1179 18.0916C56.7752 18.1142 56.4379 18.1465 56.1045 18.1785Z" fill="#95C6B7"/>
<path fill-rule="evenodd" clip-rule="evenodd" d="M76.301 19.6755L76.2011 19.7294L76.2011 19.7294C75.7544 19.9708 75.322 20.2043 74.6952 20.5283C75.1159 20.7069 75.4585 20.8568 75.7776 20.9964L75.7776 20.9965C75.9563 21.0746 76.1275 21.1496 76.301 21.2245C76.9661 22.5016 76.1643 23.4273 75.4807 24.2165C75.419 24.2877 75.3582 24.3579 75.2996 24.4271C72.9858 27.2468 65.9411 27.4208 63.6791 23.5742C61.5381 19.9539 62.1424 14.7846 66.2864 12.4348C68.4965 11.1817 73.5729 12.0519 75.0924 14.1058C76.2837 15.7419 76.9744 17.5868 76.301 19.6755ZM66.5768 18.6295L66.5767 18.6295C66.4632 18.6713 66.3435 18.7154 66.2345 18.7704C66.3396 19.1891 66.4331 19.6137 66.5268 20.039C66.7563 21.0811 66.9867 22.1278 67.3914 23.1043C67.823 24.1138 68.8418 24.4967 70.0504 24.5315C71.5061 24.5794 72.1063 23.6626 72.7944 22.6116C72.8572 22.5156 72.9208 22.4186 72.9857 22.321C72.9512 21.7467 72.9167 21.0331 72.8821 20.128H68.4101L68.2963 20.0289C67.5995 19.4223 67.1251 19.0093 66.6662 18.5963C66.6371 18.6073 66.6072 18.6183 66.5768 18.6295ZM71.9843 15.1675C72.2433 16.0551 72.4851 16.908 72.8131 18.0916C72.3852 18.1121 71.9667 18.1542 71.5551 18.1956C69.8741 18.3646 68.3097 18.5219 66.7008 17.1517C66.8559 16.7642 67.0136 16.374 67.1678 15.9926C67.4084 15.3975 67.6404 14.8237 67.8403 14.3146C69.6361 13.6358 70.9656 13.775 71.9843 15.1675Z" fill="#95C6B7"/>
<path fill-rule="evenodd" clip-rule="evenodd" d="M137.828 20.1434C138.148 19.9633 138.433 19.8029 138.737 19.6232C139.41 17.6912 138.685 15.9507 137.753 14.4016C136.354 12.1215 131.312 11.1642 128.791 12.4C124.337 14.5757 124.095 21.1201 126.547 24.0964C128.463 26.4287 131.019 26.4635 133.661 26.3765C135.422 26.3243 136.855 25.5236 137.874 24.2008C137.945 24.1074 138.023 24.0117 138.102 23.9133C138.676 23.2053 139.359 22.3618 138.737 21.2767C138.589 21.2071 138.447 21.1404 138.304 21.0736C137.948 20.9066 137.592 20.7397 137.148 20.5283C137.399 20.3847 137.621 20.26 137.828 20.1434ZM134.819 17.4513C134.826 17.7186 134.833 18.0142 134.852 18.3527C132.901 18.2308 131.312 18.1438 129.672 18.0568C129.361 19.1359 130 19.9365 131.485 20.0062C132.369 20.0438 133.254 20.0362 134.086 20.029C134.408 20.0263 134.721 20.0236 135.025 20.0236C135.698 21.8511 134.852 23.905 133.557 24.3749C131.796 24.9841 130.173 24.0616 129.482 22.3907C128.584 20.215 128.826 18.1612 129.534 16.0203C130.035 14.5061 130.777 13.8447 132.227 13.9143C133.678 13.9839 134.472 14.6801 134.731 16.2118C134.797 16.5905 134.807 16.9763 134.819 17.4513Z" fill="#95C6B7"/>
<path d="M104.446 12.3999C106.863 11.4252 108.106 12.017 108.866 14.3145C109.401 15.9157 110.109 17.4474 110.903 19.4142C111.335 18.9443 111.818 18.631 111.991 18.1958C112.837 16.1072 113.597 13.9838 114.495 11.634C115.531 11.8951 116.688 12.2084 118.207 12.5913C115.531 19.0139 112.941 25.2276 110.264 31.6502C109.108 32.0679 107.864 32.503 106.397 33.0252C106.397 32.416 106.276 31.9286 106.414 31.5805C107.105 29.9444 108.054 28.4128 108.555 26.7244C108.883 25.5757 108.866 24.1833 108.538 23.0345C108.002 21.1547 107.036 19.4142 106.328 17.5867C105.654 15.9157 105.084 14.1926 104.446 12.3999Z" fill="#95C6B7"/>
<path d="M94.3791 5.15942C95.4669 5.21164 96.7101 5.28126 98.2123 5.36829C98.2123 7.7006 98.2123 9.80665 98.2123 12.0693C99.6799 12.1564 100.889 12.226 102.27 12.313C102.011 12.957 101.838 13.3921 101.631 13.9143C100.578 14.0013 99.5591 14.1058 98.4195 14.2102C98.4195 17.3257 98.4195 20.3195 98.4195 23.6439C99.5073 23.4524 100.491 23.2784 101.648 23.0869C101.648 24.0094 101.648 24.9667 101.648 26.1154C99.2137 26.3417 96.9 27.1249 94.6036 24.8971C94.6036 21.5552 94.6036 17.9872 94.6036 14.3146C93.3949 14.158 92.4625 14.0187 91.4265 13.8795C91.4265 13.3747 91.4265 12.9222 91.4265 12.4C92.4452 12.2782 93.3776 12.1564 94.3791 12.0345C94.3791 9.80665 94.3791 7.71801 94.3791 5.15942Z" fill="#95C6B7"/>
<path d="M79.219 17.8826C78.4593 13.9664 79.3572 13.4617 81.3256 12.4174C83.6566 11.199 87.6797 12.2085 89.5099 14.2449C89.5099 14.6453 89.5099 15.063 89.5099 15.5155C88.7675 15.8636 88.0941 16.1943 87.2653 16.5946C86.1775 15.15 85.2796 13.131 82.7242 14.4712C82.6724 15.0282 82.6206 15.6896 82.5342 16.6643C84.8307 17.6042 87.0926 18.5266 89.1473 19.3621C90.1661 21.0678 90.9431 22.5647 89.6481 24.1486C89.1128 24.7926 88.4912 25.4366 87.7833 25.8543C85.6595 27.1249 81.222 26.4287 79.5989 24.5663C79.0809 23.9571 78.7528 23.1913 78.3557 22.5125C79.409 21.2245 80.1514 20.8938 81.55 21.1026C82.4306 23.7482 83.6048 24.6533 85.7976 24.2008C86.0566 23.696 86.3674 23.1042 86.6609 22.5299C86.1947 21.12 85.3314 20.4412 83.9501 20.1801C82.1889 19.8494 80.4795 19.3273 79.219 17.8826Z" fill="#95C6B7"/>
<path d="M119.433 4.32397C120.693 4.58505 121.954 4.84613 123.335 5.14202C123.335 11.9127 123.335 18.5093 123.335 25.3322C122.351 25.7499 121.298 26.1851 119.968 26.742C119.865 25.7325 119.761 25.1407 119.761 24.5316C119.744 19.31 119.778 14.1058 119.744 8.88417C119.726 7.54396 119.554 6.20375 119.433 4.32397Z" fill="#95C6B7"/>
</g>
</svg>
