<svg width="222" height="37" viewBox="0 0 222 37" fill="none" xmlns="http://www.w3.org/2000/svg">
<path opacity="0.8" fill-rule="evenodd" clip-rule="evenodd" d="M18.5314 0.981455C18.4195 0.964898 18.3075 0.948341 18.1956 0.937744H18.0534C17.9539 1.0649 17.8544 1.19206 17.7407 1.30509L0.51175 18.4291C0.326951 18.6128 0.156368 18.7965 0 18.966C0.0162893 18.9984 0.0284306 19.0266 0.0388005 19.0508C0.0555793 19.0898 0.0677206 19.1181 0.0852917 19.1355C5.9562 24.9848 11.8413 30.8341 17.7265 36.6552C17.8402 36.7682 18.0392 36.8954 18.1956 36.8954C20.1857 36.9095 22.1616 36.9095 24.2655 36.9095L24.2612 36.9052L24.2538 36.8979L24.2389 36.883C18.1923 30.8733 12.2306 24.9479 6.26894 19.0084C6.31401 18.9572 6.34742 18.9147 6.37708 18.8769L6.37709 18.8769C6.41292 18.8314 6.44329 18.7927 6.48217 18.7541C7.39536 17.8464 8.30799 16.9388 9.22039 16.0314L9.22413 16.0277L9.22784 16.024L9.22788 16.0239C12.8863 12.3855 16.5411 8.7507 20.2141 5.13398C20.4274 4.92204 20.8396 4.79489 21.1523 4.79489C24.8767 4.76663 28.5869 4.76663 32.3113 4.79489C32.6809 4.80901 33.1358 5.00682 33.4059 5.26113C36.9768 8.77638 40.5295 12.3097 44.0786 15.8394L44.0794 15.8402C44.9663 16.7223 45.8531 17.6043 46.7398 18.4856C46.8962 18.641 47.0526 18.8106 47.3084 19.0932L35.8936 30.4385C36.3942 30.4385 36.8958 30.4376 37.3978 30.4368H37.3979H37.398H37.3981H37.3982H37.3984H37.3985H37.3986H37.3987H37.3988H37.3989H37.399H37.3992H37.3993H37.3994H37.3995H37.3996H37.3997H37.3998H37.4H37.4001H37.4002H37.4003C38.9072 30.4341 40.418 30.4315 41.9209 30.4527C42.4326 30.4527 42.788 30.3114 43.1576 29.944C45.4397 27.6546 47.7299 25.3811 50.016 23.1115L50.0164 23.1111C50.7775 22.3555 51.5382 21.6003 52.298 20.8451L54.1602 18.9943C54.0993 18.9337 54.0506 18.8812 54.0054 18.8325L54.0052 18.8324C53.9661 18.7903 53.9297 18.751 53.8901 18.7117L53.8888 18.7103L53.8884 18.7099C48.0749 12.9319 42.2614 7.15381 36.4338 1.40399C36.2063 1.17793 35.7799 1.05077 35.4387 1.05077C29.9942 1.03665 24.5356 1.03665 19.0911 1.03665C18.9045 1.03665 18.718 1.00905 18.5314 0.981455ZM43.1824 1.04901C42.7098 1.04989 42.2371 1.05078 41.7645 1.05078C41.7346 1.0904 41.7117 1.13003 41.686 1.17452L41.6859 1.17455L41.6859 1.17457C41.675 1.19352 41.6635 1.21336 41.6508 1.23445C43.6359 3.21219 45.6226 5.18835 47.6098 7.16504L47.6101 7.16536L47.6104 7.16567L47.6107 7.16598L47.611 7.1663L47.6116 7.16688L47.6124 7.16769C51.5869 11.121 55.5634 15.0765 59.5336 19.0508C59.5051 19.1214 59.4767 19.1638 59.4483 19.1921C54.8568 23.7556 50.2652 28.3051 45.6595 32.8545C45.4462 33.0665 45.0482 33.1936 44.7355 33.1936C42.5012 33.2106 40.272 33.2123 38.0417 33.214H38.0404C36.5535 33.2151 35.0661 33.2162 33.5765 33.2219C33.0932 33.2219 32.7378 33.0806 32.3966 32.7415C29.0591 29.4032 25.7137 26.0807 22.3722 22.7622L22.3679 22.758C21.2561 21.6538 20.1447 20.5501 19.0342 19.4464C18.9383 19.351 18.8424 19.2478 18.7225 19.1187L18.7225 19.1186C18.6825 19.0756 18.6398 19.0296 18.5936 18.9801L30.0227 7.62064C29.8825 7.61458 29.7607 7.60593 29.6493 7.59802C29.5008 7.58748 29.3708 7.57825 29.2408 7.57825L29.2302 7.57817C27.4284 7.56406 25.6408 7.55007 23.839 7.59238C23.4694 7.60651 23.0145 7.79018 22.7444 8.0445C20.3753 10.371 18.0187 12.7101 15.6622 15.0491C14.4838 16.2187 13.3055 17.3883 12.1256 18.5563C12.0161 18.6553 11.8786 18.7196 11.7426 18.7832L11.7425 18.7832C11.6844 18.8104 11.6265 18.8375 11.5712 18.8671C11.7039 19.0084 11.7608 19.0743 11.7924 19.111C11.8081 19.1293 11.8176 19.1403 11.8271 19.1497L11.8279 19.1505L11.8287 19.1512C17.6706 24.9576 23.5126 30.764 29.383 36.5563C29.5962 36.7682 29.98 36.9095 30.2927 36.9095C33.6362 36.9264 36.9745 36.9281 40.3138 36.9298H40.3142H40.3145H40.3148H40.3152H40.3155H40.3159H40.3162H40.3166H40.3169H40.3173H40.3176H40.3179H40.3183H40.3186H40.319H40.3193H40.3197H40.32H40.3203H40.3207H40.321H40.3214C42.5451 36.931 44.7693 36.9321 46.9957 36.9377C47.5643 36.9377 47.9623 36.7823 48.3604 36.3867C52.5929 32.1588 56.8414 27.9388 61.0879 23.7208L61.095 23.7138L61.1556 23.6536L61.1624 23.6468C62.5531 22.2654 63.9437 20.8841 65.3334 19.5029C65.4099 19.4269 65.4864 19.3441 65.5645 19.2595L65.5648 19.2592C65.6463 19.171 65.7297 19.0808 65.8167 18.9943C59.8747 13.0885 53.9612 7.2109 48.0476 1.34748C47.8913 1.19206 47.6354 1.06491 47.4364 1.06491C46.0184 1.04371 44.6004 1.04636 43.1824 1.04901ZM32.8373 28.2627C29.7952 25.2392 26.6537 22.1167 23.5689 19.0367C26.6821 15.9425 29.8237 12.82 32.9084 9.73995L42.191 18.966L32.8373 28.2627ZM31.3777 21.7255L31.378 21.7253C31.7395 21.5477 32.0577 21.3913 32.354 21.1983C32.7662 20.9299 33.1074 20.944 33.5196 21.1983C33.8188 21.3867 34.132 21.5402 34.4837 21.7127L34.4842 21.7129C34.6337 21.7862 34.7901 21.8629 34.9554 21.9472C34.9158 21.7207 34.8848 21.5131 34.8558 21.319L34.8558 21.319C34.8016 20.956 34.7544 20.6403 34.6711 20.3365C34.5431 19.8561 34.6995 19.5453 35.0549 19.2345C35.2875 19.0388 35.5032 18.8208 35.7446 18.5769L35.7446 18.5769L35.7446 18.5768C35.8868 18.4332 36.0378 18.2806 36.2063 18.1183C36.0485 18.0933 35.8997 18.0684 35.7576 18.0445L35.7576 18.0445C35.3369 17.974 34.9755 17.9133 34.6142 17.8922C34.1309 17.864 33.8466 17.6662 33.6618 17.214C33.5356 16.8956 33.3695 16.5968 33.2045 16.2999L33.2044 16.2998C33.1279 16.1621 33.0515 16.0247 32.9795 15.8859C32.9226 15.8577 32.8657 15.8294 32.8089 15.8153C32.4961 17.539 31.4158 18.2172 29.5962 18.0335C29.8119 18.257 30.0321 18.4541 30.238 18.6384L30.2381 18.6384C30.67 19.0249 31.0394 19.3554 31.1741 19.7572C31.2871 20.1502 31.1881 20.6175 31.0794 21.1305C31.024 21.3921 30.9661 21.6656 30.9325 21.9472C31.0883 21.8677 31.2363 21.795 31.3777 21.7255ZM127.838 6.22129C127.835 6.32399 127.831 6.42468 127.824 6.53272C128.933 6.80116 129.061 6.94245 129.004 8.00211V10.1214C129.004 10.4583 129.005 10.7937 129.007 11.1285L129.007 11.1366V11.1381V11.1397V11.1412V11.1428V11.1443V11.1458V11.1473V11.1488V11.1504V11.1519V11.1533V11.1548V11.1563V11.1578V11.1593V11.1607V11.1622V11.1636V11.1651V11.1665C129.01 11.83 129.013 12.4915 129.004 13.1591C129.004 13.809 128.734 14.3176 128.065 14.4872C127.369 14.6567 126.871 14.3318 126.544 13.7384C126.421 13.53 126.319 13.3004 126.22 13.0771L126.175 12.9754C125.265 10.7713 124.369 8.58138 123.474 6.3773C123.457 6.33336 123.441 6.28632 123.426 6.23857L123.426 6.2385L123.426 6.23842L123.426 6.23835L123.426 6.23828L123.426 6.2382C123.335 5.96362 123.236 5.66568 122.848 5.79802C122.607 5.8828 122.337 6.15124 122.237 6.40556C121.879 7.27783 121.531 8.1571 121.182 9.03673C120.672 10.3228 120.162 11.6096 119.622 12.8765C119.38 13.4417 118.939 13.9927 118.456 14.3883C118.115 14.6567 118.058 14.8122 118.143 15.1512H121.072C121.093 15.123 121.118 15.0947 121.143 15.0665L121.143 15.0663C121.168 15.0381 121.192 15.0099 121.214 14.9817C121.128 14.904 121.05 14.8227 120.972 14.7415C120.894 14.6603 120.816 14.579 120.73 14.5013C120.666 14.4418 120.588 14.3893 120.513 14.3377C120.372 14.242 120.236 14.1494 120.19 14.0209C119.977 13.371 120.546 12.6646 121.228 12.6646H122.792C123.46 12.6646 123.943 13.1167 123.943 13.922C123.943 14.1048 123.732 14.2876 123.521 14.4704C123.422 14.556 123.324 14.6417 123.246 14.7274C123.225 14.7062 123.2 14.6885 123.175 14.6709L123.175 14.6708C123.15 14.6532 123.126 14.6355 123.104 14.6144V15.1654H131.235C131.15 15.0564 131.08 14.9539 131.018 14.863C130.895 14.6827 130.804 14.5483 130.681 14.5013C130.013 14.2329 129.743 13.7666 129.743 13.0743V8.3412C129.743 8.29974 129.767 8.25829 129.802 8.19971C129.826 8.15845 129.856 8.10871 129.885 8.04449C130.155 8.6059 130.422 9.16128 130.686 9.71213L130.691 9.72218C131.497 11.3997 132.282 13.0353 133.083 14.6709C133.15 14.803 133.274 14.9162 133.395 15.0274L133.395 15.0275L133.395 15.0276C133.455 15.0828 133.515 15.1374 133.567 15.1936C133.617 15.1435 133.671 15.0958 133.725 15.0484C133.854 14.9355 133.98 14.8243 134.05 14.685C135.029 12.6131 136.007 10.5271 136.986 8.44106L136.986 8.44038L136.993 8.42597C137.034 8.34305 137.086 8.26501 137.159 8.15471C137.21 8.07705 137.272 7.98341 137.348 7.86082V13.0743C137.348 14.2753 137.305 14.3318 135.927 14.6567C136.003 14.7378 136.07 14.8279 136.132 14.9102C136.242 15.0574 136.333 15.1795 136.424 15.1795C137.564 15.2007 138.719 15.198 139.885 15.1954C140.275 15.1945 140.666 15.1936 141.058 15.1936C141.062 15.1441 141.065 15.0981 141.069 15.0549L141.069 15.0544C141.079 14.9256 141.087 14.8225 141.087 14.7274C141.087 14.6722 141.061 14.6257 141.036 14.5811C141.029 14.5685 141.022 14.5561 141.016 14.5437C139.949 14.4307 139.75 14.2329 139.736 13.1732C139.727 12.09 139.73 11.0068 139.733 9.92361L139.733 9.90814C139.735 9.3717 139.736 8.83525 139.736 8.29881C139.736 6.91419 139.779 6.85768 141.058 6.4762C141.186 6.03821 141.001 5.89693 140.561 5.91105C139.679 5.93931 138.812 5.95344 137.931 5.91105C137.504 5.89693 137.305 6.05234 137.135 6.41969C136.528 7.74606 135.896 9.06393 135.265 10.3799L135.263 10.3842C135.081 10.763 134.899 11.1416 134.718 11.5202C134.664 11.6386 134.593 11.7488 134.5 11.8945L134.5 11.8949C134.471 11.9404 134.439 11.9893 134.405 12.0429C134.249 11.7038 134.135 11.4778 134.022 11.2517C133.736 10.6527 133.453 10.0518 133.169 9.45036L133.166 9.44488C132.688 8.43086 132.209 7.41543 131.719 6.40556C131.633 6.20776 131.392 5.93931 131.221 5.93931C130.336 5.90545 129.45 5.90766 128.542 5.90991L128.542 5.90991C128.314 5.91048 128.084 5.91105 127.852 5.91105C127.845 6.02188 127.842 6.12251 127.838 6.22129ZM122.123 9.21718C122.493 10.0932 122.863 10.9691 123.275 11.944H120.887C121.069 11.4763 121.248 11.0259 121.424 10.5842L121.425 10.5817L121.425 10.5808L121.428 10.5745C121.607 10.1255 121.782 9.68546 121.953 9.24543C121.981 9.23837 122.01 9.23484 122.038 9.23131C122.067 9.22777 122.095 9.22424 122.123 9.21718ZM169.152 35.5454H169.151C168.697 35.5538 168.254 35.562 167.811 35.5107C167.598 35.4825 167.357 35.214 167.214 35.0021C165.722 32.7415 164.229 30.4809 162.751 28.2203C162.698 28.1421 162.643 28.0638 162.574 27.9674L162.573 27.9659C162.494 27.8538 162.397 27.7173 162.267 27.528V35.4825H160.092V23.4589C160.264 23.4589 160.434 23.4558 160.604 23.4526H160.604C161.053 23.4442 161.497 23.4359 161.94 23.4872C162.154 23.5155 162.381 23.798 162.523 24.01C163.624 25.6718 164.718 27.3409 165.81 29.0069C166.24 29.6638 166.67 30.3202 167.101 30.9754C167.152 31.0578 167.212 31.1326 167.317 31.2655C167.356 31.3151 167.402 31.3726 167.456 31.4417V23.5155H169.674V35.539C169.498 35.539 169.324 35.5422 169.152 35.5454H169.152ZM212.433 23.4448V35.4966H214.637V27.7682C214.892 27.9095 215.006 28.0649 215.12 28.2344C216.598 30.495 218.091 32.7556 219.583 35.0162C219.711 35.214 219.925 35.4825 220.124 35.4966C220.58 35.5481 221.043 35.5395 221.498 35.5311C221.667 35.528 221.835 35.5249 222 35.5249V23.4872H219.868V31.2862C219.562 31.1205 219.433 30.9279 219.295 30.7214L219.285 30.707C217.807 28.4464 216.314 26.1858 214.821 23.9252C214.693 23.7274 214.48 23.4872 214.281 23.4731C213.849 23.4219 213.409 23.43 212.956 23.4384L212.956 23.4384C212.783 23.4416 212.609 23.4448 212.433 23.4448ZM194.152 23.5013V35.539C193.972 35.539 193.794 35.5422 193.619 35.5454L193.619 35.5454C193.161 35.5538 192.718 35.5619 192.276 35.5107C192.063 35.4825 191.835 35.214 191.679 34.988C190.578 33.3265 189.484 31.6578 188.393 29.9923C187.962 29.335 187.532 28.6782 187.101 28.0225C187.058 27.9534 187.009 27.8895 186.932 27.7889L186.932 27.7886C186.883 27.7248 186.823 27.6462 186.746 27.5421V35.4825H184.571V23.4448C184.737 23.4448 184.904 23.4417 185.072 23.4385C185.522 23.4301 185.978 23.4216 186.433 23.4731C186.632 23.4872 186.831 23.7556 186.959 23.9534C188.495 26.2705 190.016 28.5877 191.537 30.9189C191.622 31.0461 191.721 31.1732 191.949 31.2862V23.5013H194.152ZM198.744 29.4071C198.715 33.0523 201.402 35.8074 205.013 35.8216C208.552 35.8498 211.324 33.123 211.353 29.6049C211.381 26.0586 208.609 23.1764 205.141 23.1481C201.587 23.134 198.772 25.8749 198.744 29.4071ZM205.055 33.7164C202.753 33.7023 200.99 31.8938 200.976 29.5343C200.961 27.1183 202.738 25.2674 205.041 25.2815C207.287 25.2815 209.107 27.1748 209.121 29.4919C209.135 31.7949 207.273 33.7305 205.055 33.7164ZM87.8504 29.4919C87.8504 25.9597 90.6366 23.1481 94.1762 23.1481C97.6732 23.1481 100.474 25.9738 100.488 29.5202C100.502 33.0665 97.73 35.8216 94.162 35.8216C90.594 35.8216 87.8646 33.0806 87.8504 29.4919ZM90.0964 29.4636C90.0964 31.8655 91.8591 33.7164 94.1762 33.7164C96.3796 33.7164 98.2134 31.8373 98.2276 29.5625C98.2418 27.203 96.4222 25.2815 94.1478 25.2815C91.8734 25.2674 90.1107 27.09 90.0964 29.4636ZM137.078 23.4731H134.903C134.903 27.4998 134.903 31.4982 134.917 35.4966H137.135V30.2266H141.328V35.4825H143.503V23.5013H141.271V28.0084H137.078V23.4731ZM73.6636 35.4118V23.3742C74.0577 23.4016 74.4496 23.4247 74.8394 23.4476C75.8554 23.5074 76.8566 23.5664 77.8429 23.6991C78.9943 23.8545 79.8188 24.5751 80.16 25.7195C80.5153 26.8922 80.1884 27.8954 79.2644 28.7148C79.2226 28.746 79.1962 28.7847 79.157 28.8423L79.1569 28.8423L79.1567 28.8427C79.1425 28.8634 79.1268 28.8865 79.108 28.9126C79.2928 29.0257 79.4634 29.1387 79.634 29.2517C80.8565 30.0288 81.3967 31.2863 81.1266 32.7133C80.8707 34.0979 79.8046 35.2706 78.383 35.3836C77.3194 35.4717 76.2421 35.4513 75.1417 35.4304H75.1416H75.1413H75.141H75.1407H75.1405H75.1403H75.1401H75.1398H75.1396H75.1394H75.1392H75.139H75.1388H75.1386C74.6517 35.4212 74.1603 35.4118 73.6636 35.4118ZM75.8243 33.4762C76.0445 33.4583 76.2533 33.4433 76.4539 33.4289L76.454 33.4288C76.8879 33.3976 77.2834 33.3691 77.6723 33.3208C78.3688 33.236 78.8521 32.8828 78.9801 32.1481C79.0938 31.5123 78.7669 30.7635 78.113 30.5374C77.594 30.3575 77.034 30.2998 76.4853 30.2432C76.3877 30.2332 76.2905 30.2231 76.1939 30.2125C76.0802 30.1983 75.8527 30.4103 75.8385 30.5233C75.8173 31.2394 75.8198 31.9476 75.8225 32.6948V32.6948V32.6949V32.695V32.6951V32.6951V32.6952V32.6953V32.6953V32.6954V32.6955V32.6955V32.6956V32.6957C75.8234 32.9507 75.8243 33.2103 75.8243 33.4762ZM75.8669 28.2062C76.7199 28.2627 77.4875 28.291 77.9708 27.528C78.2551 27.0759 78.2551 26.5673 77.9139 26.1434C77.3994 25.4937 76.6807 25.5337 75.931 25.5755L75.8811 25.5782C75.8669 26.4679 75.8669 27.3152 75.8669 28.2048V28.2062ZM144.974 33.6405L144.972 33.6437C144.734 34.2605 144.492 34.8856 144.242 35.5249H144.243C145.096 35.5249 145.792 35.5249 146.545 35.539C146.613 35.3695 146.681 35.2001 146.75 35.0306C146.955 34.5219 147.16 34.0132 147.341 33.5045C147.484 33.123 147.683 33.01 148.081 33.01C149.417 33.0382 150.739 33.0382 152.061 33.01C152.502 32.9958 152.701 33.1512 152.828 33.5469C152.971 33.9637 153.131 34.3749 153.29 34.7841L153.29 34.7842L153.29 34.7844L153.29 34.7845L153.29 34.7846L153.29 34.7847L153.29 34.7849L153.29 34.785L153.29 34.7851L153.29 34.7852L153.29 34.7854L153.29 34.7855L153.29 34.7857L153.291 34.7869L153.291 34.7873C153.385 35.0289 153.478 35.2698 153.568 35.5107H155.842C155.795 35.3849 155.758 35.2684 155.723 35.1583C155.683 35.0335 155.646 34.9169 155.6 34.8043C154.968 33.1583 154.332 31.5158 153.696 29.8733C153.059 28.2309 152.423 26.5884 151.791 24.9425C151.219 23.4727 151.208 23.4725 149.663 23.4463L149.573 23.4448C149.104 23.4307 148.877 23.572 148.706 24.0241C147.825 26.3553 146.915 28.6724 146.005 30.9896C145.662 31.8637 145.323 32.7378 144.978 33.6293L144.974 33.6405ZM150.085 26.7368C150.113 26.7403 150.142 26.7439 150.17 26.7509L150.2 26.8265L150.223 26.8848C150.731 28.1825 151.241 29.4824 151.777 30.8483H148.379C148.638 30.1944 148.891 29.5467 149.142 28.9037L149.144 28.8999C149.429 28.1687 149.712 27.4437 150 26.7227C150.028 26.7297 150.057 26.7333 150.085 26.7368ZM112.542 25.4652C112.059 26.0162 111.604 26.5249 111.149 27.0335C108.505 24.4762 105.691 25.112 104.326 26.539C102.805 28.1214 102.72 30.6646 104.155 32.3177C105.819 34.225 108.192 34.1261 111.092 32.0351L111.133 32.0747C111.604 32.5285 112.087 32.9945 112.557 33.4338C111.178 35.426 108.008 36.3302 105.293 35.5531C102.776 34.8326 101.028 32.6426 100.928 30.0712C100.801 26.8357 102.194 24.6034 104.966 23.572C107.638 22.583 110.879 23.4024 112.542 25.4652ZM133.807 25.6253L133.922 25.5076C131.335 22.583 126.758 22.371 124 24.999C121.512 27.4009 121.626 31.8938 124.242 34.2533C126.9 36.6552 131.577 36.2878 133.894 33.4762C133.645 33.236 133.393 32.9958 133.14 32.7556L133.137 32.7526C132.886 32.5134 132.635 32.2742 132.387 32.0351C129.771 34.0979 127.355 34.2392 125.606 32.4448C124.114 30.9048 124.071 28.2768 125.535 26.6662C127.255 24.7588 129.601 24.8718 132.458 26.9911C132.905 26.547 133.339 26.1029 133.807 25.6253ZM122.322 35.539C122.064 35.539 121.82 35.5415 121.586 35.5439C121.034 35.5496 120.537 35.5546 120.048 35.5249C119.821 35.5107 119.536 35.3129 119.394 35.1151C118.583 33.9821 117.789 32.8323 116.992 31.6786L116.991 31.6778C116.755 31.3356 116.518 30.993 116.281 30.6505C116.196 30.5233 116.096 30.3961 115.869 30.1136V35.4825H113.637V23.4731H115.812V27.415C115.862 27.4574 115.915 27.4997 115.968 27.5421C116.022 27.5845 116.075 27.6269 116.125 27.6693C116.143 27.6106 116.157 27.549 116.17 27.4882C116.199 27.3588 116.227 27.2331 116.295 27.1465C117.134 26.0445 117.987 24.9425 118.882 23.8687C119.067 23.6426 119.451 23.4872 119.75 23.4589C120.198 23.4201 120.654 23.4279 121.162 23.4367H121.162H121.162H121.162H121.163H121.163H121.163H121.163H121.163H121.163C121.395 23.4406 121.638 23.4448 121.896 23.4448C121.535 23.9061 121.178 24.3622 120.824 24.8142C119.758 26.176 118.72 27.5019 117.674 28.8279C119.209 31.0461 120.716 33.2219 122.322 35.539ZM176.994 24.3349V23.4872C176.227 23.4872 175.559 23.4872 174.891 23.4731C174.878 23.5216 174.864 23.5597 174.851 23.593C174.833 23.6372 174.82 23.6729 174.82 23.7133C174.823 24.3853 174.824 25.058 174.825 25.7312V25.7317V25.7323V25.7328V25.7333V25.7339V25.7344V25.7349V25.7355C174.828 27.9764 174.832 30.2219 174.919 32.4589C174.947 33.1512 175.317 33.9424 175.758 34.4935C176.795 35.7933 178.8 36.1748 180.506 35.5673C181.998 35.0304 182.908 33.7164 182.936 31.9503C182.965 29.3224 182.965 26.6803 182.965 24.0523C182.965 23.9552 182.951 23.8535 182.936 23.7471C182.925 23.6678 182.914 23.5858 182.908 23.5013H180.776V24.4479C180.773 24.951 180.771 25.4541 180.768 25.9572C180.759 27.969 180.75 29.9809 180.705 31.9927C180.676 33.1936 179.61 33.9283 178.43 33.674C177.449 33.4621 176.994 32.8122 176.994 31.5406C176.985 29.9393 176.988 28.3381 176.991 26.7368L176.991 26.7139C176.993 25.9209 176.994 25.1279 176.994 24.3349ZM117.233 15.2501C116.622 15.4621 116.281 15.236 115.926 14.8404C114.679 13.4189 113.419 12.0104 112.119 10.5573L112.119 10.557L112.118 10.5561L112.108 10.5443L112.102 10.5374C111.495 9.85947 110.88 9.17172 110.254 8.46835V11.5625V13.258C110.268 13.8655 110.552 14.2611 111.149 14.4731C111.295 14.5212 111.407 14.648 111.518 14.7731C111.569 14.8316 111.621 14.8898 111.675 14.9393C111.654 14.9746 111.633 15.0064 111.611 15.0382C111.59 15.07 111.569 15.1018 111.547 15.1371H108.207C108.05 14.8263 108.022 14.572 108.505 14.4589C109.173 14.2894 109.443 13.7807 109.458 13.1308C109.472 11.4071 109.472 9.69755 109.458 7.97384C109.443 7.30979 109.145 6.81529 108.434 6.60336C108.306 6.56423 108.212 6.42351 108.119 6.28436C108.078 6.22253 108.037 6.16101 107.993 6.10885C108.015 6.07354 108.036 6.04176 108.057 6.00999C108.079 5.97819 108.1 5.94638 108.121 5.91105C108.398 5.91105 108.674 5.90873 108.949 5.90642C109.634 5.90066 110.317 5.89492 111.007 5.92518C111.22 5.93931 111.448 6.16537 111.604 6.34904C113.097 7.98797 114.575 9.64103 116.054 11.2941C116.104 11.3539 116.161 11.3996 116.25 11.4709C116.287 11.5007 116.33 11.535 116.38 11.5767C116.38 11.2018 116.385 10.8343 116.389 10.4723C116.4 9.497 116.41 8.56212 116.338 7.63475C116.318 7.40156 116.084 7.17506 115.851 6.95064C115.745 6.84872 115.64 6.74723 115.556 6.64574C115.4 6.46207 115.229 6.2784 115.058 6.09472C115.101 6.03821 115.144 5.98169 115.201 5.93931H118.484C118.439 6.02561 118.4 6.11775 118.364 6.20588L118.364 6.20603C118.286 6.39196 118.216 6.55998 118.101 6.61749C117.376 6.91419 117.233 7.47934 117.233 8.15752C117.243 9.56954 117.24 10.9816 117.237 12.3936V12.3961C117.235 13.1026 117.233 13.809 117.233 14.5154V15.2501ZM96.0672 8.22323C96.1811 8.27196 96.3088 8.32662 96.4365 8.39771C96.4053 7.87058 96.3826 7.4115 96.3615 6.98314L96.3614 6.98136L96.3612 6.97774C96.344 6.62737 96.3277 6.29747 96.3085 5.96757H88.22C88.3077 6.07517 88.3785 6.18092 88.44 6.27268C88.5479 6.43393 88.627 6.55197 88.7176 6.56097C89.5705 6.674 89.6984 7.23915 89.6984 7.93146V13.0884C89.6984 14.2187 89.5563 14.3883 88.4333 14.6002C88.4333 14.7839 88.4475 14.9817 88.4617 15.1512H96.9056V12.3114C96.3654 12.0712 96.2375 12.382 96.0811 12.7776C95.4698 14.2894 94.6596 14.7274 92.7832 14.3742C92.5273 14.3176 92.1435 13.9503 92.1292 13.696C92.0775 12.9966 92.086 12.2973 92.0945 11.6034V11.6033V11.6033V11.6032V11.6031V11.603V11.603C92.0977 11.3437 92.1008 11.0853 92.1008 10.8278C93.3802 10.5594 93.6361 10.6866 94.1336 11.6897C94.181 11.7839 94.3231 11.8404 94.4969 11.9095L94.497 11.9095L94.4971 11.9096L94.4972 11.9096L94.4972 11.9096L94.4973 11.9096C94.584 11.9441 94.6787 11.9818 94.7733 12.0288V8.86396C94.5601 8.86396 94.3611 8.84983 94.1763 8.8357C93.7924 10.0084 93.437 10.1779 92.1292 9.89535V6.63162C92.2853 6.63162 92.4347 6.63494 92.5797 6.63817C92.8573 6.64436 93.1188 6.65018 93.3802 6.63162C94.4321 6.5751 95.285 6.84355 95.6689 7.95972C95.7053 8.06833 95.8642 8.13636 96.0672 8.22323ZM82.2354 23.4872H84.4103V33.4338H87.8078V35.4966H82.2354V23.4872ZM107.212 8.62376V5.98169C104.113 5.98169 101.042 5.98169 97.9433 5.99582V7.23915V8.75092C98.0673 8.65846 98.1876 8.58467 98.2918 8.52073C98.4743 8.40881 98.6075 8.32707 98.6256 8.22816C98.8957 6.94245 99.4785 6.46207 101.369 6.82942V12.8765C101.369 14.2894 101.355 14.3035 100.033 14.6426C99.8908 15.0665 100.047 15.2219 100.502 15.2219C101.881 15.2078 103.246 15.2078 104.624 15.2219C105.193 15.2219 105.193 14.9676 105.037 14.572C103.885 14.4448 103.743 14.2894 103.743 13.145V7.42282C103.743 7.19676 103.757 6.9707 103.772 6.75877C105.534 6.5751 105.804 6.73052 106.501 8.25642C106.559 8.37174 106.729 8.43477 106.925 8.50775C107.018 8.54206 107.116 8.57858 107.212 8.62376ZM71.8867 6.36317C71.9324 6.31776 71.9781 6.25921 72.0237 6.20066C72.1202 6.07705 72.2167 5.95344 72.3131 5.95344C73.4439 5.93224 74.5747 5.9349 75.6995 5.93755C76.0735 5.93843 76.4469 5.93931 76.8194 5.93931C77.0042 6.40556 76.8762 6.60336 76.4356 6.67401C75.9238 6.74465 75.7248 7.08374 75.9238 7.53586C76.4035 8.64831 76.9043 9.76076 77.436 10.9419L77.4368 10.9439L77.4371 10.9444L77.4378 10.9461C77.6619 11.4438 77.8914 11.9537 78.1272 12.4809C78.2871 12.0957 78.4437 11.7204 78.5972 11.3528L78.598 11.3507L78.5981 11.3507C79.1534 10.02 79.667 8.78934 80.1457 7.54999C80.3163 7.09787 80.0178 6.82942 79.5771 6.64575C79.4416 6.58802 79.3324 6.45819 79.2227 6.32769L79.2226 6.32764C79.1713 6.26654 79.1198 6.2053 79.0654 6.15124C79.108 6.09473 79.1507 6.03821 79.1933 5.96757H82.3775C82.3462 6.04312 82.3206 6.12845 82.2957 6.21125C82.2414 6.39171 82.1907 6.56018 82.0932 6.58923C81.4251 6.77291 81.1692 7.3098 80.9418 7.84669C79.9325 10.1497 78.9374 12.4527 77.9424 14.7556C77.9218 14.8034 77.9038 14.8526 77.8858 14.9015C77.7924 15.1569 77.7014 15.4056 77.26 15.4056C76.8324 15.4056 76.7431 15.1534 76.6558 14.9072L76.6558 14.9072C76.6358 14.8506 76.6158 14.7943 76.5919 14.7415C75.54 12.4244 74.5023 10.1214 73.4788 7.79018C73.1945 7.14025 72.8533 6.56098 71.9862 6.57511C71.9577 6.50446 71.9293 6.43382 71.8867 6.36317ZM158.543 35.4966V23.4872H156.425V35.4966H158.543ZM87.5235 14.572V15.1089C87.4926 15.1211 87.4645 15.136 87.4378 15.1502C87.4031 15.1686 87.3709 15.1856 87.3387 15.1936C86.7813 15.1993 86.2217 15.2004 85.6616 15.2015H85.6614C84.8217 15.2032 83.9809 15.2049 83.1452 15.2219C82.6476 15.236 82.5908 15.01 82.6903 14.6285C83.8275 14.3459 83.8844 14.2753 83.8844 13.0884C83.8844 12.4997 83.8828 11.9111 83.8812 11.3224C83.878 10.145 83.8749 8.96757 83.8844 7.79017C83.8844 7.16851 83.6996 6.75878 83.0172 6.61749C82.902 6.5984 82.8127 6.4568 82.7231 6.31466L82.723 6.3146C82.68 6.24635 82.6369 6.17798 82.5908 6.12298L82.7471 5.96757H87.5093V6.51859C86.3436 6.78703 86.2583 6.88593 86.2583 8.11513V13.2015C86.2725 14.2187 86.4431 14.4024 87.5235 14.572ZM195.773 35.4966H197.848V23.5013H195.773V35.4966Z" fill="#95C6B7"/>
</svg>
