<svg width="126" height="50" viewBox="0 0 126 50" fill="none" xmlns="http://www.w3.org/2000/svg">
<g opacity="0.8">
<path d="M28.5 32.3001L27.7 40.3001L7.4 38.2001L9.5 16.8001L22.4 18.1001L24.4 18.3001L25.1 11.3001H25L3.6 9.1001L0 44.6001L33.6 47.9001L35.1 33.0001L28.5 32.3001Z" fill="#95C6B7"/>
<rect x="28.9422" y="20.8589" width="7.2003" height="6.60028" transform="rotate(5.69866 28.9422 20.8589)" fill="#95C6B7"/>
<path d="M28.8 31.4002V39.3002H8.40001V17.8002H21.4H23.4V10.7002H23.3H1.70001V46.4002H35.5V31.4002H28.8Z" fill="#498779"/>
<rect x="28.8" y="20.8003" width="6.7" height="7.4" fill="#498779"/>
<path d="M54.1668 13.768L50.6028 31.372L60.7188 30.724L60.8268 32.812L44.9508 33.784L44.4468 33.82L46.3188 12.868L54.1668 13.768ZM82.1295 14.668L82.5975 34.108H80.4735L80.3295 29.32C79.3695 30.712 78.3015 31.768 77.1255 32.488C75.9735 33.184 74.8215 33.664 73.6695 33.928C72.5175 34.168 71.4375 34.228 70.4295 34.108C69.4215 33.988 68.5935 33.796 67.9455 33.532C67.2015 33.22 66.4095 32.632 65.5695 31.768C64.7535 30.904 64.0695 29.692 63.5175 28.132C62.9655 26.548 62.6415 24.568 62.5455 22.192C62.4735 19.816 62.8095 16.96 63.5535 13.624L71.1135 14.02C70.9215 14.884 70.7295 15.88 70.5375 17.008C70.3695 18.136 70.2255 19.312 70.1055 20.536C70.0095 21.76 69.9615 22.972 69.9615 24.172C69.9615 25.372 70.0455 26.476 70.2135 27.484C70.4055 28.468 70.6935 29.32 71.0775 30.04C71.4615 30.736 71.9895 31.192 72.6615 31.408C73.2615 31.552 73.8975 31.528 74.5695 31.336C75.2655 31.12 75.9495 30.76 76.6215 30.256C77.3175 29.752 77.9775 29.128 78.6015 28.384C79.2255 27.616 79.7775 26.776 80.2575 25.864L79.9695 14.668H82.1295ZM95.4403 13.768L91.8763 31.372L101.992 30.724L102.1 32.812L86.2243 33.784L85.7203 33.82L87.5923 12.868L95.4403 13.768ZM123.403 14.668L123.871 34.108H121.747L121.603 29.32C120.643 30.712 119.575 31.768 118.399 32.488C117.247 33.184 116.095 33.664 114.943 33.928C113.791 34.168 112.711 34.228 111.703 34.108C110.695 33.988 109.867 33.796 109.219 33.532C108.475 33.22 107.683 32.632 106.843 31.768C106.027 30.904 105.343 29.692 104.791 28.132C104.239 26.548 103.915 24.568 103.819 22.192C103.747 19.816 104.083 16.96 104.827 13.624L112.387 14.02C112.195 14.884 112.003 15.88 111.811 17.008C111.643 18.136 111.499 19.312 111.379 20.536C111.283 21.76 111.235 22.972 111.235 24.172C111.235 25.372 111.319 26.476 111.487 27.484C111.679 28.468 111.967 29.32 112.351 30.04C112.735 30.736 113.263 31.192 113.935 31.408C114.535 31.552 115.171 31.528 115.843 31.336C116.539 31.12 117.223 30.76 117.895 30.256C118.591 29.752 119.251 29.128 119.875 28.384C120.499 27.616 121.051 26.776 121.531 25.864L121.243 14.668H123.403Z" fill="#95C6B7"/>
<path d="M69.3131 47.5835C69.0677 47.5835 68.7904 47.5248 68.4811 47.4075C68.1717 47.3008 67.9051 47.1301 67.6811 46.8955L68.1451 46.1915C68.3264 46.3728 68.4917 46.5008 68.6411 46.5755C68.8011 46.6608 68.9664 46.7195 69.1371 46.7515C69.2864 46.7728 69.4357 46.7728 69.5851 46.7515C69.7344 46.7301 69.8624 46.6661 69.9691 46.5595C70.1077 46.4208 70.2091 46.2555 70.2731 46.0635C70.3371 45.8715 70.3851 45.5675 70.4171 45.1515C70.4277 45.0128 70.4331 44.8581 70.4331 44.6875C70.4331 44.5061 70.4331 44.3248 70.4331 44.1435C70.1237 44.5488 69.7451 44.8848 69.2971 45.1515C68.8491 45.4075 68.3531 45.5621 67.8091 45.6155C67.3077 45.6688 66.8331 45.6315 66.3851 45.5035C65.9371 45.3648 65.5371 45.1621 65.1851 44.8955C64.8437 44.6181 64.5611 44.2875 64.3371 43.9035C64.1131 43.5195 63.9851 43.0928 63.9531 42.6235C63.9104 42.1648 63.9637 41.7221 64.1131 41.2955C64.2731 40.8581 64.5024 40.4741 64.8011 40.1435C65.0997 39.8021 65.4571 39.5195 65.8731 39.2955C66.2997 39.0715 66.7584 38.9328 67.2491 38.8795C67.8571 38.8155 68.4224 38.8848 68.9451 39.0875C69.4784 39.2901 69.9264 39.5888 70.2891 39.9835L70.2411 38.9915L71.0891 38.9115C71.1211 39.4661 71.1477 40.0368 71.1691 40.6235C71.2011 41.2101 71.2224 41.7808 71.2331 42.3355C71.2544 42.8795 71.2651 43.3915 71.2651 43.8715C71.2757 44.3515 71.2704 44.7675 71.2491 45.1195C71.2171 45.6208 71.1531 46.0261 71.0571 46.3355C70.9717 46.6555 70.8384 46.9115 70.6571 47.1035C70.5077 47.2635 70.2997 47.3808 70.0331 47.4555C69.7771 47.5408 69.5477 47.5835 69.3451 47.5835H69.3131ZM70.1931 42.6875C70.2571 42.3781 70.2731 42.0795 70.2411 41.7915C70.2091 41.5035 70.1291 41.2475 70.0011 41.0235C69.8837 40.7888 69.7237 40.5968 69.5211 40.4475C69.3291 40.2875 69.1051 40.1808 68.8491 40.1275C68.5931 40.0848 68.3317 40.1008 68.0651 40.1755C67.8091 40.2395 67.5744 40.3568 67.3611 40.5275C67.1477 40.6981 66.9611 40.9115 66.8011 41.1675C66.6517 41.4128 66.5451 41.6848 66.4811 41.9835C66.4064 42.2928 66.3851 42.5915 66.4171 42.8795C66.4491 43.1675 66.5237 43.4341 66.6411 43.6795C66.7691 43.9141 66.9291 44.1168 67.1211 44.2875C67.3237 44.4475 67.5531 44.5488 67.8091 44.5915C68.0651 44.6448 68.3211 44.6341 68.5771 44.5595C68.8331 44.4741 69.0677 44.3461 69.2811 44.1755C69.5051 43.9941 69.6971 43.7755 69.8571 43.5195C70.0171 43.2635 70.1291 42.9861 70.1931 42.6875ZM78.6556 44.0155C78.3569 44.4421 77.9729 44.7995 77.5036 45.0875C77.0449 45.3648 76.5329 45.5355 75.9676 45.5995C75.4769 45.6528 75.0076 45.6155 74.5596 45.4875C74.1116 45.3488 73.7116 45.1461 73.3596 44.8795C73.0076 44.6021 72.7196 44.2715 72.4956 43.8875C72.2822 43.4928 72.1542 43.0608 72.1116 42.5915C72.0796 42.1328 72.1382 41.6901 72.2876 41.2635C72.4476 40.8261 72.6769 40.4421 72.9756 40.1115C73.2742 39.7701 73.6316 39.4875 74.0476 39.2635C74.4742 39.0395 74.9329 38.9008 75.4236 38.8475C76.1276 38.7728 76.7729 38.8795 77.3596 39.1675C77.9569 39.4555 78.4262 39.8608 78.7676 40.3835L78.8156 39.1355H79.5996L79.3756 45.5515L78.6076 45.5355L78.6556 44.0155ZM78.4316 42.6395C78.4956 42.3195 78.5009 42.0155 78.4476 41.7275C78.4049 41.4395 78.3142 41.1835 78.1756 40.9595C78.0369 40.7248 77.8556 40.5275 77.6316 40.3675C77.4182 40.1968 77.1676 40.0795 76.8796 40.0155C76.6022 39.9621 76.3356 39.9675 76.0796 40.0315C75.8236 40.0955 75.5889 40.2128 75.3756 40.3835C75.1622 40.5435 74.9756 40.7515 74.8156 41.0075C74.6662 41.2528 74.5542 41.5355 74.4796 41.8555C74.4156 42.1755 74.3996 42.4848 74.4316 42.7835C74.4636 43.0821 74.5382 43.3541 74.6556 43.5995C74.7836 43.8448 74.9489 44.0528 75.1516 44.2235C75.3649 44.3941 75.6156 44.5115 75.9036 44.5755C76.1809 44.6288 76.4529 44.6181 76.7196 44.5435C76.9969 44.4688 77.2476 44.3461 77.4716 44.1755C77.7062 44.0048 77.9089 43.7915 78.0796 43.5355C78.2502 43.2688 78.3676 42.9701 78.4316 42.6395ZM83.1891 39.5995L83.4291 39.3595C83.8451 39.0075 84.3837 38.8315 85.0451 38.8315C85.7597 38.8315 86.2824 39.1248 86.6131 39.7115C86.7517 39.9248 86.8584 40.2021 86.9331 40.5435C87.0184 40.8848 87.0824 41.2741 87.1251 41.7115C87.3064 41.4235 87.5091 41.1941 87.7331 41.0235C87.9571 40.8528 88.1917 40.7568 88.4371 40.7355C88.9384 40.6821 89.3971 40.8261 89.8131 41.1675C90.0157 41.3595 90.1757 41.5995 90.2931 41.8875C90.4211 42.1755 90.5171 42.5061 90.5811 42.8795C90.6451 43.2421 90.6877 43.6368 90.7091 44.0635C90.7411 44.4901 90.7624 44.9381 90.7731 45.4075H89.9571C89.9464 44.9915 89.9304 44.5968 89.9091 44.2235C89.8877 43.8395 89.8504 43.4928 89.7971 43.1835C89.7544 42.8741 89.6904 42.6021 89.6051 42.3675C89.5197 42.1328 89.4077 41.9568 89.2691 41.8395C89.0877 41.6475 88.8531 41.5728 88.5651 41.6155C88.1064 41.6475 87.7171 42.2395 87.3971 43.3915C87.3117 43.7008 87.2424 43.9995 87.1891 44.2875C87.1357 44.5755 87.0984 44.8208 87.0771 45.0235C87.0451 45.4075 87.0291 45.6261 87.0291 45.6795L86.1171 45.5675C86.1277 45.5035 86.1437 45.3755 86.1651 45.1835C86.1864 44.9808 86.2077 44.7461 86.2291 44.4795C86.2504 44.2021 86.2717 43.9035 86.2931 43.5835C86.3144 43.2635 86.3251 42.9435 86.3251 42.6235C86.3251 42.5168 86.3251 42.4208 86.3251 42.3355C86.3251 42.2395 86.3197 42.1541 86.3091 42.0795C86.2771 41.5568 86.2131 41.1408 86.1171 40.8315C86.0317 40.5221 85.9304 40.2875 85.8131 40.1275C85.6957 39.9675 85.5677 39.8661 85.4291 39.8235C85.2904 39.7701 85.1517 39.7435 85.0131 39.7435C84.5757 39.7435 84.2077 39.8661 83.9091 40.1115C83.6104 40.3568 83.3437 40.7835 83.1091 41.3915L82.9331 45.5355L80.7571 45.6635L80.3731 38.8155L83.2371 38.6075L83.1891 39.5995ZM96.8953 44.9915C96.586 45.2048 96.2287 45.3701 95.8233 45.4875C95.4287 45.6048 95.0073 45.6528 94.5593 45.6315C94.1113 45.6208 93.7007 45.5408 93.3273 45.3915C92.9647 45.2421 92.65 45.0395 92.3833 44.7835C92.1167 44.5275 91.9033 44.2288 91.7433 43.8875C91.5833 43.5355 91.4927 43.1568 91.4713 42.7515C91.45 42.3461 91.498 41.9461 91.6153 41.5515C91.7327 41.1461 91.9087 40.7728 92.1433 40.4315C92.3887 40.0795 92.6927 39.7808 93.0553 39.5355C93.418 39.2795 93.834 39.0928 94.3033 38.9755C94.7833 38.8581 95.2473 38.8101 95.6953 38.8315C96.154 38.8421 96.5753 38.9541 96.9593 39.1675C97.3433 39.3701 97.6793 39.6848 97.9673 40.1115C98.266 40.5275 98.4953 41.0821 98.6553 41.7755H98.6713L98.7353 42.0955L98.8313 42.5915L93.2153 43.7755C93.3007 43.9888 93.4287 44.1755 93.5993 44.3355C93.77 44.4848 93.9887 44.6021 94.2553 44.6875C94.714 44.8048 95.1247 44.8208 95.4873 44.7355C95.85 44.6395 96.186 44.4795 96.4953 44.2555L96.8953 44.9915ZM93.1993 42.2555C93.1673 42.3728 93.1407 42.4901 93.1193 42.6075C93.098 42.7248 93.0873 42.8421 93.0873 42.9595L96.6233 42.2075C96.5807 42.0581 96.5273 41.9035 96.4633 41.7435C96.3993 41.5835 96.3247 41.4395 96.2393 41.3115C96.154 41.1728 96.0527 41.0555 95.9353 40.9595C95.818 40.8635 95.69 40.7995 95.5513 40.7675C95.2207 40.7035 94.922 40.7035 94.6553 40.7675C94.3993 40.8208 94.1753 40.9168 93.9833 41.0555C93.7913 41.1941 93.626 41.3701 93.4873 41.5835C93.3593 41.7968 93.2633 42.0208 93.1993 42.2555ZM102.649 45.6315C102.127 45.6315 101.652 45.5728 101.225 45.4555C100.799 45.3275 100.489 45.1461 100.297 44.9115L100.713 44.2555C100.777 44.3408 100.884 44.4208 101.033 44.4955C101.183 44.5595 101.353 44.6235 101.545 44.6875C101.737 44.7408 101.94 44.7835 102.153 44.8155C102.377 44.8368 102.596 44.8421 102.809 44.8315C103.055 44.8208 103.236 44.8048 103.353 44.7835C103.471 44.7621 103.567 44.7248 103.641 44.6715C103.801 44.5648 103.892 44.4475 103.913 44.3195C103.913 44.1595 103.828 44.0155 103.657 43.8875C103.583 43.8341 103.481 43.7861 103.353 43.7435C103.236 43.6901 103.049 43.6528 102.793 43.6315H102.761C102.025 43.5568 101.439 43.4181 101.001 43.2155C100.575 43.0128 100.255 42.7888 100.041 42.5435C99.828 42.2875 99.7 42.0208 99.6573 41.7435C99.6147 41.4661 99.6147 41.2048 99.6573 40.9595C99.7 40.6608 99.8173 40.3675 100.009 40.0795C100.201 39.7915 100.463 39.5461 100.793 39.3435C101.135 39.1301 101.545 38.9755 102.025 38.8795C102.505 38.7835 103.06 38.7835 103.689 38.8795C104.148 38.9541 104.591 39.0821 105.017 39.2635C105.444 39.4341 105.929 39.7221 106.473 40.1275L104.729 41.9995C104.356 41.6155 103.956 41.3435 103.529 41.1835C103.103 41.0128 102.708 40.9328 102.345 40.9435C101.993 40.9435 101.705 41.0181 101.481 41.1675C101.257 41.3168 101.156 41.5088 101.177 41.7435C101.188 41.8928 101.22 42.0261 101.273 42.1435C101.337 42.2608 101.439 42.3675 101.577 42.4635C101.727 42.5595 101.929 42.6448 102.185 42.7195C102.441 42.7941 102.777 42.8528 103.193 42.8955C103.247 42.9061 103.3 42.9168 103.353 42.9275C103.417 42.9381 103.476 42.9541 103.529 42.9755C103.753 43.0395 103.94 43.1301 104.089 43.2475C104.249 43.3541 104.377 43.4715 104.473 43.5995C104.58 43.7275 104.655 43.8608 104.697 43.9995C104.74 44.1381 104.761 44.2661 104.761 44.3835C104.751 44.6928 104.591 44.9701 104.281 45.2155C103.972 45.4608 103.497 45.5995 102.857 45.6315H102.649Z" fill="#498779"/>
</g>
</svg>
