<svg width="186" height="57" viewBox="0 0 186 57" fill="none" xmlns="http://www.w3.org/2000/svg">
<g opacity="0.8">
<path fill-rule="evenodd" clip-rule="evenodd" d="M22.6587 46.7697C22.4827 45.5555 21.9253 45.9667 21.488 46.2893C21.3684 46.3776 21.2578 46.4592 21.1664 46.4991C16.0496 48.7771 11.0508 51.3114 6.18898 54.0922C4.26414 55.2379 2.23102 56.191 0.119141 56.9377C0.466609 56.1176 0.809913 55.2948 1.15342 54.4715L1.15346 54.4715L1.15379 54.4707C1.95678 52.5461 2.76088 50.6189 3.62186 48.7183C5.25337 45.1537 6.94674 41.6123 8.6633 38.0786C9.4705 36.417 9.96823 34.6767 10.4652 32.9389C11.0251 30.9812 11.5841 29.0267 12.5836 27.1916C13.7288 25.0813 14.6508 22.848 15.5734 20.6132C16.0774 19.3925 16.5816 18.1714 17.1224 16.9695C18.9782 12.8869 21.9551 11.4951 26.2233 12.856C27.222 13.1706 27.5187 12.6925 27.8523 12.1551L27.8523 12.1551L27.8523 12.155L27.8527 12.1545C27.896 12.0847 27.94 12.0138 27.9863 11.9436C29.9462 8.75517 32.5446 6.00674 35.618 3.87106C40.4139 0.73742 46.1802 -0.558631 51.8558 0.221426L52.0414 0.260087C52.5632 0.413044 53.1642 0.37522 53.7495 0.338382C54.6732 0.280245 55.5579 0.224561 56.0312 0.925063C56.5786 1.73518 56.5718 2.76617 56.5651 3.79858C56.5623 4.22456 56.5595 4.65078 56.5957 5.06183C57.454 14.7272 54.0904 22.4594 45.9715 27.9494C44.572 28.9004 43.6518 29.6118 44.224 31.7459C45.1256 34.8105 43.567 38.0611 40.6131 39.2771C36.5513 41.1172 32.4602 42.8775 28.3675 44.6384L28.3673 44.6385L28.3671 44.6386L28.367 44.6386L28.3668 44.6387L28.3667 44.6388L28.3665 44.6388L28.3663 44.6389L28.3662 44.639L28.366 44.639L28.3659 44.6391L28.3657 44.6392L28.3655 44.6393L28.3654 44.6393L28.3639 44.64L28.3624 44.6406L28.3609 44.6412L28.3603 44.6415L28.3597 44.6418L28.359 44.6421L28.3584 44.6423L28.3578 44.6426L28.3571 44.6429L28.3565 44.6432L28.3559 44.6434L28.3553 44.6437L28.3546 44.644C26.8965 45.2714 25.4382 45.8988 23.9809 46.53C23.5974 46.7732 23.1349 46.8591 22.6896 46.7697H22.6587ZM13.2176 29.9984C13.1672 30.052 13.1257 30.1069 13.1074 30.163C13.1191 30.096 13.1738 30.0308 13.2484 29.9675C13.8139 28.6372 14.3718 27.3041 14.9295 25.9714L14.9295 25.9712L14.9298 25.9707L14.9298 25.9706C16.2327 22.8571 17.5348 19.7456 18.9316 16.6757C20.0219 14.2864 22.1947 13.5209 25.2876 14.2091C20.5188 13.9438 19.2699 17.2757 17.9982 20.6687L17.9977 20.6701C17.9355 20.8361 17.8732 21.0023 17.8105 21.1681C18.5272 21.2484 18.8272 20.8057 19.1142 20.3823C19.2142 20.2348 19.3126 20.0895 19.4265 19.9696C21.491 17.7659 23.6329 15.7478 26.7876 15.3303C27.3647 15.2254 27.8611 14.8602 28.133 14.3405C28.2886 14.1162 28.4441 13.8913 28.5998 13.6662L28.5999 13.6661L28.5999 13.666L28.6 13.6659L28.6 13.6658L28.6001 13.6658L28.6001 13.6658C29.2493 12.7269 29.9015 11.7839 30.5687 10.861C36.453 2.7344 44.6105 0.476576 53.8892 1.86065C54.7221 1.98058 54.7684 2.41625 54.8246 2.94506C54.8337 3.02997 54.8429 3.11728 54.8558 3.20607C56.3636 13.4281 53.1469 21.578 44.2935 27.2612C44.1619 27.3458 44.0367 27.4405 43.9116 27.5351C43.728 27.674 43.5448 27.8126 43.3424 27.9184C41.9352 28.6916 41.5331 29.3644 42.4532 31.0113C43.1053 32.2476 43.206 33.7014 42.7306 35.0158C42.2552 36.3302 41.2477 37.3832 39.9557 37.9162C35.529 40.0025 30.994 41.8505 26.3701 43.4526C26.6766 42.9746 26.9778 42.4924 27.2789 42.0104C28.0639 40.7536 28.8484 39.4976 29.7259 38.3183C30.5687 37.1817 30.4682 36.4394 29.4089 35.5811C28.5955 34.8491 27.8212 34.0748 27.0892 33.2614L27.074 33.245C26.8004 32.9483 26.517 32.641 26.0995 32.9599C25.7496 33.227 25.9178 33.5255 26.0745 33.8038C26.1083 33.8638 26.1416 33.9229 26.169 33.9805C27.1061 35.847 27.2347 38.0166 26.5247 39.9808C25.8722 41.9951 24.3297 43.5976 22.3416 44.3263C19.1655 45.5976 16.1 47.1031 13.0354 48.6083C10.7878 49.7121 8.54073 50.8157 6.2507 51.8266C5.81264 52.1687 5.2341 52.2728 4.70425 52.105L12.4365 37.5219L12.8773 40.1431C13.6969 37.8235 14.4005 35.9986 15.8001 34.5914C15.8772 34.5127 15.9558 34.4065 16.0378 34.2956C16.3835 33.8282 16.7912 33.2769 17.4161 34.3517C17.6234 34.7145 17.9637 34.4811 18.2836 34.2617C18.3933 34.1865 18.5005 34.1129 18.5991 34.0656C18.7781 33.9786 18.9559 33.8872 19.134 33.7957C20.0328 33.3335 20.9403 32.867 22.0632 32.9444C22.0095 33.6056 21.6381 34.0463 21.2686 34.4847C21.1066 34.6769 20.9449 34.8687 20.8106 35.0785C21.447 35.4413 21.8058 35.0287 22.1414 34.6429L22.1415 34.6428C22.2135 34.5599 22.2846 34.4783 22.357 34.4058C25.9654 30.7407 29.5738 27.0601 33.1822 23.3641C33.2394 23.3055 33.305 23.245 33.373 23.1824C33.6906 22.8896 34.0588 22.5501 33.8549 22.1424C33.6185 21.6696 33.0504 21.5921 32.5618 21.5254L32.494 21.5161C31.0487 21.2947 29.6162 21.9863 28.8908 23.2559C28.3768 24.0074 27.8641 24.7657 27.35 25.5263L27.3499 25.5263L27.3499 25.5264L27.3499 25.5264L27.3499 25.5264L27.3499 25.5265L27.3498 25.5265L27.3498 25.5265L27.3498 25.5266L27.3498 25.5266L27.3497 25.5267L27.3497 25.5267L27.3497 25.5267L27.3497 25.5268C26.6419 26.5738 25.9313 27.625 25.2102 28.6684C25.1328 28.782 25.0612 28.9017 24.9888 29.0224L24.9888 29.0225L24.9888 29.0225L24.9888 29.0225L24.9887 29.0226L24.9887 29.0226L24.9887 29.0227L24.9887 29.0227L24.9886 29.0228L24.9886 29.0229L24.9886 29.0229L24.9886 29.0229L24.9885 29.0229L24.9885 29.0229C24.7359 29.4448 24.4753 29.88 23.9344 30.1144C23.9105 30.0293 23.8774 29.9469 23.8468 29.8708C23.7885 29.7255 23.7392 29.6028 23.7798 29.5267C24.4892 28.2695 25.1723 26.9941 25.8556 25.7182C28.5092 20.7639 31.1662 15.8031 35.3782 11.8739C35.925 11.3645 36.4991 10.8842 37.0732 10.4038C37.6842 9.89256 38.2951 9.38133 38.8732 8.83516C38.9828 8.73319 39.1523 8.64223 39.328 8.54799C39.8582 8.26348 40.4441 7.94904 39.6077 7.21139C39.41 7.03651 39.2338 6.7934 39.0543 6.54571L39.0543 6.54568C38.5036 5.78584 37.9217 4.9829 36.5921 5.97422C34.5067 7.47332 32.6786 9.30134 31.1796 11.3868C30.2153 12.7683 29.2454 14.1457 28.2755 15.523L28.2754 15.5232L28.2752 15.5234C26.2433 18.4091 24.2117 21.2941 22.2333 24.2147C21.4344 25.3934 20.2966 26.302 18.9703 26.8204C17.9719 27.2572 17.0699 27.8809 16.1631 28.5079C15.2817 29.1173 14.3958 29.7298 13.4124 30.177C13.3512 30.1135 13.2862 30.0538 13.2176 29.9984ZM113.038 26.3184C112.818 26.4751 112.574 26.6489 112.291 26.8436C112.291 26.0387 112.287 25.2675 112.283 24.5204V24.5196C112.275 22.949 112.267 21.4853 112.299 20.0392C112.322 19.0495 111.904 18.6242 110.969 18.6397C110.033 18.6552 109.77 19.1114 109.77 19.9696V38.1018C109.763 39.0838 110.157 39.4936 111.108 39.4704C112.059 39.4472 112.291 39.0065 112.291 38.1482V31.3979C112.291 29.1401 114.023 27.1529 116.01 27.1065C117.851 27.0601 118.871 28.4133 118.871 31.1118C118.871 31.8994 118.876 32.6877 118.88 33.4764V33.4772V33.4781V33.479V33.4798V33.4807V33.4816V33.4825V33.4833V33.4842V33.4851V33.4859V33.4868V33.487V33.4872V33.4874V33.4876V33.4878V33.488V33.4882V33.4884V33.4886V33.4887V33.4889V33.4891C118.888 35.0735 118.897 36.659 118.871 38.241C118.856 39.1921 119.374 39.4859 120.139 39.4627C120.905 39.4395 121.33 39.2462 121.33 38.3647C121.308 37.2709 121.314 36.177 121.321 35.0832C121.332 33.0841 121.343 31.0851 121.183 29.086C120.889 25.4905 117.348 23.7971 114.178 25.5601C113.813 25.7655 113.472 26.0085 113.038 26.3184ZM142.354 39.4859C147.427 40.4215 150.914 37.3673 150.86 32.0165C150.813 27.4622 148.424 24.8564 144.334 24.8564C140.243 24.8564 137.653 27.47 137.483 31.8155C137.398 33.1009 137.552 34.391 137.939 35.6198C138.524 37.6637 140.251 39.1761 142.354 39.4859ZM142.996 37.4446C141.024 36.9806 140.035 35.2254 140.035 32.2253H140.066C140.081 28.5447 141.844 26.6503 144.86 27.0524C145.05 27.0682 145.239 27.0992 145.424 27.1452C147.721 27.7947 148.85 31.0577 147.96 34.4058C147.759 35.4975 147.102 36.4521 146.156 37.0317C145.209 37.6114 144.06 37.7614 142.996 37.4446ZM88.9551 32.813H86.2566C84.3235 32.813 84.1147 33.0991 84.6637 34.893C85.0355 36.3791 86.328 37.4526 87.8572 37.5451C89.2716 37.6984 90.7022 37.5156 92.0326 37.0116C92.1319 36.9758 92.2384 36.9208 92.3476 36.8644C92.7575 36.6527 93.2067 36.4207 93.4631 37.1044C93.7365 37.7206 93.4866 38.4434 92.8909 38.7591C90.8334 40.1215 88.2176 40.3231 85.9756 39.2918C83.7337 38.2606 82.1845 36.1433 81.8801 33.6945C81.657 32.0287 81.851 30.3336 82.4446 28.7613C83.6431 25.7689 86.5272 24.3307 89.8444 25.073C92.6048 25.6838 94.3059 28.22 94.159 31.3361C94.1126 32.4032 93.6718 32.8826 92.6125 32.8207C91.7683 32.7991 90.9127 32.8039 90.0564 32.8088C89.6891 32.8109 89.3218 32.813 88.9551 32.813ZM88.0349 31.0114C88.4796 31.0579 88.9279 31.0579 89.3726 31.0114C89.6312 30.9571 89.9287 31.0057 90.2206 31.0534C90.8015 31.1483 91.3601 31.2395 91.5453 30.5088C91.7488 29.3996 91.2978 28.272 90.3855 27.6092C89.5814 27.005 88.5629 26.7611 87.5724 26.9355C86.5819 27.1098 85.7079 27.6869 85.1585 28.5293L85.1461 28.5492C84.7388 29.2023 84.2571 29.9747 84.5786 30.6789C84.7983 31.1603 85.2979 31.0999 85.7991 31.0393C86.0386 31.0104 86.2785 30.9814 86.4884 31.0114C87.0032 31.0501 87.5201 31.0501 88.0349 31.0114ZM163.835 27.0834C165.381 25.6993 166.827 24.7096 168.783 24.9106C171.1 25.0067 172.92 26.9294 172.889 29.2484C173.021 31.2266 173.013 33.2114 173.005 35.1941V35.1944V35.1947V35.195V35.1953V35.1956V35.1959V35.1962V35.1965V35.1968V35.1971V35.1975V35.1979V35.1982V35.1986V35.1989V35.1993V35.1996V35.2C173.001 36.2379 172.997 37.2752 173.013 38.3106C173.013 39.1612 172.618 39.4163 171.838 39.4318C171.057 39.4473 170.523 39.1998 170.538 38.241C170.577 35.8595 170.585 33.478 170.538 31.1042C170.484 28.3515 169.526 27.0447 167.693 27.0756C165.698 27.0756 163.935 29.1015 163.935 31.3516V38.1019C163.935 38.9369 163.742 39.4241 162.768 39.4395C161.793 39.455 161.422 39.0607 161.43 38.0709V27.0756C161.43 26.9289 161.408 26.7687 161.387 26.6049C161.302 25.9743 161.211 25.2896 162.304 25.1116C163.6 24.9117 163.681 25.691 163.77 26.5609C163.788 26.7338 163.806 26.9103 163.835 27.0834ZM63.8487 29.1942V33.0604C63.8487 33.4592 63.8506 33.858 63.8525 34.2572V34.2582V34.2593V34.2604V34.2615V34.2626V34.2637V34.2648V34.2659C63.8583 35.4736 63.8641 36.6845 63.8177 37.9085C63.7868 38.8596 63.9956 39.5014 65.1554 39.455C66.3153 39.4086 66.3153 38.7359 66.3153 37.9085C66.2963 36.7489 66.3057 35.5905 66.315 34.4339V34.4339V34.4338V34.4337V34.4336V34.4335V34.4335V34.4334V34.4333C66.3286 32.7522 66.3421 31.0749 66.2689 29.403C66.1993 27.7483 66.524 26.8282 68.4107 27.1607C68.8824 27.2457 69.501 27.3153 69.7097 26.6503C69.9054 26.2259 69.8193 25.7248 69.4932 25.39C69.1378 25.0947 68.7209 25.1266 68.3032 25.1586C68.0757 25.176 67.8479 25.1935 67.6297 25.158C67.501 25.1359 67.3628 25.1446 67.2251 25.1533C66.8337 25.1781 66.4465 25.2027 66.2921 24.5162C65.6889 21.895 66.9338 20.3253 69.5087 20.7506C70.6136 20.9348 70.5611 20.3651 70.4998 19.699L70.4984 19.6835C70.4366 18.8794 69.8025 18.7016 69.1375 18.5701C65.9364 17.9361 64.0497 19.5598 63.8564 23.2095C63.8489 23.3441 63.8455 23.4793 63.8421 23.6125C63.8179 24.5731 63.7964 25.4285 62.2481 25.2044C61.5599 25.0961 61.4749 25.7843 61.4749 26.2714C61.4749 26.7586 61.6759 27.238 62.2481 27.1607C63.8652 26.9441 63.8579 27.9071 63.8498 28.9673C63.8492 29.0426 63.8487 29.1184 63.8487 29.1942ZM180.791 39.6715C179.572 39.6478 178.369 39.3851 177.25 38.8982C176.882 38.7469 176.594 38.4491 176.454 38.0764C176.315 37.7038 176.337 37.2899 176.515 36.9342C176.842 36.144 177.266 36.4691 177.662 36.7726C177.8 36.8789 177.936 36.9826 178.062 37.0347C179.224 37.6087 180.545 37.7748 181.812 37.5064C182.666 37.3636 183.325 36.679 183.436 35.8208C183.575 35.0254 183.158 34.2367 182.423 33.9032C181.83 33.5948 181.217 33.3273 180.603 33.0593C180.216 32.8905 179.829 32.7216 179.446 32.5423C177.366 31.5526 176.57 30.269 176.809 28.3282C177.041 26.5189 178.356 25.3436 180.498 24.9569C181.839 24.7167 183.223 24.9174 184.441 25.5291C184.775 25.6723 185.036 25.9458 185.163 26.2861C185.29 26.6264 185.272 27.0038 185.114 27.3307C184.856 27.9797 184.534 27.7642 184.21 27.5479C184.047 27.4394 183.885 27.3307 183.73 27.3307C183.589 27.3307 183.455 27.2629 183.321 27.1946C183.219 27.143 183.117 27.0911 183.011 27.0678C181.596 26.7586 179.98 26.4106 179.315 28.0808C178.633 29.7956 179.995 30.3786 181.239 30.9109C181.336 30.9522 181.432 30.9933 181.526 31.0345C181.72 31.1186 181.915 31.1993 182.111 31.2802C182.509 31.445 182.91 31.6107 183.304 31.8077C185.06 32.581 186.073 33.8491 185.848 35.8904C185.656 37.7519 184.209 39.2371 182.353 39.4781C182.004 39.5341 181.645 39.5732 181.333 39.6073L181.333 39.6073C181.127 39.6297 180.942 39.65 180.791 39.6715ZM97.515 38.8982C98.6594 39.4144 99.9015 39.6781 101.157 39.6714C101.504 39.62 101.921 39.5846 102.358 39.5475L102.358 39.5474L102.513 39.5343L102.626 39.5245C104.698 39.107 105.982 37.8389 106.206 36.0141C106.446 34.0269 105.68 32.782 103.585 31.8077C103.23 31.6412 102.867 31.496 102.504 31.3511L102.504 31.351L102.504 31.3509C102.209 31.2334 101.916 31.1162 101.629 30.9881C100.407 30.4623 99.1078 29.7741 99.6336 28.2277C100.159 26.6812 101.59 26.8049 102.897 27.0214C103.061 27.0483 103.2 27.1073 103.343 27.1686C103.53 27.2483 103.727 27.3321 104.002 27.3539C104.168 27.3671 104.337 27.4901 104.505 27.6121C104.831 27.8492 105.152 28.0828 105.433 27.5008C105.63 27.1549 105.663 26.7395 105.524 26.3665C105.386 25.9935 105.089 25.701 104.714 25.5678C103.604 25.0407 102.368 24.8422 101.149 24.9956C98.8836 25.2894 97.4763 26.4725 97.1825 28.3127C96.8732 30.2845 97.716 31.6453 99.8888 32.666C100.24 32.8304 100.595 32.9861 100.951 33.1417L100.951 33.1417L100.951 33.1418L100.951 33.1418L100.951 33.1418L100.951 33.1419L100.951 33.1419C101.598 33.4252 102.244 33.708 102.858 34.0423C103.586 34.3941 103.972 35.2042 103.786 35.9909C103.636 36.7743 103.023 37.387 102.239 37.5373C100.913 37.8485 99.5191 37.6729 98.3114 37.0425C98.2037 36.9944 98.0868 36.9075 97.9659 36.8176C97.6008 36.5461 97.1984 36.2469 96.8964 36.9033C96.6982 37.2467 96.6522 37.6572 96.7696 38.036C96.8871 38.4147 97.1572 38.7272 97.515 38.8982ZM127.439 32.7666C127.446 32.8424 127.453 32.9193 127.46 32.9972C127.598 34.5096 127.77 36.3902 129.851 37.2359C131.398 37.8545 132.735 37.3132 134.011 36.4627C134.093 36.4066 134.174 36.3325 134.255 36.2573C134.512 36.021 134.78 35.7735 135.156 36.0374C135.65 36.3853 135.503 36.9885 135.38 37.4679C135.265 37.8315 135.051 38.1557 134.761 38.4035C132.008 40.901 126.874 39.7102 125.482 36.2307C124.597 33.9258 124.551 31.3831 125.351 29.0474C125.871 27.3599 127.115 25.991 128.744 25.3113C130.374 24.6316 132.222 24.7114 133.787 25.5292C134.498 25.8694 135.171 26.2561 135.333 27.1298C135.466 27.5698 135.36 28.0469 135.055 28.3902C134.809 28.619 134.602 28.4738 134.402 28.333C134.339 28.2883 134.276 28.244 134.212 28.2123C129.797 25.9236 127.392 27.4159 127.439 32.7666ZM79.0269 24.9647C77.233 24.6786 76.166 25.7844 74.9133 27.1452C74.8686 26.9425 74.8397 26.7388 74.8119 26.5431C74.6955 25.7237 74.5988 25.0427 73.4442 25.1426C72.2973 25.2418 72.3831 25.9325 72.4622 26.5691L72.4622 26.5692C72.4817 26.7266 72.5009 26.8806 72.5009 27.0215V38.0245C72.4931 38.9292 72.6168 39.4859 73.738 39.4782C74.8592 39.4705 74.952 38.8828 74.952 38.0014C74.952 37.2528 74.9468 36.4965 74.9417 35.7399V35.739V35.7381V35.7372V35.7364C74.9314 34.22 74.9211 32.7024 74.952 31.2433C74.9984 29.0551 76.9314 27.122 78.8181 27.3308C78.9529 27.3458 79.0954 27.3844 79.2371 27.4227C79.7542 27.5626 80.2592 27.6992 80.3259 26.6736C80.3878 25.6761 80.0939 25.1348 79.0269 24.9647ZM154.471 32.2872V26.5189C154.471 25.5833 154.672 25.0807 155.739 25.1039C156.674 25.1039 156.945 25.5137 156.937 26.3875V38.1251C156.937 38.9756 156.728 39.4241 155.77 39.4396C154.811 39.455 154.44 39.022 154.463 38.0555C154.495 36.733 154.487 35.4142 154.478 34.094V34.0931V34.0923V34.0914L154.478 34.085C154.474 33.4862 154.471 32.8871 154.471 32.2872ZM155.739 22.4982C156.767 22.4518 157.27 22.0419 157.2 20.9053C157.285 19.8846 156.628 19.5522 155.7 19.5135C155.276 19.4461 154.846 19.5888 154.546 19.8963C154.246 20.2037 154.114 20.6377 154.193 21.0599C154.193 22.0883 154.711 22.5445 155.739 22.4982ZM42.1132 6.67019C45.0809 5.02173 48.1854 3.6325 51.392 2.51796C47.726 1.88414 43.9543 2.35796 40.5591 3.87884C40.4568 3.92286 40.3236 3.96369 40.1811 4.00737C39.6228 4.17849 38.9218 4.39333 39.3837 5.01548C39.4939 5.16384 39.603 5.34792 39.7183 5.54265C40.2102 6.37293 40.8167 7.39674 42.1132 6.67019Z" fill="#F7CD0A"/>
</g>
</svg>
