<svg width="150" height="30" viewBox="0 0 150 30" fill="none" xmlns="http://www.w3.org/2000/svg">
<g opacity="0.8">
<path d="M150 23.1069H141.037H138.49C137.987 23.1069 137.984 23.1069 137.984 22.6177V7.65055C137.984 7.19194 137.984 7.18018 138.431 7.18018H150V10.3411C147.286 10.3411 144.572 10.3411 141.858 10.3411C141.597 10.3411 141.493 10.4187 141.498 10.6915C141.51 11.4629 141.498 12.232 141.498 13.001C141.498 13.5067 141.498 13.5067 141.99 13.5067H148.61C148.991 13.5067 149.003 13.5184 149.003 13.9018V16.2136C149.003 16.6676 149.003 16.6676 148.551 16.6676C146.324 16.6676 144.099 16.6676 141.874 16.6676C141.604 16.6676 141.489 16.7381 141.493 17.0297C141.51 17.8882 141.505 18.7442 141.493 19.6027C141.493 19.8379 141.559 19.9555 141.825 19.9555C144.548 19.9555 147.272 19.9555 149.995 19.9555L150 23.1069Z" fill="#95C6B7"/>
<path fill-rule="evenodd" clip-rule="evenodd" d="M45.8693 14.786C45.9466 14.8246 46.0223 14.8619 46.0967 14.8985C46.294 14.9955 46.4821 15.088 46.6666 15.1905C47.4121 15.6044 48.0636 16.1312 48.4164 16.9332C48.962 18.1821 48.9714 20.2258 47.7296 21.5099C47.0146 22.2139 46.1055 22.6881 45.1191 22.8717C44.3753 23.0345 43.6156 23.1134 42.8542 23.1068H35.6176C35.213 23.1068 35.2107 23.1068 35.2107 22.7V7.57755C35.2107 7.18949 35.2107 7.18244 35.6011 7.18244H42.9248C43.9358 7.17224 44.9334 7.41477 45.827 7.88799C46.8327 8.43104 47.5515 9.38569 47.7955 10.5023C48.0395 11.6189 47.7844 12.7864 47.097 13.6994C46.9275 13.914 46.7368 14.111 46.5278 14.2874C46.3815 14.4214 46.2206 14.5356 46.0471 14.6587L46.0471 14.6587C45.9892 14.6998 45.9299 14.7418 45.8693 14.786ZM41.1233 20.0071H43.1129C43.5442 20.0038 43.9701 19.9117 44.3641 19.7366C44.8798 19.5373 45.2249 19.0475 45.239 18.4948C45.2861 17.8199 45.1026 17.2601 44.477 16.9144C44.0185 16.675 43.5079 16.5529 42.9907 16.5593H39.0372C38.7785 16.5593 38.6703 16.6322 38.675 16.9073V19.6543C38.675 19.9436 38.7832 20.0212 39.0536 20.0165C39.5667 20.0024 40.0838 20.0041 40.6028 20.0059H40.603C40.7762 20.0065 40.9497 20.0071 41.1233 20.0071ZM40.9747 13.6249C40.8161 13.6233 40.6583 13.6217 40.5024 13.6217C40.3761 13.6217 40.2496 13.6213 40.1231 13.6209C39.743 13.6195 39.3619 13.6182 38.9807 13.6288C38.7573 13.6311 38.6679 13.5606 38.6679 13.3254V10.6067C38.6656 10.3809 38.7409 10.2986 38.976 10.2986C39.474 10.3036 39.972 10.3022 40.4697 10.3007C41.1333 10.2988 41.7966 10.2969 42.4591 10.3103C43.0229 10.289 43.5715 10.4959 43.9808 10.8842C44.2982 11.23 44.4411 11.7014 44.3693 12.1653C44.2975 12.6292 44.0187 13.0353 43.6115 13.269C43.0866 13.5097 42.5145 13.6302 41.937 13.6217C41.6179 13.6312 41.2945 13.628 40.9747 13.6249Z" fill="#95C6B7"/>
<path d="M72.584 16.865C72.6476 16.7488 72.67 16.6145 72.6475 16.484V7.65042C72.6475 7.18005 72.6475 7.18005 73.1178 7.18005C74.0068 7.18005 74.8935 7.18005 75.7825 7.18005C76.0388 7.18005 76.1212 7.26707 76.1212 7.52107C76.1212 12.6011 76.1212 17.6803 76.1212 22.7587C76.1212 23.0245 76.0388 23.1186 75.7684 23.1139C74.9782 23.1021 74.1879 23.1139 73.3954 23.1139C73.2079 23.1244 73.029 23.035 72.925 22.8787C70.9275 20.2571 68.9292 17.6356 66.9301 15.0141C66.5083 14.4637 66.0866 13.915 65.6648 13.3678C65.6154 13.3043 65.5848 13.2102 65.479 13.1914C65.4038 13.2972 65.4414 13.4266 65.4414 13.5277C65.4414 16.571 65.4414 19.6135 65.4414 22.6553C65.4414 23.1139 65.4414 23.1139 64.9945 23.1139C64.0961 23.1139 63.1977 23.1139 62.2993 23.1139C62.0288 23.1139 61.9207 23.0433 61.9207 22.754C61.9207 17.6834 61.9207 12.6136 61.9207 7.54459C61.9207 7.25766 62.0218 7.17535 62.297 7.18005C63.1554 7.19181 64.0162 7.19181 64.884 7.18005C65.0888 7.16891 65.284 7.26743 65.3967 7.43876C67.5385 10.261 69.6841 13.0777 71.8337 15.889C72.076 16.2135 72.3253 16.531 72.584 16.865Z" fill="#95C6B7"/>
<path d="M111.194 16.8603C111.257 16.7464 111.278 16.614 111.253 16.4863C111.253 13.5324 111.253 10.5777 111.253 7.62219C111.253 7.18945 111.253 7.18945 111.695 7.18945C112.594 7.18945 113.492 7.18945 114.391 7.18945C114.642 7.18945 114.732 7.27177 114.732 7.52812C114.732 12.6175 114.732 17.7069 114.732 22.7964C114.732 23.0315 114.654 23.1256 114.412 23.1233C113.618 23.1139 112.827 23.1139 112.039 23.1233C111.844 23.1366 111.657 23.0474 111.545 22.8881C110.051 20.9219 108.554 18.9621 107.055 17.0084C106.127 15.7918 105.197 14.5751 104.266 13.3584C104.221 13.3019 104.2 13.2126 104.096 13.2102C104.021 13.3137 104.056 13.4336 104.056 13.5465C104.056 16.5961 104.056 19.6472 104.056 22.6999C104.056 23.135 104.056 23.135 103.612 23.135C102.704 23.135 101.796 23.135 100.889 23.135C100.616 23.135 100.536 23.041 100.536 22.7799C100.536 17.7093 100.536 12.6387 100.536 7.5681C100.536 7.28823 100.627 7.19651 100.907 7.20121C101.766 7.21532 102.627 7.20121 103.494 7.20121C103.7 7.18821 103.896 7.28601 104.009 7.45756C106.288 10.4538 108.57 13.4477 110.858 16.4393C110.959 16.5592 111.079 16.7051 111.194 16.8603Z" fill="#95C6B7"/>
<path fill-rule="evenodd" clip-rule="evenodd" d="M93.4402 23.1142H94.9336H96.4223C96.7963 23.1142 96.8057 23.1048 96.6575 22.7568C95.5506 20.1556 94.4421 17.556 93.332 14.958C92.2815 12.4917 91.2294 10.027 90.1758 7.56378C90.0502 7.271 90.0105 7.14908 89.9278 7.10017C89.8463 7.05203 89.7231 7.07459 89.435 7.07459C89.1709 7.07459 88.9078 7.07643 88.6454 7.07827C88.1228 7.08192 87.603 7.08555 87.0831 7.07459C86.8463 7.03739 86.6193 7.18429 86.5563 7.41561C86.0688 8.58562 85.5701 9.75189 85.0711 10.919C84.884 11.3565 84.6968 11.7942 84.5102 12.2322C83.0066 15.76 81.499 19.2878 79.9876 22.8156C79.8841 23.0554 79.9217 23.1166 80.1804 23.1166C80.5099 23.1166 80.839 23.115 81.168 23.1135C81.8255 23.1103 82.4823 23.1072 83.1391 23.1166C83.3557 23.1384 83.5558 22.9984 83.6094 22.7873C83.8082 22.2843 84.0132 21.7831 84.218 21.2821C84.4153 20.7994 84.6126 20.317 84.8042 19.8334C84.8553 19.6412 85.0392 19.5153 85.2369 19.5371H91.3282C91.5258 19.5148 91.7102 19.6395 91.7633 19.8311C91.9713 20.3591 92.1865 20.8845 92.4017 21.4097C92.5928 21.8763 92.7839 22.3428 92.9698 22.8109C93.0221 23.0202 93.2279 23.1529 93.4402 23.1142ZM90.0888 16.4325H88.2732C88.0978 16.4325 87.9224 16.4319 87.7467 16.4313C87.3358 16.4298 86.9231 16.4283 86.5046 16.4349C86.2812 16.4396 86.2012 16.3949 86.3023 16.1597C86.7564 15.069 87.2054 13.9758 87.6541 12.8837C87.8236 12.4711 87.993 12.0586 88.1626 11.6465C88.167 11.636 88.1713 11.6247 88.1757 11.613C88.2 11.5484 88.2283 11.4732 88.292 11.4772C88.3529 11.481 88.3722 11.5418 88.3898 11.5973C88.394 11.6103 88.398 11.6231 88.4025 11.6348C89.0297 13.1509 89.6568 14.6647 90.284 16.1762C90.371 16.3902 90.277 16.4325 90.0888 16.4325Z" fill="#95C6B7"/>
<path d="M122.867 15.1485C122.883 16.7595 123.422 18.1424 124.687 19.1913C126.223 20.4637 128.598 20.3672 130.012 19.5112C130.52 19.22 130.994 18.8712 131.423 18.4717C131.587 18.3117 131.703 18.3188 131.86 18.4717C132.467 19.0988 133.081 19.7134 133.702 20.3155C133.876 20.4848 133.871 20.5907 133.702 20.7647C132.266 22.3141 130.286 23.2479 128.177 23.3706C125.87 23.5211 123.8 22.9755 122.018 21.4891C120.475 20.2215 119.484 18.4059 119.252 16.4232C118.925 13.982 119.473 11.7501 121.063 9.838C122.299 8.3115 124.067 7.30849 126.011 7.02988C127.803 6.73071 129.644 6.94853 131.317 7.65783C132.156 8.03252 132.922 8.55331 133.579 9.19594C133.72 9.32765 133.746 9.43113 133.612 9.58635C132.961 10.3248 132.316 11.068 131.672 11.8136C131.507 12.0064 131.392 11.8535 131.282 11.7595C130.794 11.3386 130.257 10.9784 129.682 10.687C128.346 9.98532 126.753 9.977 125.41 10.6647C124.067 11.3524 123.142 12.6502 122.93 14.1442C122.88 14.4765 122.859 14.8125 122.867 15.1485Z" fill="#95C6B7"/>
<path d="M24.0981 9.17931C24.0603 9.23107 24.0195 9.28054 23.9758 9.32748C22.9622 10.3411 21.9438 11.3501 20.9349 12.3708C20.7491 12.5589 20.6456 12.4625 20.5092 12.3261C18.7359 10.5528 16.9611 8.78106 15.1846 7.0109C14.9094 6.73573 14.9094 6.73573 14.6272 7.0109C12.8665 8.77322 11.1104 10.534 9.35907 12.2932C9.15681 12.4978 9.03922 12.5283 8.82285 12.2932C7.86329 11.3226 6.89198 10.3631 5.9089 9.41449C5.69723 9.21224 5.69488 9.08523 5.9089 8.87592C8.82834 5.97373 11.7423 3.06449 14.6507 0.148188C14.853 -0.0540717 14.9659 -0.0446642 15.1634 0.148188C18.0797 3.06919 20.9992 5.98627 23.9218 8.89944C23.9829 8.98646 24.0817 9.04525 24.0981 9.17931Z" fill="#95C6B7"/>
<path d="M24.1076 20.6942C24.0899 20.7773 24.0422 20.851 23.9736 20.9012C21.697 23.1754 19.4275 25.4567 17.1367 27.7216C16.4641 28.3871 15.7891 29.0504 15.1189 29.7183C14.9519 29.8853 14.8437 29.897 14.6696 29.7183C11.7392 26.7863 8.80569 23.8583 5.86901 20.9341C5.67381 20.7436 5.71144 20.6354 5.88547 20.4637C6.87325 19.4932 7.85397 18.5148 8.82764 17.5286C9.00874 17.3452 9.10986 17.3475 9.29801 17.5286C11.0713 19.3137 12.8587 21.0846 14.632 22.8697C14.8413 23.0814 14.9542 23.079 15.1635 22.8697C16.9298 21.0893 18.7101 19.3254 20.4764 17.5474C20.681 17.3428 20.7986 17.3123 21.0102 17.5474C21.9792 18.5352 22.967 19.5065 23.9454 20.4873C24.0089 20.5578 24.0912 20.6096 24.1076 20.6942Z" fill="#95C6B7"/>
<path d="M53.1365 15.1481V7.60573C53.1365 7.19651 53.1365 7.18945 53.5387 7.18945C54.4559 7.18945 55.3755 7.18945 56.2927 7.18945C56.5655 7.18945 56.6713 7.26471 56.669 7.55164C56.669 12.6222 56.669 17.6928 56.669 22.7634C56.669 23.0527 56.5608 23.128 56.288 23.1233C55.3614 23.1115 54.4324 23.1092 53.5057 23.1233C53.2 23.1233 53.1271 23.0151 53.1294 22.7305C53.1389 20.203 53.1412 17.6756 53.1365 15.1481Z" fill="#95C6B7"/>
<path d="M18.3102 14.8966C18.3025 14.9822 18.2568 15.0599 18.1856 15.1082C17.1508 16.1415 16.1167 17.1755 15.0835 18.2103C14.9377 18.3562 14.8483 18.3515 14.6978 18.2103C13.6677 17.174 12.6329 16.1399 11.5933 15.1082C11.4687 14.9859 11.4616 14.8989 11.5933 14.7719C12.647 13.7308 13.6967 12.6843 14.7425 11.6322C14.8648 11.5076 14.9518 11.4981 15.0788 11.6322C16.1183 12.6764 17.1602 13.7183 18.2044 14.7578C18.2422 14.8021 18.2775 14.8484 18.3102 14.8966Z" fill="#95C6B7"/>
<path d="M29.8908 14.9132C29.8894 14.9898 29.8508 15.0609 29.7873 15.1037C28.7666 16.1244 27.7475 17.1436 26.7299 18.1611C26.6029 18.2905 26.4947 18.3093 26.3677 18.1611C25.3502 17.1389 24.331 16.1197 23.3103 15.1037C23.181 14.9744 23.1645 14.8685 23.3103 14.7415C24.3357 13.7255 25.3549 12.7064 26.3677 11.6841C26.4924 11.5595 26.577 11.5548 26.704 11.6841C27.7294 12.7142 28.7572 13.742 29.7873 14.7674C29.8202 14.8144 29.8579 14.8709 29.8908 14.9132Z" fill="#95C6B7"/>
<path d="M0.00107285 14.9413C-0.002855 14.8186 0.0522333 14.7014 0.14924 14.6261C1.12761 13.6478 2.11069 12.6741 3.08435 11.691C3.22311 11.5523 3.31954 11.564 3.44419 11.691C4.46019 12.7149 5.47933 13.734 6.5016 14.7484C6.64977 14.8942 6.63801 14.9836 6.5016 15.1271C5.48717 16.1274 4.47979 17.1324 3.47947 18.1422C3.3266 18.2974 3.22547 18.2903 3.07495 18.1422C2.10598 17.1661 1.13231 16.1995 0.158647 15.2282C0.0763322 15.1482 -0.0106864 15.0636 0.00107285 14.9413Z" fill="#95C6B7"/>
</g>
</svg>
