<svg width="141" height="46" viewBox="0 0 141 46" fill="none" xmlns="http://www.w3.org/2000/svg">
<g opacity="0.8">
<path fill-rule="evenodd" clip-rule="evenodd" d="M51.22 12.8633V34.3792H63.3772C65.6993 34.3792 70.2605 31.8938 70.2605 27.3676C70.2605 22.8414 65.6993 21.197 65.6993 21.197C65.6993 21.197 66.086 12.8633 59.6086 12.8633H51.22ZM54.9333 16.1065V24.2236C54.9333 24.2236 55.6191 24.4426 56.0105 24.2236C56.4019 24.0047 60.0716 21.7795 60.749 21.2904C61.4263 20.8013 62.1228 19.9752 62.1228 19.0145C62.1228 18.0537 61.5781 16.1065 59.7479 16.1065H54.9333ZM54.9553 30.8195C54.9553 30.8195 54.5023 30.6375 54.8414 29.69C55.1804 28.7425 55.9112 28.0573 56.9312 27.2761C57.9512 26.4948 61.2605 24.1922 61.8088 23.9961C62.3571 23.8001 62.633 23.7324 63.2972 23.7324C63.9614 23.7324 66.4682 24.5402 66.4682 26.8297C66.4682 29.1192 63.9 30.8195 63.11 30.8195H54.9553Z" fill="#95C6B7"/>
<path d="M84.5742 34.3231V30.8449H76.0138C75.6156 30.8449 75.2797 30.7 75.006 30.4101C74.7322 30.1203 74.5954 29.7642 74.5954 29.3418C74.5954 28.9195 74.7322 28.5634 75.006 28.2735C75.2797 27.9837 75.6073 27.8388 75.9889 27.8388H84.5742V24.3606H76.0138C75.5825 24.3606 75.2382 24.2198 74.9811 23.9382C74.7239 23.6566 74.5954 23.3171 74.5954 22.9196C74.5954 22.5221 74.7322 22.1784 75.006 21.8886C75.2797 21.5987 75.6073 21.4538 75.9889 21.4538H84.5742V17.9756H76.412C75.0848 17.9756 74.0811 18.1661 73.4009 18.547C72.7207 18.9279 72.1691 19.4745 71.746 20.1867C71.323 20.8989 71.1115 21.6691 71.1115 22.4972C71.1115 23.3254 71.2193 24.0252 71.435 24.5966C71.6506 25.168 72.1234 25.669 72.8534 26.0997C72.1898 26.5137 71.7336 27.0065 71.4847 27.5779C71.2359 28.1493 71.1115 28.7373 71.1115 29.3418C71.1115 29.9464 71.2027 30.5468 71.3852 31.1431C71.5677 31.7393 71.8704 32.2735 72.2935 32.7455C72.7165 33.2175 73.264 33.5985 73.9359 33.8883C74.6078 34.1782 75.4331 34.3231 76.412 34.3231H84.5742Z" fill="#95C6B7"/>
<path d="M99.275 34.3231V30.8449H90.7145C90.3164 30.8449 89.9804 30.7 89.7067 30.4101C89.433 30.1203 89.2961 29.7642 89.2961 29.3418C89.2961 28.9195 89.433 28.5634 89.7067 28.2735C89.9804 27.9837 90.3081 27.8388 90.6897 27.8388H99.275V24.3606H90.7145C90.2832 24.3606 89.939 24.2198 89.6818 23.9382C89.4247 23.6566 89.2961 23.3171 89.2961 22.9196C89.2961 22.5221 89.433 22.1784 89.7067 21.8886C89.9804 21.5987 90.3081 21.4538 90.6897 21.4538H99.275V17.9756H91.1127C89.7855 17.9756 88.7818 18.1661 88.1016 18.547C87.4214 18.9279 86.8698 19.4745 86.4468 20.1867C86.0237 20.8989 85.8122 21.6691 85.8122 22.4972C85.8122 23.3254 85.92 24.0252 86.1357 24.5966C86.3514 25.168 86.8242 25.669 87.5541 26.0997C86.8905 26.5137 86.4343 27.0065 86.1855 27.5779C85.9366 28.1493 85.8122 28.7373 85.8122 29.3418C85.8122 29.9464 85.9034 30.5468 86.0859 31.1431C86.2684 31.7393 86.5712 32.2735 86.9942 32.7455C87.4173 33.2175 87.9647 33.5985 88.6366 33.8883C89.3085 34.1782 90.1339 34.3231 91.1127 34.3231H99.275Z" fill="#95C6B7"/>
<path d="M122.646 34.3792C123.027 34.3792 123.44 34.3633 123.884 34.3315C124.329 34.2997 124.927 34.2202 125.678 34.0929C125.975 32.895 126.234 31.9938 126.456 31.3896C125.821 31.6016 125.316 31.7341 124.94 31.7871C124.564 31.8401 124.207 31.8666 123.869 31.8666C123.339 31.8666 122.879 31.803 122.487 31.6758C122.096 31.5486 121.77 31.3233 121.511 31C121.252 30.6766 121.122 30.2923 121.122 29.8471C121.122 29.5714 121.172 29.3143 121.273 29.0758C121.373 28.8373 121.535 28.6093 121.757 28.392C121.979 28.1747 122.252 27.9785 122.575 27.8036C122.897 27.6287 123.26 27.4723 123.662 27.3345C124.064 27.1967 124.599 27.035 125.266 26.8495C125.932 26.664 126.398 26.5262 126.663 26.436C126.927 26.3459 127.165 26.2479 127.377 26.1418C127.589 26.0358 127.896 25.8503 128.298 25.5853L128.092 29.5449C128.007 31.2305 127.896 32.7147 127.758 33.9975C128.626 33.9763 129.383 33.9657 130.029 33.9657C130.706 33.9657 131.447 33.9763 132.251 33.9975C132.283 31.3578 132.384 28.8002 132.553 26.3247C132.722 23.8493 132.807 22.3094 132.807 21.7051C132.807 20.592 132.532 19.7386 131.981 19.1449C131.431 18.5512 130.669 18.1192 129.695 17.8489C128.721 17.5785 127.652 17.4434 126.488 17.4434C125.461 17.4434 124.398 17.5123 123.297 17.6501C122.196 17.7879 120.926 18.0264 119.487 18.3657C119.391 18.9912 119.325 19.4576 119.288 19.7651C119.251 20.0725 119.159 20.6079 119.01 21.3712C121.339 20.4489 123.466 19.9877 125.393 19.9877C125.911 19.9877 126.385 20.0434 126.814 20.1547C127.242 20.266 127.592 20.4648 127.861 20.751C128.131 21.0373 128.266 21.3871 128.266 21.8006C128.266 22.0126 128.221 22.2193 128.131 22.4207C128.041 22.6222 127.901 22.8156 127.711 23.0012C127.52 23.1867 127.295 23.3378 127.036 23.4544C126.777 23.571 126.43 23.6903 125.996 23.8122C125.562 23.9341 125.144 24.0375 124.742 24.1223C123.228 24.4509 122.011 24.7769 121.09 25.1003C120.169 25.4236 119.465 25.7575 118.979 26.1021C118.492 26.4466 118.095 26.8044 117.788 27.1755C117.481 27.5465 117.248 27.9547 117.089 28.4C116.931 28.8452 116.851 29.2958 116.851 29.7516C116.851 30.5468 117.055 31.3366 117.462 32.1211C117.87 32.9056 118.502 33.4781 119.36 33.8385C120.217 34.1989 121.312 34.3792 122.646 34.3792Z" fill="#95C6B7"/>
<path d="M139.366 33.953L139.422 31.0067L139.915 18.1124L140.253 12.3306C139.455 12.3517 138.779 12.3622 138.225 12.3622C137.812 12.3622 137.117 12.3517 136.141 12.3306C136.094 15.6993 135.969 19.6991 135.767 24.3298C135.566 28.9606 135.394 32.1683 135.253 33.953C136.474 33.9325 137.186 33.922 137.391 33.9214L137.468 33.9214C137.992 33.9221 138.624 33.9327 139.366 33.953Z" fill="#95C6B7"/>
<path fill-rule="evenodd" clip-rule="evenodd" d="M101.534 34.3789V27.6713C101.534 25.7571 102.086 24.2957 103.175 23.3278C104.288 22.3391 105.847 21.8378 107.808 21.8378H112.132C112.842 21.8378 113.45 21.5813 113.939 21.0755C114.423 20.5755 114.669 19.9653 114.669 19.2618C114.669 18.5622 114.425 17.9489 113.946 17.4386C113.456 16.9171 112.856 16.6528 112.164 16.6528H101.534V13.3955H111.608C112.74 13.3955 113.721 13.5565 114.522 13.8741C115.313 14.1872 115.966 14.609 116.464 15.1278C116.959 15.6432 117.326 16.2591 117.555 16.9581C117.794 17.686 117.915 18.4445 117.915 19.2125C117.915 19.9804 117.799 20.7224 117.572 21.4176C117.351 22.0904 116.991 22.7051 116.5 23.245C116.011 23.7844 115.361 24.232 114.568 24.5755C113.772 24.9203 112.776 25.0951 111.608 25.0951H107.186C106.477 25.0951 105.886 25.3754 105.426 25.9282C104.997 26.4443 104.78 27.0529 104.78 27.737V34.3789H101.534Z" fill="#95C6B7"/>
<path fill-rule="evenodd" clip-rule="evenodd" d="M24.8458 32.5567L19.2191 29.3076C18.9543 29.1546 18.628 29.1546 18.3632 29.3076L12.7714 32.5366C12.2338 32.8471 12.052 33.54 12.4135 34.0449C12.7253 34.4803 13.31 34.6007 13.7646 34.3382L18.3632 31.6824C18.628 31.5295 18.9543 31.5295 19.2191 31.6824L23.8177 34.3382C24.2444 34.5847 24.7862 34.4936 25.1088 34.1211C25.5319 33.6328 25.4052 32.8798 24.8458 32.5567Z" fill="#95C6B7"/>
<mask id="mask0_3665_34615" style="mask-type:alpha" maskUnits="userSpaceOnUse" x="0" y="9" width="15" height="21">
<path fill-rule="evenodd" clip-rule="evenodd" d="M0 9.81543H14.7871V29.431H0V9.81543Z" fill="white"/>
</mask>
<g mask="url(#mask0_3665_34615)">
<path fill-rule="evenodd" clip-rule="evenodd" d="M14.7871 12.7701L9.9096 9.95317C9.59157 9.76952 9.19965 9.76952 8.88166 9.95317L0.51395 14.7859C0.195886 14.9696 0 15.3091 0 15.6764V25.3418C0 25.7092 0.195886 26.0486 0.51395 26.2323L5.8113 29.2918C6.49651 29.6875 7.35311 29.1928 7.35311 28.4013V28.4013C7.35311 28.0339 7.15714 27.6944 6.83916 27.5108L2.56971 25.045C2.25172 24.8613 2.05576 24.5219 2.05576 24.1545V16.8636C2.05576 16.4963 2.25172 16.1568 2.56971 15.9731L8.88174 12.3279C9.19972 12.1442 9.5915 12.1442 9.90948 12.3279L14.7871 15.1448V12.7701Z" fill="#95C6B7"/>
</g>
<path fill-rule="evenodd" clip-rule="evenodd" d="M27.6663 28.7021L21.3611 25.0605C21.043 24.8769 20.8471 24.5374 20.8471 24.1701V20.121C20.8471 18.9883 19.9314 18.0688 18.799 18.0645C17.6605 18.0601 16.7353 18.9821 16.7353 20.121V24.1544C16.7353 24.5218 16.5394 24.8612 16.2214 25.0449L9.91613 28.6865C9.59815 28.8701 9.40222 29.2096 9.40222 29.5769V29.577C9.40222 30.3685 10.2588 30.8632 10.944 30.4674L18.2773 26.2322C18.5953 26.0485 18.9871 26.0641 19.3052 26.2478L26.6385 30.4831C27.3236 30.8789 28.1802 30.3842 28.1802 29.5926V29.5925C28.1802 29.2251 27.9843 28.8858 27.6663 28.7021Z" fill="#95C6B7"/>
<path fill-rule="evenodd" clip-rule="evenodd" d="M22.7953 12.7701L27.6729 9.95317C27.9909 9.76952 28.3828 9.76952 28.7008 9.95317L37.0685 14.7859C37.3866 14.9696 37.5824 15.3091 37.5824 15.6764V25.3418C37.5824 25.7092 37.3866 26.0486 37.0685 26.2323L31.7711 29.2918C31.086 29.6875 30.2294 29.1928 30.2294 28.4013V28.4013C30.2294 28.0339 30.4253 27.6944 30.7433 27.5108L35.0127 25.045C35.3307 24.8613 35.5267 24.5219 35.5267 24.1545V16.8636C35.5267 16.4963 35.3307 16.1568 35.0127 15.9731L28.7007 12.3279C28.3827 12.1442 27.9909 12.1442 27.6729 12.3279L22.7953 15.1448V12.7701Z" fill="#95C6B7"/>
<path fill-rule="evenodd" clip-rule="evenodd" d="M25.1335 5.68262L20.939 3.26009L22.083 2.59935C22.9938 2.07336 22.6207 0.680664 21.5691 0.680664C21.3887 0.680664 21.2114 0.728144 21.0552 0.818387L18.7928 2.12494H18.7896L16.5273 0.818387C16.371 0.728144 16.1938 0.680664 16.0133 0.680664H16.0133C14.9617 0.680664 14.5887 2.07336 15.4994 2.59935L16.6434 3.26009L12.4489 5.68262C12.2385 5.80418 12.1089 6.02875 12.1089 6.27183V13.5977L15.9631 15.8238C16.6484 16.2195 17.505 15.7248 17.505 14.9333V14.9332C17.505 14.5659 17.3091 14.2264 16.991 14.0427L14.1647 12.4104V7.45902C14.1647 7.21594 14.2943 6.99134 14.5048 6.86985L18.4511 4.59081C18.5559 4.53026 18.6728 4.49995 18.7898 4.49972L18.7912 4.50053L18.7926 4.49972C18.9095 4.49995 19.0264 4.5303 19.1312 4.59081L23.0777 6.87001C23.2881 6.99153 23.4178 7.21613 23.4178 7.45918V12.4104L20.5915 14.0427C20.2734 14.2264 20.0775 14.5658 20.0775 14.9332C20.0775 15.7247 20.9341 16.2194 21.6194 15.8237L25.4735 13.5977V6.27183C25.4735 6.02875 25.3439 5.80418 25.1335 5.68262Z" fill="#95C6B7"/>
<path fill-rule="evenodd" clip-rule="evenodd" d="M16.1719 37.5121L18.3633 36.2467C18.6281 36.0938 18.9544 36.0938 19.2192 36.2467L21.4103 37.5121C21.7053 37.6824 22.0796 37.6193 22.3025 37.3617C22.725 36.8734 22.5984 36.121 22.0394 35.7981L19.2193 34.169C18.9544 34.0159 18.628 34.0159 18.3632 34.169L15.5433 35.798C14.9842 36.121 14.8576 36.8734 15.2801 37.3618C15.5028 37.6193 15.8771 37.6824 16.1719 37.5121Z" fill="#95C6B7"/>
<path fill-rule="evenodd" clip-rule="evenodd" d="M18.3632 38.6216L17.0352 39.3885C17.8196 41.0806 18.3731 42.8705 18.6809 44.7101L18.7912 45.3695L18.9002 44.7127C19.2056 42.8716 19.7597 41.0805 20.5472 39.3885L19.2192 38.6216C18.9543 38.4686 18.6281 38.4686 18.3632 38.6216Z" fill="#95C6B7"/>
</g>
</svg>
