<svg width="211" height="35" viewBox="0 0 211 35" fill="none" xmlns="http://www.w3.org/2000/svg">
<g opacity="0.8">
<path d="M0.00468054 15.907C0.25431 15.8493 0.42749 16.0318 0.60535 16.1348C1.33864 16.5576 2.04072 17.035 2.77868 17.4469C2.96746 17.553 3.072 17.7184 3.26546 17.837V24.2571L8.81971 27.5491V31.1266C8.47647 31.1438 8.2362 30.9269 8.00529 30.7974C6.93033 30.1999 5.89593 29.5274 4.835 28.9033C4.43872 28.6693 4.05491 28.4088 3.65394 28.195C2.78024 27.727 1.93775 27.2105 1.09213 26.7097C0.742646 26.5022 0.368203 26.34 0 26.1574L0.00468054 15.907Z" fill="#95C6B7"/>
<path d="M0.00473401 9.22915C1.11402 8.65032 2.18899 8.00285 3.24679 7.35693L6.36715 9.18391C5.40608 9.92499 4.22814 10.3478 3.27331 11.1279C3.22963 12.3636 3.30452 13.5914 3.23119 14.8723C2.57123 14.4854 1.95652 14.1515 1.37457 13.7677C1.20503 13.6311 1.01562 13.5211 0.812908 13.4416C0.48215 13.3558 0.284006 13.0937 0.00317383 12.958L0.00473401 9.22915Z" fill="#95C6B7"/>
<path d="M23.2826 16.2238L17.7034 19.5096V26.0436C17.1667 26.4742 16.5488 26.7535 15.9638 27.0749C15.4036 27.3869 14.9387 27.9423 14.2569 27.869C13.3036 27.1966 12.288 26.7254 11.3347 26.12V19.5532L5.76953 16.2925V12.417L8.88989 10.5635L14.4441 13.8555C16.3491 12.7633 18.1886 11.6104 20.1092 10.5682C21.1389 11.328 22.309 11.7804 23.2716 12.5262L23.2826 16.2238Z" fill="#95C6B7"/>
<path d="M28.8478 15.7588V25.9202C28.6154 26.3758 28.1005 26.4726 27.7183 26.7237C27.0177 27.1824 26.261 27.5647 25.5418 28.0047C24.5339 28.6287 23.4886 29.1717 22.4916 29.8082C21.724 30.2981 20.9096 30.7116 20.0593 31.1905V27.5522C21.7615 26.3509 23.7195 25.3929 25.5917 24.1838V17.6622L28.8478 15.7588Z" fill="#95C6B7"/>
<path d="M23.2031 5.88433L20.1592 7.68166C19.8128 7.66761 19.5445 7.43515 19.2527 7.28069C18.6079 6.95337 17.9828 6.58871 17.3805 6.18856C16.9202 5.86873 16.4023 5.66434 15.9389 5.35699C15.5988 5.13076 15.2165 4.96538 14.8873 4.72355C14.516 4.45208 14.1634 4.56753 13.867 4.7688C12.7748 5.49272 11.6187 6.08403 10.511 6.76427C9.99615 7.07631 9.47349 7.38054 8.95083 7.73158C7.82594 7.17928 6.78998 6.52088 5.74622 5.89993C6.40149 5.49896 7.05521 5.08707 7.71829 4.69235C8.15202 4.43492 8.61383 4.22429 9.03664 3.9497C10.3566 3.10096 11.7654 2.40044 13.0759 1.52986C13.388 1.32392 13.7297 1.13357 14.0698 0.952594C14.2795 0.812677 14.5528 0.812677 14.7625 0.952594C15.2181 1.22095 15.6986 1.44249 16.1433 1.73268C16.63 2.04472 17.1371 2.32399 17.6395 2.60951C18.2636 2.96523 18.897 3.32875 19.5008 3.71724C20.0515 4.07296 20.6444 4.35067 21.1827 4.72667C21.8052 5.13544 22.4807 5.46776 23.2031 5.88433Z" fill="#95C6B7"/>
<path d="M28.8602 9.30443V12.9303C27.7931 13.4576 26.807 14.1956 25.6338 14.7229V11.0362L22.4775 9.13437C22.8582 8.90346 23.228 8.6788 23.5962 8.45257C24.0642 8.16082 24.5775 7.92211 25.016 7.57107C25.3857 7.27463 25.796 7.29804 26.1705 7.55078C26.9043 8.06209 27.6727 8.52188 28.4702 8.92686C28.6309 9.00019 28.737 9.17493 28.8602 9.30443Z" fill="#95C6B7"/>
<path d="M11.3581 28.9346C12.1835 29.5072 13.0743 29.88 13.8544 30.4433C14.1259 30.6383 14.4551 30.7803 14.8654 30.5213C15.7188 29.9815 16.6581 29.5852 17.4647 28.9611C17.4974 28.9361 17.5661 28.9611 17.694 28.9611C17.694 30.1843 17.694 31.409 17.694 32.6244C17.1464 32.8303 16.7158 33.1907 16.2306 33.456C15.7454 33.7212 15.2945 33.9537 14.8592 34.2485C14.5471 34.4654 14.2757 34.4264 13.9761 34.2485C13.1133 33.7196 12.2443 33.1985 11.3566 32.6618L11.3581 28.9346Z" fill="#95C6B7"/>
<path d="M14.427 7.34619C15.5036 7.95778 16.4709 8.64114 17.5864 9.1716L14.4255 11.0953C13.3973 10.5305 12.4191 9.81752 11.2443 9.26833C12.3052 8.57249 13.3474 7.95622 14.427 7.34619Z" fill="#95C6B7"/>
<path d="M5.76953 19.1289C6.34836 19.3739 6.81173 19.7124 7.29695 20.0166C7.78217 20.3209 8.30171 20.5908 8.81969 20.8841V24.602L5.76953 22.8172V19.1289Z" fill="#95C6B7"/>
<path d="M20.0453 24.6251V20.9431L23.0752 19.1177C23.1828 19.7605 23.111 20.3658 23.1235 20.9665C23.136 21.5672 23.1235 22.2053 23.1235 22.8247L20.0453 24.6251Z" fill="#95C6B7"/>
<path d="M45.0391 15.8125V15.7656C45.6367 15.543 46.1289 15.2266 46.5156 14.8047C46.9023 14.3828 47.1836 13.9375 47.3477 13.4688C47.5117 13 47.5938 12.4961 47.5938 11.9688C47.5938 10.6211 47.1133 9.58984 46.1641 8.875C45.2148 8.16016 43.832 7.80859 42.0156 7.80859H35.8633V24.8594H42.918C43.832 24.8594 44.6406 24.7422 45.3438 24.5078C46.0469 24.2734 46.6211 23.9453 47.0664 23.5234C47.5117 23.1016 47.8516 22.6094 48.0859 22.0352C48.3203 21.4609 48.4375 20.8281 48.4375 20.1367C48.4375 19.0234 48.1445 18.0977 47.5469 17.3477C46.9492 16.5977 46.1055 16.0938 45.0156 15.8242L45.0391 15.8125ZM39.168 10.7969H41.3594C42.0039 10.7969 42.5312 10.8789 42.9531 11.043C43.375 11.207 43.6797 11.4414 43.8672 11.7344C44.0547 12.0273 44.1484 12.3789 44.1484 12.7891C44.1484 13.2461 44.0195 13.6328 43.7734 13.9375C43.5273 14.2422 43.2109 14.4648 42.8359 14.6055C42.4609 14.7461 42.0391 14.8164 41.5703 14.8164H39.1562L39.168 10.7969ZM41.875 21.918H39.1562V17.5352H41.9102C42.8828 17.5352 43.6211 17.7344 44.1367 18.1328C44.6523 18.5312 44.9102 19.0703 44.9102 19.7617C44.9102 20.2422 44.7812 20.6406 44.5234 20.9688C44.2656 21.2969 43.9141 21.543 43.4688 21.707C43.0234 21.8711 42.4961 21.9531 41.8867 21.9531L41.875 21.918ZM53.1104 24.8477H56.5088V7.79688H53.1104V24.8477ZM73.0177 7.79688V19.3164H72.9708L65.3888 7.79688H62.0255V24.8477H65.3888V13.5508H65.4356L72.9356 24.8477H76.3927V7.79688H73.0177ZM92.6906 24.8477H96.2179L89.8781 7.79688H86.6202L80.3038 24.8477H83.8312L84.9913 21.4375H91.5304L92.6906 24.8477ZM85.964 18.5547L88.2374 11.8633H88.2609L90.546 18.5547H85.964ZM111.145 7.79688V19.3164H111.098L103.516 7.79688H100.153V24.8477H103.516V13.5508H103.563L111.063 24.8477H114.52V7.79688H111.145ZM127.923 25.0234C129.353 25.0234 130.642 24.7305 131.802 24.1445C132.962 23.5586 133.935 22.7734 134.72 21.8008L132.247 19.6797C131.72 20.3359 131.087 20.8633 130.337 21.25C129.587 21.6367 128.79 21.8359 127.935 21.8359C126.939 21.8359 126.048 21.6016 125.263 21.1328C124.478 20.6641 123.868 20.0195 123.435 19.1875C123.001 18.3555 122.779 17.418 122.779 16.375C122.779 15.8945 122.825 15.4375 122.907 15.0039C122.989 14.5703 123.118 14.1719 123.282 13.7969C123.447 13.4219 123.646 13.082 123.88 12.7656C124.114 12.4492 124.372 12.1797 124.665 11.9453C124.958 11.7109 125.275 11.5117 125.614 11.3477C125.954 11.1836 126.318 11.0547 126.704 10.9727C127.091 10.8906 127.501 10.8438 127.923 10.8438C128.767 10.8438 129.564 11.043 130.314 11.4414C131.064 11.8398 131.708 12.3672 132.236 13.0117L134.708 10.9023C134.111 10.1641 133.419 9.54297 132.646 9.03906C131.872 8.53516 131.087 8.17188 130.302 7.94922C129.517 7.72656 128.72 7.62109 127.911 7.62109C126.822 7.62109 125.802 7.77344 124.864 8.06641C123.927 8.35938 123.118 8.78125 122.439 9.32031C121.759 9.85938 121.173 10.4922 120.681 11.2188C120.189 11.9453 119.825 12.7539 119.579 13.6328C119.333 14.5117 119.216 15.4375 119.216 16.4102C119.216 17.5117 119.368 18.5312 119.673 19.4688C119.978 20.4062 120.4 21.2148 120.939 21.8945C121.478 22.5742 122.111 23.1602 122.837 23.6406C123.564 24.1211 124.361 24.4844 125.216 24.7188C126.072 24.9531 126.974 25.0703 127.911 25.0703L127.923 25.0234ZM138.994 24.8477H150.397V21.8359H142.323V17.8867H148.393V14.9102H142.323V10.8203H149.893V7.79688H138.994V24.8477ZM174.039 7.79688V19.3164H173.993L166.411 7.79688H163.047V24.8477H166.411V13.5508H166.457L173.957 24.8477H177.414V7.79688H174.039ZM182.826 24.8477H186.154V18.3906H192.81V15.3789H186.154V10.8203H194.134V7.79688H182.826V24.8477ZM202.123 24.8477H205.487V10.8203H210.209V7.79688H197.424V10.8203H202.123V24.8477Z" fill="#95C6B7"/>
</g>
</svg>
