<svg width="129" height="49" viewBox="0 0 129 49" fill="none" xmlns="http://www.w3.org/2000/svg">
<path opacity="0.8" fill-rule="evenodd" clip-rule="evenodd" d="M122.845 24.365C123.339 24.1387 123.876 24.0217 124.42 24.0219L124.42 24.02C125.154 24.0199 125.872 24.2327 126.488 24.6326C127.104 25.0325 127.59 25.6024 127.888 26.2732C128.187 26.944 128.284 27.6869 128.168 28.4118C128.053 29.1368 127.73 29.8127 127.238 30.3577C126.746 30.9028 126.107 31.2935 125.398 31.4825C124.688 31.6715 123.939 31.6508 123.242 31.4227C122.544 31.1947 121.927 30.7692 121.466 30.1978C121.005 29.6263 120.72 28.9335 120.645 28.2033C119.652 27.565 118.624 26.9815 117.567 26.4553C117.199 27.1948 116.671 27.8426 116.02 28.351C115.369 28.8594 114.613 29.2156 113.807 29.3933C113.75 34.3432 115.01 39.191 115.569 41.1469C116.376 41.5747 117.019 42.2578 117.397 43.0895C117.775 43.9212 117.868 44.8548 117.659 45.7444C117.451 46.634 116.954 47.4296 116.246 48.007C115.538 48.5844 114.659 48.9112 113.745 48.9362C112.832 48.9612 111.936 48.6831 111.197 48.1453C110.459 47.6075 109.919 46.8403 109.662 45.9634C109.406 45.0865 109.447 44.1493 109.779 43.2982C110.111 42.447 110.716 41.7298 111.498 41.2584C112.083 38.3579 112.517 32.9034 112.147 29.4991C111.289 29.4261 110.459 29.1529 109.725 28.7014C108.992 28.2499 108.374 27.6327 107.922 26.8993C107.469 26.1659 107.195 25.3366 107.121 24.4782C107.048 23.6197 107.176 22.7559 107.496 21.9561C105.946 21.0775 103.78 19.9788 99.7762 19.1061C99.0445 19.5416 98.1892 19.7226 97.3437 19.621C96.4982 19.5194 95.7101 19.1408 95.1024 18.5443C94.4947 17.9478 94.1016 17.1669 93.9842 16.3235C93.8669 15.4801 94.032 14.6215 94.4538 13.8818C94.8757 13.1421 95.5305 12.5628 96.3161 12.2342C97.1018 11.9057 97.974 11.8465 98.7969 12.0658C99.6197 12.285 100.347 12.7704 100.865 13.4463C101.383 14.1222 101.662 14.9505 101.66 15.8021C101.66 15.8107 101.66 15.8189 101.659 15.8269L101.659 15.827L101.658 15.8401L101.658 15.8495C104.641 18.6416 106.258 19.5686 108.249 20.641C108.992 19.67 110.037 18.9737 111.22 18.6614C112.402 18.349 113.655 18.4385 114.781 18.9156C117.123 14.8001 119.348 10.3018 120.288 6.92904C119.87 6.14538 119.719 5.24648 119.859 4.36927C119.999 3.49205 120.422 2.68463 121.063 2.07003C121.705 1.45544 122.53 1.06736 123.412 0.964923C124.294 0.862488 125.186 1.05131 125.951 1.50262C126.716 1.95394 127.313 2.64302 127.65 3.46484C127.987 4.28667 128.047 5.19617 127.819 6.05482C127.591 6.91346 127.089 7.67417 126.389 8.221C125.689 8.76783 124.829 9.0708 123.941 9.08378C123.636 9.43793 123.24 9.90214 122.782 10.4524C122.641 10.6216 122.493 10.8009 122.342 10.9847C120.604 13.0702 118.986 15.2519 117.494 17.5194C117.409 17.653 117.325 17.7861 117.242 17.9186C117.003 18.3053 116.777 18.6857 116.57 19.0572C116.433 19.3031 116.304 19.5447 116.184 19.7819C116.921 20.3953 117.483 21.1921 117.813 22.0921C118.144 22.992 118.232 23.9632 118.067 24.9078C118.97 25.1763 120.439 25.288 121.555 25.3331C121.911 24.9215 122.35 24.5913 122.845 24.365ZM38.7634 23.5484L27.6004 34.7114L38.7703 45.8806H31.3418L23.8873 38.4258L20.1727 34.7112L23.8873 30.9966L31.3354 23.5484H38.7634ZM53.2055 45.9085C55.0138 45.9085 56.7499 45.1992 58.0408 43.933C59.3317 42.6668 60.0745 40.9448 60.1095 39.1369C60.1824 35.2662 56.9213 32.0988 53.0502 32.0988H47.3556C46.9198 32.1053 46.4984 31.9431 46.1793 31.6462C45.8603 31.3492 45.6683 30.9405 45.6435 30.5053C45.6367 30.2852 45.6742 30.066 45.7537 29.8607C45.8332 29.6553 45.9532 29.468 46.1064 29.3099C46.2597 29.1518 46.4432 29.0261 46.6459 28.9402C46.8487 28.8544 47.0666 28.8101 47.2868 28.81H59.5101C59.5889 28.8101 59.667 28.7947 59.7399 28.7646C59.8128 28.7344 59.879 28.6903 59.9348 28.6346C59.9905 28.5789 60.0348 28.5127 60.065 28.4399C60.0952 28.367 60.1107 28.289 60.1107 28.2101V24.1495C60.1106 23.9903 60.0472 23.8377 59.9346 23.7252C59.822 23.6127 59.6693 23.5495 59.5101 23.5496H47.4422C43.571 23.5496 40.31 26.7177 40.3828 30.5881C40.4179 32.3959 41.1607 34.1179 42.4517 35.384C43.7426 36.6501 45.4786 37.3593 47.2868 37.3593H53.137C53.5728 37.3528 53.9942 37.5149 54.3133 37.8119C54.6323 38.1089 54.8242 38.5176 54.8489 38.9528C54.8557 39.1729 54.8182 39.392 54.7387 39.5973C54.6591 39.8026 54.5391 39.9899 54.3859 40.1479C54.2326 40.306 54.0491 40.4316 53.8464 40.5174C53.6436 40.6032 53.4257 40.6474 53.2055 40.6474H40.9822C40.9034 40.6474 40.8252 40.6629 40.7523 40.693C40.6795 40.7232 40.6132 40.7675 40.5575 40.8232C40.5017 40.879 40.4575 40.9452 40.4273 41.0181C40.3971 41.091 40.3816 41.1691 40.3817 41.248V45.3087C40.3818 45.4678 40.4451 45.6204 40.5577 45.7329C40.6703 45.8454 40.8231 45.9086 40.9822 45.9085H53.2055ZM63.3421 23.5489H81.8707C82.0297 23.5489 82.1823 23.6122 82.2947 23.7246C82.4072 23.8371 82.4705 23.9897 82.4706 24.1487V28.2094C82.4706 28.3686 82.4075 28.5213 82.295 28.6339C82.1825 28.7466 82.0299 28.8099 81.8707 28.81H75.8372C75.7583 28.81 75.6802 28.8255 75.6074 28.8556C75.5345 28.8858 75.4683 28.93 75.4126 28.9857C75.3568 29.0414 75.3126 29.1076 75.2824 29.1804C75.2522 29.2532 75.2366 29.3313 75.2366 29.4101V45.3079C75.2366 45.3867 75.2211 45.4647 75.191 45.5375C75.1609 45.6103 75.1166 45.6765 75.0609 45.7322C75.0052 45.7879 74.9391 45.8321 74.8663 45.8622C74.7935 45.8924 74.7155 45.9079 74.6367 45.9078H70.576C70.4169 45.9078 70.2643 45.8446 70.1518 45.7321C70.0392 45.6196 69.976 45.467 69.9759 45.3079V29.4101C69.9759 29.251 69.9127 29.0984 69.8002 28.9859C69.6877 28.8734 69.5351 28.8101 69.376 28.81H63.3421C63.2632 28.81 63.1852 28.7944 63.1123 28.7642C63.0395 28.734 62.9734 28.6898 62.9176 28.634C62.8619 28.5783 62.8177 28.512 62.7876 28.4392C62.7574 28.3663 62.7419 28.2883 62.7419 28.2094V24.1487C62.7421 23.9896 62.8053 23.8371 62.9179 23.7246C63.0304 23.6122 63.183 23.5489 63.3421 23.5489ZM97.807 32.0986H90.9129C90.7538 32.0986 90.6012 32.0353 90.4887 31.9228C90.3762 31.8102 90.3131 31.6576 90.3131 31.4985V29.4111C90.3131 29.252 90.3762 29.0994 90.4887 28.9868C90.6012 28.8743 90.7538 28.8111 90.9129 28.811H97.8755C98.0957 28.8109 98.3137 28.8551 98.5164 28.9409C98.7192 29.0266 98.9027 29.1523 99.056 29.3104C99.2093 29.4684 99.3292 29.6557 99.4087 29.861C99.4882 30.0663 99.5257 30.2855 99.5189 30.5056C99.4942 30.9407 99.3023 31.3495 98.9833 31.6465C98.6643 31.9435 98.2428 32.1056 97.807 32.0991V32.0986ZM97.7205 23.5499H85.6522C85.4931 23.5499 85.3406 23.6131 85.2281 23.7256C85.1156 23.8381 85.0524 23.9906 85.0524 24.1497V45.3082C85.0524 45.387 85.0678 45.465 85.098 45.5378C85.1281 45.6106 85.1723 45.6767 85.228 45.7324C85.2837 45.7882 85.3499 45.8323 85.4227 45.8625C85.4955 45.8926 85.5735 45.9081 85.6522 45.9081H89.713C89.8721 45.9081 90.0247 45.8449 90.1372 45.7324C90.2497 45.6199 90.313 45.4673 90.3131 45.3082V37.9597C90.313 37.8808 90.3285 37.8028 90.3586 37.7299C90.3887 37.6571 90.4329 37.5909 90.4886 37.5351C90.5443 37.4793 90.6104 37.4351 90.6832 37.4049C90.7561 37.3747 90.8341 37.3591 90.9129 37.3591H97.8755C99.6838 37.3592 101.42 36.65 102.711 35.3839C104.002 34.1178 104.745 32.3958 104.78 30.5879C104.853 26.7174 101.591 23.5491 97.7205 23.5491V23.5499ZM14.911 32.0981V23.5489H20.1722V45.9081H14.911V37.3588H5.7045V45.9081H0.443359V23.5489H5.7045V32.0981H14.911Z" fill="#95C6B7"/>
</svg>
