<svg width="264" height="34" viewBox="0 0 264 34" fill="none" xmlns="http://www.w3.org/2000/svg">
<g opacity="0.8">
<path fill-rule="evenodd" clip-rule="evenodd" d="M43.2076 0.144058C43.0019 0.0864308 42.7962 0.0576172 42.5612 0.0576172V0.0864307H37.6542C37.1687 0.0431449 36.9815 0.113656 36.7192 0.212488C36.6323 0.245233 36.5371 0.281086 36.4201 0.316939C31.0431 1.98813 26.9001 6.8288 26.6944 12.0152C26.5335 16.4909 26.5515 20.9801 26.5695 25.4644C26.5778 27.5333 26.5861 29.6011 26.5768 31.6661C26.5768 33.3949 27.4289 34 29.8971 34C31.1312 34 32.3065 34 33.6581 33.9712C36.1557 33.8847 37.2722 33.539 37.2429 31.6949C37.2315 31.3944 37.2421 31.0982 37.2526 30.8046C37.2692 30.3382 37.2856 29.8784 37.2135 29.4186C36.9196 27.2864 37.5367 26.6237 40.0049 26.739C49.3193 27.1712 56.1949 18.7864 53.8442 10.0559C52.3751 4.66779 48.4084 1.75762 43.2076 0.144058ZM37.3016 13.5712C37.3016 11.7559 38.3888 10.661 40.3575 10.5169C42.3261 10.661 43.4427 11.6407 43.472 13.5712C43.5014 15.4152 42.238 16.4237 40.5337 16.4813C38.6826 16.539 37.3016 15.5017 37.3016 13.5712Z" fill="#95C6B7"/>
<path d="M21.6993 0.0576271C22.4926 0.0576271 23.2566 0.288136 23.8736 0.749152C23.903 0.777966 23.9618 0.80678 23.9912 0.835593C26.048 2.18983 26.7238 4.12034 26.0186 6.33898C25.3134 8.55763 23.5798 9.91186 21.1116 9.68135C18.6729 9.45085 18.2615 10.4017 18.3203 12.5051C18.4672 18.7 18.3203 24.9237 18.4084 31.1186C18.4378 33.222 17.6151 33.9424 15.4995 33.8847C6.94906 33.7119 8.03623 35.0949 7.97746 26.739C7.94808 21.783 7.88931 16.8559 8.00684 11.9C8.03623 10.1136 7.44857 9.59491 5.65621 9.68135C4.59842 9.73898 3.54063 9.85424 2.48284 9.7678C1.10184 9.68136 0.0440575 8.52881 0.0734405 7.17458C0.102823 5.33051 0.132206 3.45763 0.0146745 1.61356C-0.102857 0.0864406 0.484802 0 1.80704 0C8.4182 0.0864407 15.0588 0.0576271 21.6993 0.0576271Z" fill="#95C6B7"/>
<path d="M141.406 14.8102C141.406 18.0085 141.376 21.178 141.435 24.3763C141.464 25.6153 141.347 26.3644 139.672 26.3644C138.085 26.3644 137.85 25.7882 137.88 24.4628C137.938 19.5068 137.85 14.5509 137.968 9.59496C137.997 8.78818 137.086 7.23225 138.849 7.23225C140.406 7.23225 142.346 6.25259 143.492 8.35598C145.137 11.3526 146.93 14.2628 149.221 17.1153C149.221 14.4068 149.28 11.6983 149.192 8.98987C149.133 7.57801 149.574 7.14581 151.073 7.11699C152.865 7.05937 152.747 8.03903 152.747 9.16276C152.718 14.2051 152.777 19.2475 152.718 24.2899C152.718 24.9814 153.364 26.2492 151.954 26.2492C150.72 26.2492 149.221 26.9983 148.281 25.2983C146.283 21.7255 144.138 18.2102 142.052 14.695C141.817 14.695 141.611 14.7526 141.406 14.8102Z" fill="#95C6B7"/>
<path fill-rule="evenodd" clip-rule="evenodd" d="M82.1107 16.7408C82.0814 21.9848 86.3713 26.2492 91.719 26.3357C97.243 26.4221 101.562 22.3018 101.68 16.856C101.797 11.6408 97.5368 7.2323 92.2185 7.11705C86.6357 6.97298 82.1401 11.2662 82.1107 16.7408ZM97.6543 16.6255C97.7425 19.6798 95.1862 22.273 92.0128 22.3306C88.7807 22.3594 86.2831 19.9967 86.2538 16.8272C86.195 13.6577 88.6044 11.1798 91.8071 11.1221C94.9805 11.0645 97.5662 13.5137 97.6543 16.6255Z" fill="#95C6B7"/>
<path fill-rule="evenodd" clip-rule="evenodd" d="M178.311 16.5101C178.193 21.8118 182.571 26.2779 187.978 26.3355C193.443 26.3931 197.821 22.2152 197.938 16.8558C198.056 11.5541 193.619 7.14566 188.183 7.11684C182.894 7.08803 178.428 11.3524 178.311 16.5101ZM193.884 16.7118C193.884 19.8524 191.386 22.3304 188.183 22.3304C184.98 22.3304 182.424 19.8813 182.424 16.7406C182.395 13.6575 184.98 11.1219 188.124 11.1219C191.327 11.1219 193.884 13.6287 193.884 16.7118Z" fill="#95C6B7"/>
<path d="M221.562 15.9627C223.208 13.5711 224.618 11.8711 225.617 9.99826C226.881 7.60673 228.497 6.33894 231.67 7.40504C230.23 9.56606 228.849 11.8135 227.292 13.9457C226.469 15.0694 226.44 15.8762 227.233 17.0288C229.231 19.9389 231.053 22.9644 232.904 25.8745C228.555 27.661 226.969 24.6644 225.059 22.1C224.471 21.322 224.177 19.622 222.914 20.1118C221.768 20.5728 221.327 22.0423 221.562 23.3966C221.944 25.5864 221.18 26.5372 218.683 26.3067C217.243 26.1627 216.979 25.7017 217.008 24.4915C217.067 19.2762 217.155 14.0898 216.979 8.87453C216.92 6.74233 218.154 7.14572 219.447 7.05928C220.798 7.00165 221.768 7.03046 221.621 8.84572C221.445 11.0067 221.562 13.1389 221.562 15.9627Z" fill="#95C6B7"/>
<path d="M121.69 16.5389C121.69 14.0321 121.748 11.4965 121.66 8.98971C121.601 7.63547 121.895 7.0592 123.482 7.08802C126.949 7.20327 130.446 7.20327 133.913 7.08802C135.529 7.03039 135.47 7.86598 135.5 8.9609C135.5 10.0558 135.5 10.9202 133.913 10.8338C131.915 10.7185 129.917 10.8914 127.919 10.7762C126.126 10.6897 126.244 11.727 126.244 12.8795C126.244 13.9456 126.156 14.9253 127.801 14.7236C128.918 14.5795 130.064 14.7524 131.18 14.6948C132.679 14.5795 133.531 14.7812 133.531 16.6253C133.531 18.527 132.444 18.3253 131.21 18.2965C130.416 18.2965 129.623 18.3829 128.859 18.2677C126.597 17.9219 126.038 18.9304 126.185 20.9473C126.273 22.1575 126.714 22.5321 127.919 22.5033C129.829 22.4456 131.739 22.5897 133.648 22.4456C135.235 22.3304 135.529 23.0219 135.5 24.3473C135.47 25.5287 135.529 26.3931 133.795 26.3067C130.328 26.1626 126.832 26.1914 123.364 26.3067C121.925 26.3355 121.631 25.8456 121.66 24.5778C121.778 21.927 121.69 19.2185 121.69 16.5389Z" fill="#95C6B7"/>
<path fill-rule="evenodd" clip-rule="evenodd" d="M161.592 8.67278C161.65 10.8626 161.68 13.0813 161.621 15.2999C161.584 16.5677 161.604 17.8355 161.625 19.1033C161.653 20.8321 161.681 22.5609 161.562 24.2897C161.39 26.2881 162.451 26.3069 163.952 26.3336C163.988 26.3342 164.024 26.3348 164.06 26.3355C165.647 26.3643 166.616 26.0762 166.234 24.3185C165.705 21.927 166.939 21.4084 169.055 21.7253C169.328 21.7636 169.614 21.751 169.905 21.7383C170.052 21.7318 170.2 21.7253 170.348 21.7253C174.256 21.6101 177.165 18.3253 177.047 14.205C176.93 10.0846 174.138 7.17448 170.23 7.11685C169.303 7.10534 168.371 7.11222 167.436 7.11913C166.031 7.12951 164.619 7.13994 163.208 7.08804C161.944 7.03041 161.562 7.46261 161.592 8.67278ZM166.261 13.5826C166.262 13.5692 166.263 13.5558 166.264 13.5423C166.284 13.2754 166.245 12.9793 166.205 12.6827C166.074 11.6983 165.942 10.7097 167.997 10.7762C171.317 10.8626 173.022 11.9575 172.992 14.2626C172.963 16.5677 171.406 17.5474 168.262 17.7491C165.876 17.8827 166.02 16.7933 166.167 15.6796C166.211 15.353 166.254 15.0242 166.234 14.7236C166.206 14.3337 166.232 13.9707 166.261 13.5826Z" fill="#95C6B7"/>
<path d="M234.05 16.5966C234.05 14.0034 234.109 11.3813 234.021 8.78811C233.962 7.52032 234.285 7.03049 235.725 7.0593C239.192 7.14574 242.689 7.14574 246.156 7.0593C247.596 7.03049 247.889 7.52032 247.86 8.78811C247.86 10.0559 247.742 10.8339 246.068 10.7186C244.334 10.5746 242.571 10.7762 240.867 10.661C239.221 10.5457 238.634 10.9779 238.604 12.7068C238.575 14.4644 239.251 14.8678 240.837 14.6949C241.778 14.6085 242.747 14.7237 243.717 14.6661C245.039 14.6085 246.009 14.5796 245.979 16.4237C245.95 18.0949 245.304 18.4407 243.805 18.2678C242.953 18.1813 242.072 18.3254 241.19 18.239C239.456 18.0661 238.575 18.3254 238.575 20.4288C238.575 22.561 239.692 22.4457 241.161 22.3881C242.806 22.3305 244.481 22.4746 246.126 22.3593C247.889 22.2152 247.772 23.2237 247.831 24.4051C247.889 25.7593 247.596 26.3356 246.009 26.3068C242.63 26.1915 239.221 26.1915 235.842 26.3068C234.285 26.3644 233.932 25.7881 233.991 24.4339C234.109 21.8118 234.05 19.2186 234.05 16.5966Z" fill="#95C6B7"/>
<path d="M119.045 7.34752C117.429 9.30685 116.019 11.295 114.314 13.0238C112.581 14.7526 112.405 16.1357 114.05 18.095C116.136 20.5441 117.84 23.2814 119.721 25.9323C115.549 26.739 115.519 26.739 113.257 23.6848C112.346 22.4458 111.464 21.2068 110.495 20.0255C110.113 19.5645 109.936 18.5272 109.055 18.9306C108.35 19.2763 107.586 19.795 107.674 20.8611C107.762 22.2153 107.586 23.5696 107.733 24.895C107.909 26.6238 106.704 26.3357 105.735 26.2492C104.794 26.1628 103.384 26.9119 103.413 24.9238C103.472 19.4492 103.443 14.0035 103.355 8.52888C103.325 6.62718 104.647 7.17464 105.676 7.14583C106.675 7.11702 107.821 6.82888 107.733 8.52888C107.615 10.4594 107.703 12.3899 107.703 14.8967C109.701 12.7933 111.464 11.1509 112.963 9.30685C114.491 7.37634 116.342 6.68481 119.045 7.34752Z" fill="#95C6B7"/>
<path d="M208.516 7.117C209.985 7.00175 211.513 7.43395 212.806 8.26954C213.658 8.817 215.539 9.13395 214.657 10.6323C213.981 11.756 213.1 13.456 210.896 11.8136C208.839 10.2865 205.784 11.0933 204.109 13.0238C202.346 15.0984 202.316 18.1526 204.05 20.2272C205.784 22.2729 208.399 22.8492 210.837 21.6679C211.748 21.2356 212.424 20.1407 213.717 21.3797C215.509 23.1085 215.568 23.4831 213.423 24.8373C210.103 26.9119 205.784 26.739 202.698 24.4051C199.319 21.8407 197.968 17.5187 199.319 13.5712C200.583 9.71022 204.256 7.117 208.516 7.117Z" fill="#95C6B7"/>
<path d="M72.238 18.6713C72.238 17.0001 72.091 15.3001 72.2673 13.6289C72.4436 11.7848 71.6797 11.3814 69.9461 11.4679C67.6542 11.5831 66.714 9.99838 67.4485 7.77974C67.7424 6.91533 68.3594 7.14584 68.8883 7.14584C72.6199 7.11702 76.381 7.23228 80.1126 7.08821C82.0519 7.03058 81.6405 8.21194 81.6405 9.22041C81.6405 10.3441 82.0225 11.8424 79.9657 11.4679C77.1449 10.9492 76.7042 12.2747 76.8217 14.6374C77.0274 17.9797 76.7629 21.3509 76.9099 24.7221C76.998 26.7679 75.6464 26.278 74.5298 26.278C73.4133 26.278 72.0029 26.7391 72.1498 24.6933C72.3555 22.7052 72.238 20.6882 72.238 18.6713Z" fill="#95C6B7"/>
<path d="M254.501 18.6713C254.501 17.5764 254.501 16.4814 254.501 15.3865C254.501 11.8713 254.501 11.7848 251.004 11.4391C248.83 11.2086 249.946 9.71025 249.741 8.7594C249.535 7.77974 249.682 7.03058 251.151 7.0594C254.971 7.14584 258.82 7.14584 262.64 7.0594C264.52 7.03058 263.903 8.29838 263.903 9.13397C263.874 10.056 264.55 11.7272 262.581 11.3526C259.231 10.7763 258.967 12.4475 259.114 14.9831C259.29 18.095 259.026 21.2069 259.202 24.3187C259.319 26.2204 258.35 26.3357 256.881 26.2492C255.588 26.1916 254.236 26.5374 254.471 24.434C254.677 22.5323 254.501 20.6018 254.501 18.6713Z" fill="#95C6B7"/>
</g>
</svg>
