<svg width="223" height="39" viewBox="0 0 223 39" fill="none" xmlns="http://www.w3.org/2000/svg">
<g opacity="0.8">
<path fill-rule="evenodd" clip-rule="evenodd" d="M27.3236 1.95998C25.3123 0.8801 23.1283 0.323963 20.8821 0L16.8326 0.00539939C14.8105 0.332062 12.8235 0.78831 10.9715 1.70081C5.12942 4.57058 1.61982 9.20865 0.269969 15.5475C0.196876 15.8793 0.138095 16.2136 0.0791734 16.5487C0.0532211 16.6963 0.0272416 16.8441 0 16.9919V21.3546C0.332062 23.5116 0.842304 25.6228 1.84119 27.5774C4.92694 33.6193 9.76749 37.2666 16.5356 38.2492C16.6363 38.2708 16.7348 38.3015 16.8299 38.341H21.036C23.3527 38.0147 25.5973 37.2981 27.6745 36.2218C29.1427 35.4354 30.5037 34.4637 31.7241 33.3304C32.4732 32.6469 32.5368 31.4894 31.8672 30.7279C31.2786 30.0233 30.2636 29.9531 29.4104 30.5632C29.2431 30.6901 29.0865 30.8224 28.9299 30.9601C22.8644 36.331 13.6499 35.9911 7.99649 30.188C7.60233 29.7749 7.56184 29.4806 7.8723 28.992C9.25415 26.8202 10.6109 24.6251 11.9703 22.4257C12.2788 21.9266 12.5874 21.4273 12.8964 20.928C13.6712 19.6781 14.4488 18.4389 15.2587 17.1484C15.3917 17.4079 15.4354 17.704 15.3828 17.9908V22.9771C15.3793 23.6791 15.499 24.3763 15.7365 25.0369C16.2009 26.3328 17.2834 27.0212 18.5712 26.8322C19.3541 26.7189 19.9507 26.2491 20.461 25.6795C21.2125 24.8408 21.7806 23.8783 22.3488 22.9159C22.5725 22.5369 22.7962 22.158 23.0311 21.7865C23.7482 20.6474 24.4525 19.4998 25.1564 18.3529C25.4251 17.9151 25.6937 17.4775 25.9629 17.0405C26.0901 18.335 26.1495 19.6353 26.1411 20.9361C26.2653 25.2259 30.0044 27.9148 33.7839 26.376C36.1921 25.4014 37.3556 23.4036 37.7498 20.9091C37.9619 19.3101 37.9053 17.6868 37.5824 16.1064C36.4647 9.73509 33.0199 5.01603 27.3236 1.95998ZM19.1867 21.1386L18.9923 21.0873H19.0031C19.0031 20.8815 19.0037 20.6755 19.0043 20.4696C19.0063 19.8003 19.0082 19.1313 18.9896 18.4686C18.981 17.9268 18.9876 17.3845 18.9943 16.8421C19.0084 15.6978 19.0225 14.5531 18.8925 13.4121C18.8589 13.0476 18.7957 12.6865 18.7035 12.3322C18.4551 11.4467 17.9314 10.7799 17.0027 10.5855C16.1104 10.3936 15.1887 10.7435 14.6485 11.4791C14.1123 12.1792 13.6192 12.9113 13.1718 13.6713C10.7583 17.539 8.33935 21.4086 5.91503 25.28C5.8643 25.3638 5.82177 25.4632 5.77901 25.5632C5.66475 25.8304 5.54875 26.1016 5.2698 26.0899C4.98461 26.0778 4.89963 25.7774 4.81923 25.4932C4.79156 25.3953 4.76443 25.2994 4.72986 25.2179C1.21756 16.8029 5.50197 7.19472 14.0654 4.34384C22.7908 1.44167 32.129 6.91935 33.8919 15.9687C34.2105 17.6047 34.4319 19.2569 34.0458 20.9092C33.811 21.9242 33.2683 22.7341 32.2154 23.0689C31.7836 23.2327 31.304 23.2157 30.8849 23.0216C30.4658 22.8276 30.1426 22.4729 29.9882 22.0376C29.7395 21.381 29.6204 20.6824 29.6372 19.9805V15.6178C29.6451 14.7818 29.4086 13.9617 28.9569 13.2582C28.286 12.1367 26.8707 11.7117 25.693 12.2782C24.9528 12.6073 24.3157 13.1307 23.8491 13.7928C22.9048 15.0688 22.0859 16.4264 21.2669 17.7844C20.7863 18.5811 20.3057 19.378 19.7995 20.1586C19.6689 20.3605 19.5415 20.5667 19.4139 20.773C19.3385 20.8951 19.263 21.0172 19.1867 21.1386Z" fill="#95C6B7"/>
<path fill-rule="evenodd" clip-rule="evenodd" d="M222.845 24.0863C222.895 23.9003 222.946 23.7144 223 23.5303L222.995 21.6459C222.972 21.5991 222.954 21.5503 222.941 21.5001C222.204 16.7189 217.212 14.7806 213.654 17.4074C213.354 17.6314 213.219 17.5397 213.084 17.2346C212.973 16.9219 212.74 16.6671 212.439 16.5275C212.138 16.3879 211.794 16.3751 211.483 16.4922C210.768 16.6973 210.479 17.2562 210.479 17.9824V32.1612C210.482 33.3005 211.235 34.051 212.234 34.051C213.233 34.051 213.972 33.2249 213.994 32.1612C214.015 31.0975 214.026 30.0311 213.994 28.9702C213.972 28.3249 214.018 28.0955 214.769 28.4302C217.719 29.7531 220.627 28.7137 222.19 25.879C222.512 25.3192 222.678 24.7021 222.845 24.0863ZM218.025 19.9179C219.058 20.5038 219.396 21.4649 219.396 23.0847C219.396 24.2968 218.397 25.5846 217.023 25.6953C215.279 25.8384 213.829 24.259 214.034 22.4233C214.15 21.4055 214.491 20.5038 215.436 19.9476C216.221 19.4404 217.228 19.4289 218.025 19.9179Z" fill="#95C6B7"/>
<path d="M114.475 19.7912C113.395 20.9601 112.28 22.1156 111.206 23.3008C110.209 24.3968 109.734 24.4184 108.752 23.3548C107.693 22.2128 106.622 21.0816 105.555 19.9478C105.492 19.8988 105.422 19.8589 105.347 19.829C105.118 20.0827 105.223 20.3689 105.223 20.6389C105.223 22.5854 105.223 24.5318 105.223 26.481C105.25 26.9226 105.167 27.3639 104.983 27.7661C104.624 28.4518 104.046 28.8459 103.29 28.7946C102.563 28.7535 101.942 28.2543 101.746 27.5528C101.633 27.1792 101.58 26.7901 101.589 26.4C101.589 21.7781 101.589 17.1563 101.589 12.5344V12.3778C101.589 11.9513 101.608 11.5139 102.097 11.3465C102.586 11.1792 102.907 11.4437 103.177 11.7677C104.918 13.7277 106.686 15.6687 108.393 17.653C109.967 19.478 109.926 19.4807 111.497 17.653C113.214 15.6714 114.966 13.7223 116.71 11.765C116.994 11.4464 117.334 11.1711 117.79 11.333C118.246 11.495 118.29 11.9405 118.29 12.367C118.29 17.1455 118.29 21.923 118.29 26.6997C118.29 27.5771 117.96 28.2682 117.131 28.6516C116.454 28.9674 115.852 28.7622 115.328 28.3168C114.804 27.8713 114.659 27.2369 114.661 26.5566C114.661 24.6101 114.661 22.6636 114.661 20.7145V19.8668L114.475 19.7912Z" fill="#95C6B7"/>
<path d="M182.348 20.1233C182.348 22.8932 183.911 25.1015 186.298 25.5821C187.934 25.9141 189.505 25.6927 190.887 24.648C191.13 24.4504 191.386 24.2699 191.654 24.108C192.366 23.64 193.321 23.8203 193.814 24.5157C194.256 25.1953 194.142 26.0955 193.544 26.643C190.96 29.1483 186.608 29.6559 183.414 27.9011C180.221 26.1463 178.425 22.472 178.801 19.2621C179.284 15.1288 181.835 12.1916 185.685 11.2629C188.038 10.6744 190.531 11.1332 192.52 12.5209C193.131 12.9286 193.549 13.5036 193.411 14.2919C193.315 14.9835 192.802 15.5435 192.121 15.6985C191.581 15.8497 191.168 15.6391 190.733 15.3745C189.3 14.5052 187.764 14.1489 186.119 14.6321C183.746 15.334 182.343 17.3939 182.348 20.1233Z" fill="#95C6B7"/>
<path d="M50.2574 20.2477C50.4032 16.5356 51.9043 13.7846 55.0251 12.1108C57.9948 10.518 61.0103 10.6476 63.899 12.4483C64.5469 12.8533 65.0275 13.4094 64.9384 14.2301C64.8868 14.8084 64.5345 15.3168 64.0112 15.5682C63.4879 15.8196 62.8708 15.7769 62.3872 15.4558C61.1291 14.7025 59.809 14.2706 58.3187 14.5082C56.5503 14.7288 55.0415 15.8932 54.3799 17.548C53.246 20.1316 53.9803 23.2444 56.0699 24.794C57.6114 25.9387 60.2517 26.0359 61.8877 24.9992C62.3035 24.7292 62.6976 24.416 63.1053 24.1596C63.9152 23.6655 64.798 23.8248 65.319 24.5321C65.8401 25.2394 65.6997 26.1249 64.9438 26.7432C62.1631 29.0163 59.0719 29.7128 55.7216 28.2604C52.1742 26.727 50.5085 23.8437 50.2574 20.2477Z" fill="#95C6B7"/>
<path fill-rule="evenodd" clip-rule="evenodd" d="M129.965 17.5951C129.928 17.6956 129.888 17.8025 129.842 17.9178C126.98 15.2991 123.492 16.0253 121.524 18.4631C119.885 20.5122 119.737 23.8382 121.13 26.1653C122.129 27.8364 123.565 28.8758 125.522 28.9784C127.114 29.0767 128.677 28.5153 129.842 27.4261C129.882 27.5231 129.917 27.6106 129.949 27.6922C129.987 27.79 130.022 27.8792 130.06 27.966C130.263 28.496 130.784 28.8344 131.351 28.8029C131.944 28.7863 132.457 28.3842 132.614 27.8121C132.715 27.49 132.763 27.1534 132.755 26.8159C132.766 24.0137 132.766 21.2114 132.755 18.4091C132.762 18.0724 132.718 17.7366 132.625 17.4129C132.465 16.8772 131.992 16.4956 131.434 16.453C130.877 16.4105 130.351 16.716 130.112 17.2212C130.061 17.3373 130.015 17.4604 129.965 17.5951ZM129.134 22.1699C129.147 22.3245 129.147 22.4797 129.134 22.6343C129.116 23.6413 128.797 24.5268 128.022 25.1774C127.503 25.6027 126.834 25.7979 126.168 25.7179C125.502 25.6379 124.897 25.2896 124.494 24.7535C123.554 23.5738 123.557 21.6219 124.494 20.4691C125.163 19.6664 126.266 19.3741 127.245 19.7402C128.379 20.1263 128.959 21.001 129.134 22.1699Z" fill="#95C6B7"/>
<path fill-rule="evenodd" clip-rule="evenodd" d="M204.699 17.7289C204.683 17.7916 204.666 17.8609 204.645 17.9393C204.52 17.843 204.411 17.7579 204.313 17.6802C204.179 17.5751 204.062 17.4836 203.946 17.3967C202.168 15.9665 199.664 15.8657 197.777 17.1483C195.369 18.7141 194.337 21.8673 195.315 24.7857C196.084 27.1128 197.599 28.6976 200.134 28.9459C201.81 29.1424 203.483 28.5559 204.669 27.3558C204.961 28.4114 205.528 28.9216 206.251 28.8136C207.029 28.7003 207.469 28.0577 207.469 27.0049V20.6201C207.469 20.3765 207.47 20.1327 207.471 19.8889C207.474 19.1976 207.477 18.5056 207.455 17.8151C207.484 17.1308 206.978 16.5412 206.297 16.4653C205.617 16.3681 205.058 16.7136 204.788 17.4209C204.752 17.5116 204.728 17.6081 204.699 17.7289ZM203.568 21.0872C204.626 23.1551 203.287 25.7063 201.049 25.7063C200.524 25.7268 200.015 25.526 199.645 25.1529C198.392 24.0811 198.16 21.8431 199.17 20.5472C200.341 19.0516 202.666 19.3324 203.568 21.0872Z" fill="#95C6B7"/>
<path d="M148.521 23.7138C148.521 24.6722 148.521 25.5523 148.521 26.4324C148.539 26.8974 148.446 27.3599 148.251 27.7823C147.963 28.416 147.323 28.8155 146.627 28.796C145.931 28.7766 145.315 28.342 145.063 27.6932C144.924 27.3281 144.86 26.9387 144.876 26.5485C144.876 22.1858 144.876 17.8231 144.876 13.4604C144.855 13.0701 144.924 12.68 145.079 12.3211C145.358 11.6512 146.034 11.2348 146.758 11.2871C147.516 11.2909 148.173 11.8112 148.351 12.5479C148.45 12.9772 148.5 13.4166 148.499 13.8572C148.499 16.0386 148.499 18.2199 148.499 20.4013C148.454 20.6849 148.48 20.9752 148.575 21.2463C148.869 21.2652 148.953 21.006 149.099 20.8467C150.23 19.5968 151.334 18.3198 152.492 17.0942C153.302 16.2303 154.236 16.2033 154.952 16.9295C155.667 17.6557 155.675 18.5655 154.895 19.4159C154.355 20.0071 153.815 20.6011 153.262 21.1923C153.059 21.4288 152.842 21.6532 152.614 21.8645C152.233 22.1939 152.271 22.472 152.589 22.8445C153.451 23.8488 154.282 24.8801 155.103 25.9195C155.759 26.751 155.683 27.6932 154.952 28.3492C154.22 29.0052 153.299 28.9863 152.543 28.1521C151.393 26.8833 150.297 25.5631 149.18 24.2673C149.031 24.0123 148.798 23.8167 148.521 23.7138Z" fill="#95C6B7"/>
<path fill-rule="evenodd" clip-rule="evenodd" d="M160.321 23.7302H163.291C163.611 23.7293 163.931 23.7293 164.25 23.7293C164.888 23.7293 165.522 23.7293 166.144 23.7221C167.308 23.714 167.905 23.0768 167.829 21.9079C167.802 21.5719 167.753 21.2382 167.681 20.909C167.254 18.7708 166.101 17.2212 163.985 16.5895C161.73 15.9146 159.568 16.0819 157.775 17.834C155.783 19.7778 155.351 23.8301 156.884 26.2301C158.418 28.6301 160.791 29.1188 163.41 28.9298C164.456 28.8979 165.466 28.535 166.293 27.8931C166.957 27.3478 167.097 26.5918 166.709 25.952C166.328 25.2929 165.5 25.0445 164.819 25.3851C164.102 25.6899 163.339 25.8724 162.562 25.925C161.406 26.0843 160.175 25.4472 159.8 24.5752C159.511 23.9083 159.608 23.7302 160.321 23.7302ZM159.905 20.577C160.453 19.8562 161.255 19.6618 162.027 19.6618C162.97 19.6672 163.696 19.9399 164.174 20.685C164.417 21.0683 164.352 21.3383 163.839 21.3383H160.189C159.471 21.3329 159.66 20.901 159.905 20.577Z" fill="#95C6B7"/>
<path fill-rule="evenodd" clip-rule="evenodd" d="M79.0416 22.5831C79.0605 19.1518 76.2582 16.2766 72.8728 16.255C69.4604 16.2334 66.5232 19.114 66.507 22.4994C66.4854 25.9766 69.3902 28.9652 72.8323 29.0056C76.1098 29.0434 79.0227 26.0144 79.0416 22.5831ZM72.5111 19.6754C74.301 19.562 75.4159 20.6797 75.4159 22.6127C75.4213 24.3324 74.4819 25.5715 73.0726 25.7038C71.2962 25.8604 69.8573 24.2649 70.0814 22.3751C70.2757 20.7553 71.1855 19.7591 72.5111 19.6754Z" fill="#95C6B7"/>
<path d="M90.383 17.5724C92.127 16.1604 94.0329 15.8769 96.0523 16.6815C98.1959 17.54 98.8465 19.427 98.9653 21.5166C99.0625 23.2741 99.0085 25.0451 98.9815 26.808C98.9653 27.9716 98.1176 28.8598 97.1376 28.8301C96.1576 28.8004 95.3936 27.95 95.372 26.8053C95.3423 25.0937 95.372 23.3821 95.3504 21.6759C95.3288 20.2477 94.7969 19.7213 93.3121 19.5701C92.2511 19.4648 91.4385 20.1101 91.2037 21.3141C90.9121 22.8044 91.1281 24.3135 91.0714 25.8145C91.0525 26.2546 91.0903 26.7 91.0498 27.1374C90.9662 28.0835 90.1851 28.8157 89.2356 28.8382C88.2796 28.7944 87.5324 27.997 87.551 27.0402C87.5321 24.057 87.551 21.0739 87.5375 18.0907C87.5375 17.3483 87.7562 16.7408 88.5175 16.506C89.2329 16.2792 89.7701 16.5897 90.2534 17.4401C90.2925 17.488 90.3358 17.5323 90.383 17.5724Z" fill="#95C6B7"/>
<path d="M170.793 22.2347C170.793 21.7217 170.793 21.4248 170.793 21.0981C170.793 20.6608 170.855 20.1856 170.712 19.7915C170.531 19.3028 169.97 19.6079 169.595 19.4783C168.921 19.23 168.463 18.6004 168.434 17.8828C168.453 17.1539 168.974 16.4006 169.719 16.3385C170.723 16.2549 170.869 15.7365 170.799 14.8969C170.731 14.2248 170.753 13.5467 170.864 12.8802C171.066 11.8571 171.725 11.2604 172.659 11.2901C173.613 11.3326 174.37 12.1088 174.389 13.0638C174.431 13.8408 174.431 14.6194 174.389 15.3964C174.362 16.0065 174.597 16.2333 175.199 16.2063C175.858 16.1847 176.509 16.2846 176.946 16.865C177.327 17.3725 177.486 17.9287 177.186 18.5388C176.938 19.1291 176.363 19.5154 175.723 19.5215C174.395 19.5863 174.395 19.5944 174.397 20.9523C174.397 22.0943 174.379 23.2363 174.416 24.3755C174.451 25.4284 174.649 25.6039 175.693 25.7254C176.876 25.8496 177.556 26.4921 177.508 27.4451C177.459 28.3981 176.754 29.0055 175.572 29.0163C175.183 29.0298 174.794 29.0217 174.406 28.992C172.246 28.7634 171.076 27.4802 170.896 25.1422C170.794 24.1766 170.76 23.2051 170.793 22.2347Z" fill="#95C6B7"/>
<path d="M138.529 17.602C139.48 16.8731 140.468 16.3521 141.656 16.2522C142.77 16.1712 143.642 16.7921 143.718 17.7721C143.794 18.7521 143.116 19.4486 141.979 19.5215C140.02 19.6457 139.339 20.3503 139.323 22.286C139.323 23.5846 139.323 24.8831 139.323 26.179C139.323 26.5676 139.286 26.9554 139.212 27.3371C139.057 28.1569 138.366 28.7672 137.533 28.8193C136.728 28.79 136.033 28.2448 135.813 27.4694C135.702 27.0149 135.666 26.5453 135.705 26.0791C135.705 23.4307 135.705 20.785 135.705 18.1366C135.705 16.9163 136.515 16.1847 137.493 16.4655C138.033 16.6436 138.292 17.0864 138.529 17.602Z" fill="#95C6B7"/>
<path d="M84.5084 22.6101C84.5084 24.0113 84.5084 25.4124 84.5084 26.8135C84.4949 27.996 83.712 28.8464 82.6834 28.8329C81.6549 28.8194 80.9907 27.9933 80.988 26.8027C80.988 24.0257 80.988 21.2486 80.988 18.4715C80.988 17.2161 81.6846 16.4224 82.7401 16.4332C83.7957 16.444 84.5003 17.2863 84.5084 18.4823C84.5165 19.8591 84.5084 21.2333 84.5084 22.6101Z" fill="#95C6B7"/>
<path d="M82.7483 11.0308C83.8948 11.0513 84.8147 11.9844 84.819 13.1311C84.7876 14.2413 83.8827 15.1274 82.7721 15.1354C81.6614 15.1434 80.7439 14.2705 80.6965 13.1608C80.6972 12.0149 81.6032 11.0743 82.7483 11.0308V11.0308Z" fill="#95C6B7"/>
</g>
</svg>
