<svg width="254" height="37" viewBox="0 0 254 37" fill="none" xmlns="http://www.w3.org/2000/svg">
<g opacity="0.8">
<path d="M15.1927 0.396484V1.35224C15.1927 6.0609 15.1927 10.768 15.2039 15.475C15.2039 16.0071 15.1147 16.2221 14.5126 16.2014C13.1347 16.1504 11.752 16.168 10.371 16.2014C9.91698 16.211 9.80389 16.0724 9.80707 15.6248C9.82459 11.8464 9.81663 8.06638 9.80707 4.28639C9.80707 4.0363 9.80707 3.81807 10.0667 3.64922C11.6995 2.59471 13.3195 1.52108 14.9474 0.463387C15.0255 0.429211 15.1081 0.40667 15.1927 0.396484V0.396484Z" fill="#95C6B7"/>
<path d="M9.8183 36.3966V35.511C9.8183 30.7816 9.83264 26.0506 9.80078 21.3213C9.80078 20.6841 9.98397 20.5742 10.5622 20.5933C11.9194 20.6379 13.2781 20.6236 14.6353 20.5933C15.0845 20.5837 15.2056 20.7144 15.204 21.1652C15.1848 24.9451 15.1944 28.7251 15.196 32.5035C15.196 32.7536 15.2056 32.9735 14.9395 33.1407C13.3068 34.1952 11.6868 35.2688 10.0604 36.3265C9.98317 36.3605 9.90175 36.3841 9.8183 36.3966Z" fill="#95C6B7"/>
<path d="M0.0122384 26.6462V26.1349C0.0122384 22.1096 0.0122384 18.0843 0.00427385 14.059C-0.0295822 13.7253 0.139915 13.4039 0.434362 13.2434C1.93648 12.2876 3.41471 11.2825 4.90728 10.306C5.02515 10.2296 5.13347 10.0767 5.38515 10.1579V10.7951C5.38515 14.7763 5.38515 18.7586 5.38515 22.7419C5.38515 23 5.43612 23.2517 5.13347 23.446C3.48002 24.5053 1.8425 25.5885 0.195424 26.6605C0.166751 26.6701 0.112592 26.651 0.0122384 26.6462Z" fill="#95C6B7"/>
<path d="M24.9987 10.0098V12.3004C24.9987 15.7602 24.9892 19.22 25.0115 22.6798C25.0456 23.0583 24.8481 23.4199 24.5113 23.5958C22.9184 24.6152 21.343 25.6666 19.7596 26.7131C19.5302 26.5044 19.6338 26.2607 19.6322 26.0584C19.6226 22.0549 19.6226 18.0519 19.6322 14.0494C19.6322 13.7866 19.5971 13.5413 19.895 13.3501C21.5596 12.2781 23.2131 11.1822 24.9987 10.0098Z" fill="#95C6B7"/>
<path d="M34.875 25.3965H38.2617V18.7402H45.2344V25.3965H48.6328V8.3457H45.2344V15.7285H38.2617V8.3457H34.875V25.3965ZM55.2627 12.0254C55.7901 12.0254 56.2471 11.8379 56.6338 11.4629C57.0206 11.0879 57.2081 10.6309 57.2081 10.1035C57.2081 9.57617 57.0206 9.13086 56.6338 8.75586C56.2471 8.38086 55.7901 8.19336 55.2627 8.19336C54.7237 8.19336 54.2666 8.38086 53.8916 8.75586C53.5166 9.13086 53.3291 9.57617 53.3291 10.1035C53.3291 10.4551 53.4112 10.7832 53.587 11.0762C53.7627 11.3691 53.9971 11.6035 54.3018 11.7793C54.6065 11.9551 54.9346 12.0371 55.2862 12.0371L55.2627 12.0254ZM53.7159 25.4082H56.8565V13.6895H53.7159V25.4082ZM61.963 25.3965H65.1036V7.72461H61.963V25.3965ZM70.2335 25.3965H73.3742V7.72461H70.2335V25.3965ZM82.1486 25.5957C83.6252 25.5957 84.7502 25.2559 85.5236 24.5879C86.2971 23.9199 86.6838 23.041 86.6838 21.9512C86.6838 21.6582 86.6603 21.4004 86.6135 21.166C86.4611 20.3809 86.0041 19.7598 85.2424 19.291C84.8088 19.0098 83.9416 18.6348 82.6408 18.1543C82.0197 17.9199 81.5744 17.709 81.2931 17.5215C81.0119 17.334 80.8713 17.123 80.8713 16.8887C80.8713 16.6074 80.9885 16.3965 81.2228 16.2441C81.4572 16.0918 81.7267 16.0215 82.0197 16.0215C82.4767 16.0215 82.9455 16.127 83.4377 16.3379C83.9299 16.5488 84.3869 16.8652 84.8205 17.2754L86.3439 14.9785C85.676 14.4629 84.9963 14.0879 84.3049 13.8535C83.6135 13.6191 82.8635 13.502 82.0431 13.502C81.2463 13.502 80.5314 13.6426 79.8986 13.9355C79.2658 14.2285 78.7619 14.6387 78.3869 15.1777C78.0119 15.7168 77.8244 16.3379 77.8244 17.0293C77.8244 17.3926 77.8713 17.7324 77.9533 18.0488C78.0353 18.3652 78.1642 18.6465 78.3283 18.8926C78.4924 19.1387 78.6799 19.3613 78.8908 19.5605C79.1017 19.7598 79.3478 19.9355 79.6408 20.0996C79.9338 20.2637 80.215 20.4043 80.4963 20.5215C80.7775 20.6387 81.0939 20.7559 81.4455 20.873C81.9963 21.0488 82.4064 21.2012 82.6877 21.3184C82.9689 21.4355 83.1799 21.5645 83.3322 21.7051C83.4846 21.8457 83.5666 22.0098 83.5666 22.1855C83.5666 22.4785 83.4377 22.7129 83.1799 22.8887C82.9221 23.0645 82.5705 23.1582 82.1252 23.1582C80.9416 23.1582 79.8635 22.7012 78.8908 21.7871L77.3674 23.9551C78.6681 25.1035 80.2502 25.6777 82.1135 25.6777L82.1486 25.5957ZM94.427 25.5957C95.1418 25.5957 95.7278 25.5371 96.1848 25.4082C96.6418 25.2793 97.0871 25.0918 97.5324 24.8457L96.7239 22.3379C96.1965 22.6074 95.7043 22.748 95.2473 22.748C94.884 22.748 94.6145 22.6309 94.4504 22.3848C94.2864 22.1387 94.2043 21.7637 94.2043 21.248V16.2676H97.3918V13.666H94.2043V9.49414L91.0637 9.83398V13.666H89.6809V16.2676H91.0637V21.6816C91.0637 22.959 91.3567 23.9316 91.9543 24.5879C92.552 25.2441 93.3723 25.5723 94.4153 25.5723L94.427 25.5957ZM106.401 25.5957C107.608 25.5957 108.686 25.3496 109.635 24.8457C110.584 24.3418 111.323 23.627 111.85 22.7012C112.377 21.7754 112.647 20.7207 112.647 19.5371C112.647 18.6465 112.494 17.8262 112.19 17.0762C111.885 16.3262 111.451 15.6816 110.901 15.1543C110.35 14.627 109.694 14.2168 108.92 13.9238C108.147 13.6309 107.315 13.4785 106.412 13.4785C105.498 13.4785 104.655 13.6309 103.869 13.9355C103.084 14.2402 102.428 14.6621 101.889 15.2012C101.35 15.7402 100.928 16.3848 100.623 17.1348C100.319 17.8848 100.166 18.6934 100.166 19.5605C100.166 20.252 100.26 20.9082 100.448 21.5293C100.635 22.1504 100.916 22.7129 101.28 23.2051C101.643 23.6973 102.076 24.1309 102.58 24.4941C103.084 24.8574 103.658 25.1387 104.303 25.3379C104.948 25.5371 105.639 25.6309 106.377 25.6309L106.401 25.5957ZM106.377 22.8184C105.487 22.8184 104.748 22.5137 104.174 21.8926C103.6 21.2715 103.307 20.5098 103.307 19.5957C103.307 18.6582 103.588 17.8848 104.151 17.2754C104.713 16.666 105.451 16.3613 106.354 16.3613C107.233 16.3613 107.959 16.666 108.533 17.2754C109.108 17.8848 109.401 18.6699 109.401 19.6191C109.401 20.5566 109.108 21.3301 108.522 21.9395C107.936 22.5488 107.209 22.8535 106.354 22.8535L106.377 22.8184ZM123.777 13.4785C123.05 13.4785 122.359 13.6309 121.702 13.9238C121.046 14.2168 120.484 14.6387 120.003 15.1895H119.968V13.6777H116.827V25.3965H119.968V19.502C119.968 18.4824 120.202 17.6973 120.683 17.1465C121.163 16.5957 121.808 16.3145 122.617 16.3145C123.378 16.3145 123.941 16.5371 124.304 16.9707C124.667 17.4043 124.855 18.166 124.855 19.2441V25.4199H127.995V18.459C127.995 17.5801 127.89 16.8184 127.691 16.1738C127.492 15.5293 127.199 15.0137 126.812 14.627C126.425 14.2402 125.98 13.959 125.476 13.7715C124.972 13.584 124.398 13.4902 123.753 13.4902L123.777 13.4785ZM143.625 19.4316C143.625 18.2949 143.391 17.2754 142.911 16.373C142.43 15.4707 141.75 14.7676 140.871 14.252C139.993 13.7363 138.985 13.4785 137.848 13.4785C137.028 13.4785 136.254 13.6309 135.539 13.9238C134.825 14.2168 134.203 14.627 133.688 15.1543C133.172 15.6816 132.762 16.3262 132.469 17.0762C132.176 17.8262 132.024 18.6465 132.024 19.5254C132.024 20.7207 132.282 21.7871 132.809 22.7129C133.336 23.6387 134.051 24.3535 134.965 24.8457C135.879 25.3379 136.911 25.584 138.047 25.584C139.172 25.584 140.168 25.3848 141.024 24.9863C141.879 24.5879 142.571 24.0488 143.098 23.3809L141.059 21.4824C140.321 22.373 139.383 22.8184 138.246 22.8066C137.496 22.7949 136.852 22.5957 136.325 22.1973C135.797 21.7988 135.434 21.248 135.246 20.5566H143.461C143.52 20.3574 143.543 19.9824 143.543 19.4316H143.625ZM137.895 16.2441C138.563 16.2441 139.114 16.4316 139.547 16.7949C139.981 17.1582 140.274 17.6621 140.438 18.3066H135.27C135.446 17.6387 135.762 17.1348 136.231 16.7832C136.7 16.4316 137.25 16.2559 137.895 16.2559V16.2441ZM156.065 25.3965H159.393V18.9395H166.049V15.9277H159.393V11.3691H167.373V8.3457H156.065V25.3965ZM173.007 12.0254C173.535 12.0254 173.992 11.8379 174.378 11.4629C174.765 11.0879 174.953 10.6309 174.953 10.1035C174.953 9.57617 174.765 9.13086 174.378 8.75586C173.992 8.38086 173.535 8.19336 173.007 8.19336C172.468 8.19336 172.011 8.38086 171.636 8.75586C171.261 9.13086 171.074 9.57617 171.074 10.1035C171.074 10.4551 171.156 10.7832 171.332 11.0762C171.507 11.3691 171.742 11.6035 172.046 11.7793C172.351 11.9551 172.679 12.0371 173.031 12.0371L173.007 12.0254ZM171.46 25.4082H174.601V13.6895H171.46V25.4082ZM186.504 13.4785C185.778 13.4785 185.086 13.6309 184.43 13.9238C183.774 14.2168 183.211 14.6387 182.731 15.1895H182.696V13.6777H179.555V25.3965H182.696V19.502C182.696 18.4824 182.93 17.6973 183.411 17.1465C183.891 16.5957 184.536 16.3145 185.344 16.3145C186.106 16.3145 186.668 16.5371 187.032 16.9707C187.395 17.4043 187.583 18.166 187.583 19.2441V25.4199H190.723V18.459C190.723 17.5801 190.618 16.8184 190.418 16.1738C190.219 15.5293 189.926 15.0137 189.54 14.627C189.153 14.2402 188.708 13.959 188.204 13.7715C187.7 13.584 187.126 13.4902 186.481 13.4902L186.504 13.4785ZM203.787 13.6777V15.002H203.74C202.861 13.9824 201.712 13.4785 200.283 13.4785C199.509 13.4785 198.783 13.6309 198.103 13.9355C197.423 14.2402 196.837 14.6621 196.345 15.1895C195.853 15.7168 195.466 16.3613 195.185 17.123C194.904 17.8848 194.763 18.7051 194.763 19.584C194.763 20.4746 194.904 21.2949 195.185 22.0449C195.466 22.7949 195.853 23.4277 196.345 23.9434C196.837 24.459 197.435 24.8691 198.127 25.1621C198.818 25.4551 199.568 25.5957 200.377 25.5957C201.877 25.5957 203.048 25.0566 203.88 23.9785H203.939V25.3965H206.927V13.6777H203.787ZM200.951 22.7832C200.072 22.7832 199.345 22.4902 198.783 21.8926C198.22 21.2949 197.939 20.5215 197.939 19.5723C197.939 18.5879 198.22 17.791 198.795 17.1934C199.369 16.5957 200.084 16.291 200.939 16.291C201.795 16.291 202.498 16.6074 203.06 17.2285C203.623 17.8496 203.904 18.6348 203.904 19.5723C203.904 20.5215 203.623 21.2949 203.048 21.8926C202.474 22.4902 201.771 22.7832 200.939 22.7832H200.951ZM218.608 13.4785C217.881 13.4785 217.19 13.6309 216.534 13.9238C215.878 14.2168 215.315 14.6387 214.835 15.1895H214.799V13.6777H211.659V25.3965H214.799V19.502C214.799 18.4824 215.034 17.6973 215.514 17.1465C215.995 16.5957 216.639 16.3145 217.448 16.3145C218.21 16.3145 218.772 16.5371 219.135 16.9707C219.499 17.4043 219.686 18.166 219.686 19.2441V25.4199H222.827V18.459C222.827 17.5801 222.721 16.8184 222.522 16.1738C222.323 15.5293 222.03 15.0137 221.643 14.627C221.256 14.2402 220.811 13.959 220.307 13.7715C219.803 13.584 219.229 13.4902 218.585 13.4902L218.608 13.4785ZM232.914 25.5957C234.039 25.5957 235.047 25.3965 235.937 25.0098C236.828 24.623 237.543 24.1191 238.082 23.498L235.925 21.5996C235.621 21.9395 235.234 22.2207 234.765 22.4434C234.297 22.666 233.769 22.7832 233.195 22.7832C232.269 22.7832 231.507 22.4785 230.922 21.8809C230.336 21.2832 230.043 20.498 230.043 19.5371C230.043 19.0684 230.113 18.6348 230.265 18.2363C230.418 17.8379 230.629 17.498 230.898 17.2168C231.168 16.9355 231.496 16.7129 231.882 16.5488C232.269 16.3848 232.691 16.3027 233.148 16.3027C234.25 16.3027 235.164 16.7246 235.879 17.5566L238 15.7285C237.425 15.002 236.687 14.4512 235.797 14.0645C234.906 13.6777 233.98 13.4902 233.019 13.4902C231.824 13.4902 230.757 13.748 229.82 14.252C228.882 14.7559 228.156 15.4707 227.629 16.3965C227.101 17.3223 226.843 18.377 226.843 19.5605C226.843 20.7441 227.101 21.7988 227.617 22.7246C228.132 23.6504 228.847 24.3652 229.761 24.8691C230.675 25.373 231.707 25.6309 232.855 25.6309L232.914 25.5957ZM252.868 19.4316C252.868 18.2949 252.634 17.2754 252.153 16.373C251.673 15.4707 250.993 14.7676 250.114 14.252C249.235 13.7363 248.227 13.4785 247.091 13.4785C246.27 13.4785 245.497 13.6309 244.782 13.9238C244.067 14.2168 243.446 14.627 242.93 15.1543C242.415 15.6816 242.005 16.3262 241.712 17.0762C241.419 17.8262 241.266 18.6465 241.266 19.5254C241.266 20.7207 241.524 21.7871 242.051 22.7129C242.579 23.6387 243.294 24.3535 244.208 24.8457C245.122 25.3379 246.153 25.584 247.29 25.584C248.415 25.584 249.411 25.3848 250.266 24.9863C251.122 24.5879 251.813 24.0488 252.341 23.3809L250.301 21.4824C249.563 22.373 248.626 22.8184 247.489 22.8066C246.739 22.7949 246.094 22.5957 245.567 22.1973C245.04 21.7988 244.676 21.248 244.489 20.5566H252.704C252.762 20.3574 252.786 19.9824 252.786 19.4316H252.868ZM247.137 16.2441C247.805 16.2441 248.356 16.4316 248.79 16.7949C249.223 17.1582 249.516 17.6621 249.68 18.3066H244.512C244.688 17.6387 245.005 17.1348 245.473 16.7832C245.942 16.4316 246.493 16.2559 247.137 16.2559V16.2441Z" fill="#95C6B7"/>
</g>
</svg>
