<svg width="95" height="65" viewBox="0 0 95 65" fill="none" xmlns="http://www.w3.org/2000/svg">
<g opacity="0.8">
<path d="M95 43.9364C94.4311 44.8004 93.9289 45.717 93.2827 46.5177C90.9016 49.4747 87.6953 50.307 84.229 48.8917C81.5846 47.8101 79.4985 45.9488 77.6618 43.8451C72.9418 38.4439 68.3869 32.9091 65.0577 26.4929C64.9672 26.3418 64.8675 26.1964 64.7591 26.0574C63.6108 27.2339 62.5958 28.4561 61.5984 29.6958C59.035 32.9476 56.6819 36.3599 54.5536 39.9118C51.9595 44.1255 49.6516 48.5089 47.6457 53.0322C47.2945 53.8435 46.3955 54.437 45.7669 55.1394C44.8785 56.1203 44.3005 57.3423 44.1057 58.6513C43.7546 60.797 42.4622 61.7628 40.4709 62.0297C40.0175 62.0355 39.6359 62.3709 39.5719 62.8199C39.4806 63.2132 39.3296 63.589 39.2207 63.9788C39.147 64.2773 39.0381 64.5934 38.6834 64.4388C38.3287 64.2843 38.6412 64.042 38.701 63.8278C39.7168 59.9771 40.9479 56.1866 42.3884 52.4738C46.5781 41.7974 52.5579 31.9137 60.0708 23.2479C66.9866 15.1305 75.1154 8.13068 84.1693 2.4962C85.2229 1.8465 86.3186 1.25651 87.4213 0.698116C87.9612 0.427046 88.5336 0.2264 89.1246 0.101095C89.525 0.00978635 90.1185 -0.16932 90.2765 0.392582C90.4064 0.838591 89.8832 1.04579 89.546 1.24597C88.7488 1.71656 87.92 2.13448 87.1298 2.61561C86.3397 3.09673 85.7005 3.61649 85.3423 4.66655C85.0824 5.43565 84.4608 6.24689 84.0043 7.04058L83.7163 7.1951C83.5864 7.311 83.2773 7.38475 83.4564 7.60248C83.6355 7.82022 83.7795 7.56736 83.9059 7.43742L84.208 7.29344C84.6575 7.04409 84.949 7.14243 84.819 7.68677C84.7607 8.22303 84.4885 8.71307 84.064 9.04587C80.2312 11.7691 76.5587 14.7111 73.0648 17.8572C72.113 18.7036 71.214 19.6131 70.2552 20.449C69.7952 20.8423 69.7285 21.1268 70.1007 21.636C73.9638 26.9389 77.5178 32.4877 81.6724 37.5905C82.459 38.5562 83.4002 39.3991 84.1799 40.3719C84.5767 40.8706 85.7813 41.0743 85.0192 42.177C84.9384 42.2929 85.4371 42.8091 85.6689 43.1357C85.992 43.5817 86.2413 44.105 85.8972 44.5791C85.5109 45.1094 85.1246 44.4738 84.7347 44.4106C84.3908 44.303 84.0634 44.1481 83.762 43.9505C83.5196 43.6274 83.1298 43.4975 82.9542 43.8522C82.8102 44.1366 83.33 44.1015 83.5161 44.2595C83.6601 44.7617 84.1447 44.9619 84.4468 45.3377C84.5978 45.5238 84.9595 45.6643 84.5872 45.9769C83.7374 46.6792 84.5205 46.8478 84.9771 47.0515C85.4336 47.2552 85.9674 47.3746 86.4626 47.5361C86.8349 47.6555 87.5864 47.3921 87.1404 48.3123C86.9929 48.6108 87.46 48.53 87.6356 48.5405C89.4477 48.6318 90.8981 47.8382 92.1273 46.5985C92.9343 45.755 93.5838 44.7737 94.0448 43.7012C94.2379 43.2657 94.4732 42.9391 95 42.9531V43.9364Z" fill="#95C6B7"/>
<path d="M46.7291 8.43115C46.8485 7.2336 46.5184 6.75598 45.3946 7.12473C44.917 7.27925 44.2813 7.33193 43.9407 6.83324C43.5544 6.26783 44.0847 5.8464 44.3832 5.45658C47.0276 1.99386 52.1304 0.740121 56.0216 3.31433C57.2315 4.12249 58.3125 5.10875 59.2279 6.23973C61.2603 8.80017 63.0686 11.5308 64.6327 14.4014C64.9839 15.0405 64.9523 15.4549 64.4396 15.9782C62.7293 17.7341 61.2789 19.7254 59.3824 21.3233C59.2104 21.4708 59.0629 21.7868 58.7995 21.6499C58.5361 21.5129 58.6871 21.1898 58.7327 20.9229C59.0629 19.0089 58.9645 17.1722 57.8758 15.4655C56.3587 13.0844 54.8486 10.6752 52.7274 8.79287C50.5255 6.82973 49.4859 6.09575 46.7291 8.43115Z" fill="#95C6B7"/>
<path d="M0.196673 26.3948C0.196673 22.7178 0.0597092 19.2867 0.235303 15.8591C0.403874 12.5018 3.74719 10.1628 7.50139 10.5211C10.6902 10.8266 13.3311 13.9451 13.0572 17.0567C13.0674 17.3786 12.9141 17.6839 12.6498 17.8679C8.56549 20.6634 4.4882 23.4588 0.196673 26.3948Z" fill="#95C6B7"/>
<path d="M3.98598 29.2918C3.98598 30.3454 4.0211 31.276 3.98598 32.1997C3.95086 32.902 4.22128 33.1128 4.89556 33.0917C6.18442 33.0495 7.47679 33.0917 8.75863 33.0706C10.6667 33.0611 12.3741 31.8834 13.0607 30.1031C13.7631 28.3225 13.3697 26.24 11.8877 25.0214C11.0203 24.2979 11.3434 24.024 12.0352 23.6166C12.3478 23.434 12.6428 23.2198 12.9413 23.0161C14.5287 21.9414 14.6656 21.9625 15.7051 23.5675C17.5664 26.4648 17.9001 29.5096 16.246 32.5789C14.5919 35.6483 11.8842 37.1023 8.40744 37.1198C6.06853 37.1198 3.7261 37.0812 1.38367 37.1374C0.477607 37.1584 -0.0210809 36.9723 0.158025 35.9609C0.219533 35.6431 0.219533 35.3164 0.158025 34.9986C-0.593518 31.8239 1.44338 30.4824 3.98598 29.2918Z" fill="#95C6B7"/>
<path d="M26.578 30.9074C25.5665 30.9074 24.5551 30.932 23.5472 30.9074C21.045 30.8385 19.0649 28.7675 19.1082 26.2647C19.1082 23.6905 21.0151 21.6817 23.5437 21.6466C25.6508 21.615 27.758 21.6782 29.844 21.622C30.715 21.5974 30.9292 21.8959 30.9222 22.7212C30.8976 24.7932 30.9222 24.7932 28.8993 24.7932C27.2838 24.7932 25.6684 24.7932 24.0529 24.7932C23.0555 24.7932 22.4023 25.2147 22.297 26.2191C22.1951 27.0935 22.9467 27.7432 24.0705 27.7573C26.0055 27.7854 27.9335 27.7994 29.8826 27.7573C30.6588 27.7362 30.9573 27.9364 30.9362 28.7546C30.8589 31.4342 31.2417 30.8618 28.7764 30.925C28.0494 30.925 27.3225 30.925 26.5955 30.925L26.578 30.9074Z" fill="#95C6B7"/>
<path d="M40.8608 21.6147C41.9916 21.6147 43.1224 21.6358 44.2533 21.6147C44.8187 21.6147 45.0083 21.7903 45.047 22.3733C45.1945 24.7965 45.2155 24.793 42.7712 24.793H38.1637C37.1628 24.793 36.5131 25.2285 36.5025 26.282C36.492 27.3356 37.2049 27.743 38.1672 27.7465C40.0671 27.7465 41.967 27.7886 43.8634 27.7289C44.7203 27.7044 45.0821 27.8729 45.0575 28.8387C45.0048 30.9248 45.0575 30.9248 42.9258 30.9248C41.3103 30.9248 39.6913 30.9248 38.0759 30.9248C35.3401 30.8967 33.1943 28.8352 33.2049 26.261C33.2049 23.6165 35.2804 21.6534 38.0723 21.6393C39.003 21.6393 39.9301 21.6393 40.8608 21.6393V21.6147Z" fill="#95C6B7"/>
<path d="M40.7519 37.1372C39.5368 37.0459 38.0794 37.3093 36.6466 36.9441C34.5956 36.4173 33.0117 34.1943 33.2084 32.1398C33.2716 31.4761 33.4578 31.1495 34.1812 31.5147C35.1364 31.9993 36.3867 31.9818 36.8221 33.3128C37.0013 33.8606 37.658 33.8501 38.1953 33.8466C40.1303 33.8466 42.0584 33.8712 43.9969 33.829C44.7485 33.829 45.0505 33.9836 45.0505 34.8264C45.0505 37.1372 45.0891 37.1372 42.7888 37.1372H40.7519Z" fill="#95C6B7"/>
<path d="M26.7184 37.1269C25.707 37.1269 24.6991 37.1515 23.6911 37.1269C22.4042 37.1061 21.1826 36.5564 20.3136 35.6069C19.4445 34.6575 19.0047 33.3921 19.0976 32.1084C19.1362 31.4552 19.2872 31.1883 19.9545 31.5219C20.9168 31.996 22.1529 31.982 22.62 33.2779C22.8307 33.8608 23.5191 33.8573 24.1055 33.8538C26.0827 33.8538 28.0634 33.8538 30.0406 33.8362C30.585 33.8362 30.7816 33.924 30.7781 34.5597C30.7781 37.1234 30.8062 37.1234 28.2917 37.1199L26.7184 37.1269Z" fill="#95C6B7"/>
</g>
</svg>
