<svg width="161" height="34" viewBox="0 0 161 34" fill="none" xmlns="http://www.w3.org/2000/svg">
<g opacity="0.8">
<path d="M0 15.6927C0.23516 14.365 0.401856 13.0136 0.893013 11.7485C3.36368 5.17297 8.10856 1.33003 15.083 0.58288C20.4113 0.00539857 25.0044 1.86287 28.7253 5.75938C29.0229 6.05705 29.0229 6.24756 28.6836 6.48867C28.1716 6.8429 27.6596 7.20011 27.1952 7.59899C26.8112 7.92345 26.5463 7.89666 26.1861 7.54243C24.1692 5.43572 21.4933 4.08097 18.6015 3.70247C14.6305 3.17262 11.0317 4.09838 7.95377 6.67918C4.50079 9.58445 2.93801 13.353 3.11066 17.8448C3.12852 18.2616 3.05708 18.848 3.3488 19.0355C3.64052 19.223 4.01856 18.7378 4.34004 18.5146C6.62616 16.9786 8.9083 15.4327 11.1865 13.8769C11.5302 13.5867 12.0216 13.5506 12.404 13.7876C14.3537 14.8086 16.4136 15.5915 18.402 16.5261C18.8128 16.7196 19.0629 16.544 19.3605 16.3267C22.7986 13.8025 26.2457 11.2931 29.6778 8.76586C30.0463 8.48114 30.5011 8.33095 30.9667 8.34019C33.2796 8.35507 35.5925 8.34019 37.9054 8.34019C38.1168 8.34019 38.3311 8.36102 38.6466 8.37888C38.2616 8.81631 37.8166 9.19713 37.325 9.51004C32.1276 13.4214 26.9243 17.3269 21.7151 21.2264C21.2359 21.5865 20.7536 21.9467 20.3131 22.3516C20.0015 22.6792 19.5002 22.7368 19.1224 22.4885C17.131 21.5092 15.1098 20.5804 13.1154 19.607C12.7417 19.3715 12.2577 19.409 11.9247 19.6993C9.94023 21.1639 7.9369 22.6006 5.91472 24.0096C5.40571 24.3608 5.44143 24.6049 5.77482 25.0544C8.11849 28.1868 11.7016 30.1533 15.6026 30.4483C19.5035 30.7432 23.3416 29.3377 26.1296 26.5934C28.3578 24.4502 29.7515 21.5847 30.0618 18.5086C30.0758 18.1733 30.2411 17.8624 30.5113 17.6632C31.2644 17.1096 31.9996 16.544 32.7498 15.9844C32.8688 15.8981 32.9909 15.7492 33.1606 15.8415C33.3302 15.9338 33.2677 16.1183 33.2707 16.2642C33.4731 25.2568 27.1327 32.1033 19.17 33.3713C18.9765 33.4011 18.786 33.4577 18.5925 33.5023H14.7228C14.5948 33.4666 14.4728 33.416 14.3418 33.3922C7.59458 32.2015 3.08685 28.3923 0.818595 21.9646C0.404833 20.7739 0.273857 19.5564 0.0476274 18.3419L0 15.6927Z" fill="#95C6B7"/>
<path d="M78.1178 27.6771H68.6489C67.7797 27.6771 67.7559 27.6563 67.7559 26.7841C67.7559 25.1142 67.5684 25.2779 69.2442 25.2749C71.5571 25.2749 73.8671 25.2749 76.18 25.2749C76.7753 25.2749 77.0075 25.0993 77.0075 24.4801C77.0075 23.861 76.7872 23.6764 76.183 23.6883C74.5636 23.7181 72.9383 23.6883 71.316 23.7062C70.7624 23.7062 70.5867 23.5008 70.5778 22.9679C70.554 21.4201 70.5391 21.423 72.0662 21.4201C73.4652 21.4201 74.8672 21.4052 76.2663 21.4201C76.817 21.4201 77.0075 21.2117 77.0075 20.6729C77.0075 20.1341 76.8229 19.9168 76.2693 19.9257C74.7789 19.9456 73.2906 19.9456 71.8042 19.9257C71.374 19.8829 70.9657 20.1238 70.7951 20.5211C70.2889 21.5076 69.7004 22.4496 69.0359 23.3371C68.7114 23.7776 68.4792 23.7597 68.1875 23.3519C67.8273 22.8459 67.1784 22.4827 67.0683 21.8933C66.9581 21.304 67.6636 20.914 67.9613 20.405C68.7747 19.1345 69.4427 17.7765 69.9527 16.3567C70.1402 15.803 70.423 15.669 70.938 15.8328C71.1702 15.9072 71.4143 15.9518 71.6494 16.0084C72.4889 16.2108 72.5067 16.2138 72.2983 17.0443C72.2031 17.4253 72.3579 17.5325 72.6913 17.5354C73.9355 17.5354 75.1798 17.5354 76.4241 17.5354C76.9271 17.5354 76.9896 17.2378 77.0015 16.8448C77.0254 15.9786 77.0551 15.9518 77.9243 15.9518H78.5197C79.624 15.9518 79.6419 15.9518 79.7729 17.0502C79.8294 17.5295 80.139 17.5325 80.4873 17.5325H86.3544C87.3903 17.5325 87.3903 17.5325 87.3932 18.5594C87.3932 19.9228 87.3932 19.9228 86.0031 19.9228C84.1814 19.9228 82.3596 19.9228 80.5379 19.9228C79.9425 19.9228 79.758 20.1341 79.761 20.7056C79.7639 21.2772 80.017 21.423 80.5349 21.4201C82.2465 21.4022 83.9581 21.4201 85.6697 21.4201C86.2651 21.4201 86.5092 21.5838 86.4883 22.2148C86.4407 23.9205 86.652 23.7032 85 23.7032C83.5116 23.7032 82.0233 23.73 80.5349 23.7032C79.9396 23.6883 79.7758 23.9354 79.7788 24.489C79.7818 25.0427 79.9247 25.2957 80.5319 25.2898C82.8865 25.263 85.2441 25.2898 87.5986 25.2898C88.4649 25.2898 88.4917 25.3136 88.4917 26.1828C88.4917 27.8765 88.6643 27.6711 87.0033 27.689C84.0365 27.687 81.0747 27.6831 78.1178 27.6771Z" fill="#95C6B7"/>
<path fill-rule="evenodd" clip-rule="evenodd" d="M128.212 21.1498C128.316 20.9067 128.42 20.6636 128.528 20.4225C128.69 20.4813 128.741 20.6068 128.79 20.729C128.801 20.7552 128.812 20.7813 128.823 20.8065C130.026 23.3635 131.815 25.471 133.937 27.2957C134.593 27.8583 134.847 28.1496 135.079 28.1324C135.304 28.1157 135.507 27.8065 136.039 27.1707C136.102 27.0974 136.168 27.0268 136.235 26.9559C136.29 26.8973 136.345 26.8384 136.399 26.7778C136.941 26.1556 136.941 26.1467 136.28 25.6883C133.915 24.0893 131.986 21.9266 130.666 19.3955C130.41 18.8984 130.499 18.7436 131.068 18.7436H135.202C136.015 18.7451 136.375 18.7562 136.533 18.5829C136.691 18.4083 136.643 18.0467 136.643 17.2999C136.649 16.2134 136.64 16.1807 135.553 16.2134C134.913 16.2342 134.774 15.9931 134.774 15.3978C134.783 14.5433 134.783 13.6881 134.782 12.8329C134.781 11.8708 134.78 10.9087 134.794 9.94743C134.8 9.37888 134.625 9.1467 134.029 9.16456C133.289 9.18043 132.549 9.17515 131.809 9.16985C131.438 9.16721 131.067 9.16456 130.695 9.16456C130.182 9.16456 129.928 9.16456 129.803 9.0377C129.68 8.91384 129.68 8.66904 129.68 8.18522V6.45575C129.689 6.01817 129.52 5.7979 129.052 5.81874C128.585 5.83957 128.124 5.83957 127.65 5.81874C127.177 5.7979 127.031 6.03008 127.031 6.46468C127.031 6.68584 127.028 6.907 127.026 7.12827C127.021 7.57114 127.015 8.01444 127.031 8.45908C127.046 8.96214 126.888 9.19433 126.335 9.17051C125.966 9.15464 125.595 9.15992 125.224 9.16522C125.039 9.16786 124.853 9.17051 124.668 9.17051C123.632 9.18826 123.189 9.10751 123 9.28989C122.809 9.47452 122.879 9.92882 122.858 11.028C122.849 11.5489 123.06 11.7216 123.569 11.7216C124.192 11.7096 124.814 11.7136 125.436 11.7176C125.747 11.7196 126.059 11.7216 126.37 11.7216C126.719 11.7216 127.016 11.7543 127.016 12.1948C127.053 13.3238 127.024 14.454 126.927 15.5794C126.867 16.0467 126.674 16.2104 126.198 16.2104C125.59 16.1965 124.982 16.2012 124.373 16.2058C124.069 16.2081 123.766 16.2104 123.462 16.2104C122.552 16.2238 122.142 16.148 121.961 16.317C121.779 16.4861 121.825 16.9005 121.825 17.8953C121.825 18.6841 121.89 18.7496 122.718 18.7496H125.718C126.186 18.7496 126.335 18.8805 126.156 19.3449C126.112 19.4588 126.07 19.5717 126.027 19.6839C125.897 20.0293 125.77 20.3675 125.617 20.7023C124.71 22.7968 123.163 24.5498 121.197 25.7091C120.723 25.986 120.604 26.233 120.988 26.6706C121.282 27.0044 121.546 27.3629 121.777 27.7422C122.054 28.2096 122.331 28.1857 122.754 27.9119C124.801 26.6002 126.459 24.7632 127.555 22.5925C127.795 22.1222 128.004 21.636 128.212 21.1498ZM132.208 13.5225V13.9839C132.208 14.1672 132.207 14.3509 132.206 14.5348C132.205 14.9032 132.204 15.2726 132.208 15.6419C132.214 16.0289 132.053 16.2015 131.654 16.2015H129.924C129.535 16.2075 129.448 16.0259 129.478 15.6568C129.564 14.5792 129.633 13.4987 129.66 12.4152C129.671 11.9061 129.844 11.7156 130.365 11.7156C131.466 11.7395 131.915 11.6698 132.094 11.8575C132.272 12.0439 132.185 12.4843 132.208 13.5225Z" fill="#95C6B7"/>
<path d="M145.674 25.8672C144.641 26.4933 143.555 27.0291 142.43 27.4687C141.977 27.6443 141.718 27.5907 141.563 27.1204C141.484 26.8889 141.384 26.6648 141.266 26.4507C141.01 25.9714 140.742 25.516 141.349 25.0695C141.546 24.9266 141.537 24.6319 141.537 24.3848C141.537 23.1644 141.537 21.9469 141.537 20.7264C141.537 20.2799 141.379 20.0567 140.915 20.0984C140.848 20.1043 140.781 20.1043 140.715 20.0984C140.218 20.0388 139.542 20.3395 139.259 19.9198C138.905 19.3988 139.14 18.6755 139.146 18.0385C139.146 17.7081 139.414 17.6723 139.67 17.6694C140.117 17.6694 140.563 17.6694 141.004 17.6694C141.367 17.6694 141.54 17.5205 141.531 17.1544C141.522 16.7883 141.531 16.4906 141.531 16.1572C141.531 15.8238 141.349 15.7315 141.093 15.538C140.277 14.9189 139.325 14.523 138.527 13.8919C138.325 13.7312 138.438 13.5258 138.527 13.3442C139.562 11.1341 140.305 8.79858 140.736 6.39656C140.801 6.02745 140.971 5.89647 141.331 5.97684C141.549 6.02447 141.766 6.06317 141.986 6.10782C143.32 6.37275 143.335 6.37572 143.07 7.67655C142.977 8.12901 143.114 8.27189 143.564 8.27189C144.186 8.25105 144.811 8.25105 145.43 8.27189C146.112 8.2957 146.112 8.32844 146.103 9.94778C146.103 10.433 146.103 10.8408 145.418 10.8051C144.576 10.7693 143.727 10.8051 142.885 10.8051C142.415 10.7902 142.129 10.939 142.01 11.4004C141.913 11.7421 141.797 12.0781 141.662 12.4065C141.364 13.1626 141.364 13.1626 142.218 13.1626C143.15 13.1626 144.085 13.1924 145.016 13.1626C145.647 13.1358 145.865 13.4097 145.82 13.9901C145.82 14.1449 145.82 14.2878 145.82 14.4545C145.82 15.5291 145.82 15.547 144.734 15.5797C144.281 15.5797 144.094 15.7553 144.097 16.2108C144.097 17.9492 143.998 17.6634 145.475 17.6813C146.487 17.6813 146.487 17.6813 146.487 18.732C146.487 20.1162 146.487 20.1162 145.124 20.1192C144.103 20.1192 144.103 20.1192 144.1 21.1462C144.1 22.0392 144.1 22.9322 144.1 23.8044C144.1 24.2122 144.198 24.3342 144.6 24.0752C145.689 23.3727 145.701 23.3846 145.969 24.6944C145.984 24.9239 146.075 25.1418 146.228 25.3136C146.711 24.6522 147.242 24.0274 147.817 23.4442C148.002 23.2566 147.945 22.9828 147.945 22.7417C147.945 20.7473 147.931 18.7529 147.945 16.7615C147.945 16.1899 147.776 15.9161 147.183 15.9965C146.496 16.0917 146.29 15.7732 146.323 15.1213C146.368 13.5109 146.198 13.7103 147.764 13.6955C148.359 13.6955 148.955 13.7252 149.55 13.6955C150.145 13.6657 150.369 13.88 150.363 14.4932C150.339 17.1068 150.416 19.7233 150.33 22.3339C150.276 23.9472 150.758 24.3551 152.363 24.9921C153.182 25.2868 154.049 25.4261 154.92 25.4029C156.763 25.4029 158.608 25.4207 160.454 25.4029C160.972 25.4029 161.088 25.5368 160.942 25.9982C160.26 28.201 160.87 27.817 158.56 27.8348C156.916 27.8939 155.27 27.8531 153.631 27.7128C152.143 27.5461 150.821 27.1174 149.761 26.0012C149.166 25.382 148.886 25.4058 148.401 26.1232C148.038 26.6531 147.722 27.2157 147.404 27.7753C147.21 28.1117 147.02 28.2039 146.788 27.8319C146.427 27.177 145.758 26.7245 145.674 25.8672Z" fill="#95C6B7"/>
<path d="M91.9 16.916C91.9 13.7925 91.9 10.6689 91.9 7.54536C91.9 6.68509 91.9238 6.65234 92.8079 6.65234H110.546C111.403 6.65234 111.439 6.68211 111.424 7.56322C111.406 9.4445 111.665 9.18255 109.808 9.1885C104.982 9.20041 100.158 9.20041 95.3381 9.1885C94.6832 9.1885 94.4451 9.35222 94.4451 10.0428C94.4709 14.6508 94.4709 19.2587 94.4451 23.8667C94.4451 24.5483 94.6624 24.7269 95.3381 24.724C100.649 24.7031 105.962 24.724 111.272 24.724C112.198 24.724 112.219 24.724 112.213 25.6438C112.213 27.5102 112.427 27.275 110.588 27.278C104.696 27.278 98.8059 27.278 92.918 27.278C91.9089 27.278 91.9059 27.278 91.9059 26.2957C91.9 23.1741 91.898 20.0475 91.9 16.916Z" fill="#95C6B7"/>
<path fill-rule="evenodd" clip-rule="evenodd" d="M77.8559 15.5646H70.6522C69.8515 15.5646 69.783 15.4932 69.783 14.6716V7.29532C69.783 6.72082 69.9319 6.46482 70.5748 6.4678C75.4626 6.49161 80.3523 6.49161 85.2441 6.4678C85.8543 6.4678 86.0627 6.66426 86.0597 7.26853C86.0359 9.74913 86.0359 12.2297 86.0597 14.7103C86.0597 15.3443 85.8364 15.5676 85.2024 15.5587C83.693 15.5532 82.187 15.5567 80.681 15.5602H80.6809C79.7395 15.5624 78.7981 15.5646 77.8559 15.5646ZM77.9541 8.67047H73.1616C72.6734 8.67047 72.4263 8.78953 72.4323 9.33725C72.4382 9.88496 72.6764 9.96534 73.1318 9.96534C76.307 9.95343 79.4821 9.95343 82.6573 9.96534C83.1485 9.96534 83.3836 9.84627 83.3836 9.29855C83.3836 8.75084 83.0859 8.67047 82.6216 8.67344C81.6874 8.67523 80.7554 8.6738 79.8236 8.67237H79.8235C79.2025 8.67142 78.5815 8.67047 77.96 8.67047H77.9541ZM82.6454 13.2934H77.8559C77.471 13.2934 77.0855 13.2924 76.6995 13.2915C75.539 13.2887 74.373 13.2859 73.2003 13.3082C72.7508 13.3112 72.4204 13.2309 72.4323 12.6772C72.4442 12.1235 72.7806 12.1027 73.1884 12.1027H82.6335C83.0681 12.1027 83.3628 12.1711 83.3658 12.698C83.3687 13.2249 83.077 13.2934 82.6454 13.2934Z" fill="#95C6B7"/>
<path d="M157.873 10.6295C157.407 10.6563 156.94 10.6563 156.474 10.6295C155.756 10.5492 155.381 10.8171 155.167 11.5225C154.911 12.3441 154.533 13.13 154.217 13.9337C154.14 14.1272 153.92 14.3623 154.14 14.529C154.36 14.6957 154.697 14.6302 154.979 14.5945C155.262 14.5588 155.277 14.3117 155.277 14.0855C155.277 13.508 155.298 12.9305 155.277 12.356C155.262 11.8827 155.447 11.6744 155.941 11.6833C158.12 11.7279 157.775 11.3856 157.81 13.4693C157.819 13.6011 157.819 13.7334 157.81 13.8652C157.742 14.4606 158.031 14.666 158.593 14.6153C158.86 14.6019 159.127 14.6019 159.394 14.6153C159.503 14.5974 159.615 14.5974 159.724 14.6153C160.617 14.913 160.085 15.6602 160.198 16.199C160.275 16.5681 160.174 16.9163 159.653 16.9015C159.209 16.8866 158.76 16.9015 158.319 16.9015C157.992 16.9015 157.819 17.0473 157.816 17.3777C157.818 17.3995 157.818 17.4214 157.816 17.4432C157.682 18.9673 157.709 18.9852 159.26 19C161.085 19.0179 160.879 18.7024 160.9 20.6878C160.9 21.2147 160.665 21.3993 160.171 21.3874C159.677 21.3755 159.102 21.4112 158.572 21.3874C157.977 21.3516 157.781 21.6136 157.807 22.1762C157.837 22.84 157.807 23.5068 157.807 24.1706C157.807 24.6439 157.617 24.8552 157.132 24.8523C154.938 24.8523 155.307 25.0309 155.277 23.09C155.247 21.1492 155.53 21.4171 153.574 21.3963C152.952 21.3963 152.33 21.3963 151.708 21.3963C151.288 21.3963 151.113 21.2117 151.113 20.801C151.14 18.7173 150.872 19.0506 152.795 19.0149C153.438 19.0149 154.082 19.0149 154.729 19.0149C155.081 19.0149 155.274 18.8691 155.268 18.5029C155.267 18.4801 155.267 18.4573 155.268 18.4345C155.378 16.9193 155.378 16.9193 153.875 16.9193C153.298 16.9193 152.717 16.9193 152.14 16.9193C151.768 16.9193 151.61 16.7645 151.491 16.4103C151.175 15.4429 151.116 14.5588 151.732 13.6449C152.226 12.9127 152.485 12.0435 152.801 11.213C152.949 10.823 152.899 10.6563 152.434 10.6176C150.946 10.5313 150.979 10.5164 150.97 9.01616C150.97 8.42081 151.169 8.20649 151.747 8.24519C152.19 8.27198 152.64 8.22435 153.08 8.24519C153.278 8.2865 153.484 8.23855 153.644 8.1141C153.803 7.98966 153.9 7.80133 153.908 7.59924C153.927 7.48944 153.957 7.38177 153.997 7.27776C154.164 6.82827 154.051 6.11684 154.482 5.96205C155.078 5.75368 155.727 6.14065 156.346 6.29842C156.709 6.3907 156.596 6.70623 156.539 6.96818C156.271 8.23923 156.271 8.23923 157.605 8.23923C158.316 8.23923 159.031 8.23923 159.742 8.23923C160.186 8.23923 160.382 8.41188 160.373 8.87327C160.341 10.8766 160.617 10.5879 158.718 10.6146C158.45 10.6355 158.162 10.6295 157.873 10.6295Z" fill="#95C6B7"/>
<path d="M53.3724 17.5947C52.7328 19.4406 51.7635 21.1552 50.5118 22.6551C48.7536 24.7195 46.686 26.4988 44.3828 27.9298C44.0523 28.1382 43.8291 28.1233 43.6058 27.7929C43.3337 27.385 43.0354 26.9952 42.7128 26.626C42.3407 26.2063 42.4449 25.989 42.9063 25.733C45.0071 24.5668 46.9149 23.0827 48.5621 21.3334C50.7916 18.8985 52.0746 16.0944 52.018 12.7397C51.9823 10.7244 52.018 8.70622 52.0002 6.69099C52.0002 6.07481 52.1609 5.79797 52.8247 5.83072C55.0156 5.89621 54.6732 5.53305 54.6971 7.69414C54.6971 9.245 54.7417 10.7959 54.6971 12.3467C54.581 15.6687 55.9502 18.4073 57.9952 20.8869C59.6414 22.8843 61.7251 24.3518 63.9725 25.5991C64.5023 25.8967 64.5678 26.114 64.1749 26.5903C62.7133 28.3763 63.3295 28.3614 61.356 27.0815C57.8583 24.8221 55.1733 21.8454 53.5867 17.9549C53.5219 17.831 53.4504 17.7107 53.3724 17.5947Z" fill="#95C6B7"/>
<path d="M101.815 17.2498C101.717 17.0135 101.547 16.8138 101.33 16.6783C99.7644 15.3328 98.163 14.032 96.5258 12.7758C95.9096 12.3025 95.9096 12.2668 96.493 11.7667C96.5943 11.6804 96.7014 11.6 96.7907 11.5107C97.8921 10.5165 97.904 10.5016 99.0887 11.4392C100.464 12.5287 101.824 13.6301 103.161 14.7642C103.569 15.1095 103.774 15.1095 104.084 14.6541C105.009 13.299 105.819 11.868 106.504 10.3766C106.739 9.85862 106.995 9.79908 107.471 10.061C109.525 11.1922 109.388 10.6296 108.364 12.7728C107.736 14.0956 106.975 15.3512 106.093 16.5205C105.795 16.9045 105.84 17.1545 106.176 17.479C107.403 18.6697 108.584 19.902 109.829 21.0749C110.335 21.5482 110.311 21.8756 109.805 22.2953C109.436 22.6146 109.089 22.9598 108.769 23.3282C108.471 23.6497 108.263 23.6527 107.971 23.3074C106.959 22.1008 105.89 20.9459 104.762 19.8425C103.985 19.0834 103.982 19.0805 103.206 19.8425C101.563 21.4082 99.6744 22.6934 97.6153 23.6467C97.1658 23.8611 96.877 23.8075 96.627 23.3699C96.3904 22.9441 96.1259 22.5344 95.8352 22.1435C95.5048 21.7089 95.5792 21.4737 96.0823 21.2505C97.7769 20.5191 99.3483 19.53 100.741 18.3184C101.024 18.0684 101.297 17.8094 101.568 17.5475C101.658 17.4548 101.741 17.3553 101.815 17.2498Z" fill="#95C6B7"/>
<path d="M116.991 18.4254C116.991 17.3419 116.976 16.2554 116.991 15.1718C116.991 14.6956 116.833 14.4693 116.336 14.4991C115.961 14.5199 115.58 14.4991 115.205 14.4991C114.743 14.517 114.609 14.2967 114.577 13.8561C114.502 12.0016 114.49 11.9808 116.324 11.954C116.872 11.954 116.997 11.7159 116.991 11.2277C116.973 9.70065 116.991 8.1736 116.991 6.64357C116.991 6.07502 117.187 5.84581 117.765 5.85474C119.935 5.88153 119.551 5.64935 119.572 7.5723C119.589 8.81062 119.589 10.0509 119.572 11.2932C119.572 11.7814 119.744 11.9749 120.232 11.9481C120.721 11.9213 121.167 11.9481 121.631 11.9481C122.024 11.9481 122.227 12.1118 122.206 12.4988C122.206 12.5196 122.206 12.5404 122.206 12.5642C122.206 14.895 122.408 14.4842 120.402 14.4902C119.765 14.4902 119.551 14.6837 119.563 15.3266C119.598 17.1127 119.589 18.8987 119.563 20.7056C119.563 21.2533 119.708 21.3813 120.214 21.1461C120.81 20.8663 121.444 20.6311 122.057 20.3722C122.426 20.2174 122.605 20.3305 122.602 20.7323C122.602 21.2622 122.602 21.795 122.602 22.3249C122.604 22.6463 122.391 22.9294 122.081 23.0155C119.959 23.9276 117.782 24.7051 115.562 25.3433C115.095 25.4772 114.839 25.3582 114.74 24.8819C114.606 24.2538 114.21 23.5483 114.386 23.0274C114.594 22.4142 115.502 22.5958 116.101 22.4588C116.794 22.3011 117.059 22.0034 117.012 21.286C116.943 20.3335 116.991 19.3779 116.991 18.4254Z" fill="#95C6B7"/>
<path d="M63.2075 10.6737C63.1628 10.7749 63.1122 10.9207 63.0408 11.0547C61.8922 13.2302 60.4784 15.2549 58.8317 17.0825C58.5876 17.3594 58.3792 17.3415 58.0875 17.148C56.495 16.1032 56.489 16.1062 57.6886 14.6476C58.8234 13.2576 59.8054 11.7497 60.6177 10.1498C61.0285 9.34903 61.0255 9.34903 61.859 9.75386C62.2192 9.92948 62.5764 10.1051 62.9306 10.2867C63.0994 10.3388 63.2127 10.4971 63.2075 10.6737Z" fill="#95C6B7"/>
<path d="M46.8981 9.50125L48.4966 9.95669C48.7943 10.04 48.8538 10.2544 48.7943 10.5223C48.2355 12.9363 47.4614 15.2953 46.4814 17.5711C46.4457 17.6983 46.3569 17.804 46.2378 17.861C46.1186 17.918 45.9806 17.9209 45.8592 17.8688C43.9005 17.3627 43.8946 17.3687 44.6477 15.5321C45.351 13.7417 45.9289 11.9046 46.3772 10.0341C46.4427 9.76618 46.4575 9.43278 46.8981 9.50125Z" fill="#95C6B7"/>
<path d="M147.916 6.28014C148.123 6.27242 148.316 6.38962 148.404 6.57782C149.08 7.5899 149.729 8.61984 150.327 9.68253C150.508 10.007 150.422 10.1886 150.148 10.3999C148.645 11.5668 148.66 11.5698 147.722 9.91471C147.329 9.22113 146.927 8.53351 146.484 7.87268C146.216 7.47678 146.282 7.25055 146.677 7.03028C147.121 6.78916 147.544 6.50637 147.916 6.28014Z" fill="#95C6B7"/>
</g>
</svg>
