<svg width="154" height="41" viewBox="0 0 154 41" fill="none" xmlns="http://www.w3.org/2000/svg">
<g opacity="0.8">
<path d="M50.8672 11.6177V23.1372H50.8203L43.2383 11.6177H39.875V28.6685H43.2383V17.3716H43.2852L50.7852 28.6685H54.2422V11.6177H50.8672ZM59.6534 28.6685H62.9815V22.2114H69.6377V19.1997H62.9815V14.6411H70.962V11.6177H59.6534V28.6685ZM80.4747 21.8364L85.0216 28.6685H89.1817L82.6895 19.1411L88.9708 11.6177H84.7052L78.8106 19.1294H78.7872V11.6177H75.4239V28.6685H78.7872V23.8169L80.4395 21.8364H80.4747ZM93.1749 28.6685H96.5734V11.6177H93.1749V28.6685ZM113.082 11.6177V23.1372H113.035L105.453 11.6177H102.09V28.6685H105.453V17.3716H105.5L113 28.6685H116.457V11.6177H113.082ZM129.872 28.8325C131.161 28.8325 132.404 28.645 133.599 28.2583C134.794 27.8716 135.79 27.356 136.575 26.7114V19.3638H129.486V22.2583H133.318V24.7661C132.275 25.4106 131.126 25.7388 129.861 25.7388C128.818 25.7388 127.904 25.4927 127.107 25.0005C126.31 24.5083 125.7 23.8403 125.29 22.9966C124.88 22.1528 124.669 21.2153 124.669 20.1724C124.669 19.3169 124.798 18.5435 125.056 17.8403C125.314 17.1372 125.677 16.5513 126.134 16.0825C126.591 15.6138 127.118 15.2505 127.728 14.9927C128.337 14.7349 128.993 14.606 129.697 14.606C131.396 14.606 132.861 15.1919 134.079 16.3755L136.47 14.3481C135.614 13.3989 134.583 12.6724 133.376 12.1802C132.169 11.688 130.939 11.4419 129.685 11.4419C128.384 11.4419 127.189 11.6646 126.111 12.1099C125.032 12.5552 124.13 13.1646 123.404 13.9497C122.677 14.7349 122.114 15.6606 121.716 16.7271C121.318 17.7935 121.118 18.9536 121.118 20.1958C121.118 21.5317 121.341 22.7505 121.786 23.8521C122.232 24.9536 122.841 25.8677 123.626 26.5942C124.411 27.3208 125.325 27.8833 126.38 28.2817C127.435 28.6802 128.572 28.8794 129.802 28.8794L129.872 28.8325ZM146.721 28.8677C147.295 28.8677 147.858 28.8091 148.408 28.6919C148.959 28.5747 149.498 28.3755 150.026 28.0942C150.553 27.813 151.01 27.4731 151.408 27.0747C151.807 26.6763 152.123 26.1841 152.369 25.5864C152.615 24.9888 152.733 24.3325 152.733 23.6177C152.733 22.9146 152.627 22.2935 152.405 21.7661C152.053 20.9106 151.35 20.1958 150.283 19.6216C149.826 19.3755 148.889 18.9771 147.471 18.4263C147.026 18.2505 146.674 18.1099 146.416 17.9927C146.158 17.8755 145.901 17.7466 145.643 17.606C145.385 17.4653 145.186 17.3247 145.057 17.1841C144.928 17.0435 144.823 16.8911 144.74 16.7153C144.658 16.5396 144.623 16.3521 144.623 16.1411C144.635 15.6138 144.823 15.1919 145.198 14.8872C145.573 14.5825 146.065 14.4302 146.662 14.4302C147.776 14.4302 149.018 14.9927 150.389 16.106L152.334 13.563C150.565 12.1099 148.655 11.395 146.592 11.4185C145.584 11.4302 144.658 11.6528 143.826 12.0747C142.994 12.4966 142.338 13.0825 141.858 13.8208C141.377 14.5591 141.131 15.3794 141.131 16.2817C141.131 16.7271 141.178 17.1489 141.283 17.5474C141.389 17.9458 141.53 18.2974 141.694 18.6021C141.858 18.9067 142.08 19.188 142.35 19.4575C142.619 19.7271 142.889 19.9614 143.158 20.1489C143.428 20.3364 143.756 20.5239 144.131 20.7114C144.506 20.8989 144.858 21.063 145.174 21.1919C145.49 21.3208 145.854 21.4614 146.264 21.6138C146.721 21.7661 147.096 21.9067 147.377 22.0239C147.658 22.1411 147.928 22.27 148.186 22.4106C148.444 22.5513 148.643 22.7036 148.783 22.856C148.924 23.0083 149.03 23.1841 149.112 23.3833C149.194 23.5825 149.229 23.8052 149.229 24.0513C149.229 24.4146 149.135 24.731 148.959 25.0005C148.783 25.27 148.502 25.481 148.127 25.6333C147.752 25.7856 147.295 25.8677 146.768 25.8677C146.428 25.8677 146.076 25.8208 145.713 25.7388C145.35 25.6567 144.987 25.5278 144.623 25.3521C144.26 25.1763 143.897 24.9536 143.533 24.6841C143.17 24.4146 142.83 24.0981 142.514 23.7349L140.487 26.231C141.365 27.1333 142.338 27.8013 143.405 28.2466C144.471 28.6919 145.573 28.9146 146.709 28.9146L146.721 28.8677Z" fill="#95C6B7"/>
<path fill-rule="evenodd" clip-rule="evenodd" d="M25.4657 9.27425L25.4647 9.27809C25.3703 9.31579 25.2678 9.34659 25.1654 9.37739C24.9262 9.44929 24.687 9.52117 24.5513 9.68084C24.278 10.0017 24.0659 10.374 23.8538 10.7462L23.8538 10.7462L23.8537 10.7462L23.8537 10.7463L23.8537 10.7463L23.8537 10.7464L23.8537 10.7464C23.7631 10.9053 23.6725 11.0643 23.5771 11.2192L19.2358 18.259C17.9065 14.1616 16.6236 10.2036 15.3408 6.24558L15.1134 6.1792C15.0617 6.26863 15.0065 6.35608 14.9514 6.44333L14.9513 6.44336L14.9513 6.44339C14.8172 6.65566 14.6839 6.8667 14.604 7.10191C14.0135 8.81765 13.4359 10.538 12.8582 12.2589L12.8581 12.2591L12.858 12.2594L12.8579 12.2596L12.8579 12.2599L12.8572 12.2618C12.6608 12.8469 12.4643 13.4321 12.2673 14.0172C11.9739 14.8842 11.6811 15.7511 11.3768 16.6521L10.797 18.3686C10.7163 18.2555 10.6445 18.1568 10.5794 18.0672L10.5794 18.0672L10.5793 18.0672C10.4476 17.886 10.3432 17.7424 10.2477 17.5936C9.93178 17.1037 9.61562 16.6141 9.29945 16.1244C8.05591 14.1984 6.81221 12.2721 5.58434 10.3364C5.29558 9.87667 5.0649 9.56135 4.42266 9.8136C3.84513 10.041 3.70075 10.353 3.75884 10.9404C4.45142 18.0676 5.12962 25.197 5.79344 32.3287C5.85152 32.9593 6.0905 33.1485 6.7261 33.1485C12.2579 33.1252 17.7897 33.1252 23.3216 33.1485C24.0069 33.1501 24.1961 32.9427 24.226 32.2639C24.5734 24.8889 24.9313 17.5139 25.2997 10.1389C25.3337 9.84832 25.3889 9.56063 25.4647 9.27809L25.4823 9.27093L25.4657 9.27425ZM15.8415 23.8017L15.8416 23.8016C16.5116 22.7302 17.1519 21.7062 17.7438 20.6554C17.9594 20.2346 18.0142 19.7496 17.8982 19.2913C17.3762 17.5674 16.8165 15.8536 16.2573 14.141L16.2573 14.1409L16.2572 14.1406L16.257 14.1402L16.2569 14.1399L16.2568 14.1395L16.2567 14.1391C16.0285 13.4402 15.8003 12.7415 15.5748 12.0424C15.4844 11.766 15.3913 11.4902 15.2951 11.2052L15.295 11.2049L15.2949 11.2046L15.2948 11.2044C15.2409 11.0447 15.186 10.8821 15.13 10.7147C15.0706 10.7626 15.0257 10.7939 14.9929 10.8169C14.9506 10.8465 14.9284 10.862 14.9209 10.8807C13.9363 13.8114 12.9577 16.7433 11.9852 19.6763C11.9134 19.8795 11.9235 20.1027 12.0134 20.2986C12.8939 21.7256 13.8077 23.1373 14.7815 24.6417L15.0553 25.0648C15.3209 24.6342 15.5832 24.2148 15.841 23.8025L15.8413 23.802L15.8415 23.8017ZM5.76831 13.4495L5.77185 13.448L5.7619 13.4397L5.76831 13.4495ZM5.55113 13.541L5.76831 13.4495C6.66676 14.8215 7.56686 16.199 8.46861 17.582C8.51515 17.6809 8.5707 17.7753 8.63457 17.8641C10.158 19.4274 10.1647 21.1035 9.27349 23.0336C8.776 24.1141 8.42522 25.2622 8.07442 26.4103C7.91501 26.932 7.7556 27.4537 7.58242 27.9691C7.47578 28.3507 7.28655 28.7042 7.02813 29.0046C6.53469 23.8501 6.04236 18.6955 5.55113 13.541ZM11.2251 21.8635L7.85292 31.9718C8.12376 31.9718 8.38373 31.9738 8.63577 31.9757L8.63617 31.9757C9.28126 31.9805 9.87444 31.985 10.465 31.9552C10.6982 31.918 10.9055 31.7858 11.0376 31.5901C12.0256 30.0257 12.9936 28.4491 13.9418 26.8604C14.0524 26.6557 14.0658 26.4122 13.9783 26.1966C13.3305 25.137 12.6647 24.1022 11.9399 22.9757C11.7065 22.613 11.4671 22.2408 11.2201 21.8552L11.2251 21.8635ZM18.7644 21.8736L22.0122 31.9968L22.0039 31.9885C21.7653 31.9885 21.5384 31.9916 21.3202 31.9947H21.3202H21.3201H21.32C20.7795 32.0022 20.2918 32.009 19.8083 31.9653C19.5909 31.9453 19.342 31.7014 19.2042 31.4939C18.2085 29.9981 17.2388 28.4907 16.295 26.9717C16.1589 26.7676 16.0345 26.4041 16.1291 26.2382C16.7715 25.1258 17.4431 24.0302 18.1771 22.8328L18.1772 22.8326L18.1773 22.8325C18.3686 22.5205 18.5641 22.2015 18.7644 21.8736ZM23.4858 14.3243C23.3672 14.4384 23.2563 14.5604 23.1539 14.6894C22.9328 15.0488 22.711 15.4078 22.4892 15.7668L22.4886 15.7678C21.6668 17.0978 20.8451 18.4279 20.0572 19.7775C19.9095 20.0315 19.9328 20.4663 20.0274 20.7733C20.6575 22.8038 21.3121 24.8265 21.9666 26.8487L21.9672 26.8506C22.1107 27.2936 22.2541 27.7367 22.3972 28.1798C22.4335 28.2926 22.4848 28.4019 22.5359 28.5105L22.5359 28.5105C22.5712 28.5857 22.6063 28.6604 22.6362 28.7358L22.7756 28.7109C22.9556 25.2339 23.124 21.7658 23.2958 18.227L23.2959 18.2257L23.2961 18.221C23.3586 16.9327 23.4217 15.6351 23.4858 14.3243ZM17.1043 30.9962C17.3028 31.3026 17.5042 31.6134 17.7106 31.9321H12.6009L15.0902 27.8845C15.7855 28.9608 16.4283 29.9528 17.1043 30.9962Z" fill="#95C6B7"/>
<path d="M0.00829773 36.8905C0.950919 36.4806 1.41891 37.0813 1.91346 37.6506C2.37481 38.1816 2.85608 38.6944 3.32905 39.2155L3.55309 39.0728V36.8756C4.28992 36.6532 4.6683 36.7411 4.62183 37.5792C4.57039 38.5351 4.61022 39.496 4.61022 40.4203C3.63772 40.8568 3.14816 40.2544 2.64034 39.7134C2.15907 39.1989 1.68776 38.6762 1.21147 38.1584L0.995727 38.2862V40.5116H0L0.00829773 36.8905Z" fill="#95C6B7"/>
<path d="M15.2446 0.34082C15.8006 1.33655 16.2171 2.05513 16.5889 2.79197C16.662 2.98667 16.6512 3.20297 16.559 3.38941C16.247 3.97357 15.9084 4.55109 15.54 5.09708C15.1484 5.6829 14.9144 5.65303 14.5443 5.02074C14.4559 4.88019 14.3761 4.73443 14.3053 4.58428C14.0647 4.04327 13.5204 3.39438 13.6614 2.97618C13.9568 2.09994 14.6123 1.34485 15.2446 0.34082Z" fill="#95C6B7"/>
<path d="M5.72373 40.5715C5.72373 39.3816 5.70714 38.3095 5.74365 37.2408C5.79541 37.0312 5.95161 36.863 6.15688 36.796C7.06631 36.7529 7.98238 36.7529 8.88849 36.796C9.04448 36.796 9.1872 37.0732 9.33656 37.2225C9.18389 37.3636 9.04116 37.6109 8.87521 37.6291C8.35743 37.6839 7.82638 37.6291 7.30528 37.6656C7.12937 37.6789 6.97337 37.8316 6.7958 37.9245C6.96175 38.0241 7.10945 38.195 7.27873 38.21C7.71685 38.2531 8.16824 38.1768 8.60636 38.2481C8.82542 38.283 9.00963 38.5336 9.21044 38.6863C9.01793 38.8157 8.83372 39.0397 8.63126 39.058C8.06037 39.1094 7.48285 39.0762 6.83563 39.0762L6.73938 40.5167L5.72373 40.5715Z" fill="#95C6B7"/>
<path d="M4.72806 6.18431C4.74134 6.95268 4.20199 7.58497 3.53153 7.58663C2.67852 7.58663 1.89356 6.92281 1.87199 6.16772C1.86623 5.77795 2.01635 5.40202 2.28901 5.12344C2.56167 4.84486 2.93429 4.6867 3.32409 4.68409C4.13063 4.68243 4.71479 5.3031 4.72806 6.18431Z" fill="#95C6B7"/>
<path d="M25.4856 9.27908C25.2102 9.05497 24.9538 8.80853 24.7189 8.54225C24.3229 8.08089 24.3314 7.3971 24.7388 6.94576C25.1355 6.4479 25.6532 6.24377 26.2739 6.48109C26.8664 6.70679 27.1136 7.17644 27.0755 7.78549C27.0357 8.44931 26.7635 8.94717 26.0798 9.14632C25.8773 9.20274 25.6649 9.2293 25.4607 9.27245L25.4856 9.27908Z" fill="#95C6B7"/>
<path d="M22.3856 36.8374V40.5149L22.1848 40.6626L18.8458 37.3436V40.4967H18.5852V36.5503L22.062 39.9789V36.8556L22.3856 36.8374Z" fill="#95C6B7"/>
<path d="M27.2215 39.1062L25.864 38.9984L25.874 38.7694H27.5833C27.5933 38.7826 27.6497 38.8258 27.6513 38.8723C27.6878 40.4604 28.0098 40.477 26.1329 40.6264C24.4733 40.7575 23.3946 39.9476 23.3929 38.688C23.3913 37.4284 24.4683 36.6252 26.1196 36.7381C26.6174 36.7713 27.1053 36.9605 27.5966 37.0799L27.5435 37.3206C26.8631 37.2459 26.181 37.1032 25.5022 37.1165C24.7505 37.1297 24.0817 37.4152 23.8709 38.2532C23.6336 39.2008 24.1663 40.009 25.1687 40.1916C25.5545 40.2318 25.9425 40.2485 26.3303 40.2414C27.0937 40.2845 27.487 40.0074 27.2215 39.1062Z" fill="#95C6B7"/>
<path d="M31.7488 37.2427C31.1198 37.1946 30.524 37.0768 29.9415 37.1316C29.6096 37.1565 29.2993 37.4369 28.979 37.6029C29.2396 37.8352 29.4653 38.1455 29.7689 38.28C30.2668 38.5023 30.8593 38.5389 31.3356 38.7961C31.6459 38.962 32.0176 39.3952 31.9994 39.6823C31.9811 39.9694 31.5613 40.4009 31.2376 40.4938C30.3448 40.7494 29.4238 40.7543 28.5824 40.3129L28.6056 40.0872C29.0869 40.147 29.5698 40.2648 30.0511 40.2532C30.6186 40.2415 31.47 40.4739 31.5828 39.6972C31.6957 38.9205 30.7879 39.0483 30.2983 38.8409C29.8685 38.66 29.3889 38.5853 28.9707 38.3746C28.5143 38.1372 28.3766 37.719 28.6869 37.2577C29.1616 36.5474 31.1099 36.5192 31.7488 37.2427Z" fill="#95C6B7"/>
<path d="M15.8437 36.9586L13.3793 38.6065L16.0097 40.3955L15.8753 40.6411C15.399 40.354 14.9177 40.0719 14.4464 39.7782C13.9402 39.4612 13.4424 39.1326 12.8466 38.7493C12.8018 39.4131 12.7653 39.9624 12.7271 40.51L12.5114 40.4968V36.8458L12.742 36.8308C12.7669 37.3287 12.7918 37.8265 12.825 38.4638L15.7193 36.7163L15.8437 36.9586Z" fill="#95C6B7"/>
<path d="M17.1896 36.8442V40.5118H16.9822V36.8492L17.1896 36.8442Z" fill="#95C6B7"/>
</g>
</svg>
