<svg width="229" height="25" viewBox="0 0 229 25" fill="none" xmlns="http://www.w3.org/2000/svg">
<g opacity="0.8">
<path d="M229 11.7112C228.081 11.7273 227.158 11.7916 226.242 11.7434C225.326 11.6952 224.956 11.9941 224.972 12.9682C225.033 14.8037 224.972 16.6458 224.998 18.4845C225.017 20.0919 225.821 20.6994 227.399 20.4487C227.859 20.378 228.64 19.7608 228.759 20.6319C228.878 21.5031 229.334 22.609 228.251 23.2519C226.959 24.0591 225.346 24.1539 223.969 23.5037C222.592 22.8534 221.64 21.5474 221.442 20.0372C221.121 17.6905 221.359 15.3245 221.311 12.965C221.311 12.2352 221.188 11.7016 220.291 11.7145C219.726 11.7145 219.52 11.3448 219.559 10.8368C219.636 9.83709 219.015 8.43871 220.902 8.42585C221.163 8.42585 221.253 8.10438 221.272 7.87293C221.298 7.55146 221.298 7.22999 221.301 6.90853C221.339 4.36251 220.822 4.41395 224.014 4.45895C224.725 4.45895 225.014 4.81578 224.978 5.51015C224.959 6.10807 225.027 6.71243 224.978 7.30715C224.888 8.27155 225.332 8.57372 226.242 8.5255C227.152 8.47728 228.081 8.54801 229 8.56729V11.7112Z" fill="#95C6B7"/>
<path d="M17.2821 0.668945C18.4972 1.44047 19.4102 2.38236 19.1016 3.98005C18.8801 5.28794 17.7976 6.27769 16.4752 6.38141C15.2412 6.4449 14.0939 5.74757 13.582 4.62299C13.056 3.45367 13.3742 2.07712 14.3599 1.25723C14.5978 1.04506 14.8614 0.86504 15.1122 0.668945L17.2821 0.668945Z" fill="#95C6B7"/>
<path d="M37.2066 0.668945C38.0295 1.25723 38.7946 1.88409 38.9425 2.98351C39.1615 4.37571 38.3578 5.72644 37.0298 6.19817C35.7032 6.66288 34.2345 6.10688 33.5483 4.88016C32.8475 3.59429 33.1175 2.21199 34.2812 1.2283C34.5223 1.02256 34.7956 0.855396 35.056 0.668945H37.2066Z" fill="#95C6B7"/>
<path d="M0 17.4724C0.128587 17.3791 0.257173 17.2859 0.392189 17.1959C1.15728 16.6912 1.9063 16.6783 2.53637 17.392C2.7858 17.6341 2.92656 17.967 2.92656 18.3146C2.92656 18.6622 2.7858 18.9951 2.53637 19.2372C1.89344 19.9477 1.15728 19.938 0.388975 19.4301C0.257173 19.3401 0.128587 19.2436 0 19.1536L0 17.4724Z" fill="#95C6B7"/>
<path d="M5.7607 24.6727C5.28818 24.4352 4.95993 23.9836 4.87989 23.4608C4.7925 22.8042 5.15427 22.1702 5.76392 21.9113C6.27571 21.6395 6.90544 21.7377 7.31017 22.1524C7.83081 22.5699 7.98186 23.2982 7.67022 23.8883C7.47409 24.1839 7.23459 24.4484 6.95978 24.6727H5.7607Z" fill="#95C6B7"/>
<path d="M45.3686 24.6727C44.947 24.4345 44.6474 24.0273 44.5456 23.554C44.3993 22.9059 44.7154 22.2418 45.3107 21.9466C45.8851 21.5987 46.6292 21.737 47.0402 22.2681C47.5322 22.7211 47.6196 23.4655 47.2459 24.0201C47.0467 24.2658 46.819 24.487 46.5676 24.6791L45.3686 24.6727Z" fill="#95C6B7"/>
<path d="M25.4441 24.6732C25.273 24.5092 25.114 24.333 24.9683 24.146C24.4765 23.4098 24.5537 22.709 25.2127 22.1304C25.4545 21.8839 25.7852 21.7451 26.1304 21.7451C26.4757 21.7451 26.8064 21.8839 27.0482 22.1304C27.3651 22.3485 27.5768 22.6888 27.6323 23.0695C27.6878 23.4502 27.5822 23.8368 27.3408 24.1363C27.1985 24.3255 27.0461 24.5068 26.8843 24.6796L25.4441 24.6732Z" fill="#95C6B7"/>
<path d="M150.051 17.3855C150.478 17.1026 150.475 16.6204 150.607 16.2282C151.842 12.5507 153.095 8.87951 154.246 5.17622C154.59 4.0768 155.101 3.66211 156.275 3.67818C157.448 3.69426 157.985 3.97715 158.335 5.128C159.444 8.76057 160.682 12.3514 161.871 15.9614C162.035 16.4501 162.212 16.9258 162.415 17.5109C162.897 17.1894 162.916 16.7233 163.041 16.3375C164.234 12.6471 165.452 8.96309 166.578 5.25015C166.928 4.09287 167.484 3.66854 168.702 3.71354C170.972 3.80034 170.978 3.73283 170.229 5.91238C168.346 11.3966 166.417 16.8647 164.597 22.3683C164.205 23.5545 163.524 23.7345 162.46 23.7506C161.396 23.7666 160.807 23.4291 160.46 22.349C159.283 18.6939 158.001 15.0774 156.754 11.4448C156.628 11.0816 156.593 10.6701 156.268 10.3711C155.847 10.6572 155.847 11.1362 155.709 11.5252C154.468 15.116 153.214 18.7035 152.047 22.3168C151.71 23.368 151.202 23.7891 150.083 23.7538C149.029 23.7216 148.347 23.593 147.949 22.3908C146.045 16.6622 144.023 10.9723 142.053 5.26301C141.551 3.81641 141.603 3.73926 143.069 3.74248C146.042 3.74248 145.39 3.50781 146.242 6.05704C147.386 9.4678 148.463 12.9011 149.575 16.3247C149.681 16.6912 149.701 17.1091 150.051 17.3855Z" fill="#95C6B7"/>
<path d="M81.2828 10.3483C79.6884 12.7378 78.0917 15.1253 76.493 17.5105C75.5286 18.9314 75.5286 18.9314 74.6027 17.5523L69.6489 10.1297C69.3275 10.5797 69.4721 10.9848 69.4689 11.3609C69.4689 14.9581 69.4336 18.5585 69.4689 22.159C69.4689 23.1941 69.1635 23.6699 68.0995 23.5413C67.8218 23.5091 67.5413 23.5091 67.2637 23.5413C66.1996 23.6699 65.8878 23.1973 65.8974 22.1622C65.936 16.4829 65.936 10.8037 65.8974 5.12444C65.8974 4.08932 66.2189 3.8 67.2605 3.70356C69.0349 3.53639 70.1376 4.11503 71.012 5.70629C72.2046 7.87298 73.6898 9.88536 74.9885 11.9878C75.49 12.8011 75.7536 12.6532 76.1908 11.9588C77.7242 9.5221 79.2929 7.10789 80.8521 4.68724C81.3889 3.85786 84.2114 3.32422 84.9765 3.90286C85.3172 4.16004 85.269 4.5458 85.269 4.8962C85.269 10.734 85.269 16.5751 85.269 22.4129C85.269 23.2391 84.9475 23.522 84.1342 23.5509C81.5464 23.6441 81.5464 23.6699 81.5464 21.0981V10.4415L81.2828 10.3483Z" fill="#95C6B7"/>
<path d="M120.987 10.2424C121.952 9.23625 123.067 8.49045 124.462 8.31364C127.847 7.87966 130.419 9.96277 130.57 13.4764C130.708 16.4693 130.599 19.4718 130.622 22.4775C130.622 23.2393 130.3 23.5158 129.545 23.5544C126.925 23.6862 126.928 23.7087 126.925 21.1305C126.925 19.0121 126.944 16.8936 126.905 14.7751C126.87 12.827 125.777 11.6376 124.054 11.5605C122.331 11.4833 120.875 12.8303 120.817 14.7269C120.74 17.2022 120.749 19.6839 120.801 22.1624C120.823 23.2072 120.457 23.5608 119.412 23.5512C117.091 23.5287 117.091 23.5769 117.091 21.3009C117.091 15.746 117.091 10.1889 117.091 4.62964C117.091 2.98694 117.091 2.98694 118.779 2.98373C119.1 2.98373 119.422 3.00623 119.743 2.98373C120.534 2.92908 120.801 3.30519 120.791 4.06707C120.769 5.70334 120.791 7.34281 120.791 8.98229C120.817 9.36484 120.698 9.7731 120.987 10.2424Z" fill="#95C6B7"/>
<path fill-rule="evenodd" clip-rule="evenodd" d="M102.236 19.9437C102.238 19.558 102.239 19.1723 102.239 18.7867C102.259 17.0636 102.249 15.3534 102.079 13.6368C101.86 11.1358 100.446 9.37735 98.0538 8.71191C95.9482 8.12684 93.8651 8.29401 91.7981 8.89515C89.8532 9.46093 89.8307 9.57344 90.4479 11.4347C90.7372 12.3091 91.1487 12.412 91.9524 12.1098C93.0742 11.6612 94.2834 11.4732 95.4885 11.5601C96.7776 11.679 97.9316 12.0584 98.4331 13.4278C98.8092 14.463 98.5906 14.7105 97.4944 14.508C95.5431 14.1415 93.595 14.0708 91.708 14.7683C89.9078 15.437 88.8052 16.7229 88.6798 18.6935C88.5577 20.6094 89.2167 22.1974 90.9847 23.075C93.2125 24.1809 95.466 24.1455 97.5877 22.7536C97.652 22.7119 97.7144 22.6694 97.7744 22.6285C98.2513 22.3038 98.5861 22.0758 98.6774 23.075C98.7128 23.4608 99.1018 23.5283 99.4232 23.5283C99.6404 23.5364 99.8575 23.5332 100.074 23.5301C100.377 23.5257 100.679 23.5214 100.979 23.5476C101.944 23.628 102.255 23.1393 102.239 22.2617C102.229 21.488 102.232 20.7156 102.236 19.9437ZM98.6485 17.9861C98.7096 19.8088 97.2533 21.0368 94.9741 21.0368V21.0464C94.4569 21.071 93.9407 20.9799 93.4633 20.7796C92.6917 20.3842 92.2192 19.8152 92.2449 18.8894C92.277 17.8735 92.8589 17.282 93.7526 16.9606C95.1638 16.4655 96.5879 16.668 98.0056 16.9895C98.5231 17.1149 98.6324 17.5006 98.6485 17.9861Z" fill="#95C6B7"/>
<path fill-rule="evenodd" clip-rule="evenodd" d="M184.384 21.5325V18.26C184.36 17.7659 184.367 17.2395 184.373 16.6926C184.386 15.6416 184.399 14.5147 184.207 13.3962C183.747 10.5737 182.175 8.9985 179.369 8.52594C177.546 8.2352 175.68 8.37837 173.923 8.94385C171.959 9.53925 171.968 9.56701 172.618 11.4416C172.624 11.4596 172.631 11.4779 172.637 11.4963C172.92 12.2935 173.287 12.4189 174.061 12.1392C175.183 11.6899 176.391 11.4955 177.597 11.5702C178.732 11.6763 179.832 11.9142 180.43 13.0618C180.658 13.4958 180.873 14.0069 180.61 14.4313C180.39 14.7838 180.053 14.668 179.733 14.5579C179.618 14.5183 179.505 14.4796 179.401 14.4634C177.478 14.1805 175.569 14.097 173.727 14.8235C171.776 15.595 170.805 17.1091 170.834 19.2083C170.859 21.2271 171.859 22.6833 173.823 23.3873C175.681 24.1137 177.77 23.9454 179.488 22.9309C179.592 22.8715 179.699 22.7924 179.806 22.7136C180.254 22.3828 180.698 22.0554 180.88 23.1977C180.921 23.4613 181.195 23.4999 181.474 23.5191C181.754 23.5384 182.034 23.5384 182.313 23.5384H182.313C183.358 23.5433 183.875 23.5457 184.132 23.2882C184.384 23.0352 184.384 22.5313 184.384 21.5325ZM180.88 18.1957C180.69 19.9541 179.237 21.0471 177.093 21.0471L177.093 21.0471C176.495 21.0407 175.894 21.0342 175.363 20.6935C174.678 20.3223 174.284 19.5752 174.363 18.8001C174.463 17.8067 175.064 17.2152 175.971 16.9291C177.385 16.4791 178.793 16.688 180.201 17.0095C180.88 17.1702 180.941 17.6331 180.88 18.1957Z" fill="#95C6B7"/>
<path fill-rule="evenodd" clip-rule="evenodd" d="M210.602 17.3293C211.095 17.3268 211.588 17.3243 212.081 17.3243L212.075 17.3307H216.511C217.106 17.3339 217.511 17.1796 217.536 16.4788C217.694 11.6793 214.393 7.14342 208.535 8.52894C204.642 9.44512 202.302 13.666 203.283 17.9929C203.922 20.8218 205.668 22.8021 208.51 23.5318C211.351 24.2615 213.975 23.8147 216.225 21.7605C216.804 21.2301 216.739 20.8508 216.202 20.2882C215.347 19.3913 214.73 19.102 213.528 19.986C211.146 21.7348 207.854 20.7607 207.002 18.2887C206.793 17.6457 206.854 17.3243 207.645 17.3243C208.631 17.3393 209.617 17.3343 210.602 17.3293ZM206.96 13.9523C207.384 12.4001 208.788 11.3184 210.397 11.3034C211.925 11.2992 213.27 12.3138 213.685 13.7851C213.875 14.4313 213.737 14.8138 213.013 14.8138H207.516C206.889 14.8138 206.809 14.502 206.96 13.9523Z" fill="#95C6B7"/>
<path d="M106.495 16.3599C106.495 15.1994 106.473 14.0389 106.495 12.8817C106.515 12.1712 106.351 11.7404 105.531 11.7404C104.284 11.7404 104.634 10.776 104.608 10.0688C104.583 9.36159 104.409 8.51292 105.573 8.54507C106.322 8.56757 106.56 8.19467 106.518 7.50673C106.489 7.02775 106.518 6.54233 106.518 6.06656C106.518 4.50423 106.544 4.48816 108.148 4.47852C110.173 4.47852 110.173 4.47852 110.179 6.55519C110.179 8.53221 110.179 8.53221 112.134 8.53542C114.021 8.53542 114.571 9.29087 114.063 11.1264C114.012 11.4495 113.746 11.6954 113.42 11.7212C113.182 11.7469 112.941 11.7533 112.703 11.7565C109.983 11.7887 110.196 11.3611 110.189 14.3829C110.189 15.7427 110.173 17.1025 110.189 18.4623C110.218 20.1789 110.964 20.7512 112.626 20.4361C113.085 20.3493 113.844 19.716 113.982 20.6483C114.111 21.5162 114.513 22.6092 113.407 23.2425C110.167 25.0974 106.576 23.0657 106.524 19.3592C106.524 18.3594 106.524 17.3597 106.524 16.3599H106.495Z" fill="#95C6B7"/>
<path d="M191.867 13.2671C191.867 16.2246 191.839 19.1821 191.887 22.1396C191.903 23.149 191.62 23.5669 190.537 23.5573C188.196 23.538 188.196 23.5894 188.196 21.2106C188.196 15.6942 188.196 10.1789 188.196 4.66468C188.196 2.98984 188.196 2.98984 189.852 2.98663C190.132 2.98663 190.414 3.00913 190.691 2.98663C191.572 2.89983 191.89 3.28238 191.88 4.15998C191.848 7.19463 191.867 10.2325 191.867 13.2671Z" fill="#95C6B7"/>
<path d="M199.788 13.2254C199.788 16.2247 199.759 19.2208 199.788 22.2265C199.804 23.1909 199.467 23.5638 198.48 23.5638C196.095 23.5638 196.095 23.6088 196.095 21.2621V4.83838C196.095 2.99316 196.095 2.99316 197.953 2.99316C199.811 2.99316 199.772 2.99316 199.772 4.84481C199.787 7.633 199.793 10.4265 199.788 13.2254Z" fill="#95C6B7"/>
<path d="M24.0779 8.42588C24.0937 9.19144 23.7975 9.9305 23.2572 10.4732C22.717 11.0158 21.9793 11.3154 21.2136 11.303C19.6304 11.288 18.3328 10.0425 18.2529 8.46124C18.2885 6.83112 19.5997 5.51716 21.2297 5.47803C22.8195 5.53012 24.0805 6.83528 24.0779 8.42588Z" fill="#95C6B7"/>
<path d="M31.1565 11.303C30.3935 11.3221 29.6553 11.0315 29.1102 10.4973C28.5651 9.96306 28.2596 9.23088 28.2633 8.46767C28.2389 6.87716 29.4808 5.55417 31.0697 5.47803C32.701 5.49253 34.0315 6.78908 34.0883 8.41945C34.0338 10.0075 32.7453 11.2749 31.1565 11.303Z" fill="#95C6B7"/>
<path d="M11.277 11.3028C9.68394 11.3047 8.38562 10.0251 8.3645 8.43214C8.43202 6.81284 9.74665 5.52495 11.367 5.49072C12.9496 5.58809 14.1898 6.88853 14.212 8.47393C14.1768 10.063 12.8663 11.3262 11.277 11.3028Z" fill="#95C6B7"/>
<path d="M13.3666 13.3634C13.3572 12.601 13.6528 11.8665 14.1877 11.3231C14.7226 10.7798 15.4524 10.4727 16.2148 10.4702C17.8034 10.4858 19.1024 11.741 19.1723 13.3281C19.1472 14.9099 17.9124 16.2077 16.3338 16.3113C15.5441 16.3316 14.7805 16.0282 14.2202 15.4715C13.6598 14.9148 13.3514 14.1532 13.3666 13.3634Z" fill="#95C6B7"/>
<path d="M38.9618 13.296C38.9915 14.0821 38.6999 14.8464 38.1541 15.4129C37.6082 15.9793 36.8553 16.2991 36.0686 16.2985C34.492 16.2229 33.2353 14.9537 33.1754 13.3764C33.2105 11.7885 34.4811 10.5051 36.0686 10.4543C36.8296 10.4457 37.5627 10.7407 38.1057 11.274C38.6486 11.8073 38.9567 12.535 38.9618 13.296Z" fill="#95C6B7"/>
<path d="M40.987 11.3032C39.398 11.2908 38.1163 9.9991 38.1163 8.40998C38.1356 6.86373 39.5147 5.47821 41.0095 5.49428C42.5911 5.49428 44.012 6.96338 43.9477 8.50321C43.897 10.0911 42.5753 11.3411 40.987 11.3032Z" fill="#95C6B7"/>
<path d="M6.35215 11.168C6.93579 11.1662 7.49563 11.3992 7.90559 11.8146C8.31556 12.23 8.5412 12.7929 8.5317 13.3765C8.52645 14.5933 7.54321 15.5794 6.32644 15.5881C5.11914 15.5411 4.15567 14.565 4.12439 13.3572C4.15719 12.147 5.14158 11.1796 6.35215 11.168Z" fill="#95C6B7"/>
<path d="M45.9633 11.168C47.1778 11.1673 48.1737 12.1305 48.2136 13.3443C48.191 14.5554 47.2312 15.5405 46.0212 15.5946C44.8061 15.5929 43.8186 14.6139 43.8063 13.3989C43.7889 12.8149 44.0082 12.2486 44.4143 11.8286C44.8204 11.4085 45.379 11.1703 45.9633 11.168Z" fill="#95C6B7"/>
<path d="M11.3349 20.5195C10.1252 20.5204 9.13125 19.5648 9.08459 18.356C9.10288 17.1635 10.0634 16.2003 11.2558 16.1786C12.4483 16.1569 13.4431 17.0846 13.5048 18.2756C13.5174 19.4914 12.5503 20.4914 11.3349 20.5195Z" fill="#95C6B7"/>
<path d="M41.0674 20.5196C39.8493 20.5322 38.8469 19.5642 38.8171 18.3464C38.8002 17.125 39.7768 16.1211 40.9983 16.1042C42.2197 16.0874 43.2236 17.0639 43.2405 18.2854C43.2326 19.4924 42.2737 20.4782 41.0674 20.5196Z" fill="#95C6B7"/>
<path d="M21.2169 16.0994C22.4366 16.118 23.4102 17.1219 23.3916 18.3416C23.3729 19.5613 22.3691 20.535 21.1494 20.5163C19.9296 20.4977 18.956 19.4938 18.9746 18.2741C18.9933 17.0544 19.9972 16.0807 21.2169 16.0994Z" fill="#95C6B7"/>
<path d="M33.3683 18.3496C33.3069 19.5585 32.3124 20.5093 31.1019 20.5163C29.912 20.4539 28.986 19.4588 29.0095 18.2674C29.0329 17.076 29.9972 16.1181 31.1887 16.1025C32.4026 16.1407 33.3671 17.1352 33.3683 18.3496Z" fill="#95C6B7"/>
<path d="M26.1288 15.5849C24.9168 15.5385 23.9555 14.5475 23.946 13.3346C23.9503 12.7526 24.1858 12.1961 24.6007 11.7879C25.0155 11.3797 25.5757 11.1532 26.1577 11.1583C26.9662 11.1332 27.7236 11.552 28.1322 12.2501C28.5408 12.9481 28.5351 13.8136 28.1174 14.5062C27.6997 15.1989 26.9368 15.6077 26.1288 15.572V15.5849Z" fill="#95C6B7"/>
<path d="M50.9911 19.78C50.0813 19.78 49.3548 19.0438 49.4416 18.2402C49.4506 17.8558 49.615 17.4914 49.8973 17.2303C50.1796 16.9692 50.5557 16.8337 50.9397 16.8547C51.3428 16.8389 51.7332 16.9981 52.0104 17.2913C52.2876 17.5845 52.4246 17.9832 52.3863 18.3848C52.3252 19.2914 51.7755 19.7061 50.9911 19.78Z" fill="#95C6B7"/>
</g>
</svg>
