<svg width="134" height="29" viewBox="0 0 134 29" fill="none" xmlns="http://www.w3.org/2000/svg">
<g opacity="0.8">
<path fill-rule="evenodd" clip-rule="evenodd" d="M50.2454 0.502441C52.4972 1.41905 53.3008 3.09644 53.2672 5.45213C53.2038 10.1445 53.2179 14.8476 53.232 19.5491V19.5496C53.2363 20.9706 53.2406 22.3914 53.2427 23.8118C53.2427 24.8842 53.1327 25.92 52.4575 26.806C51.8592 27.7019 50.8459 28.2316 49.7688 28.2115C34.3412 28.1911 18.9157 28.1911 3.49228 28.2115C1.85258 28.2115 1.11153 27.2312 0.338826 26.209L0.33873 26.2088C0.227405 26.0616 0.115423 25.9134 0 25.7672V3.21255C0.696622 1.95679 1.64989 0.988244 3.05536 0.502441H50.2454ZM42.3931 9.78769C42.9789 8.98479 43.6929 8.96213 44.3877 8.94008C44.4359 8.93855 44.4839 8.93702 44.5319 8.93524C45.6929 8.89247 46.1329 8.06141 46.2368 7.15702C46.3385 6.27128 45.5229 6.2413 44.875 6.21748L44.8344 6.21597C43.8872 6.17014 43.6733 5.55907 43.655 4.78606C43.6336 3.94889 43.3494 3.25838 42.4084 3.20033C42.0175 3.17258 41.6336 3.31407 41.3541 3.5888C41.0747 3.86354 40.9268 4.24506 40.9479 4.63635C40.9479 6.25875 39.8541 6.55817 38.6259 6.83926C38.1862 6.95554 37.7609 7.12054 37.3579 7.33118C37.2958 7.36089 37.23 7.38903 37.1634 7.4175C36.7642 7.58813 36.3379 7.77037 36.5421 8.37C36.7376 8.94441 37.0126 9.50659 37.7643 9.51576C38.1676 9.51576 38.5739 9.51576 38.9864 9.47299C39.0728 9.46521 39.1669 9.42686 39.2609 9.38852C39.4991 9.29135 39.7371 9.19426 39.8511 9.5952C39.9916 10.0841 39.6127 10.304 39.185 10.4263C38.2471 10.6933 37.2846 10.7741 36.3203 10.855C35.9714 10.8843 35.6223 10.9136 35.2741 10.9518C34.3881 11.0526 34.1925 10.7807 34.2445 9.87629C34.3667 7.66421 32.8635 6.5154 30.6544 6.95537C30.0097 7.08675 29.3651 7.2273 28.7234 7.3709C26.5022 7.87503 26.1722 8.39444 26.7161 10.6371C27.2813 12.9928 27.6846 15.3393 27.1408 17.7713C26.896 18.9716 27.1737 20.2194 27.9046 21.2025C28.7601 22.4644 32.8176 22.4705 33.5845 21.1506C34.1773 20.1301 34.5011 18.9721 34.217 17.8263C33.9638 16.7043 33.861 15.5535 33.9114 14.4043C33.9114 14.3066 33.9076 14.2043 33.9037 14.1019V14.1018C33.877 13.3939 33.8501 12.6801 35.0939 13.4327C35.5239 13.6296 36.026 13.5843 36.4138 13.3136C37.4234 12.7048 38.5481 12.6013 39.6729 12.4978C40.6142 12.4112 41.5556 12.3245 42.4298 11.9417C42.7353 11.8073 43.27 11.6576 43.3464 12.3267C43.3871 12.7775 43.0971 12.83 42.779 12.8876L42.7789 12.8876C42.7392 12.8948 42.699 12.9021 42.6589 12.9103C42.049 13.0335 41.4406 13.166 40.832 13.2985C39.6603 13.5537 38.4884 13.8089 37.3059 13.998C36.4199 14.1385 36.206 14.6579 36.2243 15.3393C36.2427 16.0206 36.3282 16.8364 37.3548 16.7478C38.0148 16.6928 38.2226 17.0931 38.4609 17.5544C38.6132 17.849 38.779 18.1368 38.9446 18.4243L38.9447 18.4244C39.181 18.8347 39.4169 19.2442 39.6127 19.6718C40.1383 20.8267 40.9846 20.8267 41.999 20.4448C42.0897 20.4114 42.1709 20.3412 42.2529 20.2703C42.4332 20.1146 42.6174 19.9554 42.9156 20.1759C42.4237 22.4522 42.0295 22.5988 40.0802 21.3492C39.9366 21.2605 39.8038 21.1461 39.6663 21.0277C39.33 20.7381 38.9659 20.4246 38.3478 20.4051C38.897 22.075 39.7506 23.6289 40.8654 24.9881C41.7179 25.9994 42.6101 26.033 43.5847 25.1042C44.8832 23.8668 45.3629 22.3544 45.2835 20.6098C45.263 20.1287 45.2262 19.6484 45.1895 19.1684C45.1498 18.6485 45.1101 18.1289 45.091 17.6094C45.0055 15.0643 45.0116 15.049 47.5903 14.6488C48.2289 14.551 48.6749 14.2332 48.7513 13.6497C48.8386 12.9696 48.2591 12.7756 47.7191 12.5948L47.6942 12.5864C47.5035 12.5225 47.3006 12.5284 47.0962 12.5343C46.7143 12.5454 46.327 12.5567 46.0046 12.1128C46.7494 11.6461 47.4296 11.8168 48.0896 11.9824C48.2418 12.0207 48.3929 12.0586 48.5436 12.0884C49.5824 12.29 50.1843 11.734 50.0162 10.7012C49.836 9.57076 48.953 9.4791 48.0669 9.4791C47.2558 9.45108 46.4593 9.55237 45.6499 9.65531C44.6054 9.78812 43.5395 9.92367 42.3931 9.78769ZM12.7745 25.4342C12.5335 24.1032 12.4474 22.7488 12.5178 21.398V21.395C12.5178 20.9947 12.5148 20.5945 12.5025 20.2003C12.5209 18.031 12.4414 17.9821 10.3638 18.9232C10.1156 19.0357 9.86943 19.1542 9.62309 19.2727C9.18703 19.4826 8.75046 19.6927 8.30141 19.8703C6.26043 20.6953 3.88947 19.4945 3.86197 17.3344C3.84571 16.1321 3.70797 14.9412 3.57041 13.7519C3.3979 12.2604 3.22568 10.7713 3.29367 9.26519C3.37617 7.51141 4.40277 6.9034 5.961 7.71918C6.29812 7.95105 6.71417 8.038 7.11593 7.96055C8.36363 7.58254 9.63878 7.64136 10.9038 7.6997C11.1009 7.70879 11.2978 7.71788 11.4943 7.72529C12.5942 7.76807 12.8844 7.38615 12.8172 6.36871C12.7378 5.13129 13.0464 4.00997 14.0852 3.14225C15.124 2.27453 16.1812 2.46396 16.6914 3.71666C17.0126 4.61876 17.1172 5.58372 16.997 6.5337C16.9206 7.45642 17.2353 7.76195 18.1733 7.7314C19.5879 7.68557 21.0117 7.69779 22.3713 8.21415C24.6018 9.05743 25.1792 11.4987 23.5354 13.2494C23.4565 13.3331 23.377 13.4154 23.2981 13.4972C22.5208 14.3023 21.7973 15.0516 22.2522 16.4606C22.5577 17.3772 20.3059 18.6849 18.8913 18.5993C18.5392 18.5771 18.1685 18.4371 17.8023 18.2988C17.1102 18.0374 16.4342 17.7821 15.9306 18.3396C15.5129 18.8024 15.6201 19.4994 15.7303 20.2156C15.7917 20.6152 15.8541 21.0208 15.8268 21.395C15.7015 23.0265 15.4265 24.5848 14.2594 25.8314C13.5689 26.5677 13.0281 26.638 12.7745 25.4342Z" fill="#95C6B7"/>
<path d="M114.157 10.6158C115.685 11.2269 116.085 10.2461 116.467 9.29281C117.225 7.39849 117.213 7.39238 118.936 8.47398C119.144 8.60536 119.342 8.74896 119.547 8.89867C119.597 8.79913 119.642 8.69716 119.682 8.59314C119.886 7.88124 118.838 7.10518 119.617 6.51549C120.228 6.05719 120.956 6.86991 121.643 6.7752C124.448 6.378 127.299 6.23134 130.036 5.45834C131.17 5.1528 132.12 5.39417 133.092 5.89831C133.769 6.17706 134.136 6.91257 133.953 7.62153C133.44 10.6158 133.687 13.6192 133.837 16.6226C133.932 18.5261 133.92 20.4327 133.993 22.3361C134 22.9396 133.816 23.5299 133.467 24.0227C132.453 25.6145 131.894 25.6818 130.717 24.2824C130.177 23.6438 129.453 23.1367 129.107 22.1437C131.118 22.9961 131.154 21.6701 131.182 20.4418C131.274 16.3812 131.374 12.3237 131.002 8.26621C130.919 7.3771 130.559 7.15101 129.764 7.22739C127.546 7.44738 125.322 7.61542 123.122 8.00651C122.441 8.12872 122.159 8.34565 122.166 9.04227C122.182 10.9468 122.166 12.8523 122.117 14.7589C122.098 15.4524 122.373 15.648 123.033 15.5166C123.479 15.4249 123.95 15.3974 124.381 15.2874C124.811 15.1774 125.661 15.4921 125.603 14.8627C125.545 14.2333 125.255 13.4848 124.466 13.2312C124.228 13.1548 123.953 13.1853 123.724 13.0967C123.229 12.9012 122.755 12.5437 122.856 12.006C122.957 11.4682 123.54 11.7249 123.907 11.7004C126.632 11.4988 127.189 10.9397 126.999 8.39759C126.966 7.91485 127.072 7.74069 127.528 7.78652C127.831 7.8036 128.133 7.84549 128.429 7.91179C130.146 8.31204 130.229 8.55647 129.068 9.79389C128.832 10.0444 128.6 10.3041 128.368 10.5577C128.426 10.6341 128.481 10.7563 128.527 10.7533C129.33 10.7166 130.375 10.5088 130.476 11.5904C130.577 12.672 129.468 12.4765 128.774 12.6415C128.136 12.7943 127.488 12.9043 126.684 13.0662C127.393 13.9247 127.653 15.1561 129.208 14.6275C129.682 14.4655 130.216 14.7222 130.583 15.1133C130.822 15.3136 130.909 15.6429 130.8 15.9352C130.681 16.2132 130.412 16.2163 130.161 16.2407C129 16.311 127.836 16.4332 126.672 16.4393C125.508 16.4454 125.365 17.2917 125.371 18.0434C125.371 19.1066 126.287 18.8805 126.972 18.8439C127.812 18.798 128.548 18.077 129.465 18.4925C129.825 18.6575 130.284 18.6911 130.308 19.2197C130.333 19.7483 130.003 19.9224 129.596 20.0691C128.054 20.5996 126.385 20.6412 124.818 20.1882C123.641 19.8827 123.458 18.905 123.443 17.9364C123.427 17.0687 123.162 16.5065 122.04 16.2865C122.04 17.8723 122.071 19.3999 122.04 20.9307C122.004 22.5561 121.328 23.5613 120.451 23.4116C119.703 23.2803 118.924 21.5784 119.171 20.4571C119.902 17.252 119.926 13.995 119.944 10.738C119.944 10.3591 120.054 9.93138 119.578 9.49752C117.761 11.1593 116.194 13.0743 114.924 15.1835C115.841 14.7466 117.143 15.4891 116.7 13.8361C116.68 13.7432 116.709 13.6466 116.776 13.5795C117.436 13.2739 117.943 13.7017 118.45 13.9858C118.752 14.1292 118.984 14.3867 119.095 14.7015C119.206 15.0162 119.187 15.3623 119.043 15.6632C118.86 16.1246 118.294 16.4882 117.946 16.2071C116.351 14.9208 115.306 16.2988 114.28 16.9923C113.253 17.6859 112.868 17.2826 112.391 16.4974C112.086 15.9779 112.159 15.5807 112.63 15.1958C113.433 14.5175 113.962 13.6345 114.481 12.7515C113.98 12.4459 113.681 12.6843 113.436 12.9226C112.905 13.445 112.398 13.5031 111.893 12.9226C111.389 12.3421 110.946 11.7554 111.533 11.0527C113.009 9.28976 113.617 7.19073 114.014 5.00614C114.099 4.5234 114.301 4.25758 114.808 4.34007C115.673 4.48062 116.547 4.70672 117.06 5.44917C117.573 6.19162 116.684 6.57965 116.385 7.09295C115.676 8.23871 114.909 9.40892 114.157 10.6158Z" fill="#95C6B7"/>
<path fill-rule="evenodd" clip-rule="evenodd" d="M98.4437 7.89027C98.4467 8.98104 98.5964 9.97708 99.5619 10.8937C97.6596 11.6449 95.7476 11.8159 93.8414 11.9864L93.8414 11.9864L93.8414 11.9864C93.3595 12.0295 92.878 12.0726 92.3971 12.125C92.32 12.1343 92.2305 12.1316 92.138 12.1289C91.8636 12.1209 91.5628 12.1122 91.4805 12.4092C91.4166 12.8282 91.6626 13.2326 92.0641 13.3685C92.886 13.7016 92.9593 14.3585 93.0021 15.0704C93.0174 15.3372 93.0343 15.604 93.0513 15.8709L93.0513 15.8709C93.0853 16.4046 93.1192 16.9382 93.1396 17.4719C93.2157 19.4999 93.2099 19.5007 91.147 19.7668L91.1261 19.7695C91.0416 19.7806 90.9474 19.7761 90.8523 19.7716C90.5793 19.7587 90.2978 19.7453 90.2095 20.0964C90.1136 20.4776 90.3997 20.6787 90.6743 20.8716L90.6743 20.8717L90.6743 20.8717C90.7409 20.9185 90.8068 20.9648 90.8664 21.013C91.2533 21.3291 91.6717 21.2511 92.1159 21.1683L92.1619 21.1597C92.7433 21.0527 93.3269 20.9605 93.9104 20.8684L93.9105 20.8683L93.9106 20.8683C94.6762 20.7474 95.4416 20.6266 96.201 20.4722C97.1054 20.292 97.4965 20.4356 97.4507 21.4805L97.447 21.5635C97.4021 22.5817 97.3564 23.6157 97.7104 24.6092C97.9701 25.3364 98.3673 25.3242 98.7706 24.7528C99.2964 24.0051 99.5547 23.102 99.5039 22.1894C99.4214 20.625 99.8827 19.8245 101.609 20.0934L101.659 20.1013C102.045 20.1635 102.583 20.2502 102.642 19.5709C102.688 19.0484 102.403 18.746 101.97 18.5015C101.512 18.2786 100.998 18.1978 100.494 18.2693C100.057 18.3121 99.5986 18.2785 99.6719 17.701C99.7322 17.2311 99.7156 16.7366 99.699 16.2404C99.6532 14.875 99.6069 13.496 101.16 12.5772C101.514 12.3694 101.468 11.9783 101.404 11.6239C101.347 11.3151 101.107 11.1888 100.855 11.0558C100.6 10.9216 100.332 10.7806 100.225 10.4384C100.475 10.4099 100.723 10.3836 100.968 10.3576L100.968 10.3576C101.589 10.2915 102.194 10.2271 102.795 10.1329C103.681 9.99236 103.943 10.3682 103.925 11.1962C103.9 12.4178 103.889 13.6399 103.879 14.862V14.8621C103.861 16.9469 103.842 19.0316 103.754 21.1139C103.656 23.4054 103.555 23.3993 101.377 22.8249C101.345 22.8173 101.299 22.8533 101.225 22.9123L101.225 22.9123C101.18 22.9484 101.124 22.9931 101.053 23.0418C101.263 23.2635 101.471 23.484 101.679 23.7035L101.679 23.704L101.679 23.7042L101.68 23.7046C102.235 24.2924 102.782 24.8726 103.338 25.4464C104.512 26.6594 104.866 26.6471 105.945 25.3883C106.666 24.542 106.883 23.5765 106.883 22.4674C106.869 20.6213 106.793 18.7753 106.716 16.9291C106.549 12.869 106.381 8.80836 106.883 4.74631C107.057 3.45695 104.86 2.16147 103.39 2.66255L103.227 2.71821C101.698 3.24091 100.19 3.75611 98.5201 3.49055C97.8448 3.38056 97.5576 3.66471 97.909 4.35522C98.4473 5.41151 98.4455 6.56648 98.4439 7.70069L98.4437 7.89027ZM103.776 6.4604L103.776 6.46075L103.776 6.46131C103.785 6.61136 103.794 6.76442 103.803 6.92168V6.9339C103.758 7.11359 103.794 7.33443 103.83 7.55574C103.896 7.95532 103.961 8.35643 103.552 8.51963C102.933 8.77105 102.227 8.82736 101.527 8.88316L101.527 8.88317C101.308 8.9006 101.09 8.91799 100.876 8.94127C100.534 8.97793 100.509 8.66934 100.491 8.4188C100.466 8.05522 100.512 7.70079 100.964 7.64274C101.417 7.58469 101.872 7.50525 102.312 7.42276C102.383 7.40941 102.457 7.39974 102.532 7.39007L102.532 7.39007C102.916 7.34001 103.3 7.29003 103.247 6.72919C103.189 6.12728 102.721 5.90424 102.165 5.90424C101.817 5.92756 101.474 5.9985 101.145 6.11506L101.129 6.1196C100.768 6.2249 100.437 6.32159 100.329 5.80953C100.249 5.43066 100.314 5.14346 100.757 4.99069C101.476 4.74682 102.23 4.61793 102.99 4.60877C103.497 4.60266 103.702 4.86542 103.72 5.3665C103.733 5.7248 103.754 6.0831 103.776 6.4604ZM97.3865 15.3392C97.3646 15.1808 97.3463 15.0215 97.3279 14.8619C97.2899 14.532 97.2518 14.201 97.1818 13.8756C97.0694 13.3465 96.7202 13.4095 96.3816 13.4705C96.2783 13.4891 96.1761 13.5076 96.0819 13.509C95.88 13.4801 95.6761 13.5466 95.5301 13.689C95.3841 13.8314 95.3125 14.0336 95.3364 14.2362C95.3364 14.5814 95.538 14.6242 95.8191 14.6089C95.9028 14.6041 95.9925 14.5945 96.0844 14.5847H96.0844C96.5734 14.5325 97.1259 14.4735 97.1696 15.0856C97.2131 15.6986 96.7273 15.7551 96.2534 15.8101H96.2534C96.0944 15.8286 95.9367 15.8469 95.8008 15.8861C95.6054 15.9133 95.4203 15.9901 95.2631 16.1091C95.0247 16.3688 95.0278 16.6224 95.4494 16.7477C96.6869 17.1327 97.3957 16.6133 97.3926 15.3606L97.3865 15.3392ZM96.418 19.026C96.21 19.043 96.0078 19.0595 95.8588 19.1493L95.8772 19.1615C95.8099 19.1615 95.7416 19.1646 95.6744 19.1676C95.3143 19.184 94.9866 19.1988 95.0278 18.7276C95.1178 17.9778 95.6094 17.9712 96.1029 17.9646C96.3635 17.9611 96.6247 17.9576 96.8274 17.8446C97.1971 17.6216 97.3926 17.8446 97.3682 18.2327C97.3165 18.9526 96.8543 18.9904 96.418 19.026Z" fill="#95C6B7"/>
<path d="M62.7846 17.0167C62.4803 17.0557 62.1723 17.0557 61.868 17.0167C61.2569 16.8608 60.6183 16.4759 60.6122 15.877C60.6061 15.2782 61.3913 15.4309 61.8344 15.327C62.7693 15.1132 63.7256 14.9879 64.6758 14.8504C65.4305 14.7404 65.5161 14.2668 65.4122 13.6527C65.2869 12.9408 64.7767 13.1394 64.355 13.2341C63.3193 13.4633 62.2896 13.7199 61.2599 13.9827C60.6489 14.1416 60.0714 14.163 59.5428 13.7199C59.0754 13.3258 58.4429 12.8858 58.5651 12.2961C58.7118 11.5934 59.5062 11.9661 59.995 11.9295C62.2224 11.7675 64.4161 11.3978 66.616 11.0404C68.0734 10.8051 67.9359 9.62268 67.8595 8.71524C67.7679 7.62142 66.8238 8.10417 66.173 8.16833C65.5863 8.23555 65.0089 8.34249 64.41 8.43415C64.4956 9.04522 65.1494 8.90467 65.4275 9.25604C65.846 9.77851 65.898 10.2338 65.3663 10.689C64.8347 11.1443 64.4009 11.0587 64.022 10.4446C63.3926 9.42714 63.2062 8.18972 62.3232 7.28228C61.9138 6.86369 62.4118 6.67121 62.7632 6.64676C64.9873 6.52925 67.1835 6.09721 69.2864 5.36351C69.9311 5.13742 70.6368 5.60794 70.8324 6.28012C71.1379 7.37088 69.9738 7.267 69.4361 7.67948C69.6714 8.29055 70.9852 7.98501 70.5635 8.91995C70.316 9.47297 69.7202 9.87628 69.2619 10.3712C69.5155 10.964 70.0074 10.3712 70.4016 10.4568C71.0524 10.6218 71.5535 10.9182 71.5596 11.6362C71.5596 12.4428 70.866 12.1861 70.426 12.2717C69.9796 12.3636 69.5252 12.4117 69.0694 12.4153C68.1009 12.4153 67.6793 12.8125 67.9756 13.943C68.7853 13.8238 69.6836 13.5763 70.4657 14.2088C70.8996 14.5601 71.1501 14.9604 71.0035 15.5012C70.8568 16.042 70.3558 15.8495 69.983 15.8923C69.2436 15.9778 68.4553 15.7762 67.6976 16.2375C68.2109 16.9097 69.0511 16.8822 69.6652 17.2611C70.2794 17.64 70.8202 17.9363 70.7193 18.7368C70.6552 19.2623 70.4474 19.7084 69.8486 19.8245C68.9931 19.9865 68.7242 19.3296 68.3698 18.7888C68.2903 18.6696 68.1926 18.5596 67.8809 18.1594C67.8809 19.1249 67.8656 19.8154 67.8809 20.5059C67.8962 21.1964 67.9176 21.893 67.5937 22.5621C66.7382 24.322 65.956 24.3954 64.7675 22.8677C64.3092 22.2749 63.7989 21.725 63.3131 21.1597C63.689 20.8022 63.9242 21.1047 64.1534 21.2422C64.9111 21.6883 65.3327 21.398 65.3755 20.6311C65.455 19.4334 65.4336 18.2296 65.4763 17.0289C65.4947 16.4636 65.2166 16.3567 64.7186 16.4178C64.025 16.5217 63.3284 16.595 62.7387 17.0289L62.7846 17.0167Z" fill="#95C6B7"/>
<path d="M74.6333 11.6941C76.4359 11.1961 78.043 10.7775 79.6379 10.3009C80.802 9.96174 81.8745 10.0595 82.7361 10.9333C83.3258 11.5444 83.3135 12.1066 82.3144 12.3083C82.2625 12.3083 82.2105 12.3083 82.1617 12.3266C80.0504 12.7818 79.864 12.9682 79.754 15.2322C79.6349 17.7865 79.586 20.3408 79.4882 22.892C79.4767 23.951 79.1779 24.987 78.6236 25.8893C78.4311 26.1949 78.1836 26.476 77.7681 26.3843C77.4228 26.311 77.3036 25.9963 77.2517 25.703C77.1356 25.1679 77.063 24.6243 77.0348 24.0775C76.9462 20.8205 76.9003 17.5635 76.7995 14.3004C76.7995 13.8298 77.0012 13.0507 76.0632 13.1546C75.3268 13.2371 74.4072 12.9774 74.2544 14.2209C74.0144 15.9616 73.5073 17.6548 72.7512 19.2409C72.2169 20.5356 71.3428 21.6619 70.2213 22.5009C71.5779 18.1257 71.9873 13.9093 72.0729 9.65009C72.1013 9.15109 72.0695 8.65047 71.9781 8.15908C71.6359 6.6314 71.6726 6.59168 73.3164 6.87277C75.1282 7.17831 76.3718 6.62223 77.2578 4.9815C77.5358 4.4682 77.6825 3.90907 78.4311 4.17489C79.366 4.51098 80.5118 4.57209 80.9945 5.58647C81.2298 6.08143 80.5851 6.15476 80.2246 6.27087C78.9749 6.66806 77.7344 7.1172 76.4573 7.42274C75.3727 7.67939 74.7799 8.14686 74.8594 9.3415C74.9052 10.0228 74.7341 10.7195 74.6333 11.6941Z" fill="#95C6B7"/>
<path fill-rule="evenodd" clip-rule="evenodd" d="M87.4078 5.19844C88.0647 7.50829 87.9486 9.85786 87.7897 12.5588C87.7897 15.0734 87.6033 17.9179 86.7998 20.683C86.6014 21.4187 86.699 22.2029 87.0717 22.8676C87.0959 22.9152 87.1198 22.9635 87.1437 23.0121C87.3704 23.4717 87.6039 23.9452 88.2174 23.8789C88.8163 23.8147 89.186 23.3259 89.3846 22.7973C89.4976 22.4154 89.5552 22.0193 89.5557 21.621C89.629 20.4204 89.6969 19.2199 89.7648 18.0193C89.8413 16.6686 89.9177 15.318 90.0018 13.9673C90.1423 11.6514 90.1545 11.5964 92.5072 11.6177C93.6865 11.6391 94.2976 11.1197 94.6031 10.0901C94.7304 9.67687 94.8311 9.25582 94.9316 8.83488C95.1449 7.94229 95.3581 7.05016 95.8253 6.23421C95.9457 6.06702 95.9892 5.85645 95.9449 5.65524C95.9005 5.45403 95.7726 5.28122 95.5931 5.18011C95.5268 5.13472 95.4606 5.08902 95.3945 5.04334C94.428 4.37572 93.4701 3.71401 92.1375 4.12295C90.8878 4.50793 89.629 4.83179 88.2938 4.33683C87.5789 4.07407 87.197 4.44987 87.4078 5.19844ZM91.2636 5.53144C92.4216 5.27174 93.2099 5.22591 92.9441 6.75359H92.9471C92.8017 7.38257 92.7067 8.02215 92.663 8.66624C92.6744 9.80743 91.9567 9.91348 91.2438 10.0189C90.9985 10.0551 90.7538 10.0913 90.5395 10.1695C90.2095 10.2856 90.1393 9.94949 90.1546 9.70506C90.1632 9.61149 90.1538 9.51022 90.1444 9.4085C90.1173 9.115 90.0898 8.81775 90.4937 8.69068C90.6473 8.64443 90.8072 8.63569 90.97 8.62679C91.1083 8.61923 91.2486 8.61156 91.3889 8.58069C91.4607 8.56449 91.5387 8.55316 91.6179 8.54167C91.9864 8.48814 92.3786 8.43116 92.278 7.86268C92.1803 7.31272 91.6578 7.25161 91.2178 7.25161C91.0965 7.2539 90.9686 7.28723 90.8448 7.31946C90.473 7.41633 90.1393 7.50326 90.1393 6.70776C90.1362 5.85531 90.509 5.69338 91.2636 5.53144Z" fill="#95C6B7"/>
<path d="M62.7571 17.0349C63.9059 18.2815 63.4965 19.6412 62.9832 20.9641C62.699 21.6974 62.1827 22.3513 61.2539 21.8471C60.325 21.343 60.2975 20.4539 60.875 19.687C61.535 18.8132 62.2835 18.0035 62.7815 17.0166L62.7571 17.0349Z" fill="#95C6B7"/>
<path d="M114.215 21.2818C114.298 22.0395 113.977 22.565 113.235 22.7544C112.336 22.9836 112.272 22.2136 112.08 21.6881C111.808 20.9365 111.603 20.1604 111.386 19.3874C111.31 19.1247 111.013 18.8069 111.368 18.593C111.604 18.5092 111.864 18.5235 112.089 18.6328C113.238 19.1583 114.209 19.8488 114.215 21.2818Z" fill="#95C6B7"/>
<path d="M65.455 2.50354C66.4379 2.46899 67.4133 2.68784 68.2873 3.13905C68.9839 3.51486 69.2039 4.11983 68.7395 4.74617C68.2751 5.37252 67.557 5.58334 66.9246 4.97227C66.1997 4.31418 65.6879 3.4545 65.455 2.50354Z" fill="#95C6B7"/>
<path d="M123.66 8.68164C124.433 9.07578 125.545 8.98718 125.539 10.1604C125.539 10.799 125.004 11.3062 124.469 11.1626C123.534 10.9151 123.455 9.88851 123.152 9.13078C122.978 8.69081 123.443 8.75497 123.66 8.68164Z" fill="#95C6B7"/>
<path d="M115.059 17.9087C115.74 18.1317 116.556 18.3273 116.669 19.3111C116.742 19.9527 116.391 20.5332 115.789 20.4385C114.741 20.2796 114.909 19.1553 114.567 18.4495C114.399 18.1378 114.542 17.872 115.059 17.9087Z" fill="#95C6B7"/>
<path d="M119.067 18.0649C119.04 18.7585 118.71 19.2504 118.151 19.1648C117.155 19.0029 117.304 17.9427 116.962 17.2858C116.84 17.0475 116.935 16.7236 117.268 16.8C118.077 16.9802 118.872 17.2094 119.067 18.0649Z" fill="#95C6B7"/>
<path d="M31.3602 16.7632C31.1677 17.4812 31.7269 18.6911 30.2695 18.902C29.5179 19.012 28.9587 18.8225 29.0473 17.8876C29.1165 17.2432 29.1491 16.5955 29.1451 15.9474C29.1115 14.71 30.0312 15.0064 30.7278 14.9422C31.6963 14.8506 31.4091 15.5533 31.4061 16.0421C31.3969 16.2469 31.3755 16.4485 31.3602 16.7632Z" fill="#95C6B7"/>
<path d="M31.4733 10.6706C31.2838 11.1656 31.7482 12.1983 30.5566 12.2166C29.2215 12.2166 29.3345 11.1045 29.2398 10.2673C29.1451 9.43015 29.692 9.21933 30.4619 9.17656C31.6169 9.10934 31.458 9.86096 31.4733 10.6706Z" fill="#95C6B7"/>
<path d="M42.9248 18.3152L40.9999 16.1245C41.7546 15.819 42.5612 15.1591 43.0959 15.7579C43.6305 16.3568 43.5053 17.4139 42.9248 18.3152Z" fill="#95C6B7"/>
<path d="M12.7317 12.6109C12.6094 14.8657 12.6094 14.8627 10.3057 15.379C9.12633 15.6418 7.95002 15.8862 6.88981 16.5309C5.9732 17.09 5.66766 16.5767 5.81127 15.7396C6.01903 14.5174 6.34901 13.2953 6.569 12.0731C6.6851 11.4285 7.07924 11.3399 7.63226 11.2879C9.0805 11.1535 10.5624 11.239 11.9587 10.6952C12.4536 10.5027 12.7286 10.7227 12.7317 11.2543C12.7347 11.6943 12.7317 12.1526 12.7317 12.6109Z" fill="#95C6B7"/>
<path d="M18.0878 14.8532C17.3178 14.7585 16.1934 15.0946 16.2087 13.5394C16.2393 11.034 16.9848 10.1235 19.2641 10.0472C20.0676 10.0197 20.9292 9.9005 20.9629 11.1532C21.0362 13.5578 20.1501 14.7921 18.0878 14.8532Z" fill="#95C6B7"/>
</g>
</svg>
