<svg width="169" height="46" viewBox="0 0 169 46" fill="none" xmlns="http://www.w3.org/2000/svg">
<g opacity="0.8">
<path fill-rule="evenodd" clip-rule="evenodd" d="M157.94 39.9532C158.417 39.8893 158.895 39.8252 159.19 40.4584L160.944 40.4451C161.146 39.8983 161.572 39.9036 161.987 39.9087C162.153 39.9107 162.317 39.9127 162.464 39.8795C164.297 39.4923 165.827 38.2392 166.568 36.5192C167.309 34.7991 167.168 32.8263 166.191 31.2288C164.966 29.2624 165.602 27.3526 166.66 25.8287C168.776 22.7711 168.703 19.8032 165.938 17.391C165.323 16.864 164.791 16.247 164.361 15.561C163.845 14.7292 163.173 13.8875 162.258 13.6645C158.302 12.6897 154.273 12.1141 150.28 13.425C149.399 13.6945 148.873 13.7577 148.068 13.3618C146.178 12.4335 144.185 11.9411 142.055 12.5732C141.5 12.7946 140.886 12.8193 140.315 12.6431C137.487 11.5618 134.789 11.9377 132.257 13.5082C131.62 13.8889 131.227 13.6198 130.774 13.3104C130.744 13.29 130.714 13.2693 130.683 13.2486C128.264 11.4283 125.071 11.0008 122.259 12.1207C121.267 12.49 120.662 12.4435 119.996 11.5884C118.903 10.1975 117.352 9.56873 115.8 8.93999C115.117 8.66328 114.435 8.38657 113.791 8.04492H111.129C110.55 8.32127 109.956 8.56549 109.362 8.80945L109.362 8.80946C107.554 9.55243 105.753 10.293 104.405 11.9311C101.198 15.8325 101.375 20.3689 101.552 24.9122L101.552 24.9122C101.562 25.1579 101.571 25.4035 101.58 25.6491C101.684 28.4553 103.403 30.3171 105.123 32.1803C105.556 32.6498 105.99 33.1195 106.398 33.6044C109.412 37.1844 113.169 38.4887 117.684 37.2476C117.852 37.2026 118.016 37.1552 118.178 37.1086L118.178 37.1086C119.401 36.7562 120.457 36.4519 121.676 37.5804C122.412 38.2591 123.739 38.502 124.851 38.1094C126.659 37.4709 128.429 37.8099 130.199 38.1489C131.389 38.3769 132.579 38.6048 133.781 38.5353C134.099 38.5168 134.42 38.4964 134.741 38.4759C137.436 38.3041 140.227 38.1262 142.917 39.0477C143.336 39.1935 143.905 38.9631 144.434 38.749L144.434 38.749C144.569 38.6945 144.701 38.6411 144.827 38.5952C144.887 38.5722 144.945 38.548 145.001 38.5245L145.001 38.5244C145.288 38.4043 145.539 38.2997 145.858 38.4554C147.947 39.4789 150.171 39.4988 152.395 39.5187C154.032 39.5333 155.668 39.5479 157.251 39.9626C157.465 40.0168 157.702 39.985 157.94 39.9532ZM130.719 27.2212C130.714 26.8114 130.71 26.3958 130.71 25.9719C129.633 26.7616 129.706 27.7939 129.775 28.7726C129.787 28.9402 129.799 29.1062 129.805 29.2691C129.888 30.9327 129.019 31.4784 127.559 31.5416C125.95 31.6098 125.897 30.507 125.843 29.3862L125.839 29.3057C125.833 29.1338 125.858 28.95 125.883 28.7671C125.97 28.1253 126.055 27.4936 124.84 27.4159C123.586 27.334 123.56 28.0007 123.532 28.7253V28.7253V28.7253C123.527 28.8539 123.522 28.9844 123.51 29.1128C123.347 30.8695 122.049 31.2222 120.665 31.149C119.281 31.0758 119.181 29.8813 119.234 28.82C119.278 27.9573 119.328 27.0951 119.378 26.2329C119.506 24.006 119.635 21.7792 119.657 19.5438C119.68 17.0118 124.012 14.563 126.541 15.0155C127.081 15.1111 127.238 15.5023 127.389 15.8769C127.569 16.3234 127.739 16.7461 128.537 16.6158C129.729 16.4213 130.027 17.4823 130.292 18.4225L130.292 18.4226L130.292 18.4227C130.353 18.6399 130.412 18.8507 130.48 19.038C130.946 20.299 130.826 21.6732 130.463 22.9608C130.234 23.7859 130.277 24.4946 130.55 25.7822C131.263 24.5196 131.279 23.4308 131.293 22.4278C131.299 22.0644 131.304 21.7122 131.342 21.3671C131.571 19.3574 132.287 17.7038 134.004 16.4894C135.298 15.5711 137.124 15.4114 138.103 15.7907C140.036 16.5426 141.633 16.2798 143.516 15.9471C146.198 15.4547 149.365 18.4558 149.232 21.3471C149.208 21.8686 149.19 22.3912 149.172 22.9143C149.081 25.5381 148.989 28.1731 148.187 30.7364C147.838 31.8643 147.063 32.8825 146.234 32.7327C145.233 32.5464 144.351 31.6514 144.501 30.1209C144.606 29.0443 144.582 27.9649 144.558 26.8862C144.522 25.2979 144.487 23.7109 144.864 22.1357C145.043 21.3737 144.917 20.5918 143.942 20.4288C143.047 20.2758 142.714 20.848 142.381 21.6266C141.852 22.886 141.873 24.1769 141.895 25.4629C141.901 25.8485 141.907 26.2337 141.899 26.6174C141.891 26.9705 141.891 27.3251 141.89 27.6798V27.6799C141.889 28.6553 141.888 29.6318 141.729 30.5834C141.586 31.6671 140.646 32.4666 139.553 32.4333C138.706 32.4536 138.701 31.9809 138.696 31.5135C138.694 31.2908 138.692 31.0692 138.598 30.9028C137.401 28.7751 137.623 26.5952 137.845 24.4197C137.93 23.5846 138.015 22.7501 138.019 21.9194C138.026 20.685 137.564 19.9031 136.715 19.8233C135.867 19.7434 135.677 20.8547 135.637 21.6532C135.541 23.61 135.301 25.5494 135.061 27.489L135.061 27.4891L135.061 27.4893L135.061 27.4894C134.969 28.2376 134.876 28.9857 134.792 29.7349C134.629 31.1989 133.811 31.9542 132.676 31.9542C131.405 31.9675 130.653 30.9959 130.71 29.5819C130.736 28.8044 130.728 28.0239 130.719 27.2212ZM109.12 28.4805C108.255 29.1127 107.543 29.7448 108.833 30.2339C109.044 30.3136 109.252 30.4011 109.461 30.4887C110.349 30.8618 111.24 31.2362 112.324 31.0125C116.05 30.2373 118.136 27.5289 118.832 24.0254C119.164 22.4117 118.719 21.0076 117.328 20.2524C115.937 19.4971 114.496 19.7666 113.235 20.7548C111.642 22.0058 111.638 22.9574 113.432 24.0454C114.563 24.7308 114.24 25.15 113.531 25.8354C112.823 26.5208 112.087 26.92 111.153 26.584C110.154 26.218 109.712 25.4095 109.772 24.3315C109.807 23.6716 109.834 23.0111 109.861 22.3494C109.898 21.4599 109.934 20.5683 109.991 19.6734C109.998 19.57 110.003 19.4651 110.009 19.3596C110.06 18.3484 110.115 17.279 111.299 16.8753C112.606 16.4294 113.655 16.8952 114.513 18.1063C115.268 19.171 116.433 19.4638 117.634 18.6287C118.835 17.7936 119.098 16.7056 118.402 15.3614C118.034 14.637 117.515 14.0004 116.879 13.4948C112.473 10.0246 106.208 12.3669 105.32 17.9267C104.991 20.1933 104.88 22.4862 104.987 24.774C105.087 27.6587 105.955 28.3807 109.12 28.4805ZM149.771 28.3812C149.768 28.1372 149.764 27.8472 149.764 27.4823C149.823 26.8554 149.883 26.2013 149.945 25.5264C150.148 23.3392 150.37 20.9333 150.596 18.5255C150.719 17.2279 151.322 16.5292 152.759 16.7255C153.802 16.8678 154.851 16.8159 155.901 16.7639C157.134 16.7029 158.369 16.6418 159.6 16.8952C160.704 17.1214 161.712 17.3743 161.656 18.7085C161.599 20.0427 160.774 20.9211 159.403 20.9943C158.592 21.0375 157.776 20.9952 156.96 20.9529C156.518 20.93 156.075 20.9071 155.634 20.8978C155.622 20.8975 155.611 20.8973 155.599 20.897C155.17 20.8867 154.669 20.8747 154.669 21.4934C154.669 22.059 155.105 22.2553 155.58 22.1821C156.124 22.0927 156.605 22.2826 157.083 22.471C157.281 22.5491 157.479 22.6269 157.68 22.6845C158.671 22.9673 159.47 23.5695 159.27 24.7141C159.126 25.7745 158.249 26.5831 157.181 26.6405C156.866 26.6657 156.55 26.6641 156.235 26.6624C155.885 26.6606 155.535 26.6587 155.184 26.6938C155.06 26.7065 154.917 26.6945 154.772 26.6823C154.272 26.6402 153.748 26.5962 153.887 27.5555C154.013 28.3574 154.19 28.9729 155.218 28.9097C155.857 28.872 156.498 28.8845 157.14 28.8971C157.461 28.9034 157.782 28.9097 158.102 28.9097C159.593 28.9163 160.591 29.6483 160.571 31.1389C160.538 32.7659 159.407 33.5844 157.876 33.2949C156.829 33.0975 155.825 33.1753 154.816 33.2536C154.43 33.2835 154.044 33.3135 153.654 33.3282C150.477 33.4446 149.591 32.4797 149.764 29.3123C149.779 29.0406 149.776 28.769 149.771 28.3812Z" fill="#95C6B7"/>
<path d="M123.952 21.7331C124.178 20.6717 123.862 19.261 125.256 19.2244C126.541 19.1878 126.474 20.4688 126.358 21.3738C126.255 22.1856 126.75 23.4699 125.177 23.4899C123.772 23.5098 124.075 22.4385 123.952 21.7331Z" fill="#95C6B7"/>
<path fill-rule="evenodd" clip-rule="evenodd" d="M53.123 5.35986H50.0087C49.0722 6.03351 48.0199 6.02392 46.9686 6.01433C46.4362 6.00948 45.904 6.00463 45.3872 6.08852L45.2241 6.11626C43.8775 6.34489 42.5713 6.56664 41.4711 7.44934C41.0933 7.80154 40.5936 7.99355 40.0771 7.98501C37.2292 7.88842 34.4064 8.17695 31.5836 8.46548C28.7669 8.75338 25.9501 9.04129 23.1084 8.94657C20.826 8.87005 18.4969 8.97319 16.4108 10.1277C15.7216 10.5096 15.2143 10.1745 14.7402 9.86128C14.6856 9.82522 14.6314 9.78944 14.5775 9.75508C8.55528 5.96541 0.340456 10.7 0.0842621 18.2028C-0.0132752 21.0571 -0.00388464 23.9133 0.00550241 26.7684C0.00828336 27.6143 0.011064 28.46 0.011064 29.3056C0.0143912 31.5415 0.969294 33.2251 2.86912 34.4994C3.8328 35.1553 4.70851 35.9341 5.58535 36.7139L5.58537 36.7139C6.00726 37.0891 6.42941 37.4645 6.86174 37.8266H9.97266C10.3095 37.5711 10.7458 37.4864 11.1538 37.597C11.296 37.6018 11.4466 37.5695 11.5988 37.5369C11.9701 37.4574 12.3508 37.3758 12.6411 37.8266H13.5328C13.9495 37.6212 14.3552 37.3827 14.7592 37.1453L14.7594 37.1452L14.7595 37.1452C16.3909 36.1864 17.9952 35.2436 20.1871 36.5556C21.3793 37.2663 22.7938 37.0935 24.1798 36.9242C24.6041 36.8724 25.0257 36.8209 25.4374 36.7951C26.7251 36.7155 28.0077 36.5819 29.2905 36.4482L29.2906 36.4482C31.7069 36.1964 34.1244 35.9445 36.5802 36.0532C39.0623 36.1763 41.6242 36.2628 44.0198 35.1781C44.4422 35.055 44.8933 35.0737 45.3041 35.2313C48.222 36.1297 50.4213 34.9053 52.0549 32.6827C52.9699 31.4384 53.6686 31.292 54.5936 32.3933C56.3337 34.4694 58.3866 35.441 61.0483 34.363C63.8432 33.2384 65.0875 31.079 65.174 28.1311C65.2379 25.9099 65.3235 23.6874 65.4091 21.4643L65.4091 21.4628C65.4574 20.2099 65.5056 18.9568 65.55 17.7037C65.6631 14.4198 64.2624 12.0608 61.3112 10.5536C60.4211 10.0977 59.704 9.41674 58.9804 8.72958C58.162 7.95253 57.3353 7.16749 56.2405 6.69074C55.8824 6.52909 55.4986 6.42069 55.1142 6.31212C54.3988 6.11007 53.6813 5.90742 53.123 5.35986ZM3.0312 27.284C3.03657 26.8962 3.04215 26.4926 3.04215 26.065C3.22999 25.584 3.16124 25.0275 3.08983 24.4493C2.97403 23.5118 2.85121 22.5176 3.80408 21.6964C3.81076 21.6888 3.76303 21.6317 3.69092 21.5454C3.51145 21.3306 3.18092 20.9351 3.16193 20.6716C2.96563 18.0365 3.04548 15.4446 5.3978 13.6213C5.48288 13.5558 5.5719 13.4582 5.66446 13.3568C6.01357 12.9742 6.41313 12.5363 6.8418 13.5514C6.87596 13.6289 6.95377 13.6892 7.03147 13.7494C7.0673 13.7771 7.1031 13.8049 7.13459 13.8343C7.15361 13.7629 7.17177 13.6908 7.19 13.6184L7.19 13.6184L7.19001 13.6184L7.19001 13.6184L7.19001 13.6183L7.19002 13.6183L7.19002 13.6183L7.19002 13.6183L7.19002 13.6183C7.22282 13.488 7.25581 13.357 7.2943 13.2287C7.68691 11.8978 8.39227 11.7148 9.50022 12.5633C9.78498 12.78 10.0592 12.674 10.3633 12.5566C10.6988 12.4269 11.0706 12.2833 11.5331 12.5433C13.8904 13.8241 15.0317 16.5783 14.2714 19.1511C13.9986 20.0528 13.8821 20.7049 14.4112 21.5966C16.9764 25.9153 14.0751 29.3622 10.3686 31.139C9.02949 31.7793 7.48069 31.6951 5.97954 31.6135C5.68669 31.5976 5.39565 31.5818 5.10834 31.5715C3.85731 31.5282 3.11535 30.6432 3.04215 29.3656C3.01171 28.6914 3.02106 28.0158 3.0312 27.284ZM20.4467 14.3864C20.2737 13.3051 19.9542 12.5631 18.7332 12.8293C17.4023 13.1154 16.5938 13.874 16.5605 15.2482C16.4856 18.5797 16.4332 21.9112 16.3808 25.2427C16.3634 26.353 16.3459 27.4633 16.3276 28.5736C16.3076 29.8079 16.993 30.7063 18.1077 30.7529C20.5398 30.8527 23.0252 30.9292 25.4042 30.5233C26.5654 30.327 28.1957 29.4919 27.8463 27.6419C27.5136 25.9218 26.1561 25.812 24.7387 25.9251C24.1501 25.9947 23.5581 26.0314 22.9653 26.0349C22.7762 26.0289 22.5711 26.0587 22.3661 26.0885C21.6658 26.1904 20.9653 26.2923 20.8958 24.9669C20.8244 23.5902 21.5743 23.5342 22.5005 23.465C22.5659 23.4601 22.6322 23.4552 22.6992 23.4497C25.2278 23.2501 26.5887 22.2486 26.2659 20.7447C25.8056 18.6091 24.3528 18.938 22.9576 19.2539L22.9576 19.2539L22.9575 19.2539L22.9575 19.2539C22.7594 19.2987 22.5625 19.3433 22.3698 19.3805C21.548 19.5402 21.1188 19.3805 21.0389 18.4656C20.9657 17.6471 21.1986 17.2312 22.0903 17.2046C23.348 17.1646 24.609 17.0815 25.8567 16.9251C27.3073 16.7454 28.1857 15.8238 28.1458 14.3997C28.0826 12.8593 26.9846 12.2936 25.514 12.4034C24.4818 12.5124 23.4442 12.5602 22.4064 12.5465C21.1121 12.4666 20.4833 13.0223 20.4467 14.3864ZM28.8412 21.2337H29.0674C29.0674 20.6765 29.0643 20.1191 29.0612 19.562L29.0612 19.5611C29.0532 18.1226 29.0451 16.6868 29.0907 15.2648C29.1473 13.0023 30.009 12.0873 32.2781 12.0041C33.7434 11.9498 35.2103 11.9608 36.6765 11.9718C37.2778 11.9763 37.8791 11.9808 38.48 11.9808C39.6013 11.9808 40.6627 12.1971 40.8091 13.4947C40.9621 14.8522 40.1902 15.8237 38.8826 16.0733C38.0217 16.2383 37.1385 16.2906 36.2544 16.3428C35.7308 16.3738 35.2068 16.4048 34.687 16.4592C34.5616 16.4707 34.4255 16.4686 34.288 16.4665C33.7073 16.4577 33.1013 16.4485 33.1632 17.4574C33.233 18.5919 33.965 18.7383 34.8667 18.6485C35.0068 18.634 35.1498 18.6265 35.2927 18.6189C35.6759 18.5986 36.0582 18.5783 36.3806 18.4256C37.8578 17.7269 38.4667 18.5986 38.7994 19.7565C39.1787 21.0707 38.3569 21.8592 37.2357 22.2319C36.5819 22.395 35.9 22.4109 35.2393 22.2785C33.8486 22.0855 33.5026 22.6944 33.436 24.002C33.3625 25.4943 34.1761 25.4244 35.1249 25.3428L35.2427 25.3328C36.272 25.2149 37.3075 25.1583 38.3436 25.1631C39.6146 25.2097 40.5296 25.9517 40.503 27.2327C40.4763 28.5136 39.8142 29.5317 38.2538 29.3288C37.1031 29.1795 36.0105 29.4313 34.9169 29.6832C34.1574 29.8581 33.3975 30.0332 32.6175 30.0741C29.3602 30.2404 28.7846 29.7314 28.8412 26.5572C28.8589 25.3774 28.853 24.1947 28.8471 23.0109V23.0105V23.0101C28.8441 22.4182 28.8412 21.8259 28.8412 21.2337ZM41.8305 19.8131H41.4978C41.4978 20.5274 41.5029 21.2416 41.5081 21.9559C41.5185 23.3843 41.5288 24.8128 41.4978 26.2413C41.4545 27.7485 41.7373 28.9596 43.534 28.9662C45.2675 28.9662 46.4054 28.1112 46.2357 26.2812C46.0028 23.7891 46.5983 22.4217 49.503 22.6213C51.0701 22.7311 52.1248 21.4235 52.0549 19.8764C51.9851 18.3292 50.6875 17.7935 49.2435 17.7536C49.0681 17.7536 48.8913 17.7712 48.7144 17.7887C48.522 17.8078 48.3295 17.827 48.1388 17.8235C48.0267 17.8235 47.9106 17.8296 47.7942 17.8358L47.7942 17.8358C47.1161 17.8716 46.4309 17.9078 46.5019 16.7322C46.511 16.5903 46.5144 16.4473 46.5178 16.3064C46.5391 15.4195 46.5585 14.612 47.9824 14.6494C49.2396 14.6907 50.4978 14.6082 51.7388 14.4031C54.008 14.0072 54.9363 11.7148 53.5156 10.0046C52.7836 9.12289 51.852 8.98648 51.09 10.1211C49.7603 9.06029 48.3571 9.32655 46.9535 9.59291C46.2218 9.73175 45.49 9.87063 44.7684 9.8216C42.9185 9.69184 41.9003 10.873 41.8571 12.7129C41.8087 14.4332 41.8166 16.1535 41.8245 17.875C41.8275 18.5208 41.8305 19.1669 41.8305 19.8131ZM58.3766 20.4784H58.0173C58.0173 21.2477 58.022 22.0199 58.0267 22.7947C58.0332 23.8665 58.0397 24.9434 58.0339 26.0249C58.0139 27.5454 57.1622 28.6567 55.6849 28.6367C54.2076 28.6167 53.9148 27.3724 53.9614 26.0415C53.9746 25.6895 53.9879 25.3374 54.0012 24.9853C54.1194 21.8632 54.2376 18.7386 54.2376 15.6141C54.2376 13.9106 55.2357 13.0721 56.5666 13.0089C58.0705 12.939 58.5097 14.1302 58.4032 15.6008C58.3199 16.7256 58.3396 17.8585 58.3594 18.9916C58.368 19.4874 58.3766 19.9832 58.3766 20.4784Z" fill="#95C6B7"/>
<path d="M10.5816 24.9741C10.4552 26.1253 9.76313 26.3482 8.8781 26.438C7.7036 26.5545 7.84335 25.8025 7.80009 25.0506C7.7402 24.0192 8.36904 23.8162 9.16757 23.7863C9.51561 23.7412 9.8666 23.844 10.1353 24.0698C10.404 24.2955 10.5659 24.6235 10.5816 24.9741Z" fill="#95C6B7"/>
<path d="M8.53201 19.1975C8.14606 18.8648 7.41408 18.7716 7.51057 18.1794C7.61759 17.5791 8.14184 17.1433 8.75161 17.1479C9.37047 17.118 9.78636 17.3609 9.7298 18.023C9.67324 18.6851 8.96788 18.8315 8.53201 19.1975Z" fill="#95C6B7"/>
<path fill-rule="evenodd" clip-rule="evenodd" d="M106.212 13.7977C105.792 14.565 105.402 15.357 105.012 16.1491C104.107 17.9879 103.202 19.8269 101.923 21.357C100.472 23.0938 99.8634 24.7608 99.4375 26.9068C97.6608 35.827 91.8282 41.4499 83.8662 45.2063C83.0861 45.5723 82.4577 45.2506 81.8406 44.9346L81.7734 44.9002C73.349 40.5948 67.3967 34.4162 66.5383 24.4713C66.5325 24.4023 66.529 24.3277 66.5253 24.2509C66.51 23.9279 66.4929 23.5676 66.302 23.4332C64.7908 22.284 63.9094 20.725 63.0205 19.1526C62.6921 18.5716 62.3626 17.9889 62 17.4243C59.1719 13.0291 60.0669 8.6738 64.8614 6.47453C66.3723 5.78191 67.9855 5.50197 69.5981 5.22212C70.1623 5.12421 70.7265 5.02631 71.2862 4.91075C73.3723 4.48154 75.2788 3.8028 76.1904 1.60353L76.2183 1.53586C76.3658 1.17523 76.5297 0.774692 77.1087 0.821638C77.7362 0.875829 77.8356 1.3261 77.9266 1.7386L77.9266 1.73871C77.9418 1.80738 77.9567 1.875 77.9738 1.93957C78.6625 4.47489 77.9738 6.72074 76.3102 8.73369C80.915 9.49894 85.3934 9.57214 89.782 8.73369C87.5594 4.17212 87.4762 3.28043 89.0899 0.369141C89.5358 0.369141 89.7055 0.648624 89.8352 1.03458C90.6304 3.40354 92.4737 4.44827 94.7761 4.90742C95.2863 5.00891 95.7985 5.10349 96.3105 5.19807L96.3106 5.19808L96.3106 5.19808L96.3106 5.19809L96.3107 5.1981L96.3107 5.19811L96.3107 5.19811L96.3108 5.19812L96.3108 5.19813L96.3108 5.19813L96.3109 5.19814C97.6119 5.43843 98.9127 5.67869 100.183 6.03201C103.117 6.84052 105.001 8.88341 106.212 11.6017V13.7977ZM85.7328 32.0973H80.0266C79.6946 32.119 79.3171 32.0623 78.9368 32.0051C77.9185 31.852 76.8803 31.6959 76.6429 33.0356C76.3468 34.6992 77.3316 36.2995 78.7157 37.5273C79.2211 36.8703 79.0356 36.2568 78.8563 35.6636C78.6814 35.085 78.5123 34.5257 78.9952 33.9639C79.4674 34.1963 79.9262 34.4551 80.3693 34.7391C80.5086 34.8408 80.6587 34.9408 80.8086 35.0406C81.7869 35.6924 82.758 36.3394 80.6721 37.4241C79.7937 37.8833 80.1231 38.4456 80.9716 38.7883C81.8084 39.0941 82.7045 39.2022 83.5901 39.1044C84.4584 39.0445 86.0023 38.8947 85.9191 38.3291C85.7152 37.0373 86.072 37.1099 86.6129 37.22C86.8313 37.2645 87.0796 37.315 87.3331 37.2844C88.6821 37.1205 89.0164 35.9917 89.3411 34.8956C89.4448 34.5453 89.5476 34.1984 89.6821 33.8873C90.2378 32.603 88.9734 32.074 88.2448 31.7945C87.7397 31.6008 87.1355 31.7588 86.5297 31.9172C86.2615 31.9873 85.9931 32.0575 85.7328 32.0973ZM62.7219 15.3582C61.2912 14.1437 61.8036 10.8132 63.557 9.65203C64.5403 8.27186 66.1002 7.41654 67.7925 7.32966C70.9367 7.26311 73.6817 6.2949 76.3833 4.53815C75.8471 7.723 73.4158 8.4065 71.0149 9.08146L70.8436 9.12967C70.5346 9.21601 70.2179 9.27729 69.9013 9.33856L69.9013 9.33856L69.9012 9.33857L69.9012 9.33857L69.9012 9.33858L69.9012 9.33859L69.9011 9.33859L69.9011 9.3386L69.9011 9.3386C69.205 9.47329 68.5096 9.60786 67.899 10.008C67.4432 10.3175 67.1271 10.7766 67.36 11.3156C67.5267 11.6208 67.8141 11.8418 68.1519 11.9245L68.1841 11.9292C72.6203 12.5799 72.6229 12.5803 72.3375 16.8654C73.0661 16.8034 73.2747 16.2927 73.484 15.78C73.6006 15.4945 73.7174 15.2083 73.9245 14.9988C74.7064 18.1829 73.3523 19.7667 70.3312 19.1312C68.3083 18.7053 66.2887 18.0465 65.0077 16.3164C64.6224 15.7957 64.1332 15.7331 63.6681 15.6736C63.3218 15.6293 62.9888 15.5868 62.7219 15.3582ZM102.153 9.37918C100.931 7.852 99.2446 7.38286 97.3913 7.0934C97.2694 7.07481 97.1474 7.05639 97.0253 7.03795L97.025 7.03791L97.0248 7.03787L97.0245 7.03784L97.0243 7.0378L97.024 7.03776L97.0238 7.03772L97.0235 7.03768C94.567 6.6667 92.0824 6.29149 89.975 4.55808C90.6005 6.92039 91.1994 7.50597 92.9229 8.42095C93.7986 8.88769 94.7278 9.10501 95.6548 9.32183C96.1156 9.42959 96.5758 9.53722 97.0287 9.6753C97.155 9.71371 97.2828 9.74155 97.4068 9.76854C97.9161 9.87947 98.3595 9.97602 98.3595 10.7333C98.3595 11.4616 97.9217 11.4932 97.4739 11.5256C97.3427 11.5351 97.2107 11.5447 97.0885 11.5718C94.7362 12.0809 93.1159 13.1489 93.798 15.947C93.8092 16.0946 93.7957 16.2431 93.758 16.3862C93.5852 16.4337 93.379 16.3903 93.1729 16.3469C92.7284 16.2534 92.2845 16.1601 92.1776 16.9785C92.0445 18.0066 93.5085 19.3973 94.5898 19.3075C98.0468 19.0646 100.685 17.2713 103.081 14.9522C105.077 13.0291 104.704 10.6069 102.156 9.37918H102.153ZM88.7474 17.6009L88.7473 17.6009C88.5993 18.0726 88.4502 18.5475 88.3147 19.0279L88.3214 19.0179C89.1964 19.1467 89.4586 18.761 89.6837 18.4299L89.6888 18.4223C89.9916 17.9565 90.3277 17.7802 90.7169 18.246C90.9698 18.6016 91.1924 18.9778 91.3824 19.3706C90.6599 19.7804 90.2055 20.4474 89.7513 21.1143C89.2726 21.817 88.7941 22.5195 88.002 22.9207C87.4937 23.1757 87.0811 22.9624 86.6385 22.7335C86.2553 22.5355 85.8497 22.3258 85.3402 22.3983C86.2485 23.9022 86.8874 25.4294 86.7543 27.1462C86.7451 27.2635 86.7372 27.3803 86.7294 27.4964C86.6498 28.6813 86.5755 29.7871 85.1239 30.4568C83.3838 31.2619 81.7868 31.2985 80.4359 30.0509C78.9552 28.6859 79.3419 26.8644 79.7032 25.1628L79.7034 25.1619C79.726 25.0554 79.7485 24.9493 79.7705 24.8438C79.8869 24.28 80.1615 23.7507 80.4438 23.2064C80.573 22.9573 80.7038 22.705 80.8219 22.4449C78.6792 23.0005 75.2721 21.3403 74.833 19.4504C74.6799 18.795 75.4185 17.9732 75.911 18.0197C77.5369 18.1662 77.3494 17.3195 77.1633 16.4791L77.1633 16.4791C77.138 16.3651 77.1128 16.2512 77.0921 16.1399C76.9353 15.1929 76.7051 14.2596 76.4034 13.3484C75.738 11.4685 76.1073 10.8596 78.1502 10.7365C78.6657 10.6793 79.1871 10.7063 79.694 10.8164C81.9141 11.4103 84.2513 11.4103 86.4715 10.8164C87.6193 10.5336 88.8637 10.5535 89.9018 11.2656C90.9173 11.9641 90.488 12.5909 90.0612 13.214C89.8518 13.5198 89.6429 13.8248 89.6057 14.1369C89.4708 15.2964 89.1121 16.4391 88.7474 17.6009ZM74.4703 23.5132C73.9579 25.6193 74.8363 26.9036 76.1538 27.9949C76.6313 28.3289 77.0849 28.6958 77.5113 29.0929C77.5926 29.1836 77.545 29.3539 77.496 29.5294C77.4065 29.8498 77.3122 30.1877 77.9871 30.091C78.6858 29.9812 78.6991 29.4056 78.6525 28.7269C78.5396 26.1478 76.7757 25.0008 74.8284 23.7345C74.7107 23.6579 74.5923 23.581 74.4736 23.5032L74.4703 23.5132ZM89.4792 28.3008C88.3479 29.0861 87.8755 28.7866 88.0551 27.1729L88.0584 27.1496C88.0826 27.0797 88.0659 26.9611 88.0471 26.8273C87.9881 26.407 87.9081 25.8368 89.0034 26.1548C89.9356 26.4079 89.8216 25.8833 89.7238 25.4335C89.6956 25.3038 89.6688 25.1803 89.6688 25.0835C89.7079 24.016 90.3911 24.0709 91.0429 24.1232C91.1123 24.1288 91.1813 24.1344 91.2492 24.1385C92.105 24.1876 91.9584 24.6832 91.8225 25.1424L91.8225 25.1425L91.8225 25.1425L91.8225 25.1425L91.8225 25.1425C91.7925 25.2439 91.763 25.3435 91.745 25.4361C91.4755 26.7703 90.5305 27.5722 89.4792 28.3008ZM72.7501 23.9856C70.5575 25.6492 71.2462 28.0914 74.7464 31.1557C74.6705 30.9824 74.5949 30.8107 74.5199 30.6403C73.5219 28.3747 72.6306 26.3513 72.7667 23.9623L72.7501 23.9856ZM72.2644 21.8727C69.5227 23.32 67.2935 22.6679 65.2773 19.9329L65.2939 19.9096C66.6104 20.5969 67.9449 20.8606 69.302 21.1288C70.2772 21.3215 71.2641 21.5165 72.2644 21.8727ZM94.104 21.9525C96.7857 23.3133 99.2312 22.5913 100.336 20.1292C99.3377 20.7637 98.2587 20.9317 97.1515 21.1041C96.1513 21.2598 95.1281 21.4191 94.1207 21.9292L94.104 21.9525ZM93.422 24.0151C95.4616 25.3859 95.039 28.0044 92.6601 29.4052L92.6767 29.3819C92.7718 28.8489 92.9035 28.3321 93.034 27.8201C93.3506 26.5774 93.66 25.363 93.422 24.0151Z" fill="#95C6B7"/>
<path d="M87.4097 33.7407C87.6659 35.015 87.7058 35.9666 86.7176 36.3126C86.2451 36.4757 85.054 35.9633 85.054 35.8402C85.1671 34.5858 86.4781 34.6457 87.4097 33.7407Z" fill="#95C6B7"/>
</g>
</svg>
