<svg width="92" height="92" viewBox="0 0 92 92" fill="none" xmlns="http://www.w3.org/2000/svg">
<circle cx="46" cy="46" r="46" fill="#F3BA2D"/>
<path d="M46 11L24.3824 32.6176L32.1029 40.3382L45.4853 26.9559L59.3824 40.8529L67.6176 32.6176L46 11Z" fill="white"/>
<path d="M11 46L19.2353 37.7647L27.4706 46L19.2353 54.2353L11 46Z" fill="white"/>
<path d="M23.8676 59.3824L32.1029 51.1471L46 65.0441L59.3824 51.6618L67.1029 59.3824L45.4853 81L23.8676 59.3824Z" fill="white"/>
<path d="M46 37.7647L37.7647 46L46 54.2353L54.2353 46L46 37.7647Z" fill="white"/>
<path d="M72.7647 37.7647L64.5294 46L72.7647 54.2353L81 46L72.7647 37.7647Z" fill="white"/>
</svg>
