<svg width="96" height="96" viewBox="0 0 96 96" fill="none" xmlns="http://www.w3.org/2000/svg">
<g filter="url(#filter0_dd_2238_15021)">
<path fill-rule="evenodd" clip-rule="evenodd" d="M42 3C39.7909 3 38 4.79086 38 7V33L12 33C9.79086 33 8 34.7909 8 37V49C8 51.2091 9.79086 53 12 53H38V79C38 81.2091 39.7909 83 42 83H54C56.2091 83 58 81.2091 58 79V53H84C86.2091 53 88 51.2091 88 49V37C88 34.7909 86.2091 33 84 33L58 33V7C58 4.79086 56.2091 3 54 3H42Z" fill="white"/>
</g>
<defs>
<filter id="filter0_dd_2238_15021" x="0" y="0" width="96" height="96" filterUnits="userSpaceOnUse" color-interpolation-filters="sRGB">
<feFlood flood-opacity="0" result="BackgroundImageFix"/>
<feColorMatrix in="SourceAlpha" type="matrix" values="0 0 0 0 0 0 0 0 0 0 0 0 0 0 0 0 0 0 127 0" result="hardAlpha"/>
<feOffset dy="5"/>
<feGaussianBlur stdDeviation="4"/>
<feComposite in2="hardAlpha" operator="out"/>
<feColorMatrix type="matrix" values="0 0 0 0 0 0 0 0 0 0 0 0 0 0 0 0 0 0 0.5 0"/>
<feBlend mode="normal" in2="BackgroundImageFix" result="effect1_dropShadow_2238_15021"/>
<feColorMatrix in="SourceAlpha" type="matrix" values="0 0 0 0 0 0 0 0 0 0 0 0 0 0 0 0 0 0 127 0" result="hardAlpha"/>
<feOffset dy="3"/>
<feComposite in2="hardAlpha" operator="out"/>
<feColorMatrix type="matrix" values="0 0 0 0 0.525 0 0 0 0 0.525 0 0 0 0 0.525 0 0 0 1 0"/>
<feBlend mode="normal" in2="effect1_dropShadow_2238_15021" result="effect2_dropShadow_2238_15021"/>
<feBlend mode="normal" in="SourceGraphic" in2="effect2_dropShadow_2238_15021" result="shape"/>
</filter>
</defs>
</svg>
