<svg width="207" height="164" viewBox="0 0 207 164" fill="none" xmlns="http://www.w3.org/2000/svg">
<path fill-rule="evenodd" clip-rule="evenodd" d="M195.243 10.8553L189.006 8.54852L195.243 6.24172L197.549 0L199.854 6.24172L206.092 8.54852L199.854 10.8553L197.549 17.097L195.243 10.8553Z" fill="#59CF9E"/>
<path fill-rule="evenodd" clip-rule="evenodd" d="M6.24327 103.855L0.00554869 101.549L6.24327 99.2417L8.54858 93L10.8539 99.2417L17.0916 101.549L10.8539 103.855L8.54858 110.097L6.24327 103.855Z" fill="#59CF9E"/>
<path fill-rule="evenodd" clip-rule="evenodd" d="M186.693 48.4042L185.549 45.3084L184.404 48.4042L181.306 49.5483L184.404 50.6925L185.549 53.7883L186.693 50.6925L189.791 49.5483L186.693 48.4042Z" fill="#59CF9E"/>
<path fill-rule="evenodd" clip-rule="evenodd" d="M34.6934 131.404L33.5485 128.308L32.4037 131.404L29.3059 132.548L32.4037 133.692L33.5485 136.788L34.6934 133.692L37.7912 132.548L34.6934 131.404Z" fill="#59CF9E"/>
<path d="M52.0745 157.285V53.2852C52.0745 48.8669 55.6562 45.2852 60.0745 45.2852H81.424L89.9413 54.2123H165.118C169.536 54.2123 173.118 57.794 173.118 62.2123V72" stroke="#F7CD0A" stroke-width="3" stroke-linejoin="round"/>
<path d="M70.5747 71.7524H182.432C185.231 71.7524 187.351 74.2806 186.863 77.0369L172.518 158.07C172.138 160.219 170.27 161.785 168.087 161.785H56.2299C53.4308 161.785 51.3109 159.257 51.7988 156.501L66.1436 75.468C66.524 73.3188 68.392 71.7524 70.5747 71.7524Z" stroke="#59CF9E" stroke-width="3"/>
</svg>
