<svg width="80" height="56" viewBox="0 0 80 56" fill="none" xmlns="http://www.w3.org/2000/svg">
<g opacity="0.9" filter="url(#filter0_ddi_300_5797)">
<path d="M24.456 10.056C20.76 10.056 17.736 10.872 15.336 12.552C12.744 14.28 11.496 16.68 11.496 19.704C11.496 22.728 12.792 25.032 15.432 26.616C16.44 27.192 19.08 28.152 23.304 29.496C27.096 30.648 29.304 31.416 29.976 31.752C32.088 32.808 33.192 34.248 33.192 36.072C33.192 37.512 32.424 38.616 30.984 39.48C29.544 40.296 27.528 40.728 25.032 40.728C22.2 40.728 20.136 40.2 18.792 39.24C17.304 38.136 16.392 36.264 16.008 33.672H10.44C10.68 38.04 12.264 41.208 15.144 43.224C17.496 44.856 20.808 45.672 25.032 45.672C29.4 45.672 32.808 44.76 35.208 43.032C37.608 41.256 38.808 38.808 38.808 35.736C38.808 32.568 37.32 30.12 34.344 28.344C33 27.576 30.024 26.424 25.368 24.984C22.2 23.976 20.232 23.256 19.512 22.872C17.88 22.008 17.112 20.808 17.112 19.368C17.112 17.736 17.784 16.536 19.224 15.816C20.376 15.192 22.008 14.904 24.168 14.904C26.664 14.904 28.584 15.336 29.832 16.296C31.08 17.208 31.992 18.744 32.472 20.856H38.04C37.704 17.112 36.312 14.328 33.912 12.552C31.656 10.872 28.488 10.056 24.456 10.056ZM55.6069 10.056C51.9109 10.056 48.8869 10.872 46.4869 12.552C43.8949 14.28 42.6469 16.68 42.6469 19.704C42.6469 22.728 43.9429 25.032 46.5829 26.616C47.5909 27.192 50.2309 28.152 54.4549 29.496C58.2469 30.648 60.4549 31.416 61.1269 31.752C63.2389 32.808 64.3429 34.248 64.3429 36.072C64.3429 37.512 63.5749 38.616 62.1349 39.48C60.6949 40.296 58.6789 40.728 56.1829 40.728C53.3509 40.728 51.2869 40.2 49.9429 39.24C48.4549 38.136 47.5429 36.264 47.1589 33.672H41.5909C41.8309 38.04 43.4149 41.208 46.2949 43.224C48.6469 44.856 51.9589 45.672 56.1829 45.672C60.5509 45.672 63.9589 44.76 66.3589 43.032C68.7589 41.256 69.9589 38.808 69.9589 35.736C69.9589 32.568 68.4709 30.12 65.4949 28.344C64.1509 27.576 61.1749 26.424 56.5189 24.984C53.3509 23.976 51.3829 23.256 50.6629 22.872C49.0309 22.008 48.2629 20.808 48.2629 19.368C48.2629 17.736 48.9349 16.536 50.3749 15.816C51.5269 15.192 53.1589 14.904 55.3189 14.904C57.8149 14.904 59.7349 15.336 60.9829 16.296C62.2309 17.208 63.1429 18.744 63.6229 20.856H69.1909C68.8549 17.112 67.4629 14.328 65.0629 12.552C62.8069 10.872 59.6389 10.056 55.6069 10.056Z" fill="#F7CD0A"/>
<path d="M15.336 12.552L15.8907 13.384L15.9002 13.3777L15.9095 13.3712L15.336 12.552ZM15.432 26.616L14.9175 27.4735L14.9266 27.479L14.9359 27.4842L15.432 26.616ZM23.304 29.496L23.0008 30.449L23.0133 30.4528L23.304 29.496ZM30.984 39.48L31.477 40.35L31.4878 40.3439L31.4985 40.3375L30.984 39.48ZM18.792 39.24L18.1962 40.0431L18.2034 40.0485L18.2108 40.0537L18.792 39.24ZM16.008 33.672L16.9972 33.5255L16.8708 32.672H16.008V33.672ZM10.44 33.672V32.672H9.38355L9.44151 33.7269L10.44 33.672ZM15.144 43.224L14.5705 44.0432L14.5739 44.0456L15.144 43.224ZM35.208 43.032L35.7924 43.8436L35.8028 43.8358L35.208 43.032ZM34.344 28.344L34.8565 27.4853L34.8483 27.4804L34.8401 27.4758L34.344 28.344ZM25.368 24.984L25.0648 25.937L25.0725 25.9394L25.368 24.984ZM19.512 22.872L19.9826 21.9896L19.9799 21.9882L19.512 22.872ZM19.224 15.816L19.6712 16.7104L19.6859 16.7031L19.7003 16.6953L19.224 15.816ZM29.832 16.296L29.2223 17.0886L29.232 17.0961L29.242 17.1034L29.832 16.296ZM32.472 20.856L31.4969 21.0776L31.6738 21.856H32.472V20.856ZM38.04 20.856V21.856H39.1338L39.036 20.7666L38.04 20.856ZM33.912 12.552L33.3147 13.354L33.3172 13.3558L33.912 12.552ZM24.456 9.056C20.6129 9.056 17.3726 9.90571 14.7625 11.7328L15.9095 13.3712C18.0994 11.8383 20.9071 11.056 24.456 11.056V9.056ZM14.7813 11.7199C11.9086 13.6351 10.496 16.3486 10.496 19.704H12.496C12.496 17.0114 13.5794 14.9249 15.8907 13.384L14.7813 11.7199ZM10.496 19.704C10.496 23.081 11.9778 25.7097 14.9175 27.4735L15.9465 25.7585C13.6062 24.3543 12.496 22.375 12.496 19.704H10.496ZM14.9359 27.4842C15.5214 27.8188 16.5061 28.2277 17.8189 28.7073C19.1516 29.1941 20.8826 29.7749 23.0008 30.4489L23.6072 28.5431C21.5014 27.8731 19.8004 27.3019 18.5051 26.8287C17.1899 26.3483 16.3506 25.9892 15.9281 25.7478L14.9359 27.4842ZM23.0133 30.4528C26.8366 31.6143 28.9498 32.3569 29.5288 32.6464L30.4232 30.8576C29.6582 30.4751 27.3554 29.6817 23.5947 28.5392L23.0133 30.4528ZM29.5288 32.6464C31.4371 33.6006 32.192 34.7573 32.192 36.072H34.192C34.192 33.7387 32.7389 32.0154 30.4232 30.8576L29.5288 32.6464ZM32.192 36.072C32.192 37.063 31.7028 37.8825 30.4695 38.6225L31.4985 40.3375C33.1452 39.3495 34.192 37.961 34.192 36.072H32.192ZM30.491 38.61C29.2556 39.31 27.4306 39.728 25.032 39.728V41.728C27.6254 41.728 29.8324 41.282 31.477 40.35L30.491 38.61ZM25.032 39.728C22.2965 39.728 20.4749 39.2132 19.3732 38.4263L18.2108 40.0537C19.7971 41.1868 22.1035 41.728 25.032 41.728V39.728ZM19.3878 38.4369C18.1953 37.5521 17.3605 35.978 16.9972 33.5255L15.0188 33.8185C15.4235 36.55 16.4127 38.7199 18.1962 40.0431L19.3878 38.4369ZM16.008 32.672H10.44V34.672H16.008V32.672ZM9.44151 33.7269C9.69422 38.3262 11.3832 41.8121 14.5705 44.0432L15.7175 42.4048C13.1448 40.6039 11.6658 37.7538 11.4385 33.6171L9.44151 33.7269ZM14.5739 44.0456C17.1564 45.8375 20.6975 46.672 25.032 46.672V44.672C20.9185 44.672 17.8356 43.8745 15.7141 42.4024L14.5739 44.0456ZM25.032 46.672C29.5241 46.672 33.1638 45.7361 35.7923 43.8435L34.6237 42.2205C32.4522 43.7839 29.2759 44.672 25.032 44.672V46.672ZM35.8028 43.8358C38.4686 41.8632 39.808 39.1112 39.808 35.736H37.808C37.808 38.5048 36.7474 40.6488 34.6132 42.2282L35.8028 43.8358ZM39.808 35.736C39.808 32.1746 38.0976 29.4195 34.8565 27.4853L33.8315 29.2027C36.5424 30.8205 37.808 32.9614 37.808 35.736H39.808ZM34.8401 27.4758C33.3886 26.6463 30.3134 25.4668 25.6635 24.0286L25.0725 25.9394C29.7346 27.3812 32.6114 28.5057 33.8479 29.2122L34.8401 27.4758ZM25.6712 24.0311C22.4764 23.0145 20.6053 22.3218 19.9826 21.9896L19.0414 23.7544C19.8587 24.1902 21.9236 24.9375 25.0648 25.9369L25.6712 24.0311ZM19.9799 21.9882C18.6025 21.259 18.112 20.362 18.112 19.368H16.112C16.112 21.254 17.1575 22.757 19.0441 23.7558L19.9799 21.9882ZM18.112 19.368C18.112 18.6898 18.2509 18.1651 18.4908 17.7555C18.7281 17.3505 19.1004 16.9958 19.6712 16.7104L18.7768 14.9216C17.9076 15.3561 17.2239 15.9615 16.7652 16.7445C16.3091 17.5229 16.112 18.4142 16.112 19.368H18.112ZM19.7003 16.6953C20.6351 16.1889 22.0688 15.904 24.168 15.904V13.904C21.9472 13.904 20.1169 14.1951 18.7477 14.9367L19.7003 16.6953ZM24.168 15.904C26.59 15.904 28.2376 16.3312 29.2223 17.0886L30.4417 15.5034C28.9304 14.3408 26.738 13.904 24.168 13.904V15.904ZM29.242 17.1034C30.2376 17.8309 31.0521 19.1206 31.4969 21.0776L33.4471 20.6344C32.9319 18.3674 31.9224 16.5851 30.422 15.4886L29.242 17.1034ZM32.472 21.856H38.04V19.856H32.472V21.856ZM39.036 20.7666C38.6813 16.8144 37.1916 13.7349 34.5068 11.7482L33.3172 13.3558C35.4324 14.9211 36.7267 17.4096 37.044 20.9454L39.036 20.7666ZM34.5093 11.75C32.0161 9.89331 28.6056 9.056 24.456 9.056V11.056C28.3704 11.056 31.2959 11.8507 33.3147 13.354L34.5093 11.75ZM46.4869 12.552L47.0416 13.384L47.0511 13.3777L47.0604 13.3712L46.4869 12.552ZM46.5829 26.616L46.0684 27.4735L46.0775 27.479L46.0868 27.4842L46.5829 26.616ZM54.4549 29.496L54.1517 30.449L54.1642 30.4528L54.4549 29.496ZM62.1349 39.48L62.6279 40.35L62.6388 40.3439L62.6494 40.3375L62.1349 39.48ZM49.9429 39.24L49.3471 40.0431L49.3543 40.0485L49.3617 40.0537L49.9429 39.24ZM47.1589 33.672L48.1481 33.5255L48.0217 32.672H47.1589V33.672ZM41.5909 33.672V32.672H40.5345L40.5924 33.7269L41.5909 33.672ZM46.2949 43.224L45.7215 44.0432L45.7248 44.0456L46.2949 43.224ZM66.3589 43.032L66.9433 43.8436L66.9538 43.8358L66.3589 43.032ZM65.4949 28.344L66.0074 27.4853L65.9993 27.4804L65.9911 27.4758L65.4949 28.344ZM56.5189 24.984L56.2157 25.937L56.2234 25.9394L56.5189 24.984ZM50.6629 22.872L51.1335 21.9896L51.1308 21.9882L50.6629 22.872ZM50.3749 15.816L50.8221 16.7104L50.8368 16.7031L50.8512 16.6953L50.3749 15.816ZM60.9829 16.296L60.3732 17.0886L60.383 17.0961L60.3929 17.1034L60.9829 16.296ZM63.6229 20.856L62.6478 21.0776L62.8247 21.856H63.6229V20.856ZM69.1909 20.856V21.856H70.2847L70.1869 20.7666L69.1909 20.856ZM65.0629 12.552L64.4657 13.354L64.4681 13.3558L65.0629 12.552ZM55.6069 9.056C51.7638 9.056 48.5235 9.90571 45.9135 11.7328L47.0604 13.3712C49.2503 11.8383 52.058 11.056 55.6069 11.056V9.056ZM45.9322 11.7199C43.0596 13.6351 41.6469 16.3486 41.6469 19.704H43.6469C43.6469 17.0114 44.7303 14.9249 47.0416 13.384L45.9322 11.7199ZM41.6469 19.704C41.6469 23.081 43.1287 25.7097 46.0684 27.4735L47.0974 25.7585C44.7571 24.3543 43.6469 22.375 43.6469 19.704H41.6469ZM46.0868 27.4842C46.6723 27.8188 47.657 28.2277 48.9698 28.7073C50.3026 29.1941 52.0335 29.7749 54.1517 30.4489L54.7581 28.5431C52.6524 27.8731 50.9513 27.3019 49.656 26.8287C48.3409 26.3483 47.5015 25.9892 47.0791 25.7478L46.0868 27.4842ZM54.1642 30.4528C57.9875 31.6143 60.1007 32.3569 60.6797 32.6464L61.5741 30.8576C60.8092 30.4751 58.5063 29.6817 54.7456 28.5392L54.1642 30.4528ZM60.6797 32.6464C62.588 33.6006 63.3429 34.7573 63.3429 36.072H65.3429C65.3429 33.7387 63.8899 32.0154 61.5741 30.8576L60.6797 32.6464ZM63.3429 36.072C63.3429 37.063 62.8537 37.8825 61.6204 38.6225L62.6494 40.3375C64.2962 39.3495 65.3429 37.961 65.3429 36.072H63.3429ZM61.6419 38.61C60.4065 39.31 58.5815 39.728 56.1829 39.728V41.728C58.7763 41.728 60.9833 41.282 62.6279 40.35L61.6419 38.61ZM56.1829 39.728C53.4474 39.728 51.6258 39.2132 50.5242 38.4263L49.3617 40.0537C50.948 41.1868 53.2545 41.728 56.1829 41.728V39.728ZM50.5388 38.4369C49.3462 37.5521 48.5115 35.978 48.1481 33.5255L46.1697 33.8185C46.5744 36.55 47.5636 38.7199 49.3471 40.0431L50.5388 38.4369ZM47.1589 32.672H41.5909V34.672H47.1589V32.672ZM40.5924 33.7269C40.8451 38.3262 42.5342 41.8121 45.7215 44.0432L46.8684 42.4048C44.2957 40.6039 42.8167 37.7538 42.5894 33.6171L40.5924 33.7269ZM45.7248 44.0456C48.3073 45.8375 51.8484 46.672 56.1829 46.672V44.672C52.0694 44.672 48.9865 43.8745 46.865 42.4024L45.7248 44.0456ZM56.1829 46.672C60.675 46.672 64.3147 45.7361 66.9432 43.8435L65.7746 42.2205C63.6031 43.7839 60.4268 44.672 56.1829 44.672V46.672ZM66.9538 43.8358C69.6195 41.8632 70.9589 39.1112 70.9589 35.736H68.9589C68.9589 38.5048 67.8984 40.6488 65.7641 42.2282L66.9538 43.8358ZM70.9589 35.736C70.9589 32.1746 69.2485 29.4195 66.0074 27.4853L64.9825 29.2027C67.6934 30.8205 68.9589 32.9614 68.9589 35.736H70.9589ZM65.9911 27.4758C64.5395 26.6463 61.4643 25.4668 56.8144 24.0286L56.2234 25.9394C60.8855 27.3812 63.7624 28.5057 64.9988 29.2122L65.9911 27.4758ZM56.8221 24.0311C53.6273 23.0145 51.7562 22.3218 51.1335 21.9896L50.1923 23.7544C51.0096 24.1902 53.0745 24.9375 56.2157 25.9369L56.8221 24.0311ZM51.1308 21.9882C49.7535 21.259 49.2629 20.362 49.2629 19.368H47.2629C47.2629 21.254 48.3084 22.757 50.195 23.7558L51.1308 21.9882ZM49.2629 19.368C49.2629 18.6898 49.4018 18.1651 49.6418 17.7555C49.879 17.3505 50.2513 16.9958 50.8221 16.7104L49.9277 14.9216C49.0585 15.3561 48.3748 15.9615 47.9161 16.7445C47.46 17.5229 47.2629 18.4142 47.2629 19.368H49.2629ZM50.8512 16.6953C51.7861 16.1889 53.2197 15.904 55.3189 15.904V13.904C53.0981 13.904 51.2678 14.1951 49.8986 14.9367L50.8512 16.6953ZM55.3189 15.904C57.741 15.904 59.3885 16.3312 60.3732 17.0886L61.5926 15.5034C60.0813 14.3408 57.8889 13.904 55.3189 13.904V15.904ZM60.3929 17.1034C61.3885 17.8309 62.203 19.1206 62.6478 21.0776L64.5981 20.6344C64.0828 18.3674 63.0734 16.5851 61.5729 15.4886L60.3929 17.1034ZM63.6229 21.856H69.1909V19.856H63.6229V21.856ZM70.1869 20.7666C69.8322 16.8144 68.3425 13.7349 65.6578 11.7482L64.4681 13.3558C66.5833 14.9211 67.8776 17.4096 68.1949 20.9454L70.1869 20.7666ZM65.6602 11.75C63.167 9.89331 59.7565 9.056 55.6069 9.056V11.056C59.5213 11.056 62.4469 11.8507 64.4657 13.354L65.6602 11.75Z" fill="#FFE7A8"/>
<path d="M15.336 12.552L15.8907 13.384L15.9002 13.3777L15.9095 13.3712L15.336 12.552ZM15.432 26.616L14.9175 27.4735L14.9266 27.479L14.9359 27.4842L15.432 26.616ZM23.304 29.496L23.0008 30.449L23.0133 30.4528L23.304 29.496ZM30.984 39.48L31.477 40.35L31.4878 40.3439L31.4985 40.3375L30.984 39.48ZM18.792 39.24L18.1962 40.0431L18.2034 40.0485L18.2108 40.0537L18.792 39.24ZM16.008 33.672L16.9972 33.5255L16.8708 32.672H16.008V33.672ZM10.44 33.672V32.672H9.38355L9.44151 33.7269L10.44 33.672ZM15.144 43.224L14.5705 44.0432L14.5739 44.0456L15.144 43.224ZM35.208 43.032L35.7924 43.8436L35.8028 43.8358L35.208 43.032ZM34.344 28.344L34.8565 27.4853L34.8483 27.4804L34.8401 27.4758L34.344 28.344ZM25.368 24.984L25.0648 25.937L25.0725 25.9394L25.368 24.984ZM19.512 22.872L19.9826 21.9896L19.9799 21.9882L19.512 22.872ZM19.224 15.816L19.6712 16.7104L19.6859 16.7031L19.7003 16.6953L19.224 15.816ZM29.832 16.296L29.2223 17.0886L29.232 17.0961L29.242 17.1034L29.832 16.296ZM32.472 20.856L31.4969 21.0776L31.6738 21.856H32.472V20.856ZM38.04 20.856V21.856H39.1338L39.036 20.7666L38.04 20.856ZM33.912 12.552L33.3147 13.354L33.3172 13.3558L33.912 12.552ZM24.456 9.056C20.6129 9.056 17.3726 9.90571 14.7625 11.7328L15.9095 13.3712C18.0994 11.8383 20.9071 11.056 24.456 11.056V9.056ZM14.7813 11.7199C11.9086 13.6351 10.496 16.3486 10.496 19.704H12.496C12.496 17.0114 13.5794 14.9249 15.8907 13.384L14.7813 11.7199ZM10.496 19.704C10.496 23.081 11.9778 25.7097 14.9175 27.4735L15.9465 25.7585C13.6062 24.3543 12.496 22.375 12.496 19.704H10.496ZM14.9359 27.4842C15.5214 27.8188 16.5061 28.2277 17.8189 28.7073C19.1516 29.1941 20.8826 29.7749 23.0008 30.4489L23.6072 28.5431C21.5014 27.8731 19.8004 27.3019 18.5051 26.8287C17.1899 26.3483 16.3506 25.9892 15.9281 25.7478L14.9359 27.4842ZM23.0133 30.4528C26.8366 31.6143 28.9498 32.3569 29.5288 32.6464L30.4232 30.8576C29.6582 30.4751 27.3554 29.6817 23.5947 28.5392L23.0133 30.4528ZM29.5288 32.6464C31.4371 33.6006 32.192 34.7573 32.192 36.072H34.192C34.192 33.7387 32.7389 32.0154 30.4232 30.8576L29.5288 32.6464ZM32.192 36.072C32.192 37.063 31.7028 37.8825 30.4695 38.6225L31.4985 40.3375C33.1452 39.3495 34.192 37.961 34.192 36.072H32.192ZM30.491 38.61C29.2556 39.31 27.4306 39.728 25.032 39.728V41.728C27.6254 41.728 29.8324 41.282 31.477 40.35L30.491 38.61ZM25.032 39.728C22.2965 39.728 20.4749 39.2132 19.3732 38.4263L18.2108 40.0537C19.7971 41.1868 22.1035 41.728 25.032 41.728V39.728ZM19.3878 38.4369C18.1953 37.5521 17.3605 35.978 16.9972 33.5255L15.0188 33.8185C15.4235 36.55 16.4127 38.7199 18.1962 40.0431L19.3878 38.4369ZM16.008 32.672H10.44V34.672H16.008V32.672ZM9.44151 33.7269C9.69422 38.3262 11.3832 41.8121 14.5705 44.0432L15.7175 42.4048C13.1448 40.6039 11.6658 37.7538 11.4385 33.6171L9.44151 33.7269ZM14.5739 44.0456C17.1564 45.8375 20.6975 46.672 25.032 46.672V44.672C20.9185 44.672 17.8356 43.8745 15.7141 42.4024L14.5739 44.0456ZM25.032 46.672C29.5241 46.672 33.1638 45.7361 35.7923 43.8435L34.6237 42.2205C32.4522 43.7839 29.2759 44.672 25.032 44.672V46.672ZM35.8028 43.8358C38.4686 41.8632 39.808 39.1112 39.808 35.736H37.808C37.808 38.5048 36.7474 40.6488 34.6132 42.2282L35.8028 43.8358ZM39.808 35.736C39.808 32.1746 38.0976 29.4195 34.8565 27.4853L33.8315 29.2027C36.5424 30.8205 37.808 32.9614 37.808 35.736H39.808ZM34.8401 27.4758C33.3886 26.6463 30.3134 25.4668 25.6635 24.0286L25.0725 25.9394C29.7346 27.3812 32.6114 28.5057 33.8479 29.2122L34.8401 27.4758ZM25.6712 24.0311C22.4764 23.0145 20.6053 22.3218 19.9826 21.9896L19.0414 23.7544C19.8587 24.1902 21.9236 24.9375 25.0648 25.9369L25.6712 24.0311ZM19.9799 21.9882C18.6025 21.259 18.112 20.362 18.112 19.368H16.112C16.112 21.254 17.1575 22.757 19.0441 23.7558L19.9799 21.9882ZM18.112 19.368C18.112 18.6898 18.2509 18.1651 18.4908 17.7555C18.7281 17.3505 19.1004 16.9958 19.6712 16.7104L18.7768 14.9216C17.9076 15.3561 17.2239 15.9615 16.7652 16.7445C16.3091 17.5229 16.112 18.4142 16.112 19.368H18.112ZM19.7003 16.6953C20.6351 16.1889 22.0688 15.904 24.168 15.904V13.904C21.9472 13.904 20.1169 14.1951 18.7477 14.9367L19.7003 16.6953ZM24.168 15.904C26.59 15.904 28.2376 16.3312 29.2223 17.0886L30.4417 15.5034C28.9304 14.3408 26.738 13.904 24.168 13.904V15.904ZM29.242 17.1034C30.2376 17.8309 31.0521 19.1206 31.4969 21.0776L33.4471 20.6344C32.9319 18.3674 31.9224 16.5851 30.422 15.4886L29.242 17.1034ZM32.472 21.856H38.04V19.856H32.472V21.856ZM39.036 20.7666C38.6813 16.8144 37.1916 13.7349 34.5068 11.7482L33.3172 13.3558C35.4324 14.9211 36.7267 17.4096 37.044 20.9454L39.036 20.7666ZM34.5093 11.75C32.0161 9.89331 28.6056 9.056 24.456 9.056V11.056C28.3704 11.056 31.2959 11.8507 33.3147 13.354L34.5093 11.75ZM46.4869 12.552L47.0416 13.384L47.0511 13.3777L47.0604 13.3712L46.4869 12.552ZM46.5829 26.616L46.0684 27.4735L46.0775 27.479L46.0868 27.4842L46.5829 26.616ZM54.4549 29.496L54.1517 30.449L54.1642 30.4528L54.4549 29.496ZM62.1349 39.48L62.6279 40.35L62.6388 40.3439L62.6494 40.3375L62.1349 39.48ZM49.9429 39.24L49.3471 40.0431L49.3543 40.0485L49.3617 40.0537L49.9429 39.24ZM47.1589 33.672L48.1481 33.5255L48.0217 32.672H47.1589V33.672ZM41.5909 33.672V32.672H40.5345L40.5924 33.7269L41.5909 33.672ZM46.2949 43.224L45.7215 44.0432L45.7248 44.0456L46.2949 43.224ZM66.3589 43.032L66.9433 43.8436L66.9538 43.8358L66.3589 43.032ZM65.4949 28.344L66.0074 27.4853L65.9993 27.4804L65.9911 27.4758L65.4949 28.344ZM56.5189 24.984L56.2157 25.937L56.2234 25.9394L56.5189 24.984ZM50.6629 22.872L51.1335 21.9896L51.1308 21.9882L50.6629 22.872ZM50.3749 15.816L50.8221 16.7104L50.8368 16.7031L50.8512 16.6953L50.3749 15.816ZM60.9829 16.296L60.3732 17.0886L60.383 17.0961L60.3929 17.1034L60.9829 16.296ZM63.6229 20.856L62.6478 21.0776L62.8247 21.856H63.6229V20.856ZM69.1909 20.856V21.856H70.2847L70.1869 20.7666L69.1909 20.856ZM65.0629 12.552L64.4657 13.354L64.4681 13.3558L65.0629 12.552ZM55.6069 9.056C51.7638 9.056 48.5235 9.90571 45.9135 11.7328L47.0604 13.3712C49.2503 11.8383 52.058 11.056 55.6069 11.056V9.056ZM45.9322 11.7199C43.0596 13.6351 41.6469 16.3486 41.6469 19.704H43.6469C43.6469 17.0114 44.7303 14.9249 47.0416 13.384L45.9322 11.7199ZM41.6469 19.704C41.6469 23.081 43.1287 25.7097 46.0684 27.4735L47.0974 25.7585C44.7571 24.3543 43.6469 22.375 43.6469 19.704H41.6469ZM46.0868 27.4842C46.6723 27.8188 47.657 28.2277 48.9698 28.7073C50.3026 29.1941 52.0335 29.7749 54.1517 30.4489L54.7581 28.5431C52.6524 27.8731 50.9513 27.3019 49.656 26.8287C48.3409 26.3483 47.5015 25.9892 47.0791 25.7478L46.0868 27.4842ZM54.1642 30.4528C57.9875 31.6143 60.1007 32.3569 60.6797 32.6464L61.5741 30.8576C60.8092 30.4751 58.5063 29.6817 54.7456 28.5392L54.1642 30.4528ZM60.6797 32.6464C62.588 33.6006 63.3429 34.7573 63.3429 36.072H65.3429C65.3429 33.7387 63.8899 32.0154 61.5741 30.8576L60.6797 32.6464ZM63.3429 36.072C63.3429 37.063 62.8537 37.8825 61.6204 38.6225L62.6494 40.3375C64.2962 39.3495 65.3429 37.961 65.3429 36.072H63.3429ZM61.6419 38.61C60.4065 39.31 58.5815 39.728 56.1829 39.728V41.728C58.7763 41.728 60.9833 41.282 62.6279 40.35L61.6419 38.61ZM56.1829 39.728C53.4474 39.728 51.6258 39.2132 50.5242 38.4263L49.3617 40.0537C50.948 41.1868 53.2545 41.728 56.1829 41.728V39.728ZM50.5388 38.4369C49.3462 37.5521 48.5115 35.978 48.1481 33.5255L46.1697 33.8185C46.5744 36.55 47.5636 38.7199 49.3471 40.0431L50.5388 38.4369ZM47.1589 32.672H41.5909V34.672H47.1589V32.672ZM40.5924 33.7269C40.8451 38.3262 42.5342 41.8121 45.7215 44.0432L46.8684 42.4048C44.2957 40.6039 42.8167 37.7538 42.5894 33.6171L40.5924 33.7269ZM45.7248 44.0456C48.3073 45.8375 51.8484 46.672 56.1829 46.672V44.672C52.0694 44.672 48.9865 43.8745 46.865 42.4024L45.7248 44.0456ZM56.1829 46.672C60.675 46.672 64.3147 45.7361 66.9432 43.8435L65.7746 42.2205C63.6031 43.7839 60.4268 44.672 56.1829 44.672V46.672ZM66.9538 43.8358C69.6195 41.8632 70.9589 39.1112 70.9589 35.736H68.9589C68.9589 38.5048 67.8984 40.6488 65.7641 42.2282L66.9538 43.8358ZM70.9589 35.736C70.9589 32.1746 69.2485 29.4195 66.0074 27.4853L64.9825 29.2027C67.6934 30.8205 68.9589 32.9614 68.9589 35.736H70.9589ZM65.9911 27.4758C64.5395 26.6463 61.4643 25.4668 56.8144 24.0286L56.2234 25.9394C60.8855 27.3812 63.7624 28.5057 64.9988 29.2122L65.9911 27.4758ZM56.8221 24.0311C53.6273 23.0145 51.7562 22.3218 51.1335 21.9896L50.1923 23.7544C51.0096 24.1902 53.0745 24.9375 56.2157 25.9369L56.8221 24.0311ZM51.1308 21.9882C49.7535 21.259 49.2629 20.362 49.2629 19.368H47.2629C47.2629 21.254 48.3084 22.757 50.195 23.7558L51.1308 21.9882ZM49.2629 19.368C49.2629 18.6898 49.4018 18.1651 49.6418 17.7555C49.879 17.3505 50.2513 16.9958 50.8221 16.7104L49.9277 14.9216C49.0585 15.3561 48.3748 15.9615 47.9161 16.7445C47.46 17.5229 47.2629 18.4142 47.2629 19.368H49.2629ZM50.8512 16.6953C51.7861 16.1889 53.2197 15.904 55.3189 15.904V13.904C53.0981 13.904 51.2678 14.1951 49.8986 14.9367L50.8512 16.6953ZM55.3189 15.904C57.741 15.904 59.3885 16.3312 60.3732 17.0886L61.5926 15.5034C60.0813 14.3408 57.8889 13.904 55.3189 13.904V15.904ZM60.3929 17.1034C61.3885 17.8309 62.203 19.1206 62.6478 21.0776L64.5981 20.6344C64.0828 18.3674 63.0734 16.5851 61.5729 15.4886L60.3929 17.1034ZM63.6229 21.856H69.1909V19.856H63.6229V21.856ZM70.1869 20.7666C69.8322 16.8144 68.3425 13.7349 65.6578 11.7482L64.4681 13.3558C66.5833 14.9211 67.8776 17.4096 68.1949 20.9454L70.1869 20.7666ZM65.6602 11.75C63.167 9.89331 59.7565 9.056 55.6069 9.056V11.056C59.5213 11.056 62.4469 11.8507 64.4657 13.354L65.6602 11.75Z" fill="white" fill-opacity="0.63"/>
</g>
<defs>
<filter id="filter0_ddi_300_5797" x="0.440002" y="0.0560303" width="79.5189" height="55.616" filterUnits="userSpaceOnUse" color-interpolation-filters="sRGB">
<feFlood flood-opacity="0" result="BackgroundImageFix"/>
<feColorMatrix in="SourceAlpha" type="matrix" values="0 0 0 0 0 0 0 0 0 0 0 0 0 0 0 0 0 0 127 0" result="hardAlpha"/>
<feOffset dy="2"/>
<feGaussianBlur stdDeviation="2"/>
<feComposite in2="hardAlpha" operator="out"/>
<feColorMatrix type="matrix" values="0 0 0 0 0.968627 0 0 0 0 0.803922 0 0 0 0 0.0392157 0 0 0 0.69 0"/>
<feBlend mode="normal" in2="BackgroundImageFix" result="effect1_dropShadow_300_5797"/>
<feColorMatrix in="SourceAlpha" type="matrix" values="0 0 0 0 0 0 0 0 0 0 0 0 0 0 0 0 0 0 127 0" result="hardAlpha"/>
<feOffset/>
<feGaussianBlur stdDeviation="5"/>
<feComposite in2="hardAlpha" operator="out"/>
<feColorMatrix type="matrix" values="0 0 0 0 0.90733 0 0 0 0 0.495493 0 0 0 0 0 0 0 0 1 0"/>
<feBlend mode="normal" in2="effect1_dropShadow_300_5797" result="effect2_dropShadow_300_5797"/>
<feBlend mode="normal" in="SourceGraphic" in2="effect2_dropShadow_300_5797" result="shape"/>
<feColorMatrix in="SourceAlpha" type="matrix" values="0 0 0 0 0 0 0 0 0 0 0 0 0 0 0 0 0 0 127 0" result="hardAlpha"/>
<feOffset dy="2"/>
<feGaussianBlur stdDeviation="1"/>
<feComposite in2="hardAlpha" operator="arithmetic" k2="-1" k3="1"/>
<feColorMatrix type="matrix" values="0 0 0 0 1 0 0 0 0 0.6 0 0 0 0 0 0 0 0 1 0"/>
<feBlend mode="normal" in2="shape" result="effect3_innerShadow_300_5797"/>
</filter>
</defs>
</svg>
