<svg width="53" height="55" viewBox="0 0 53 55" fill="none" xmlns="http://www.w3.org/2000/svg">
<g opacity="0.9" filter="url(#filter0_ddi_300_5831)">
<path d="M23.104 10.728L10 45H16L19.12 36.408H33.472L36.592 45H42.592L29.488 10.728H23.104ZM20.8 31.8L26.224 16.776H26.416L31.792 31.8H20.8Z" fill="#1F38FF"/>
<path d="M23.104 10.728V9.728H22.4157L22.1699 10.3709L23.104 10.728ZM10 45L9.06595 44.6429L8.54704 46H10V45ZM16 45V46H16.7008L16.9399 45.3413L16 45ZM19.12 36.408V35.408H18.4192L18.1801 36.0667L19.12 36.408ZM33.472 36.408L34.4119 36.0667L34.1728 35.408H33.472V36.408ZM36.592 45L35.6521 45.3413L35.8912 46H36.592V45ZM42.592 45V46H44.045L43.5261 44.6429L42.592 45ZM29.488 10.728L30.4221 10.3709L30.1763 9.728H29.488V10.728ZM20.8 31.8L19.8594 31.4604L19.3758 32.8H20.8V31.8ZM26.224 16.776V15.776H25.5219L25.2834 16.4364L26.224 16.776ZM26.416 16.776L27.3575 16.4391L27.1203 15.776H26.416V16.776ZM31.792 31.8V32.8H33.2119L32.7335 31.4631L31.792 31.8ZM22.1699 10.3709L9.06595 44.6429L10.9341 45.3571L24.0381 11.0851L22.1699 10.3709ZM10 46H16V44H10V46ZM16.9399 45.3413L20.0599 36.7493L18.1801 36.0667L15.0601 44.6587L16.9399 45.3413ZM19.12 37.408H33.472V35.408H19.12V37.408ZM32.5321 36.7493L35.6521 45.3413L37.5319 44.6587L34.4119 36.0667L32.5321 36.7493ZM36.592 46H42.592V44H36.592V46ZM43.5261 44.6429L30.4221 10.3709L28.5539 11.0851L41.6579 45.3571L43.5261 44.6429ZM29.488 9.728H23.104V11.728H29.488V9.728ZM21.7406 32.1396L27.1646 17.1156L25.2834 16.4364L19.8594 31.4604L21.7406 32.1396ZM26.224 17.776H26.416V15.776H26.224V17.776ZM25.4745 17.1129L30.8505 32.1369L32.7335 31.4631L27.3575 16.4391L25.4745 17.1129ZM31.792 30.8H20.8V32.8H31.792V30.8Z" fill="#3FAEFF"/>
<path d="M23.104 10.728V9.728H22.4157L22.1699 10.3709L23.104 10.728ZM10 45L9.06595 44.6429L8.54704 46H10V45ZM16 45V46H16.7008L16.9399 45.3413L16 45ZM19.12 36.408V35.408H18.4192L18.1801 36.0667L19.12 36.408ZM33.472 36.408L34.4119 36.0667L34.1728 35.408H33.472V36.408ZM36.592 45L35.6521 45.3413L35.8912 46H36.592V45ZM42.592 45V46H44.045L43.5261 44.6429L42.592 45ZM29.488 10.728L30.4221 10.3709L30.1763 9.728H29.488V10.728ZM20.8 31.8L19.8594 31.4604L19.3758 32.8H20.8V31.8ZM26.224 16.776V15.776H25.5219L25.2834 16.4364L26.224 16.776ZM26.416 16.776L27.3575 16.4391L27.1203 15.776H26.416V16.776ZM31.792 31.8V32.8H33.2119L32.7335 31.4631L31.792 31.8ZM22.1699 10.3709L9.06595 44.6429L10.9341 45.3571L24.0381 11.0851L22.1699 10.3709ZM10 46H16V44H10V46ZM16.9399 45.3413L20.0599 36.7493L18.1801 36.0667L15.0601 44.6587L16.9399 45.3413ZM19.12 37.408H33.472V35.408H19.12V37.408ZM32.5321 36.7493L35.6521 45.3413L37.5319 44.6587L34.4119 36.0667L32.5321 36.7493ZM36.592 46H42.592V44H36.592V46ZM43.5261 44.6429L30.4221 10.3709L28.5539 11.0851L41.6579 45.3571L43.5261 44.6429ZM29.488 9.728H23.104V11.728H29.488V9.728ZM21.7406 32.1396L27.1646 17.1156L25.2834 16.4364L19.8594 31.4604L21.7406 32.1396ZM26.224 17.776H26.416V15.776H26.224V17.776ZM25.4745 17.1129L30.8505 32.1369L32.7335 31.4631L27.3575 16.4391L25.4745 17.1129ZM31.792 30.8H20.8V32.8H31.792V30.8Z" fill="white" fill-opacity="0.63"/>
</g>
<defs>
<filter id="filter0_ddi_300_5831" x="0" y="0.728027" width="52.592" height="54.272" filterUnits="userSpaceOnUse" color-interpolation-filters="sRGB">
<feFlood flood-opacity="0" result="BackgroundImageFix"/>
<feColorMatrix in="SourceAlpha" type="matrix" values="0 0 0 0 0 0 0 0 0 0 0 0 0 0 0 0 0 0 127 0" result="hardAlpha"/>
<feOffset dy="2"/>
<feGaussianBlur stdDeviation="2"/>
<feComposite in2="hardAlpha" operator="out"/>
<feColorMatrix type="matrix" values="0 0 0 0 0.222809 0 0 0 0 0.638112 0 0 0 0 1 0 0 0 0.5 0"/>
<feBlend mode="normal" in2="BackgroundImageFix" result="effect1_dropShadow_300_5831"/>
<feColorMatrix in="SourceAlpha" type="matrix" values="0 0 0 0 0 0 0 0 0 0 0 0 0 0 0 0 0 0 127 0" result="hardAlpha"/>
<feOffset/>
<feGaussianBlur stdDeviation="5"/>
<feComposite in2="hardAlpha" operator="out"/>
<feColorMatrix type="matrix" values="0 0 0 0 0.120655 0 0 0 0 0.218327 0 0 0 0 1 0 0 0 1 0"/>
<feBlend mode="normal" in2="effect1_dropShadow_300_5831" result="effect2_dropShadow_300_5831"/>
<feBlend mode="normal" in="SourceGraphic" in2="effect2_dropShadow_300_5831" result="shape"/>
<feColorMatrix in="SourceAlpha" type="matrix" values="0 0 0 0 0 0 0 0 0 0 0 0 0 0 0 0 0 0 127 0" result="hardAlpha"/>
<feOffset dy="2"/>
<feGaussianBlur stdDeviation="1"/>
<feComposite in2="hardAlpha" operator="arithmetic" k2="-1" k3="1"/>
<feColorMatrix type="matrix" values="0 0 0 0 0.247297 0 0 0 0 0.683221 0 0 0 0 1 0 0 0 1 0"/>
<feBlend mode="normal" in2="shape" result="effect3_innerShadow_300_5831"/>
</filter>
</defs>
</svg>
