<svg width="49" height="55" viewBox="0 0 49 55" fill="none" xmlns="http://www.w3.org/2000/svg">
<g opacity="0.9" filter="url(#filter0_ddi_300_5848)">
<path d="M10.36 10.728V45H26.104C29.752 45 32.632 44.328 34.648 42.984C37 41.352 38.2 38.808 38.2 35.352C38.2 33.048 37.624 31.176 36.52 29.832C35.368 28.44 33.688 27.528 31.432 27.096C33.16 26.424 34.456 25.512 35.368 24.264C36.28 22.92 36.76 21.288 36.76 19.368C36.76 16.776 35.848 14.712 34.072 13.176C32.152 11.544 29.464 10.728 26.056 10.728H10.36ZM15.976 15.336H24.664C26.968 15.336 28.6 15.72 29.656 16.488C30.616 17.208 31.144 18.408 31.144 20.04C31.144 21.816 30.616 23.112 29.656 23.928C28.648 24.696 26.968 25.128 24.568 25.128H15.976V15.336ZM15.976 29.736H25.432C27.928 29.736 29.752 30.168 30.904 31.032C32.008 31.896 32.584 33.288 32.584 35.256C32.584 37.176 31.816 38.52 30.28 39.384C29.08 40.056 27.4 40.392 25.288 40.392H15.976V29.736Z" fill="#007254"/>
<path d="M10.36 10.728V9.728H9.36V10.728H10.36ZM10.36 45H9.36V46H10.36V45ZM34.648 42.984L35.2027 43.8161L35.2104 43.8109L35.2181 43.8056L34.648 42.984ZM36.52 29.832L37.2927 29.1973L37.2904 29.1944L36.52 29.832ZM31.432 27.096L31.0696 26.164L27.829 27.4242L31.2439 28.0782L31.432 27.096ZM35.368 24.264L36.1754 24.854L36.1857 24.8399L36.1955 24.8255L35.368 24.264ZM34.072 13.176L34.7262 12.4196L34.7196 12.4141L34.072 13.176ZM15.976 15.336V14.336H14.976V15.336H15.976ZM29.656 16.488L30.256 15.688L30.2501 15.6836L30.2442 15.6793L29.656 16.488ZM29.656 23.928L30.262 24.7234L30.2833 24.7072L30.3036 24.6899L29.656 23.928ZM15.976 25.128H14.976V26.128H15.976V25.128ZM15.976 29.736V28.736H14.976V29.736H15.976ZM30.904 31.032L31.5203 30.2445L31.5122 30.2382L31.504 30.232L30.904 31.032ZM30.28 39.384L30.7686 40.2565L30.7703 40.2556L30.28 39.384ZM15.976 40.392H14.976V41.392H15.976V40.392ZM9.36 10.728V45H11.36V10.728H9.36ZM10.36 46H26.104V44H10.36V46ZM26.104 46C29.8527 46 32.9571 45.3131 35.2027 43.8161L34.0933 42.152C32.3069 43.3429 29.6513 44 26.104 44V46ZM35.2181 43.8056C37.8928 41.9496 39.2 39.0648 39.2 35.352H37.2C37.2 38.5512 36.1072 40.7544 34.0779 42.1624L35.2181 43.8056ZM39.2 35.352C39.2 32.8884 38.5836 30.7688 37.2927 29.1973L35.7473 30.4667C36.6644 31.5832 37.2 33.2076 37.2 35.352H39.2ZM37.2904 29.1944C35.9561 27.5822 34.0456 26.5783 31.6201 26.1138L31.2439 28.0782C33.3304 28.4777 34.7799 29.2978 35.7496 30.4696L37.2904 29.1944ZM31.7944 28.028C33.6535 27.305 35.1244 26.2922 36.1754 24.854L34.5606 23.674C33.7876 24.7318 32.6665 25.543 31.0696 26.164L31.7944 28.028ZM36.1955 24.8255C37.2342 23.2948 37.76 21.4611 37.76 19.368H35.76C35.76 21.1148 35.3258 22.5452 34.5405 23.7025L36.1955 24.8255ZM37.76 19.368C37.76 16.512 36.741 14.1622 34.7262 12.4196L33.4178 13.9324C34.955 15.2618 35.76 17.04 35.76 19.368H37.76ZM34.7196 12.4141C32.5626 10.5806 29.6153 9.728 26.056 9.728V11.728C29.3127 11.728 31.7414 12.5074 33.4244 13.9379L34.7196 12.4141ZM26.056 9.728H10.36V11.728H26.056V9.728ZM15.976 16.336H24.664V14.336H15.976V16.336ZM24.664 16.336C26.894 16.336 28.2677 16.7148 29.0678 17.2967L30.2442 15.6793C28.9323 14.7252 27.042 14.336 24.664 14.336V16.336ZM29.056 17.288C29.6944 17.7668 30.144 18.624 30.144 20.04H32.144C32.144 18.192 31.5376 16.6492 30.256 15.688L29.056 17.288ZM30.144 20.04C30.144 21.6202 29.6799 22.5953 29.0084 23.1661L30.3036 24.6899C31.5521 23.6287 32.144 22.0118 32.144 20.04H30.144ZM29.05 23.1326C28.3024 23.7021 26.8905 24.128 24.568 24.128V26.128C27.0455 26.128 28.9936 25.6899 30.262 24.7234L29.05 23.1326ZM24.568 24.128H15.976V26.128H24.568V24.128ZM16.976 25.128V15.336H14.976V25.128H16.976ZM15.976 30.736H25.432V28.736H15.976V30.736ZM25.432 30.736C27.8536 30.736 29.4118 31.1629 30.304 31.832L31.504 30.232C30.0922 29.1731 28.0024 28.736 25.432 28.736V30.736ZM30.2877 31.8195C31.0723 32.4335 31.584 33.482 31.584 35.256H33.584C33.584 33.094 32.9437 31.3585 31.5203 30.2445L30.2877 31.8195ZM31.584 35.256C31.584 36.0814 31.4197 36.7211 31.136 37.2265C30.8542 37.7284 30.4216 38.157 29.7897 38.5124L30.7703 40.2556C31.6744 39.747 32.3938 39.0716 32.88 38.2055C33.3643 37.3429 33.584 36.3506 33.584 35.256H31.584ZM29.7914 38.5115C28.8012 39.066 27.3151 39.392 25.288 39.392V41.392C27.4849 41.392 29.3588 41.046 30.7686 40.2565L29.7914 38.5115ZM25.288 39.392H15.976V41.392H25.288V39.392ZM16.976 40.392V29.736H14.976V40.392H16.976Z" fill="#16C9A2"/>
<path d="M10.36 10.728V9.728H9.36V10.728H10.36ZM10.36 45H9.36V46H10.36V45ZM34.648 42.984L35.2027 43.8161L35.2104 43.8109L35.2181 43.8056L34.648 42.984ZM36.52 29.832L37.2927 29.1973L37.2904 29.1944L36.52 29.832ZM31.432 27.096L31.0696 26.164L27.829 27.4242L31.2439 28.0782L31.432 27.096ZM35.368 24.264L36.1754 24.854L36.1857 24.8399L36.1955 24.8255L35.368 24.264ZM34.072 13.176L34.7262 12.4196L34.7196 12.4141L34.072 13.176ZM15.976 15.336V14.336H14.976V15.336H15.976ZM29.656 16.488L30.256 15.688L30.2501 15.6836L30.2442 15.6793L29.656 16.488ZM29.656 23.928L30.262 24.7234L30.2833 24.7072L30.3036 24.6899L29.656 23.928ZM15.976 25.128H14.976V26.128H15.976V25.128ZM15.976 29.736V28.736H14.976V29.736H15.976ZM30.904 31.032L31.5203 30.2445L31.5122 30.2382L31.504 30.232L30.904 31.032ZM30.28 39.384L30.7686 40.2565L30.7703 40.2556L30.28 39.384ZM15.976 40.392H14.976V41.392H15.976V40.392ZM9.36 10.728V45H11.36V10.728H9.36ZM10.36 46H26.104V44H10.36V46ZM26.104 46C29.8527 46 32.9571 45.3131 35.2027 43.8161L34.0933 42.152C32.3069 43.3429 29.6513 44 26.104 44V46ZM35.2181 43.8056C37.8928 41.9496 39.2 39.0648 39.2 35.352H37.2C37.2 38.5512 36.1072 40.7544 34.0779 42.1624L35.2181 43.8056ZM39.2 35.352C39.2 32.8884 38.5836 30.7688 37.2927 29.1973L35.7473 30.4667C36.6644 31.5832 37.2 33.2076 37.2 35.352H39.2ZM37.2904 29.1944C35.9561 27.5822 34.0456 26.5783 31.6201 26.1138L31.2439 28.0782C33.3304 28.4777 34.7799 29.2978 35.7496 30.4696L37.2904 29.1944ZM31.7944 28.028C33.6535 27.305 35.1244 26.2922 36.1754 24.854L34.5606 23.674C33.7876 24.7318 32.6665 25.543 31.0696 26.164L31.7944 28.028ZM36.1955 24.8255C37.2342 23.2948 37.76 21.4611 37.76 19.368H35.76C35.76 21.1148 35.3258 22.5452 34.5405 23.7025L36.1955 24.8255ZM37.76 19.368C37.76 16.512 36.741 14.1622 34.7262 12.4196L33.4178 13.9324C34.955 15.2618 35.76 17.04 35.76 19.368H37.76ZM34.7196 12.4141C32.5626 10.5806 29.6153 9.728 26.056 9.728V11.728C29.3127 11.728 31.7414 12.5074 33.4244 13.9379L34.7196 12.4141ZM26.056 9.728H10.36V11.728H26.056V9.728ZM15.976 16.336H24.664V14.336H15.976V16.336ZM24.664 16.336C26.894 16.336 28.2677 16.7148 29.0678 17.2967L30.2442 15.6793C28.9323 14.7252 27.042 14.336 24.664 14.336V16.336ZM29.056 17.288C29.6944 17.7668 30.144 18.624 30.144 20.04H32.144C32.144 18.192 31.5376 16.6492 30.256 15.688L29.056 17.288ZM30.144 20.04C30.144 21.6202 29.6799 22.5953 29.0084 23.1661L30.3036 24.6899C31.5521 23.6287 32.144 22.0118 32.144 20.04H30.144ZM29.05 23.1326C28.3024 23.7021 26.8905 24.128 24.568 24.128V26.128C27.0455 26.128 28.9936 25.6899 30.262 24.7234L29.05 23.1326ZM24.568 24.128H15.976V26.128H24.568V24.128ZM16.976 25.128V15.336H14.976V25.128H16.976ZM15.976 30.736H25.432V28.736H15.976V30.736ZM25.432 30.736C27.8536 30.736 29.4118 31.1629 30.304 31.832L31.504 30.232C30.0922 29.1731 28.0024 28.736 25.432 28.736V30.736ZM30.2877 31.8195C31.0723 32.4335 31.584 33.482 31.584 35.256H33.584C33.584 33.094 32.9437 31.3585 31.5203 30.2445L30.2877 31.8195ZM31.584 35.256C31.584 36.0814 31.4197 36.7211 31.136 37.2265C30.8542 37.7284 30.4216 38.157 29.7897 38.5124L30.7703 40.2556C31.6744 39.747 32.3938 39.0716 32.88 38.2055C33.3643 37.3429 33.584 36.3506 33.584 35.256H31.584ZM29.7914 38.5115C28.8012 39.066 27.3151 39.392 25.288 39.392V41.392C27.4849 41.392 29.3588 41.046 30.7686 40.2565L29.7914 38.5115ZM25.288 39.392H15.976V41.392H25.288V39.392ZM16.976 40.392V29.736H14.976V40.392H16.976Z" fill="white" fill-opacity="0.63"/>
</g>
<defs>
<filter id="filter0_ddi_300_5848" x="0.359985" y="0.728027" width="47.84" height="54.272" filterUnits="userSpaceOnUse" color-interpolation-filters="sRGB">
<feFlood flood-opacity="0" result="BackgroundImageFix"/>
<feColorMatrix in="SourceAlpha" type="matrix" values="0 0 0 0 0 0 0 0 0 0 0 0 0 0 0 0 0 0 127 0" result="hardAlpha"/>
<feOffset dy="2"/>
<feGaussianBlur stdDeviation="2"/>
<feComposite in2="hardAlpha" operator="out"/>
<feColorMatrix type="matrix" values="0 0 0 0 0.207843 0 0 0 0 0.717647 0 0 0 0 0.545098 0 0 0 1 0"/>
<feBlend mode="normal" in2="BackgroundImageFix" result="effect1_dropShadow_300_5848"/>
<feColorMatrix in="SourceAlpha" type="matrix" values="0 0 0 0 0 0 0 0 0 0 0 0 0 0 0 0 0 0 127 0" result="hardAlpha"/>
<feOffset/>
<feGaussianBlur stdDeviation="5"/>
<feComposite in2="hardAlpha" operator="out"/>
<feColorMatrix type="matrix" values="0 0 0 0 0 0 0 0 0 0.448707 0 0 0 0 0.32929 0 0 0 1 0"/>
<feBlend mode="normal" in2="effect1_dropShadow_300_5848" result="effect2_dropShadow_300_5848"/>
<feBlend mode="normal" in="SourceGraphic" in2="effect2_dropShadow_300_5848" result="shape"/>
<feColorMatrix in="SourceAlpha" type="matrix" values="0 0 0 0 0 0 0 0 0 0 0 0 0 0 0 0 0 0 127 0" result="hardAlpha"/>
<feOffset dy="2"/>
<feGaussianBlur stdDeviation="1"/>
<feComposite in2="hardAlpha" operator="arithmetic" k2="-1" k3="1"/>
<feColorMatrix type="matrix" values="0 0 0 0 0.350149 0 0 0 0 0.813076 0 0 0 0 0.617714 0 0 0 1 0"/>
<feBlend mode="normal" in2="shape" result="effect3_innerShadow_300_5848"/>
</filter>
</defs>
</svg>
